<?xml version="1.0" encoding="UTF-8" standalone="no"?>
<svg xmlns="http://www.w3.org/2000/svg"
     xmlns:xlink="http://www.w3.org/1999/xlink"
     width="642px" height="636px" viewBox="0 0 642 636">
<title>dirs4</title>
<desc>
Creator: GL2PS 1.3.9, (C) 1999-2015 C. Geuzaine
For: Gmsh
CreationDate: Sat Jan 16 11:14:38 2016
</desc>
  <defs>
    <marker
       orient='auto'
       refY='0'
       refX='0'
       id='Arrow2Mend'
       style='overflow:visible'>
      <path
         id='path3864'
         fill='#3333cc'
         style='fill-rule:evenodd;stroke-width:0.625;stroke-linejoin:round'
         d='M 8.7185878,4.0337352 -2.2072895,0.01601326 8.7185884,-4.0017078 c -1.7454984,2.3720609 -1.7354408,5.6174519 -6e-7,8.035443 z'
         transform='scale(-0.6,-0.6)' />
    </marker></defs>
<defs>
</defs>
<g shape-rendering="crispEdges">
<circle fill="#5a5a5a" cx="321" cy="318" r="0.5"/>
<circle fill="#5a5a5a" cx="262.734" cy="345.798" r="0.5"/>
<circle fill="#5a5a5a" cx="481.083" cy="328.118" r="0.5"/>
<circle fill="#5a5a5a" cx="321" cy="150.231" r="0.5"/>
<circle fill="#5a5a5a" cx="379.266" cy="290.202" r="0.5"/>
<circle fill="#5a5a5a" cx="160.917" cy="307.882" r="0.5"/>
<circle fill="#5a5a5a" cx="321" cy="485.769" r="0.5"/>
<circle fill="#5a5a5a" cx="350.699" cy="207.582" r="0.5"/>
<circle fill="#5a5a5a" cx="419.917" cy="284.499" r="0.5"/>
<circle fill="#5a5a5a" cx="325.505" cy="292.144" r="0.5"/>
<circle fill="#5a5a5a" cx="384.689" cy="191.365" r="0.5"/>
<circle fill="#5a5a5a" cx="453.908" cy="268.282" r="0.5"/>
<circle fill="#5a5a5a" cx="409.882" cy="251.888" r="0.5"/>
<circle fill="#5a5a5a" cx="257.311" cy="201.68" r="0.5"/>
<circle fill="#5a5a5a" cx="188.092" cy="269.847" r="0.5"/>
<circle fill="#5a5a5a" cx="232.118" cy="286.241" r="0.5"/>
<circle fill="#5a5a5a" cx="291.301" cy="185.463" r="0.5"/>
<circle fill="#5a5a5a" cx="222.083" cy="253.63" r="0.5"/>
<circle fill="#5a5a5a" cx="316.495" cy="245.985" r="0.5"/>
<circle fill="#5a5a5a" cx="350.699" cy="450.537" r="0.5"/>
<circle fill="#5a5a5a" cx="419.917" cy="382.37" r="0.5"/>
<circle fill="#5a5a5a" cx="325.505" cy="390.015" r="0.5"/>
<circle fill="#5a5a5a" cx="384.689" cy="434.32" r="0.5"/>
<circle fill="#5a5a5a" cx="453.908" cy="366.153" r="0.5"/>
<circle fill="#5a5a5a" cx="409.882" cy="349.759" r="0.5"/>
<circle fill="#5a5a5a" cx="257.311" cy="444.635" r="0.5"/>
<circle fill="#5a5a5a" cx="188.092" cy="367.718" r="0.5"/>
<circle fill="#5a5a5a" cx="232.118" cy="384.112" r="0.5"/>
<circle fill="#5a5a5a" cx="291.301" cy="428.418" r="0.5"/>
<circle fill="#5a5a5a" cx="222.083" cy="351.501" r="0.5"/>
<circle fill="#5a5a5a" cx="316.495" cy="343.856" r="0.5"/>
<polyline fill="none" stroke="#000000" stroke-width="3" points="321,318 262.734,345.798"/>
<polyline fill="none" stroke="#000000" stroke-width="3" points="321,318 379.266,290.202"/>
<polyline fill="none" stroke="#000000" stroke-width="3" points="321,318 481.083,328.118"/>
<polyline fill="none" stroke="#000000" stroke-width="3" points="321,318 160.917,307.882"/>
<polyline fill="none" stroke="#000000" stroke-width="3" points="321,318 321,150.231"/>
<polyline fill="none" stroke="#000000" stroke-width="3" points="321,318 321,485.769"/>
<polyline fill="none" stroke="#3333cc" stroke-width="2" style="marker-end:url(#Arrow2Mend)" points="321,318 350.699,207.582"/>
<polyline fill="none" stroke="#3333cc" stroke-width="2" style="marker-end:url(#Arrow2Mend)" points="321,318 419.917,284.499"/>
<polyline fill="none" stroke="#3333cc" stroke-width="2" style="marker-end:url(#Arrow2Mend)" points="321,318 325.505,292.144"/>
<polyline fill="none" stroke="#3333cc" stroke-width="2" style="marker-end:url(#Arrow2Mend)" points="321,318 384.689,191.365"/>
<polyline fill="none" stroke="#3333cc" stroke-width="2" style="marker-end:url(#Arrow2Mend)" points="321,318 453.908,268.282"/>
<polyline fill="none" stroke="#3333cc" stroke-width="2" style="marker-end:url(#Arrow2Mend)" points="321,318 409.882,251.888"/>
<polyline fill="none" stroke="#3333cc" stroke-width="2" style="marker-end:url(#Arrow2Mend)" points="321,318 257.311,201.68"/>
<polyline fill="none" stroke="#3333cc" stroke-width="2" style="marker-end:url(#Arrow2Mend)" points="321,318 188.092,269.847"/>
<polyline fill="none" stroke="#3333cc" stroke-width="2" style="marker-end:url(#Arrow2Mend)" points="321,318 232.118,286.241"/>
<polyline fill="none" stroke="#3333cc" stroke-width="2" style="marker-end:url(#Arrow2Mend)" points="321,318 291.301,185.463"/>
<polyline fill="none" stroke="#3333cc" stroke-width="2" style="marker-end:url(#Arrow2Mend)" points="321,318 222.083,253.63"/>
<polyline fill="none" stroke="#3333cc" stroke-width="2" style="marker-end:url(#Arrow2Mend)" points="321,318 316.495,245.985"/>
<polyline fill="none" stroke="#3333cc" stroke-width="2" style="marker-end:url(#Arrow2Mend)" points="321,318 350.699,450.537"/>
<polyline fill="none" stroke="#3333cc" stroke-width="2" style="marker-end:url(#Arrow2Mend)" points="321,318 419.917,382.37"/>
<polyline fill="none" stroke="#3333cc" stroke-width="2" style="marker-end:url(#Arrow2Mend)" points="321,318 325.505,390.015"/>
<polyline fill="none" stroke="#3333cc" stroke-width="2" style="marker-end:url(#Arrow2Mend)" points="321,318 384.689,434.32"/>
<polyline fill="none" stroke="#3333cc" stroke-width="2" style="marker-end:url(#Arrow2Mend)" points="321,318 453.908,366.153"/>
<polyline fill="none" stroke="#3333cc" stroke-width="2" style="marker-end:url(#Arrow2Mend)" points="321,318 409.882,349.759"/>
<polyline fill="none" stroke="#3333cc" stroke-width="2" style="marker-end:url(#Arrow2Mend)" points="321,318 257.311,444.635"/>
<polyline fill="none" stroke="#3333cc" stroke-width="2" style="marker-end:url(#Arrow2Mend)" points="321,318 188.092,367.718"/>
<polyline fill="none" stroke="#3333cc" stroke-width="2" style="marker-end:url(#Arrow2Mend)" points="321,318 232.118,384.112"/>
<polyline fill="none" stroke="#3333cc" stroke-width="2" style="marker-end:url(#Arrow2Mend)" points="321,318 291.301,428.418"/>
<polyline fill="none" stroke="#3333cc" stroke-width="2" style="marker-end:url(#Arrow2Mend)" points="321,318 222.083,351.501"/>
<polyline fill="none" stroke="#3333cc" stroke-width="2" style="marker-end:url(#Arrow2Mend)" points="321,318 316.495,343.856"/>
<text fill="#000000" x="249.807" y="346.956" font-size="15" text-anchor="start" baseline-shift="0" font-family="Times" font-style="italic">x+</text>
<text fill="#000000" x="470.583" y="328.118" font-size="15" text-anchor="start" baseline-shift="0" font-family="Times" font-style="italic">y+</text>
<text fill="#000000" x="310.5" y="143.241" font-size="15" text-anchor="start" baseline-shift="0" font-family="Times" font-style="italic">z+</text>
<text fill="#000000" x="375.193" y="289.044" font-size="15" text-anchor="start" baseline-shift="0" font-family="Times" font-style="italic">x-</text>
<text fill="#000000" x="154.417" y="307.882" font-size="15" text-anchor="start" baseline-shift="0" font-family="Times" font-style="italic">y-</text>
<text fill="#000000" x="314.5" y="492.759" font-size="15" text-anchor="start" baseline-shift="0" font-family="Times" font-style="italic">z-</text>
<text fill="#000000" x="350.848" y="203.541" font-size="15" text-anchor="start" baseline-shift="0" font-family="Times" font-style="italic">1</text>
<text fill="#000000" x="420.067" y="280.457" font-size="15" text-anchor="start" baseline-shift="0" font-family="Times" font-style="italic">2</text>
<text fill="#000000" x="325.655" y="288.102" font-size="15" text-anchor="start" baseline-shift="0" font-family="Times" font-style="italic">3</text>
<text fill="#000000" x="394.55" y="182.691" font-size="15" text-anchor="start" baseline-shift="0" font-family="Times" font-style="italic">4</text>
<text fill="#000000" x="463.768" y="259.608" font-size="15" text-anchor="start" baseline-shift="0" font-family="Times" font-style="italic">5</text>
<text fill="#000000" x="419.743" y="243.213" font-size="15" text-anchor="start" baseline-shift="0" font-family="Times" font-style="italic">6</text>
<text fill="#000000" x="237.45" y="196.374" font-size="15" text-anchor="start" baseline-shift="0" font-family="Times" font-style="italic">7</text>
<text fill="#000000" x="168.232" y="264.54" font-size="15" text-anchor="start" baseline-shift="0" font-family="Times" font-style="italic">8</text>
<text fill="#000000" x="212.257" y="280.935" font-size="15" text-anchor="start" baseline-shift="0" font-family="Times" font-style="italic">9</text>
<text fill="#000000" x="276.152" y="175.524" font-size="15" text-anchor="start" baseline-shift="0" font-family="Times" font-style="italic">10</text>
<text fill="#000000" x="206.933" y="243.691" font-size="15" text-anchor="start" baseline-shift="0" font-family="Times" font-style="italic">11</text>
<text fill="#000000" x="301.345" y="236.046" font-size="15" text-anchor="start" baseline-shift="0" font-family="Times" font-style="italic">12</text>
<text fill="#000000" x="345.848" y="460.476" font-size="15" text-anchor="start" baseline-shift="0" font-family="Times" font-style="italic">13</text>
<text fill="#000000" x="415.067" y="392.309" font-size="15" text-anchor="start" baseline-shift="0" font-family="Times" font-style="italic">14</text>
<text fill="#000000" x="320.655" y="399.954" font-size="15" text-anchor="start" baseline-shift="0" font-family="Times" font-style="italic">15</text>
<text fill="#000000" x="389.55" y="439.626" font-size="15" text-anchor="start" baseline-shift="0" font-family="Times" font-style="italic">16</text>
<text fill="#000000" x="458.768" y="371.46" font-size="15" text-anchor="start" baseline-shift="0" font-family="Times" font-style="italic">17</text>
<text fill="#000000" x="414.743" y="355.065" font-size="15" text-anchor="start" baseline-shift="0" font-family="Times" font-style="italic">18</text>
<text fill="#000000" x="232.45" y="453.309" font-size="15" text-anchor="start" baseline-shift="0" font-family="Times" font-style="italic">19</text>
<text fill="#000000" x="163.232" y="376.392" font-size="15" text-anchor="start" baseline-shift="0" font-family="Times" font-style="italic">20</text>
<text fill="#000000" x="207.257" y="392.787" font-size="15" text-anchor="start" baseline-shift="0" font-family="Times" font-style="italic">21</text>
<text fill="#000000" x="276.152" y="432.459" font-size="15" text-anchor="start" baseline-shift="0" font-family="Times" font-style="italic">22</text>
<text fill="#000000" x="206.933" y="355.543" font-size="15" text-anchor="start" baseline-shift="0" font-family="Times" font-style="italic">23</text>
<text fill="#000000" x="301.345" y="347.898" font-size="15" text-anchor="start" baseline-shift="0" font-family="Times" font-style="italic">24</text>
</g>
</svg>
