<?xml version="1.0" encoding="UTF-8" standalone="no"?>
<svg xmlns="http://www.w3.org/2000/svg"
     xmlns:xlink="http://www.w3.org/1999/xlink"
     width="642px" height="636px" viewBox="0 0 642 636">
<title>dirs2</title>
<desc>
Creator: GL2PS 1.3.9, (C) 1999-2015 C. Geuzaine
For: Gmsh
CreationDate: Sat Jan 16 11:14:19 2016
</desc>
<defs>
</defs>
<g shape-rendering="crispEdges">
<circle fill="#5a5a5a" cx="321" cy="318" r="0.5"/>
<circle fill="#5a5a5a" cx="262.734" cy="345.798" r="0.5"/>
<circle fill="#5a5a5a" cx="481.083" cy="328.118" r="0.5"/>
<circle fill="#5a5a5a" cx="321" cy="150.231" r="0.5"/>
<circle fill="#5a5a5a" cx="379.266" cy="290.202" r="0.5"/>
<circle fill="#5a5a5a" cx="160.917" cy="307.882" r="0.5"/>
<circle fill="#5a5a5a" cx="321" cy="485.769" r="0.5"/>
<circle fill="#5a5a5a" cx="369.987" cy="255.524" r="0.5"/>
<circle fill="#5a5a5a" cx="426.053" cy="228.776" r="0.5"/>
<circle fill="#5a5a5a" cx="215.947" cy="245.789" r="0.5"/>
<circle fill="#5a5a5a" cx="272.013" cy="219.04" r="0.5"/>
<circle fill="#5a5a5a" cx="369.987" cy="416.96" r="0.5"/>
<circle fill="#5a5a5a" cx="426.053" cy="390.211" r="0.5"/>
<circle fill="#5a5a5a" cx="215.947" cy="407.224" r="0.5"/>
<circle fill="#5a5a5a" cx="272.013" cy="380.476" r="0.5"/>
<polyline fill="none" stroke="#0000ff" stroke-width="2" points="321,318 262.734,345.798"/>
<polyline fill="none" stroke="#0000ff" stroke-width="2" points="321,318 379.266,290.202"/>
<polyline fill="none" stroke="#0000ff" stroke-width="2" points="321,318 481.083,328.118"/>
<polyline fill="none" stroke="#0000ff" stroke-width="2" points="321,318 160.917,307.882"/>
<polyline fill="none" stroke="#0000ff" stroke-width="2" points="321,318 321,150.231"/>
<polyline fill="none" stroke="#0000ff" stroke-width="2" points="321,318 321,485.769"/>
<polyline fill="none" stroke="#0000ff" stroke-width="2" points="321,318 369.987,255.524"/>
<polyline fill="none" stroke="#0000ff" stroke-width="2" points="321,318 426.053,228.776"/>
<polyline fill="none" stroke="#0000ff" stroke-width="2" points="321,318 215.947,245.789"/>
<polyline fill="none" stroke="#0000ff" stroke-width="2" points="321,318 272.013,219.04"/>
<polyline fill="none" stroke="#0000ff" stroke-width="2" points="321,318 369.987,416.96"/>
<polyline fill="none" stroke="#0000ff" stroke-width="2" points="321,318 426.053,390.211"/>
<polyline fill="none" stroke="#0000ff" stroke-width="2" points="321,318 215.947,407.224"/>
<polyline fill="none" stroke="#0000ff" stroke-width="2" points="321,318 272.013,380.476"/>
<text fill="#000000" x="249.807" y="346.956" font-size="15" text-anchor="start" baseline-shift="0" font-family="Times" font-style="italic">x+</text>
<text fill="#000000" x="470.583" y="328.118" font-size="15" text-anchor="start" baseline-shift="0" font-family="Times" font-style="italic">y+</text>
<text fill="#000000" x="310.5" y="143.241" font-size="15" text-anchor="start" baseline-shift="0" font-family="Times" font-style="italic">z+</text>
<text fill="#000000" x="375.193" y="289.044" font-size="15" text-anchor="start" baseline-shift="0" font-family="Times" font-style="italic">x-</text>
<text fill="#000000" x="154.417" y="307.882" font-size="15" text-anchor="start" baseline-shift="0" font-family="Times" font-style="italic">y-</text>
<text fill="#000000" x="314.5" y="492.759" font-size="15" text-anchor="start" baseline-shift="0" font-family="Times" font-style="italic">z-</text>
<text fill="#000000" x="370.137" y="251.483" font-size="15" text-anchor="start" baseline-shift="0" font-family="Times" font-style="italic">1</text>
<text fill="#000000" x="435.914" y="220.101" font-size="15" text-anchor="start" baseline-shift="0" font-family="Times" font-style="italic">2</text>
<text fill="#000000" x="196.086" y="240.482" font-size="15" text-anchor="start" baseline-shift="0" font-family="Times" font-style="italic">3</text>
<text fill="#000000" x="261.863" y="209.101" font-size="15" text-anchor="start" baseline-shift="0" font-family="Times" font-style="italic">4</text>
<text fill="#000000" x="370.137" y="426.899" font-size="15" text-anchor="start" baseline-shift="0" font-family="Times" font-style="italic">5</text>
<text fill="#000000" x="435.914" y="395.518" font-size="15" text-anchor="start" baseline-shift="0" font-family="Times" font-style="italic">6</text>
<text fill="#000000" x="196.086" y="415.899" font-size="15" text-anchor="start" baseline-shift="0" font-family="Times" font-style="italic">7</text>
<text fill="#000000" x="261.863" y="384.517" font-size="15" text-anchor="start" baseline-shift="0" font-family="Times" font-style="italic">8</text>
</g>
</svg>
