<?xml version="1.0" encoding="UTF-8" standalone="no"?>
<svg xmlns="http://www.w3.org/2000/svg"
     xmlns:xlink="http://www.w3.org/1999/xlink"
     width="642px" height="636px" viewBox="0 0 642 636">
<title>dirs6</title>
<desc>
Creator: GL2PS 1.3.9, (C) 1999-2015 C. Geuzaine
For: Gmsh
CreationDate: Sat Jan 16 11:14:40 2016
</desc>
<defs>
</defs>
<g shape-rendering="crispEdges">
<circle fill="#5a5a5a" cx="321" cy="318" r="0.5"/>
<circle fill="#5a5a5a" cx="262.734" cy="345.798" r="0.5"/>
<circle fill="#5a5a5a" cx="481.083" cy="328.118" r="0.5"/>
<circle fill="#5a5a5a" cx="321" cy="150.231" r="0.5"/>
<circle fill="#5a5a5a" cx="379.266" cy="290.202" r="0.5"/>
<circle fill="#5a5a5a" cx="160.917" cy="307.882" r="0.5"/>
<circle fill="#5a5a5a" cx="321" cy="485.769" r="0.5"/>
<circle fill="#5a5a5a" cx="343.624" cy="196.938" r="0.5"/>
<circle fill="#5a5a5a" cx="398.969" cy="234.643" r="0.5"/>
<circle fill="#5a5a5a" cx="323.48" cy="240.755" r="0.5"/>
<circle fill="#5a5a5a" cx="378.825" cy="302.256" r="0.5"/>
<circle fill="#5a5a5a" cx="311.6" cy="304.426" r="0.5"/>
<circle fill="#5a5a5a" cx="431.609" cy="294.708" r="0.5"/>
<circle fill="#5a5a5a" cx="369.516" cy="184.584" r="0.5"/>
<circle fill="#5a5a5a" cx="424.861" cy="222.29" r="0.5"/>
<circle fill="#5a5a5a" cx="389.66" cy="209.181" r="0.5"/>
<circle fill="#5a5a5a" cx="445.005" cy="270.681" r="0.5"/>
<circle fill="#5a5a5a" cx="401.54" cy="261.515" r="0.5"/>
<circle fill="#5a5a5a" cx="457.502" cy="282.355" r="0.5"/>
<circle fill="#5a5a5a" cx="272.484" cy="192.441" r="0.5"/>
<circle fill="#5a5a5a" cx="217.139" cy="223.151" r="0.5"/>
<circle fill="#5a5a5a" cx="252.34" cy="236.259" r="0.5"/>
<circle fill="#5a5a5a" cx="196.995" cy="290.763" r="0.5"/>
<circle fill="#5a5a5a" cx="240.46" cy="299.929" r="0.5"/>
<circle fill="#5a5a5a" cx="184.498" cy="279.09" r="0.5"/>
<circle fill="#5a5a5a" cx="298.376" cy="180.088" r="0.5"/>
<circle fill="#5a5a5a" cx="243.031" cy="210.797" r="0.5"/>
<circle fill="#5a5a5a" cx="318.52" cy="204.685" r="0.5"/>
<circle fill="#5a5a5a" cx="263.175" cy="259.189" r="0.5"/>
<circle fill="#5a5a5a" cx="330.4" cy="257.019" r="0.5"/>
<circle fill="#5a5a5a" cx="210.391" cy="266.737" r="0.5"/>
<circle fill="#5a5a5a" cx="343.624" cy="455.912" r="0.5"/>
<circle fill="#5a5a5a" cx="398.969" cy="425.203" r="0.5"/>
<circle fill="#5a5a5a" cx="323.48" cy="431.315" r="0.5"/>
<circle fill="#5a5a5a" cx="378.825" cy="376.811" r="0.5"/>
<circle fill="#5a5a5a" cx="311.6" cy="378.981" r="0.5"/>
<circle fill="#5a5a5a" cx="431.609" cy="369.263" r="0.5"/>
<circle fill="#5a5a5a" cx="369.516" cy="443.559" r="0.5"/>
<circle fill="#5a5a5a" cx="424.861" cy="412.849" r="0.5"/>
<circle fill="#5a5a5a" cx="389.66" cy="399.741" r="0.5"/>
<circle fill="#5a5a5a" cx="445.005" cy="345.237" r="0.5"/>
<circle fill="#5a5a5a" cx="401.54" cy="336.071" r="0.5"/>
<circle fill="#5a5a5a" cx="457.502" cy="356.91" r="0.5"/>
<circle fill="#5a5a5a" cx="272.484" cy="451.416" r="0.5"/>
<circle fill="#5a5a5a" cx="217.139" cy="413.71" r="0.5"/>
<circle fill="#5a5a5a" cx="252.34" cy="426.819" r="0.5"/>
<circle fill="#5a5a5a" cx="196.995" cy="365.319" r="0.5"/>
<circle fill="#5a5a5a" cx="240.46" cy="374.485" r="0.5"/>
<circle fill="#5a5a5a" cx="184.498" cy="353.645" r="0.5"/>
<circle fill="#5a5a5a" cx="298.376" cy="439.062" r="0.5"/>
<circle fill="#5a5a5a" cx="243.031" cy="401.357" r="0.5"/>
<circle fill="#5a5a5a" cx="318.52" cy="395.245" r="0.5"/>
<circle fill="#5a5a5a" cx="263.175" cy="333.744" r="0.5"/>
<circle fill="#5a5a5a" cx="330.4" cy="331.574" r="0.5"/>
<circle fill="#5a5a5a" cx="210.391" cy="341.292" r="0.5"/>
<polyline fill="none" stroke="#0000ff" stroke-width="2" points="321,318 262.734,345.798"/>
<polyline fill="none" stroke="#0000ff" stroke-width="2" points="321,318 379.266,290.202"/>
<polyline fill="none" stroke="#0000ff" stroke-width="2" points="321,318 481.083,328.118"/>
<polyline fill="none" stroke="#0000ff" stroke-width="2" points="321,318 160.917,307.882"/>
<polyline fill="none" stroke="#0000ff" stroke-width="2" points="321,318 321,150.231"/>
<polyline fill="none" stroke="#0000ff" stroke-width="2" points="321,318 321,485.769"/>
<polyline fill="none" stroke="#0000ff" stroke-width="2" points="321,318 343.624,196.938"/>
<polyline fill="none" stroke="#0000ff" stroke-width="2" points="321,318 398.969,234.643"/>
<polyline fill="none" stroke="#0000ff" stroke-width="2" points="321,318 323.48,240.755"/>
<polyline fill="none" stroke="#0000ff" stroke-width="2" points="321,318 378.825,302.256"/>
<polyline fill="none" stroke="#0000ff" stroke-width="2" points="321,318 311.6,304.426"/>
<polyline fill="none" stroke="#0000ff" stroke-width="2" points="321,318 431.609,294.708"/>
<polyline fill="none" stroke="#0000ff" stroke-width="2" points="321,318 369.516,184.584"/>
<polyline fill="none" stroke="#0000ff" stroke-width="2" points="321,318 424.861,222.29"/>
<polyline fill="none" stroke="#0000ff" stroke-width="2" points="321,318 389.66,209.181"/>
<polyline fill="none" stroke="#0000ff" stroke-width="2" points="321,318 445.005,270.681"/>
<polyline fill="none" stroke="#0000ff" stroke-width="2" points="321,318 401.54,261.515"/>
<polyline fill="none" stroke="#0000ff" stroke-width="2" points="321,318 457.502,282.355"/>
<polyline fill="none" stroke="#0000ff" stroke-width="2" points="321,318 272.484,192.441"/>
<polyline fill="none" stroke="#0000ff" stroke-width="2" points="321,318 217.139,223.151"/>
<polyline fill="none" stroke="#0000ff" stroke-width="2" points="321,318 252.34,236.259"/>
<polyline fill="none" stroke="#0000ff" stroke-width="2" points="321,318 196.995,290.763"/>
<polyline fill="none" stroke="#0000ff" stroke-width="2" points="321,318 240.46,299.929"/>
<polyline fill="none" stroke="#0000ff" stroke-width="2" points="321,318 184.498,279.09"/>
<polyline fill="none" stroke="#0000ff" stroke-width="2" points="321,318 298.376,180.088"/>
<polyline fill="none" stroke="#0000ff" stroke-width="2" points="321,318 243.031,210.797"/>
<polyline fill="none" stroke="#0000ff" stroke-width="2" points="321,318 318.52,204.685"/>
<polyline fill="none" stroke="#0000ff" stroke-width="2" points="321,318 263.175,259.189"/>
<polyline fill="none" stroke="#0000ff" stroke-width="2" points="321,318 330.4,257.019"/>
<polyline fill="none" stroke="#0000ff" stroke-width="2" points="321,318 210.391,266.737"/>
<polyline fill="none" stroke="#0000ff" stroke-width="2" points="321,318 343.624,455.912"/>
<polyline fill="none" stroke="#0000ff" stroke-width="2" points="321,318 398.969,425.203"/>
<polyline fill="none" stroke="#0000ff" stroke-width="2" points="321,318 323.48,431.315"/>
<polyline fill="none" stroke="#0000ff" stroke-width="2" points="321,318 378.825,376.811"/>
<polyline fill="none" stroke="#0000ff" stroke-width="2" points="321,318 311.6,378.981"/>
<polyline fill="none" stroke="#0000ff" stroke-width="2" points="321,318 431.609,369.263"/>
<polyline fill="none" stroke="#0000ff" stroke-width="2" points="321,318 369.516,443.559"/>
<polyline fill="none" stroke="#0000ff" stroke-width="2" points="321,318 424.861,412.849"/>
<polyline fill="none" stroke="#0000ff" stroke-width="2" points="321,318 389.66,399.741"/>
<polyline fill="none" stroke="#0000ff" stroke-width="2" points="321,318 445.005,345.237"/>
<polyline fill="none" stroke="#0000ff" stroke-width="2" points="321,318 401.54,336.071"/>
<polyline fill="none" stroke="#0000ff" stroke-width="2" points="321,318 457.502,356.91"/>
<polyline fill="none" stroke="#0000ff" stroke-width="2" points="321,318 272.484,451.416"/>
<polyline fill="none" stroke="#0000ff" stroke-width="2" points="321,318 217.139,413.71"/>
<polyline fill="none" stroke="#0000ff" stroke-width="2" points="321,318 252.34,426.819"/>
<polyline fill="none" stroke="#0000ff" stroke-width="2" points="321,318 196.995,365.319"/>
<polyline fill="none" stroke="#0000ff" stroke-width="2" points="321,318 240.46,374.485"/>
<polyline fill="none" stroke="#0000ff" stroke-width="2" points="321,318 184.498,353.645"/>
<polyline fill="none" stroke="#0000ff" stroke-width="2" points="321,318 298.376,439.062"/>
<polyline fill="none" stroke="#0000ff" stroke-width="2" points="321,318 243.031,401.357"/>
<polyline fill="none" stroke="#0000ff" stroke-width="2" points="321,318 318.52,395.245"/>
<polyline fill="none" stroke="#0000ff" stroke-width="2" points="321,318 263.175,333.744"/>
<polyline fill="none" stroke="#0000ff" stroke-width="2" points="321,318 330.4,331.574"/>
<polyline fill="none" stroke="#0000ff" stroke-width="2" points="321,318 210.391,341.292"/>
<text fill="#000000" x="249.807" y="346.956" font-size="15" text-anchor="start" baseline-shift="0" font-family="Times" font-style="italic">x+</text>
<text fill="#000000" x="470.583" y="328.118" font-size="15" text-anchor="start" baseline-shift="0" font-family="Times" font-style="italic">y+</text>
<text fill="#000000" x="310.5" y="143.241" font-size="15" text-anchor="start" baseline-shift="0" font-family="Times" font-style="italic">z+</text>
<text fill="#000000" x="375.193" y="289.044" font-size="15" text-anchor="start" baseline-shift="0" font-family="Times" font-style="italic">x-</text>
<text fill="#000000" x="154.417" y="307.882" font-size="15" text-anchor="start" baseline-shift="0" font-family="Times" font-style="italic">y-</text>
<text fill="#000000" x="314.5" y="492.759" font-size="15" text-anchor="start" baseline-shift="0" font-family="Times" font-style="italic">z-</text>
<text fill="#000000" x="343.773" y="192.896" font-size="15" text-anchor="start" baseline-shift="0" font-family="Times" font-style="italic">1</text>
<text fill="#000000" x="399.118" y="230.601" font-size="15" text-anchor="start" baseline-shift="0" font-family="Times" font-style="italic">2</text>
<text fill="#000000" x="323.629" y="236.714" font-size="15" text-anchor="start" baseline-shift="0" font-family="Times" font-style="italic">3</text>
<text fill="#000000" x="378.974" y="298.214" font-size="15" text-anchor="start" baseline-shift="0" font-family="Times" font-style="italic">4</text>
<text fill="#000000" x="311.749" y="300.384" font-size="15" text-anchor="start" baseline-shift="0" font-family="Times" font-style="italic">5</text>
<text fill="#000000" x="431.758" y="290.667" font-size="15" text-anchor="start" baseline-shift="0" font-family="Times" font-style="italic">6</text>
<text fill="#000000" x="379.377" y="175.91" font-size="15" text-anchor="start" baseline-shift="0" font-family="Times" font-style="italic">7</text>
<text fill="#000000" x="434.722" y="213.615" font-size="15" text-anchor="start" baseline-shift="0" font-family="Times" font-style="italic">8</text>
<text fill="#000000" x="399.521" y="200.506" font-size="15" text-anchor="start" baseline-shift="0" font-family="Times" font-style="italic">9</text>
<text fill="#000000" x="449.866" y="262.007" font-size="15" text-anchor="start" baseline-shift="0" font-family="Times" font-style="italic">10</text>
<text fill="#000000" x="406.401" y="252.841" font-size="15" text-anchor="start" baseline-shift="0" font-family="Times" font-style="italic">11</text>
<text fill="#000000" x="462.362" y="273.68" font-size="15" text-anchor="start" baseline-shift="0" font-family="Times" font-style="italic">12</text>
<text fill="#000000" x="247.623" y="187.135" font-size="15" text-anchor="start" baseline-shift="0" font-family="Times" font-style="italic">13</text>
<text fill="#000000" x="192.278" y="217.844" font-size="15" text-anchor="start" baseline-shift="0" font-family="Times" font-style="italic">14</text>
<text fill="#000000" x="227.479" y="230.953" font-size="15" text-anchor="start" baseline-shift="0" font-family="Times" font-style="italic">15</text>
<text fill="#000000" x="172.134" y="285.457" font-size="15" text-anchor="start" baseline-shift="0" font-family="Times" font-style="italic">16</text>
<text fill="#000000" x="215.599" y="294.623" font-size="15" text-anchor="start" baseline-shift="0" font-family="Times" font-style="italic">17</text>
<text fill="#000000" x="159.638" y="273.784" font-size="15" text-anchor="start" baseline-shift="0" font-family="Times" font-style="italic">18</text>
<text fill="#000000" x="283.227" y="170.149" font-size="15" text-anchor="start" baseline-shift="0" font-family="Times" font-style="italic">19</text>
<text fill="#000000" x="227.882" y="200.858" font-size="15" text-anchor="start" baseline-shift="0" font-family="Times" font-style="italic">20</text>
<text fill="#000000" x="303.371" y="194.745" font-size="15" text-anchor="start" baseline-shift="0" font-family="Times" font-style="italic">21</text>
<text fill="#000000" x="248.026" y="249.25" font-size="15" text-anchor="start" baseline-shift="0" font-family="Times" font-style="italic">22</text>
<text fill="#000000" x="315.251" y="247.08" font-size="15" text-anchor="start" baseline-shift="0" font-family="Times" font-style="italic">23</text>
<text fill="#000000" x="195.242" y="256.797" font-size="15" text-anchor="start" baseline-shift="0" font-family="Times" font-style="italic">24</text>
<text fill="#000000" x="338.773" y="465.851" font-size="15" text-anchor="start" baseline-shift="0" font-family="Times" font-style="italic">25</text>
<text fill="#000000" x="394.118" y="435.142" font-size="15" text-anchor="start" baseline-shift="0" font-family="Times" font-style="italic">26</text>
<text fill="#000000" x="318.629" y="441.255" font-size="15" text-anchor="start" baseline-shift="0" font-family="Times" font-style="italic">27</text>
<text fill="#000000" x="373.974" y="386.75" font-size="15" text-anchor="start" baseline-shift="0" font-family="Times" font-style="italic">28</text>
<text fill="#000000" x="306.749" y="388.92" font-size="15" text-anchor="start" baseline-shift="0" font-family="Times" font-style="italic">29</text>
<text fill="#000000" x="426.758" y="379.203" font-size="15" text-anchor="start" baseline-shift="0" font-family="Times" font-style="italic">30</text>
<text fill="#000000" x="374.377" y="448.865" font-size="15" text-anchor="start" baseline-shift="0" font-family="Times" font-style="italic">31</text>
<text fill="#000000" x="429.722" y="418.156" font-size="15" text-anchor="start" baseline-shift="0" font-family="Times" font-style="italic">32</text>
<text fill="#000000" x="394.521" y="405.047" font-size="15" text-anchor="start" baseline-shift="0" font-family="Times" font-style="italic">33</text>
<text fill="#000000" x="449.866" y="350.543" font-size="15" text-anchor="start" baseline-shift="0" font-family="Times" font-style="italic">34</text>
<text fill="#000000" x="406.401" y="341.377" font-size="15" text-anchor="start" baseline-shift="0" font-family="Times" font-style="italic">35</text>
<text fill="#000000" x="462.362" y="362.216" font-size="15" text-anchor="start" baseline-shift="0" font-family="Times" font-style="italic">36</text>
<text fill="#000000" x="247.623" y="460.09" font-size="15" text-anchor="start" baseline-shift="0" font-family="Times" font-style="italic">37</text>
<text fill="#000000" x="192.278" y="422.385" font-size="15" text-anchor="start" baseline-shift="0" font-family="Times" font-style="italic">38</text>
<text fill="#000000" x="227.479" y="435.494" font-size="15" text-anchor="start" baseline-shift="0" font-family="Times" font-style="italic">39</text>
<text fill="#000000" x="172.134" y="373.993" font-size="15" text-anchor="start" baseline-shift="0" font-family="Times" font-style="italic">40</text>
<text fill="#000000" x="215.599" y="383.159" font-size="15" text-anchor="start" baseline-shift="0" font-family="Times" font-style="italic">41</text>
<text fill="#000000" x="159.638" y="362.32" font-size="15" text-anchor="start" baseline-shift="0" font-family="Times" font-style="italic">42</text>
<text fill="#000000" x="283.227" y="443.104" font-size="15" text-anchor="start" baseline-shift="0" font-family="Times" font-style="italic">43</text>
<text fill="#000000" x="227.882" y="405.399" font-size="15" text-anchor="start" baseline-shift="0" font-family="Times" font-style="italic">44</text>
<text fill="#000000" x="303.371" y="399.286" font-size="15" text-anchor="start" baseline-shift="0" font-family="Times" font-style="italic">45</text>
<text fill="#000000" x="248.026" y="337.786" font-size="15" text-anchor="start" baseline-shift="0" font-family="Times" font-style="italic">46</text>
<text fill="#000000" x="315.251" y="335.616" font-size="15" text-anchor="start" baseline-shift="0" font-family="Times" font-style="italic">47</text>
<text fill="#000000" x="195.242" y="345.333" font-size="15" text-anchor="start" baseline-shift="0" font-family="Times" font-style="italic">48</text>
</g>
</svg>
