<?xml version="1.0" encoding="UTF-8" standalone="no"?>
<svg xmlns="http://www.w3.org/2000/svg"
     xmlns:xlink="http://www.w3.org/1999/xlink"
     width="1161px" height="879px" viewBox="0 0 1161 879">
<title>lats4b</title>
<desc>
Creator: GL2PS 1.3.9, (C) 1999-2015 C. Geuzaine
For: Gmsh
CreationDate: Fri Jan 15 19:57:53 2016
</desc>
  <defs>
    <marker
       orient='auto'
       refY='0'
       refX='0'
       id='Arrow2Mend'
       style='overflow:visible'>
      <path
         id='path3864'
         fill='#3333cc'
         style='fill-rule:evenodd;stroke-width:0.625;stroke-linejoin:round'
         d='M 8.7185878,4.0337352 -2.2072895,0.01601326 8.7185884,-4.0017078 c -1.7454984,2.3720609 -1.7354408,5.6174519 -6e-7,8.035443 z'
         transform='scale(-0.6,-0.6)' />
    </marker></defs>
<defs>
</defs>
<g shape-rendering="crispEdges">
<circle fill="#5a5a5a" cx="534.98" cy="420.976" r="0.5"/>
<circle fill="#5a5a5a" cx="202.009" cy="611.961" r="0.5"/>
<circle fill="#5a5a5a" cx="867.952" cy="611.961" r="0.5"/>
<circle fill="#5a5a5a" cx="534.98" cy="35.2436" r="0.5"/>
<circle fill="#5a5a5a" cx="534.98" cy="219.514" r="0.5"/>
<circle fill="#5a5a5a" cx="418.433" cy="487.825" r="0.5"/>
<circle fill="#5a5a5a" cx="730.342" cy="666.728" r="0.5"/>
<circle fill="#5a5a5a" cx="418.433" cy="126.493" r="0.5"/>
<circle fill="#5a5a5a" cx="651.527" cy="487.825" r="0.5"/>
<circle fill="#5a5a5a" cx="651.527" cy="126.493" r="0.5"/>
<circle fill="#5a5a5a" cx="339.619" cy="666.728" r="0.5"/>
<circle fill="#5a5a5a" cx="534.98" cy="85.8169" r="0.5"/>
<circle fill="#5a5a5a" cx="699.803" cy="180.355" r="0.5"/>
<circle fill="#5a5a5a" cx="370.158" cy="180.355" r="0.5"/>
<circle fill="#5a5a5a" cx="707.749" cy="518.755" r="0.5"/>
<circle fill="#5a5a5a" cx="418.433" cy="487.825" r="0.5"/>
<circle fill="#5a5a5a" cx="730.342" cy="666.728" r="0.5"/>
<circle fill="#5a5a5a" cx="418.433" cy="126.493" r="0.5"/>
<circle fill="#5a5a5a" cx="824.296" cy="586.921" r="0.5"/>
<circle fill="#5a5a5a" cx="824.296" cy="395.982" r="0.5"/>
<circle fill="#5a5a5a" cx="659.474" cy="681.459" r="0.5"/>
<circle fill="#5a5a5a" cx="534.98" cy="285.962" r="0.5"/>
<circle fill="#5a5a5a" cx="846.889" cy="464.865" r="0.5"/>
<circle fill="#5a5a5a" cx="223.072" cy="464.865" r="0.5"/>
<circle fill="#5a5a5a" cx="362.212" cy="518.755" r="0.5"/>
<circle fill="#5a5a5a" cx="245.665" cy="586.921" r="0.5"/>
<circle fill="#5a5a5a" cx="410.487" cy="681.459" r="0.5"/>
<circle fill="#5a5a5a" cx="245.665" cy="395.982" r="0.5"/>
<circle fill="#5a5a5a" cx="651.527" cy="487.825" r="0.5"/>
<circle fill="#5a5a5a" cx="651.527" cy="126.493" r="0.5"/>
<circle fill="#5a5a5a" cx="339.619" cy="666.728" r="0.5"/>
<circle fill="#5a5a5a" cx="534.98" cy="285.962" r="0.5"/>
<circle fill="#5a5a5a" cx="846.889" cy="464.865" r="0.5"/>
<circle fill="#5a5a5a" cx="223.072" cy="464.865" r="0.5"/>
<polyline fill="none" stroke="#000000" stroke-width="3" points="534.98,420.976 534.98,35.2436"/>
<polyline fill="none" stroke="#000000" stroke-width="3" points="534.98,420.976 202.009,611.961"/>
<polyline fill="none" stroke="#000000" stroke-width="3" points="534.98,420.976 867.952,611.961"/>
<polyline fill="none" stroke="#666666" stroke-width="2" points="202.009,611.961 215.338,619.312 229.16,626.357 243.453,633.085 258.197,639.486 273.366,645.551 288.94,651.269 304.892,656.631 321.199,661.631 337.836,666.26 354.777,670.51 371.996,674.375 389.466,677.85 407.161,680.929 425.053,683.607 443.114,685.88 461.316,687.744 479.633,689.197 498.035,690.237 516.493,690.861 534.98,691.069 553.468,690.861 571.926,690.237 590.328,689.197 608.644,687.744 626.847,685.88 644.908,683.607 662.8,680.929 680.494,677.85 697.964,674.375 715.183,670.51 732.124,666.26 748.761,661.631 765.069,656.631 781.021,651.269 796.594,645.551 811.764,639.486 826.507,633.085 840.801,626.357 854.623,619.312 867.952,611.961 867.695,596.67 866.925,581.108 865.644,565.299 863.852,549.268 861.554,533.039 858.752,516.637 855.451,500.087 851.655,483.416 847.371,466.648 842.606,449.81 837.366,432.927 831.66,416.026 825.497,399.132 818.885,382.273 811.836,365.473 804.36,348.758 796.469,332.155 788.174,315.689 779.489,299.385 770.427,283.269 761.002,267.365 751.228,251.697 741.121,236.291 730.696,221.17 719.969,206.357 708.958,191.874 697.677,177.745 686.146,163.991 674.382,150.633 662.403,137.692 650.227,125.188 637.874,113.14 625.362,101.567 612.711,90.4858 599.94,79.9146 587.069,69.8691 574.117,60.3651 561.105,51.4172 548.053,43.039 534.98,35.2436 521.908,43.039 508.856,51.4172 495.844,60.3651 482.892,69.8691 470.021,79.9146 457.25,90.4858 444.598,101.567 432.086,113.14 419.733,125.188 407.558,137.692 395.579,150.633 383.814,163.991 372.283,177.745 361.003,191.874 349.991,206.357 339.265,221.17 328.84,236.291 318.733,251.697 308.959,267.365 299.534,283.269 290.472,299.385 281.787,315.689 273.492,332.155 265.601,348.758 258.125,365.473 251.076,382.273 244.464,399.132 238.301,416.026 232.595,432.927 227.355,449.81 222.589,466.648 218.306,483.416 214.51,500.087 211.209,516.637 208.407,533.039 206.108,549.268 204.317,565.299 203.035,581.108 202.266,596.67 202.009,611.961"/>
<polyline fill="none" stroke="#999999" stroke-width="1" stroke-dasharray="5" points="418.433,126.493 430.679,133.795 442.905,141.643 455.094,150.025 467.227,158.928 479.284,168.338 491.247,178.241 503.098,188.621 514.818,199.462 526.39,210.748 537.795,222.461 549.017,234.583 560.037,247.096 570.838,259.98 581.405,273.216 591.72,286.782 601.768,300.658 611.534,314.823 621.002,329.254 630.157,343.931 638.986,358.828 647.475,373.925 655.61,389.198 663.38,404.622 670.772,420.175 677.776,435.832 684.379,451.57 690.572,467.363 696.346,483.188 701.691,499.02 706.599,514.834 711.063,530.607 715.076,546.314 718.631,561.931 721.724,577.434 724.348,592.798 726.501,608.001 728.18,623.018 729.38,637.827 730.101,652.405 730.342,666.728"/>
<polyline fill="none" stroke="#999999" stroke-width="1" stroke-dasharray="5" points="651.527,126.493 639.282,133.795 627.055,141.643 614.867,150.025 602.734,158.928 590.677,168.338 578.714,178.241 566.863,188.621 555.143,199.462 543.571,210.748 532.165,222.461 520.944,234.583 509.924,247.096 499.122,259.98 488.556,273.216 478.24,286.782 468.192,300.658 458.427,314.823 448.959,329.254 439.804,343.931 430.975,358.828 422.486,373.925 414.35,389.198 406.581,404.622 399.188,420.175 392.185,435.832 385.582,451.57 379.389,467.363 373.615,483.188 368.27,499.02 363.362,514.834 358.898,530.607 354.885,546.314 351.33,561.931 348.237,577.434 345.612,592.798 343.459,608.001 341.781,623.018 340.581,637.827 339.86,652.405 339.619,666.728"/>
<polyline fill="none" stroke="#999999" stroke-width="1" stroke-dasharray="5" points="370.158,180.355 376.756,183.994 383.598,187.481 390.673,190.812 397.971,193.98 405.48,196.982 413.189,199.813 421.086,202.467 429.158,204.942 437.393,207.233 445.779,209.337 454.303,211.251 462.95,212.971 471.709,214.495 480.566,215.82 489.506,216.945 498.516,217.868 507.583,218.587 516.692,219.102 525.829,219.411 534.98,219.514 544.132,219.411 553.269,219.102 562.378,218.587 571.444,217.868 580.455,216.945 589.395,215.82 598.252,214.495 607.01,212.971 615.658,211.251 624.182,209.337 632.568,207.233 640.803,204.942 648.875,202.467 656.772,199.813 664.481,196.982 671.99,193.98 679.288,190.812 686.363,187.481 693.205,183.994 699.803,180.355"/>
<polyline fill="none" stroke="#3333cc" stroke-width="5" style="marker-end:url(#Arrow2Mend)" points="534.98,420.976 534.98,219.514"/>
<polyline fill="none" stroke="#999999" stroke-width="1" stroke-dasharray="5" points="418.433,126.493 430.679,133.795 442.905,141.643 455.094,150.025 467.227,158.928 479.284,168.338 491.247,178.241 503.098,188.621 514.818,199.462 526.39,210.748 537.795,222.461 549.017,234.583 560.037,247.096 570.838,259.98 581.405,273.216 591.72,286.782 601.768,300.658 611.534,314.823 621.002,329.254 630.157,343.931 638.986,358.828 647.475,373.925 655.61,389.198 663.38,404.622 670.772,420.175 677.776,435.832 684.379,451.57 690.572,467.363 696.346,483.188 701.691,499.02 706.599,514.834 711.063,530.607 715.076,546.314 718.631,561.931 721.724,577.434 724.348,592.798 726.501,608.001 728.18,623.018 729.38,637.827 730.101,652.405 730.342,666.728"/>
<polyline fill="none" stroke="#999999" stroke-width="1" stroke-dasharray="5" points="824.296,395.982 817.825,399.84 811.364,403.988 804.923,408.417 798.512,413.121 792.141,418.094 785.819,423.327 779.557,428.812 773.363,434.541 767.248,440.505 761.221,446.694 755.292,453.1 749.468,459.712 743.76,466.52 738.177,473.514 732.726,480.683 727.416,488.016 722.255,495.501 717.252,503.127 712.414,510.883 707.749,518.755 703.263,526.733 698.964,534.803 694.858,542.954 690.952,551.173 687.251,559.446 683.762,567.763 680.489,576.108 677.438,584.471 674.614,592.837 672.02,601.194 669.661,609.529 667.541,617.829 665.662,626.081 664.028,634.273 662.641,642.392 661.503,650.426 660.616,658.362 659.982,666.187 659.601,673.89 659.474,681.459"/>
<polyline fill="none" stroke="#999999" stroke-width="1" stroke-dasharray="5" points="223.072,464.865 235.558,471.751 248.506,478.35 261.895,484.653 275.705,490.649 289.916,496.33 304.504,501.686 319.447,506.71 334.723,511.393 350.307,515.729 366.177,519.71 382.306,523.331 398.671,526.586 415.247,529.47 432.006,531.979 448.925,534.108 465.976,535.854 483.134,537.215 500.372,538.189 517.663,538.774 534.98,538.969 552.298,538.774 569.589,538.189 586.827,537.215 603.984,535.854 621.036,534.108 637.954,531.979 654.714,529.47 671.289,526.586 687.654,523.331 703.784,519.71 719.653,515.729 735.238,511.393 750.514,506.71 765.457,501.686 780.045,496.33 794.255,490.649 808.066,484.653 821.455,478.35 834.403,471.751 846.889,464.865"/>
<polyline fill="none" stroke="#3333cc" stroke-width="5" style="marker-end:url(#Arrow2Mend)" points="534.98,420.976 707.749,518.755"/>
<polyline fill="none" stroke="#999999" stroke-width="1" stroke-dasharray="5" points="245.665,395.982 252.136,399.84 258.596,403.988 265.037,408.417 271.449,413.121 277.82,418.094 284.142,423.327 290.404,428.812 296.598,434.541 302.713,440.505 308.739,446.694 314.669,453.1 320.492,459.712 326.2,466.52 331.784,473.514 337.235,480.683 342.545,488.016 347.705,495.501 352.708,503.127 357.546,510.883 362.212,518.755 366.698,526.733 370.997,534.803 375.103,542.954 379.009,551.173 382.71,559.446 386.199,567.763 389.472,576.108 392.523,584.471 395.347,592.837 397.941,601.194 400.3,609.529 402.42,617.829 404.299,626.081 405.933,634.273 407.32,642.392 408.458,650.426 409.345,658.362 409.979,666.187 410.36,673.89 410.487,681.459"/>
<polyline fill="none" stroke="#999999" stroke-width="1" stroke-dasharray="5" points="651.527,126.493 639.282,133.795 627.055,141.643 614.867,150.025 602.734,158.928 590.677,168.338 578.714,178.241 566.863,188.621 555.143,199.462 543.571,210.748 532.165,222.461 520.944,234.583 509.924,247.096 499.122,259.98 488.556,273.216 478.24,286.782 468.192,300.658 458.427,314.823 448.959,329.254 439.804,343.931 430.975,358.828 422.486,373.925 414.35,389.198 406.581,404.622 399.188,420.175 392.185,435.832 385.582,451.57 379.389,467.363 373.615,483.188 368.27,499.02 363.362,514.834 358.898,530.607 354.885,546.314 351.33,561.931 348.237,577.434 345.612,592.798 343.459,608.001 341.781,623.018 340.581,637.827 339.86,652.405 339.619,666.728"/>
<polyline fill="none" stroke="#999999" stroke-width="1" stroke-dasharray="5" points="223.072,464.865 235.558,471.751 248.506,478.35 261.895,484.653 275.705,490.649 289.916,496.33 304.504,501.686 319.447,506.71 334.723,511.393 350.307,515.729 366.177,519.71 382.306,523.331 398.671,526.586 415.247,529.47 432.006,531.979 448.925,534.108 465.976,535.854 483.134,537.215 500.372,538.189 517.663,538.774 534.98,538.969 552.298,538.774 569.589,538.189 586.827,537.215 603.984,535.854 621.036,534.108 637.954,531.979 654.714,529.47 671.289,526.586 687.654,523.331 703.784,519.71 719.653,515.729 735.238,511.393 750.514,506.71 765.457,501.686 780.045,496.33 794.255,490.649 808.066,484.653 821.455,478.35 834.403,471.751 846.889,464.865"/>
<polyline fill="none" stroke="#3333cc" stroke-width="5" style="marker-end:url(#Arrow2Mend)" points="534.98,420.976 362.212,518.755"/>
<text fill="#000000" x="164.712" y="631.059" font-size="15" text-anchor="start" baseline-shift="0" font-family="Times" font-style="italic">x</text>
<text fill="#000000" x="880.6" y="621.51" font-size="15" text-anchor="start" baseline-shift="0" font-family="Times" font-style="italic">y</text>
<text fill="#000000" x="530.98" y="27.5289" font-size="15" text-anchor="start" baseline-shift="0" font-family="Times" font-style="italic">z</text>
</g>
</svg>
