<?xml version="1.0" encoding="UTF-8" standalone="no"?>
<svg xmlns="http://www.w3.org/2000/svg"
     xmlns:xlink="http://www.w3.org/1999/xlink"
     width="1161px" height="879px" viewBox="0 0 1161 879">
<title>lats6b</title>
<desc>
Creator: GL2PS 1.3.9, (C) 1999-2015 C. Geuzaine
For: Gmsh
CreationDate: Fri Jan 15 19:57:55 2016
</desc>
  <defs>
    <marker
       orient='auto'
       refY='0'
       refX='0'
       id='Arrow2Mend'
       style='overflow:visible'>
      <path
         id='path3864'
         fill='#3333cc'
         style='fill-rule:evenodd;stroke-width:0.625;stroke-linejoin:round'
         d='M 8.7185878,4.0337352 -2.2072895,0.01601326 8.7185884,-4.0017078 c -1.7454984,2.3720609 -1.7354408,5.6174519 -6e-7,8.035443 z'
         transform='scale(-0.6,-0.6)' />
    </marker></defs>
<defs>
</defs>
<g shape-rendering="crispEdges">
<circle fill="#5a5a5a" cx="534.98" cy="420.976" r="0.5"/>
<circle fill="#5a5a5a" cx="202.009" cy="611.961" r="0.5"/>
<circle fill="#5a5a5a" cx="867.952" cy="611.961" r="0.5"/>
<circle fill="#5a5a5a" cx="534.98" cy="35.2436" r="0.5"/>
<circle fill="#5a5a5a" cx="534.98" cy="165.565" r="0.5"/>
<circle fill="#5a5a5a" cx="446.198" cy="471.9" r="0.5"/>
<circle fill="#5a5a5a" cx="767.115" cy="655.97" r="0.5"/>
<circle fill="#5a5a5a" cx="446.198" cy="100.131" r="0.5"/>
<circle fill="#5a5a5a" cx="623.762" cy="471.9" r="0.5"/>
<circle fill="#5a5a5a" cx="623.762" cy="100.131" r="0.5"/>
<circle fill="#5a5a5a" cx="302.845" cy="655.97" r="0.5"/>
<circle fill="#5a5a5a" cx="534.98" cy="63.718" r="0.5"/>
<circle fill="#5a5a5a" cx="660.537" cy="135.734" r="0.5"/>
<circle fill="#5a5a5a" cx="409.424" cy="135.734" r="0.5"/>
<circle fill="#5a5a5a" cx="673.121" cy="339.177" r="0.5"/>
<circle fill="#5a5a5a" cx="446.198" cy="471.9" r="0.5"/>
<circle fill="#5a5a5a" cx="767.115" cy="655.97" r="0.5"/>
<circle fill="#5a5a5a" cx="446.198" cy="100.131" r="0.5"/>
<circle fill="#5a5a5a" cx="761.903" cy="551.134" r="0.5"/>
<circle fill="#5a5a5a" cx="761.903" cy="268.85" r="0.5"/>
<circle fill="#5a5a5a" cx="518.231" cy="690.898" r="0.5"/>
<circle fill="#5a5a5a" cx="534.98" cy="158.097" r="0.5"/>
<circle fill="#5a5a5a" cx="778.653" cy="297.861" r="0.5"/>
<circle fill="#5a5a5a" cx="291.308" cy="297.861" r="0.5"/>
<circle fill="#5a5a5a" cx="396.84" cy="339.177" r="0.5"/>
<circle fill="#5a5a5a" cx="308.058" cy="551.134" r="0.5"/>
<circle fill="#5a5a5a" cx="551.73" cy="690.898" r="0.5"/>
<circle fill="#5a5a5a" cx="308.058" cy="268.85" r="0.5"/>
<circle fill="#5a5a5a" cx="623.762" cy="471.9" r="0.5"/>
<circle fill="#5a5a5a" cx="623.762" cy="100.131" r="0.5"/>
<circle fill="#5a5a5a" cx="302.845" cy="655.97" r="0.5"/>
<circle fill="#5a5a5a" cx="534.98" cy="158.097" r="0.5"/>
<circle fill="#5a5a5a" cx="778.653" cy="297.861" r="0.5"/>
<circle fill="#5a5a5a" cx="291.308" cy="297.861" r="0.5"/>
<circle fill="#5a5a5a" cx="534.98" cy="578.441" r="0.5"/>
<circle fill="#5a5a5a" cx="308.058" cy="551.134" r="0.5"/>
<circle fill="#5a5a5a" cx="551.73" cy="690.898" r="0.5"/>
<circle fill="#5a5a5a" cx="308.058" cy="268.85" r="0.5"/>
<circle fill="#5a5a5a" cx="761.903" cy="551.134" r="0.5"/>
<circle fill="#5a5a5a" cx="761.903" cy="268.85" r="0.5"/>
<circle fill="#5a5a5a" cx="518.231" cy="690.898" r="0.5"/>
<circle fill="#5a5a5a" cx="534.98" cy="318.126" r="0.5"/>
<circle fill="#5a5a5a" cx="855.897" cy="502.197" r="0.5"/>
<circle fill="#5a5a5a" cx="214.063" cy="502.197" r="0.5"/>
<circle fill="#5a5a5a" cx="315.371" cy="545.936" r="0.5"/>
<circle fill="#5a5a5a" cx="226.589" cy="597.863" r="0.5"/>
<circle fill="#5a5a5a" cx="352.145" cy="669.879" r="0.5"/>
<circle fill="#5a5a5a" cx="226.589" cy="452.411" r="0.5"/>
<circle fill="#5a5a5a" cx="623.762" cy="471.9" r="0.5"/>
<circle fill="#5a5a5a" cx="623.762" cy="100.131" r="0.5"/>
<circle fill="#5a5a5a" cx="302.845" cy="655.97" r="0.5"/>
<circle fill="#5a5a5a" cx="534.98" cy="318.126" r="0.5"/>
<circle fill="#5a5a5a" cx="855.897" cy="502.197" r="0.5"/>
<circle fill="#5a5a5a" cx="214.063" cy="502.197" r="0.5"/>
<circle fill="#5a5a5a" cx="754.59" cy="545.936" r="0.5"/>
<circle fill="#5a5a5a" cx="446.198" cy="471.9" r="0.5"/>
<circle fill="#5a5a5a" cx="767.115" cy="655.97" r="0.5"/>
<circle fill="#5a5a5a" cx="446.198" cy="100.131" r="0.5"/>
<circle fill="#5a5a5a" cx="843.372" cy="597.863" r="0.5"/>
<circle fill="#5a5a5a" cx="843.372" cy="452.411" r="0.5"/>
<circle fill="#5a5a5a" cx="717.815" cy="669.879" r="0.5"/>
<circle fill="#5a5a5a" cx="534.98" cy="318.126" r="0.5"/>
<circle fill="#5a5a5a" cx="855.897" cy="502.197" r="0.5"/>
<circle fill="#5a5a5a" cx="214.063" cy="502.197" r="0.5"/>
<polyline fill="none" stroke="#000000" stroke-width="3" points="534.98,420.976 534.98,35.2436"/>
<polyline fill="none" stroke="#000000" stroke-width="3" points="534.98,420.976 202.009,611.961"/>
<polyline fill="none" stroke="#000000" stroke-width="3" points="534.98,420.976 867.952,611.961"/>
<polyline fill="none" stroke="#666666" stroke-width="2" points="202.009,611.961 215.338,619.312 229.16,626.357 243.453,633.085 258.197,639.486 273.366,645.551 288.94,651.269 304.892,656.631 321.199,661.631 337.836,666.26 354.777,670.51 371.996,674.375 389.466,677.85 407.161,680.929 425.053,683.607 443.114,685.88 461.316,687.744 479.633,689.197 498.035,690.237 516.493,690.861 534.98,691.069 553.468,690.861 571.926,690.237 590.328,689.197 608.644,687.744 626.847,685.88 644.908,683.607 662.8,680.929 680.494,677.85 697.964,674.375 715.183,670.51 732.124,666.26 748.761,661.631 765.069,656.631 781.021,651.269 796.594,645.551 811.764,639.486 826.507,633.085 840.801,626.357 854.623,619.312 867.952,611.961 867.695,596.67 866.925,581.108 865.644,565.299 863.852,549.268 861.554,533.039 858.752,516.637 855.451,500.087 851.655,483.416 847.371,466.648 842.606,449.81 837.366,432.927 831.66,416.026 825.497,399.132 818.885,382.273 811.836,365.473 804.36,348.758 796.469,332.155 788.174,315.689 779.489,299.385 770.427,283.269 761.002,267.365 751.228,251.697 741.121,236.291 730.696,221.17 719.969,206.357 708.958,191.874 697.677,177.745 686.146,163.991 674.382,150.633 662.403,137.692 650.227,125.188 637.874,113.14 625.362,101.567 612.711,90.4858 599.94,79.9146 587.069,69.8691 574.117,60.3651 561.105,51.4172 548.053,43.039 534.98,35.2436 521.908,43.039 508.856,51.4172 495.844,60.3651 482.892,69.8691 470.021,79.9146 457.25,90.4858 444.598,101.567 432.086,113.14 419.733,125.188 407.558,137.692 395.579,150.633 383.814,163.991 372.283,177.745 361.003,191.874 349.991,206.357 339.265,221.17 328.84,236.291 318.733,251.697 308.959,267.365 299.534,283.269 290.472,299.385 281.787,315.689 273.492,332.155 265.601,348.758 258.125,365.473 251.076,382.273 244.464,399.132 238.301,416.026 232.595,432.927 227.355,449.81 222.589,466.648 218.306,483.416 214.51,500.087 211.209,516.637 208.407,533.039 206.108,549.268 204.317,565.299 203.035,581.108 202.266,596.67 202.009,611.961"/>
<polyline fill="none" stroke="#999999" stroke-width="1" stroke-dasharray="5" points="446.198,100.131 458.797,107.645 471.377,115.719 483.918,124.344 496.401,133.503 508.806,143.185 521.115,153.374 533.308,164.054 545.367,175.208 557.273,186.82 569.008,198.871 580.553,211.344 591.892,224.218 603.005,237.474 613.877,251.092 624.49,265.05 634.829,279.327 644.876,293.901 654.617,308.749 664.037,323.849 673.121,339.177 681.855,354.71 690.226,370.424 698.22,386.294 705.826,402.296 713.031,418.405 719.825,434.597 726.197,450.847 732.138,467.128 737.637,483.418 742.687,499.689 747.28,515.918 751.409,532.078 755.067,548.146 758.248,564.097 760.949,579.905 763.164,595.547 764.891,610.998 766.126,626.234 766.868,641.233 767.115,655.97"/>
<polyline fill="none" stroke="#999999" stroke-width="1" stroke-dasharray="5" points="623.762,100.131 611.163,107.645 598.583,115.719 586.043,124.344 573.56,133.503 561.155,143.185 548.846,153.374 536.653,164.054 524.594,175.208 512.688,186.82 500.953,198.871 489.407,211.344 478.069,224.218 466.956,237.474 456.084,251.092 445.47,265.05 435.132,279.327 425.085,293.901 415.343,308.749 405.924,323.849 396.84,339.177 388.106,354.71 379.735,370.424 371.741,386.294 364.135,402.296 356.93,418.405 350.136,434.597 343.764,450.847 337.823,467.128 332.324,483.418 327.274,499.689 322.681,515.918 318.552,532.078 314.894,548.146 311.712,564.097 309.012,579.905 306.796,595.547 305.07,610.998 303.835,626.234 303.093,641.233 302.845,655.97"/>
<polyline fill="none" stroke="#999999" stroke-width="1" stroke-dasharray="5" points="409.424,135.734 414.45,138.506 419.662,141.163 425.052,143.7 430.611,146.114 436.331,148.4 442.203,150.557 448.219,152.579 454.368,154.464 460.641,156.209 467.03,157.812 473.522,159.27 480.11,160.58 486.782,161.741 493.529,162.751 500.339,163.608 507.203,164.311 514.11,164.859 521.049,165.251 528.009,165.486 534.98,165.565 541.951,165.486 548.912,165.251 555.851,164.859 562.758,164.311 569.621,163.608 576.432,162.751 583.178,161.741 589.851,160.58 596.438,159.27 602.931,157.812 609.319,156.209 615.593,154.464 621.742,152.579 627.757,150.557 633.63,148.4 639.35,146.114 644.909,143.7 650.299,141.163 655.511,138.506 660.537,135.734"/>
<polyline fill="none" stroke="#3333cc" stroke-width="5" style="marker-end:url(#Arrow2Mend)" points="534.98,420.976 534.98,165.565"/>
<polyline fill="none" stroke="#999999" stroke-width="1" stroke-dasharray="5" points="446.198,100.131 458.797,107.645 471.377,115.719 483.918,124.344 496.401,133.503 508.806,143.185 521.115,153.374 533.308,164.054 545.367,175.208 557.273,186.82 569.008,198.871 580.553,211.344 591.892,224.218 603.005,237.474 613.877,251.092 624.49,265.05 634.829,279.327 644.876,293.901 654.617,308.749 664.037,323.849 673.121,339.177 681.855,354.71 690.226,370.424 698.22,386.294 705.826,402.296 713.031,418.405 719.825,434.597 726.197,450.847 732.138,467.128 737.637,483.418 742.687,499.689 747.28,515.918 751.409,532.078 755.067,548.146 758.248,564.097 760.949,579.905 763.164,595.547 764.891,610.998 766.126,626.234 766.868,641.233 767.115,655.97"/>
<polyline fill="none" stroke="#999999" stroke-width="1" stroke-dasharray="5" points="761.903,268.85 752.336,274.555 742.785,280.686 733.262,287.235 723.784,294.19 714.365,301.541 705.019,309.277 695.761,317.386 686.604,325.856 677.564,334.673 668.654,343.824 659.887,353.294 651.278,363.069 642.84,373.135 634.585,383.474 626.526,394.073 618.676,404.913 611.047,415.979 603.651,427.254 596.498,438.719 589.601,450.358 582.969,462.152 576.613,474.083 570.543,486.133 564.768,498.284 559.297,510.516 554.138,522.81 549.3,535.148 544.789,547.511 540.614,559.879 536.779,572.234 533.292,584.557 530.157,596.828 527.379,609.028 524.964,621.139 522.913,633.142 521.231,645.019 519.92,656.751 518.982,668.32 518.419,679.708 518.231,690.898"/>
<polyline fill="none" stroke="#999999" stroke-width="1" stroke-dasharray="5" points="291.308,297.861 301.063,303.241 311.178,308.396 321.638,313.32 332.427,318.004 343.528,322.442 354.925,326.627 366.599,330.552 378.533,334.21 390.708,337.597 403.106,340.708 415.707,343.537 428.492,346.08 441.441,348.333 454.534,350.292 467.751,351.956 481.072,353.32 494.476,354.383 507.943,355.144 521.451,355.601 534.98,355.754 548.509,355.601 562.018,355.144 575.484,354.383 588.888,353.32 602.209,351.956 615.427,350.292 628.52,348.333 641.469,346.08 654.254,343.537 666.855,340.708 679.252,337.597 691.428,334.21 703.361,330.552 715.036,326.627 726.432,322.442 737.534,318.004 748.323,313.32 758.783,308.396 768.898,303.241 778.653,297.861"/>
<polyline fill="none" stroke="#3333cc" stroke-width="5" style="marker-end:url(#Arrow2Mend)" points="534.98,420.976 673.121,339.177"/>
<polyline fill="none" stroke="#999999" stroke-width="1" stroke-dasharray="5" points="308.058,268.85 317.624,274.555 327.176,280.686 336.698,287.235 346.176,294.19 355.596,301.541 364.942,309.277 374.2,317.386 383.357,325.856 392.397,334.673 401.307,343.824 410.073,353.294 418.683,363.069 427.121,373.135 435.376,383.474 443.435,394.073 451.285,404.913 458.914,415.979 466.31,427.254 473.463,438.719 480.36,450.358 486.992,462.152 493.348,474.083 499.418,486.133 505.193,498.284 510.664,510.516 515.822,522.81 520.661,535.148 525.171,547.511 529.347,559.879 533.181,572.234 536.669,584.557 539.804,596.828 542.581,609.028 544.997,621.139 547.048,633.142 548.73,645.019 550.041,656.751 550.979,668.32 551.542,679.708 551.73,690.898"/>
<polyline fill="none" stroke="#999999" stroke-width="1" stroke-dasharray="5" points="623.762,100.131 611.163,107.645 598.583,115.719 586.043,124.344 573.56,133.503 561.155,143.185 548.846,153.374 536.653,164.054 524.594,175.208 512.688,186.82 500.953,198.871 489.407,211.344 478.069,224.218 466.956,237.474 456.084,251.092 445.47,265.05 435.132,279.327 425.085,293.901 415.343,308.749 405.924,323.849 396.84,339.177 388.106,354.71 379.735,370.424 371.741,386.294 364.135,402.296 356.93,418.405 350.136,434.597 343.764,450.847 337.823,467.128 332.324,483.418 327.274,499.689 322.681,515.918 318.552,532.078 314.894,548.146 311.712,564.097 309.012,579.905 306.796,595.547 305.07,610.998 303.835,626.234 303.093,641.233 302.845,655.97"/>
<polyline fill="none" stroke="#999999" stroke-width="1" stroke-dasharray="5" points="291.308,297.861 301.063,303.241 311.178,308.396 321.638,313.32 332.427,318.004 343.528,322.442 354.925,326.627 366.599,330.552 378.533,334.21 390.708,337.597 403.106,340.708 415.707,343.537 428.492,346.08 441.441,348.333 454.534,350.292 467.751,351.956 481.072,353.32 494.476,354.383 507.943,355.144 521.451,355.601 534.98,355.754 548.509,355.601 562.018,355.144 575.484,354.383 588.888,353.32 602.209,351.956 615.427,350.292 628.52,348.333 641.469,346.08 654.254,343.537 666.855,340.708 679.252,337.597 691.428,334.21 703.361,330.552 715.036,326.627 726.432,322.442 737.534,318.004 748.323,313.32 758.783,308.396 768.898,303.241 778.653,297.861"/>
<polyline fill="none" stroke="#3333cc" stroke-width="5" style="marker-end:url(#Arrow2Mend)" points="534.98,420.976 396.84,339.177"/>
<polyline fill="none" stroke="#999999" stroke-width="1" stroke-dasharray="5" points="308.058,268.85 317.624,274.555 327.176,280.686 336.698,287.235 346.176,294.19 355.596,301.541 364.942,309.277 374.2,317.386 383.357,325.856 392.397,334.673 401.307,343.824 410.073,353.294 418.683,363.069 427.121,373.135 435.376,383.474 443.435,394.073 451.285,404.913 458.914,415.979 466.31,427.254 473.463,438.719 480.36,450.358 486.992,462.152 493.348,474.083 499.418,486.133 505.193,498.284 510.664,510.516 515.822,522.81 520.661,535.148 525.171,547.511 529.347,559.879 533.181,572.234 536.669,584.557 539.804,596.828 542.581,609.028 544.997,621.139 547.048,633.142 548.73,645.019 550.041,656.751 550.979,668.32 551.542,679.708 551.73,690.898"/>
<polyline fill="none" stroke="#999999" stroke-width="1" stroke-dasharray="5" points="761.903,268.85 752.336,274.555 742.785,280.686 733.262,287.235 723.784,294.19 714.365,301.541 705.019,309.277 695.761,317.386 686.604,325.856 677.564,334.673 668.654,343.824 659.887,353.294 651.278,363.069 642.84,373.135 634.585,383.474 626.526,394.073 618.676,404.913 611.047,415.979 603.651,427.254 596.498,438.719 589.601,450.358 582.969,462.152 576.613,474.083 570.543,486.133 564.768,498.284 559.297,510.516 554.138,522.81 549.3,535.148 544.789,547.511 540.614,559.879 536.779,572.234 533.292,584.557 530.157,596.828 527.379,609.028 524.964,621.139 522.913,633.142 521.231,645.019 519.92,656.751 518.982,668.32 518.419,679.708 518.231,690.898"/>
<polyline fill="none" stroke="#999999" stroke-width="1" stroke-dasharray="5" points="214.063,502.197 226.91,509.281 240.231,516.071 254.008,522.556 268.217,528.726 282.837,534.57 297.847,540.081 313.222,545.25 328.939,550.069 344.974,554.53 361.301,558.626 377.897,562.352 394.734,565.701 411.788,568.668 429.032,571.249 446.44,573.439 463.983,575.236 481.637,576.637 499.372,577.639 517.162,578.241 534.98,578.441 552.798,578.241 570.589,577.639 588.324,576.637 605.977,575.236 623.521,573.439 640.928,571.249 658.172,568.668 675.226,565.701 692.064,562.352 708.659,558.626 724.987,554.53 741.022,550.069 756.739,545.25 772.114,540.081 787.123,534.57 801.744,528.726 815.953,522.556 829.729,516.071 843.051,509.281 855.897,502.197"/>
<polyline fill="none" stroke="#3333cc" stroke-width="5" style="marker-end:url(#Arrow2Mend)" points="534.98,420.976 534.98,578.441"/>
<polyline fill="none" stroke="#999999" stroke-width="1" stroke-dasharray="5" points="226.589,452.411 231.518,455.35 236.44,458.509 241.346,461.884 246.23,465.467 251.083,469.255 255.899,473.241 260.67,477.42 265.388,481.784 270.046,486.327 274.637,491.042 279.154,495.922 283.59,500.959 287.938,506.145 292.192,511.473 296.344,516.934 300.389,522.52 304.32,528.222 308.131,534.031 311.817,539.939 315.371,545.936 318.788,552.013 322.063,558.161 325.19,564.37 328.166,570.631 330.985,576.933 333.643,583.268 336.136,589.626 338.46,595.996 340.612,602.369 342.588,608.735 344.385,615.084 346,621.407 347.431,627.694 348.676,633.934 349.733,640.119 350.599,646.239 351.275,652.284 351.758,658.245 352.048,664.113 352.145,669.879"/>
<polyline fill="none" stroke="#999999" stroke-width="1" stroke-dasharray="5" points="623.762,100.131 611.163,107.645 598.583,115.719 586.043,124.344 573.56,133.503 561.155,143.185 548.846,153.374 536.653,164.054 524.594,175.208 512.688,186.82 500.953,198.871 489.407,211.344 478.069,224.218 466.956,237.474 456.084,251.092 445.47,265.05 435.132,279.327 425.085,293.901 415.343,308.749 405.924,323.849 396.84,339.177 388.106,354.71 379.735,370.424 371.741,386.294 364.135,402.296 356.93,418.405 350.136,434.597 343.764,450.847 337.823,467.128 332.324,483.418 327.274,499.689 322.681,515.918 318.552,532.078 314.894,548.146 311.712,564.097 309.012,579.905 306.796,595.547 305.07,610.998 303.835,626.234 303.093,641.233 302.845,655.97"/>
<polyline fill="none" stroke="#999999" stroke-width="1" stroke-dasharray="5" points="214.063,502.197 226.91,509.281 240.231,516.071 254.008,522.556 268.217,528.726 282.837,534.57 297.847,540.081 313.222,545.25 328.939,550.069 344.974,554.53 361.301,558.626 377.897,562.352 394.734,565.701 411.788,568.668 429.032,571.249 446.44,573.439 463.983,575.236 481.637,576.637 499.372,577.639 517.162,578.241 534.98,578.441 552.798,578.241 570.589,577.639 588.324,576.637 605.977,575.236 623.521,573.439 640.928,571.249 658.172,568.668 675.226,565.701 692.064,562.352 708.659,558.626 724.987,554.53 741.022,550.069 756.739,545.25 772.114,540.081 787.123,534.57 801.744,528.726 815.953,522.556 829.729,516.071 843.051,509.281 855.897,502.197"/>
<polyline fill="none" stroke="#3333cc" stroke-width="5" style="marker-end:url(#Arrow2Mend)" points="534.98,420.976 315.371,545.936"/>
<polyline fill="none" stroke="#999999" stroke-width="1" stroke-dasharray="5" points="446.198,100.131 458.797,107.645 471.377,115.719 483.918,124.344 496.401,133.503 508.806,143.185 521.115,153.374 533.308,164.054 545.367,175.208 557.273,186.82 569.008,198.871 580.553,211.344 591.892,224.218 603.005,237.474 613.877,251.092 624.49,265.05 634.829,279.327 644.876,293.901 654.617,308.749 664.037,323.849 673.121,339.177 681.855,354.71 690.226,370.424 698.22,386.294 705.826,402.296 713.031,418.405 719.825,434.597 726.197,450.847 732.138,467.128 737.637,483.418 742.687,499.689 747.28,515.918 751.409,532.078 755.067,548.146 758.248,564.097 760.949,579.905 763.164,595.547 764.891,610.998 766.126,626.234 766.868,641.233 767.115,655.97"/>
<polyline fill="none" stroke="#999999" stroke-width="1" stroke-dasharray="5" points="843.372,452.411 838.443,455.35 833.521,458.509 828.615,461.884 823.731,465.467 818.877,469.255 814.062,473.241 809.291,477.42 804.573,481.784 799.915,486.327 795.324,491.042 790.807,495.922 786.371,500.959 782.023,506.145 777.769,511.473 773.617,516.934 769.572,522.52 765.641,528.222 761.83,534.031 758.144,539.939 754.59,545.936 751.173,552.013 747.898,558.161 744.77,564.37 741.795,570.631 738.976,576.933 736.318,583.268 733.824,589.626 731.5,595.996 729.349,602.369 727.373,608.735 725.576,615.084 723.961,621.407 722.529,627.694 721.285,633.934 720.228,640.119 719.361,646.239 718.686,652.284 718.203,658.245 717.912,664.113 717.815,669.879"/>
<polyline fill="none" stroke="#999999" stroke-width="1" stroke-dasharray="5" points="214.063,502.197 226.91,509.281 240.231,516.071 254.008,522.556 268.217,528.726 282.837,534.57 297.847,540.081 313.222,545.25 328.939,550.069 344.974,554.53 361.301,558.626 377.897,562.352 394.734,565.701 411.788,568.668 429.032,571.249 446.44,573.439 463.983,575.236 481.637,576.637 499.372,577.639 517.162,578.241 534.98,578.441 552.798,578.241 570.589,577.639 588.324,576.637 605.977,575.236 623.521,573.439 640.928,571.249 658.172,568.668 675.226,565.701 692.064,562.352 708.659,558.626 724.987,554.53 741.022,550.069 756.739,545.25 772.114,540.081 787.123,534.57 801.744,528.726 815.953,522.556 829.729,516.071 843.051,509.281 855.897,502.197"/>
<polyline fill="none" stroke="#3333cc" stroke-width="5" style="marker-end:url(#Arrow2Mend)" points="534.98,420.976 754.59,545.936"/>
<text fill="#000000" x="164.712" y="631.059" font-size="15" text-anchor="start" baseline-shift="0" font-family="Times" font-style="italic">x</text>
<text fill="#000000" x="880.6" y="621.51" font-size="15" text-anchor="start" baseline-shift="0" font-family="Times" font-style="italic">y</text>
<text fill="#000000" x="530.98" y="27.5289" font-size="15" text-anchor="start" baseline-shift="0" font-family="Times" font-style="italic">z</text>
</g>
</svg>
