<?xml version="1.0" encoding="UTF-8" standalone="no"?>
<svg xmlns="http://www.w3.org/2000/svg"
     xmlns:xlink="http://www.w3.org/1999/xlink"
     width="1161px" height="879px" viewBox="0 0 1161 879">
<title>lats2b</title>
<desc>
Creator: GL2PS 1.3.9, (C) 1999-2015 C. Geuzaine
For: Gmsh
CreationDate: Fri Jan 15 19:57:50 2016
</desc>
<defs>
</defs>
<g shape-rendering="crispEdges">
<circle fill="#5a5a5a" cx="534.98" cy="420.976" r="0.5"/>
<circle fill="#5a5a5a" cx="202.009" cy="611.961" r="0.5"/>
<circle fill="#5a5a5a" cx="867.952" cy="611.961" r="0.5"/>
<circle fill="#5a5a5a" cx="534.98" cy="35.2436" r="0.5"/>
<circle fill="#5a5a5a" cx="534.98" cy="418.803" r="0.5"/>
<circle fill="#5a5a5a" cx="342.739" cy="531.241" r="0.5"/>
<circle fill="#5a5a5a" cx="614.609" cy="687.18" r="0.5"/>
<circle fill="#5a5a5a" cx="342.739" cy="216.292" r="0.5"/>
<circle fill="#5a5a5a" cx="727.222" cy="531.241" r="0.5"/>
<circle fill="#5a5a5a" cx="727.222" cy="216.292" r="0.5"/>
<circle fill="#5a5a5a" cx="455.351" cy="687.18" r="0.5"/>
<circle fill="#5a5a5a" cx="534.98" cy="198.273" r="0.5"/>
<circle fill="#5a5a5a" cx="806.85" cy="354.212" r="0.5"/>
<circle fill="#5a5a5a" cx="263.11" cy="354.212" r="0.5"/>
<polyline fill="none" stroke="#0000ff" stroke-width="2" points="534.98,420.976 534.98,35.2436"/>
<polyline fill="none" stroke="#0000ff" stroke-width="2" points="534.98,420.976 202.009,611.961"/>
<polyline fill="none" stroke="#0000ff" stroke-width="2" points="534.98,420.976 867.952,611.961"/>
<polyline fill="none" stroke="#0000ff" stroke-width="2" points="202.009,611.961 215.338,619.312 229.16,626.357 243.453,633.085 258.197,639.486 273.366,645.551 288.94,651.269 304.892,656.631 321.199,661.631 337.836,666.26 354.777,670.51 371.996,674.375 389.466,677.85 407.161,680.929 425.053,683.607 443.114,685.88 461.316,687.744 479.633,689.197 498.035,690.237 516.493,690.861 534.98,691.069 553.468,690.861 571.926,690.237 590.328,689.197 608.644,687.744 626.847,685.88 644.908,683.607 662.8,680.929 680.494,677.85 697.964,674.375 715.183,670.51 732.124,666.26 748.761,661.631 765.069,656.631 781.021,651.269 796.594,645.551 811.764,639.486 826.507,633.085 840.801,626.357 854.623,619.312 867.952,611.961 867.695,596.67 866.925,581.108 865.644,565.299 863.852,549.268 861.554,533.039 858.752,516.637 855.451,500.087 851.655,483.416 847.371,466.648 842.606,449.81 837.366,432.927 831.66,416.026 825.497,399.132 818.885,382.273 811.836,365.473 804.36,348.758 796.469,332.155 788.174,315.689 779.489,299.385 770.427,283.269 761.002,267.365 751.228,251.697 741.121,236.291 730.696,221.17 719.969,206.357 708.958,191.874 697.677,177.745 686.146,163.991 674.382,150.633 662.403,137.692 650.227,125.188 637.874,113.14 625.362,101.567 612.711,90.4858 599.94,79.9146 587.069,69.8691 574.117,60.3651 561.105,51.4172 548.053,43.039 534.98,35.2436 521.908,43.039 508.856,51.4172 495.844,60.3651 482.892,69.8691 470.021,79.9146 457.25,90.4858 444.598,101.567 432.086,113.14 419.733,125.188 407.558,137.692 395.579,150.633 383.814,163.991 372.283,177.745 361.003,191.874 349.991,206.357 339.265,221.17 328.84,236.291 318.733,251.697 308.959,267.365 299.534,283.269 290.472,299.385 281.787,315.689 273.492,332.155 265.601,348.758 258.125,365.473 251.076,382.273 244.464,399.132 238.301,416.026 232.595,432.927 227.355,449.81 222.589,466.648 218.306,483.416 214.51,500.087 211.209,516.637 208.407,533.039 206.108,549.268 204.317,565.299 203.035,581.108 202.266,596.67 202.009,611.961"/>
<polyline fill="none" stroke="#0000ff" stroke-width="2" points="342.739,216.292 353.413,222.657 364.07,229.498 374.694,236.804 385.269,244.564 395.778,252.766 406.206,261.397 416.536,270.445 426.752,279.894 436.838,289.731 446.779,299.941 456.56,310.507 466.166,321.414 475.581,332.644 484.791,344.18 493.782,356.005 502.54,368.1 511.052,380.447 519.305,393.026 527.285,405.818 534.98,418.803 542.38,431.962 549.471,445.274 556.243,458.719 562.687,472.275 568.791,485.923 574.547,499.64 579.945,513.406 584.977,527.199 589.636,540.999 593.914,554.784 597.805,568.532 601.303,582.223 604.402,595.835 607.097,609.348 609.385,622.74 611.262,635.991 612.725,649.08 613.771,661.988 614.4,674.695 614.609,687.18"/>
<polyline fill="none" stroke="#0000ff" stroke-width="2" points="727.222,216.292 716.548,222.657 705.891,229.498 695.267,236.804 684.692,244.564 674.182,252.766 663.755,261.397 653.425,270.445 643.209,279.894 633.123,289.731 623.181,299.941 613.401,310.507 603.795,321.414 594.38,332.644 585.17,344.18 576.179,356.005 567.42,368.1 558.908,380.447 550.656,393.026 542.676,405.818 534.98,418.803 527.581,431.962 520.49,445.274 513.717,458.719 507.274,472.275 501.17,485.923 495.414,499.64 490.016,513.406 484.984,527.199 480.325,540.999 476.046,554.784 472.155,568.532 468.658,582.223 465.559,595.835 462.863,609.348 460.575,622.74 458.699,635.991 457.236,649.08 456.19,661.988 455.561,674.695 455.351,687.18"/>
<polyline fill="none" stroke="#0000ff" stroke-width="2" points="263.11,354.212 273.993,360.214 285.279,365.966 296.95,371.459 308.987,376.686 321.373,381.637 334.089,386.306 347.114,390.685 360.429,394.767 374.013,398.546 387.845,402.017 401.904,405.173 416.169,408.01 430.616,410.524 445.225,412.71 459.972,414.566 474.834,416.088 489.789,417.275 504.814,418.124 519.886,418.633 534.98,418.803 550.075,418.633 565.146,418.124 580.171,417.275 595.127,416.088 609.989,414.566 624.736,412.71 639.344,410.524 653.792,408.01 668.056,405.173 682.115,402.017 695.948,398.546 709.532,394.767 722.847,390.685 735.872,386.306 748.587,381.637 760.973,376.686 773.011,371.459 784.682,365.966 795.967,360.214 806.85,354.212"/>
<polyline fill="none" stroke="#0000ff" stroke-width="2" points="534.98,420.976 534.98,418.803"/>
<text fill="#000000" x="164.712" y="631.059" font-size="15" text-anchor="start" baseline-shift="0" font-family="Times" font-style="italic">x</text>
<text fill="#000000" x="880.6" y="621.51" font-size="15" text-anchor="start" baseline-shift="0" font-family="Times" font-style="italic">y</text>
<text fill="#000000" x="530.98" y="27.5289" font-size="15" text-anchor="start" baseline-shift="0" font-family="Times" font-style="italic">z</text>
</g>
</svg>
