<?xml version="1.0" encoding="UTF-8" standalone="no"?>
<svg xmlns="http://www.w3.org/2000/svg"
     xmlns:xlink="http://www.w3.org/1999/xlink"
     width="1279px" height="871px" viewBox="0 0 1279 871">
<title>s2</title>
<desc>
Creator: GL2PS 1.3.9, (C) 1999-2015 C. Geuzaine
For: Gmsh
CreationDate: Thu Dec 31 16:26:08 2015
</desc>
  <defs>
    <marker
       orient="auto"
       refY="0"
       refX="0"
       id="Arrow2Mend"
       style="overflow:visible">
      <path
         id="path3864"
         fill="#3333cc"
         style="fill-rule:evenodd;stroke-width:0.625;stroke-linejoin:round"
         d="M 8.7185878,4.0337352 -2.2072895,0.01601326 8.7185884,-4.0017078 c -1.7454984,2.3720609 -1.7354408,5.6174519 -6e-7,8.035443 z"
         transform="scale(-0.6,-0.6)" />
    </marker>
  </defs>

<g shape-rendering="crispEdges">
<circle fill="#5a5a5a" cx="453.581" cy="672.611" r="1"/>
<circle fill="#5a5a5a" cx="240.796" cy="774.13" r="1"/>
<circle fill="#5a5a5a" cx="1038.2" cy="709.561" r="1"/>
<circle fill="#5a5a5a" cx="453.581" cy="59.9202" r="1"/>
<circle fill="#5a5a5a" cx="668.262" cy="398.819" r="1"/>
<circle fill="#5a5a5a" cx="330.729" cy="731.223" r="1"/>
<circle fill="#5a5a5a" cx="808.072" cy="761.393" r="1"/>
<circle fill="#5a5a5a" cx="330.729" cy="230.963" r="1"/>
<circle fill="#5a5a5a" cx="791.113" cy="693.944" r="1"/>
<circle fill="#5a5a5a" cx="791.113" cy="193.684" r="1"/>
<circle fill="#5a5a5a" cx="617.375" cy="776.834" r="1"/>
<circle fill="#5a5a5a" cx="453.581" cy="318.874" r="1"/>
<circle fill="#5a5a5a" cx="930.924" cy="349.043" r="1"/>
<circle fill="#5a5a5a" cx="279.843" cy="401.764" r="1"/>
<polyline fill="none" stroke="#000000" stroke-width="3" points="453.581,672.611 453.581,59.9202"/>
<polyline fill="none" stroke="#000000" stroke-width="3" points="453.581,672.611 240.796,774.13"/>
<polyline fill="none" stroke="#000000" stroke-width="3" points="453.581,672.611 1038.2,709.561"/>
<polyline fill="none" stroke="#666666" stroke-width="2" points="240.796,774.13 263.912,775.502 287.321,776.716 310.986,777.769 334.871,778.66 358.939,779.388 383.153,779.951 407.475,780.348 431.869,780.579 456.296,780.644 480.719,780.542 505.1,780.274 529.401,779.84 553.586,779.24 577.617,778.476 601.456,777.549 625.067,776.46 648.414,775.211 671.46,773.804 694.171,772.24 716.51,770.523 738.444,768.655 759.939,766.639 780.961,764.478 801.479,762.175 821.46,759.735 840.874,757.16 859.691,754.454 877.882,751.622 895.418,748.669 912.273,745.598 928.421,742.415 943.836,739.124 958.496,735.73 972.377,732.239 985.458,728.656 997.72,724.987 1009.14,721.237 1019.71,717.412 1029.4,713.518 1038.2,709.561 1037.75,685.478 1036.4,661.376 1034.15,637.291 1031.01,613.26 1026.97,589.321 1022.05,565.51 1016.25,541.865 1009.59,518.421 1002.07,495.214 993.703,472.282 984.503,449.658 974.484,427.378 963.662,405.476 952.054,383.986 939.677,362.941 926.551,342.374 912.696,322.315 898.132,302.797 882.883,283.849 866.972,265.501 850.424,247.78 833.263,230.714 815.518,214.33 797.214,198.652 778.38,183.706 759.046,169.513 739.24,156.095 718.995,143.474 698.339,131.669 677.307,120.699 655.929,110.579 634.24,101.326 612.272,92.9532 590.059,85.4746 567.635,78.9015 545.036,73.2437 522.296,68.5101 499.45,64.708 476.533,61.8432 453.581,59.9202 445.227,64.3782 436.886,69.774 428.571,76.0994 420.294,83.3445 412.069,91.4982 403.907,100.548 395.823,110.48 387.827,121.278 379.933,132.927 372.152,145.408 364.496,158.702 356.979,172.788 349.61,187.645 342.401,203.25 335.364,219.578 328.509,236.605 321.847,254.304 315.388,272.648 309.142,291.609 303.119,311.158 297.328,331.264 291.778,351.896 286.477,373.022 281.434,394.611 276.657,416.628 272.152,439.04 267.927,461.812 263.988,484.909 260.342,508.296 256.993,531.936 253.948,555.792 251.21,579.829 248.785,604.009 246.675,628.295 244.884,652.649 243.415,677.034 242.271,701.412 241.452,725.746 240.96,749.998 240.796,774.13"/>
<polyline fill="none" stroke="#999999" stroke-width="1" stroke-dasharray="5" points="330.729,230.963 349.47,232.533 368.181,234.872 386.835,237.977 405.402,241.841 423.854,246.461 442.163,251.828 460.3,257.934 478.237,264.77 495.946,272.326 513.401,280.588 530.574,289.546 547.439,299.185 563.969,309.49 580.14,320.445 595.927,332.033 611.305,344.237 626.249,357.038 640.739,370.416 654.75,384.35 668.262,398.819 681.253,413.8 693.704,429.271 705.595,445.208 716.908,461.585 727.625,478.378 737.731,495.562 747.209,513.108 756.045,530.991 764.225,549.182 771.737,567.655 778.568,586.379 784.709,605.327 790.151,624.469 794.883,643.776 798.9,663.217 802.195,682.763 804.763,702.384 806.601,722.05 807.704,741.729 808.072,761.393"/>
<polyline fill="none" stroke="#999999" stroke-width="1" stroke-dasharray="5" points="791.113,193.684 784.293,197.324 777.482,201.73 770.693,206.894 763.935,212.81 757.219,219.467 750.555,226.857 743.954,234.966 737.425,243.783 730.98,253.294 724.627,263.485 718.376,274.339 712.238,285.84 706.221,297.971 700.335,310.712 694.589,324.044 688.992,337.947 683.553,352.398 678.279,367.376 673.18,382.858 668.262,398.819 663.533,415.235 659.002,432.081 654.674,449.331 650.556,466.958 646.655,484.935 642.977,503.234 639.527,521.827 636.311,540.686 633.334,559.781 630.6,579.083 628.113,598.562 625.878,618.188 623.898,637.931 622.175,657.76 620.713,677.645 619.514,697.555 618.579,717.46 617.911,737.328 617.509,757.13 617.375,776.834"/>
<polyline fill="none" stroke="#999999" stroke-width="1" stroke-dasharray="5" points="279.843,401.764 298.717,402.884 317.83,403.875 337.153,404.735 356.654,405.463 376.306,406.057 396.076,406.516 415.936,406.841 435.853,407.03 455.798,407.082 475.739,406.999 495.646,406.78 515.488,406.426 535.235,405.936 554.856,405.312 574.32,404.555 593.599,403.666 612.661,402.646 631.479,401.497 650.022,400.221 668.262,398.819 686.171,397.294 703.721,395.647 720.886,393.883 737.639,392.003 753.953,390.01 769.805,387.907 785.168,385.698 800.021,383.386 814.339,380.975 828.102,378.467 841.286,375.868 853.873,373.181 865.843,370.41 877.176,367.56 887.857,364.635 897.868,361.639 907.194,358.577 915.821,355.454 923.735,352.274 930.924,349.043"/>
<polyline fill="none" stroke="#3333cc" stroke-width="5" style="marker-end:url(#Arrow2Mend)" points="453.581,672.611 668.262,398.819"/>
</g>
</svg>
