<?xml version="1.0" encoding="UTF-8" standalone="no"?>
<svg
   xmlns:ns0="http://www.iki.fi/pav/software/textext/"
   xmlns:dc="http://purl.org/dc/elements/1.1/"
   xmlns:cc="http://creativecommons.org/ns#"
   xmlns:rdf="http://www.w3.org/1999/02/22-rdf-syntax-ns#"
   xmlns:svg="http://www.w3.org/2000/svg"
   xmlns="http://www.w3.org/2000/svg"
   xmlns:sodipodi="http://sodipodi.sourceforge.net/DTD/sodipodi-0.dtd"
   xmlns:inkscape="http://www.inkscape.org/namespaces/inkscape"
   width="1720px"
   height="971px"
   viewBox="0 0 1720 971"
   id="svg2"
   version="1.1"
   inkscape:version="0.48.5 r10040"
   sodipodi:docname="symmetry2d.svg">
  <sodipodi:namedview
     pagecolor="#ffffff"
     bordercolor="#666666"
     borderopacity="1"
     objecttolerance="10"
     gridtolerance="10"
     guidetolerance="10"
     inkscape:pageopacity="0"
     inkscape:pageshadow="2"
     inkscape:window-width="1920"
     inkscape:window-height="1025"
     id="namedview88"
     showgrid="false"
     inkscape:zoom="0.67584221"
     inkscape:cx="591.27766"
     inkscape:cy="427.41223"
     inkscape:window-x="-4"
     inkscape:window-y="-3"
     inkscape:window-maximized="1"
     inkscape:current-layer="svg2"
     showguides="true"
     inkscape:guide-bbox="true" />
  <metadata
     id="metadata90">
    <rdf:RDF>
      <cc:Work
         rdf:about="">
        <dc:format>image/svg+xml</dc:format>
        <dc:type
           rdf:resource="http://purl.org/dc/dcmitype/StillImage" />
      </cc:Work>
    </rdf:RDF>
  </metadata>
  <title
     id="title4">symmetry2d</title>
  <desc
     id="desc6">
Creator: GL2PS 1.3.9, (C) 1999-2015 C. Geuzaine
For: Gmsh
CreationDate: Sat Feb 20 12:43:33 2016
</desc>
  <defs
     id="defs8">
    <marker
       style="overflow:visible"
       id="Arrow1Lstart"
       refX="0.0"
       refY="0.0"
       orient="auto"
       inkscape:stockid="Arrow1Lstart">
      <path
         transform="scale(0.8) translate(12.5,0)"
         style="fill-rule:evenodd;stroke:#000000;stroke-width:1.0pt"
         d="M 0.0,0.0 L 5.0,-5.0 L -12.5,0.0 L 5.0,5.0 L 0.0,0.0 z "
         id="path3788" />
    </marker>
    <marker
       style="overflow:visible;"
       id="Arrow2Mend"
       refX="0.0"
       refY="0.0"
       orient="auto"
       inkscape:stockid="Arrow2Mend">
      <path
         transform="scale(0.6) rotate(180) translate(0,0)"
         d="M 8.7185878,4.0337352 L -2.2072895,0.016013256 L 8.7185884,-4.0017078 C 6.9730900,-1.6296469 6.9831476,1.6157441 8.7185878,4.0337352 z "
         style="fill-rule:evenodd;stroke-width:0.62500000;stroke-linejoin:round;"
         id="path3815" />
    </marker>
    <marker
       style="overflow:visible"
       id="Arrow2Lstart"
       refX="0.0"
       refY="0.0"
       orient="auto"
       inkscape:stockid="Arrow2Lstart">
      <path
         transform="scale(1.1) translate(1,0)"
         d="M 8.7185878,4.0337352 L -2.2072895,0.016013256 L 8.7185884,-4.0017078 C 6.9730900,-1.6296469 6.9831476,1.6157441 8.7185878,4.0337352 z "
         style="fill-rule:evenodd;stroke-width:0.62500000;stroke-linejoin:round"
         id="path3806" />
    </marker>
    <marker
       style="overflow:visible;"
       id="Arrow1Lend"
       refX="0.0"
       refY="0.0"
       orient="auto"
       inkscape:stockid="Arrow1Lend">
      <path
         transform="scale(0.8) rotate(180) translate(12.5,0)"
         style="fill-rule:evenodd;stroke:#000000;stroke-width:1.0pt;"
         d="M 0.0,0.0 L 5.0,-5.0 L -12.5,0.0 L 5.0,5.0 L 0.0,0.0 z "
         id="path3791" />
    </marker>
    <marker
       style="overflow:visible;"
       id="Arrow1Mend"
       refX="0.0"
       refY="0.0"
       orient="auto"
       inkscape:stockid="Arrow1Mend">
      <path
         transform="scale(0.4) rotate(180) translate(10,0)"
         style="fill-rule:evenodd;stroke:#000000;stroke-width:1.0pt;"
         d="M 0.0,0.0 L 5.0,-5.0 L -12.5,0.0 L 5.0,5.0 L 0.0,0.0 z "
         id="path3797" />
    </marker>
  </defs>
  <polyline
     points="817.38,511.237 1058.92,835.192"
     id="polyline44"
     style="fill:none;stroke:#0072ff;stroke-width:5;stroke-opacity:1;stroke-miterlimit:4;stroke-dasharray:10, 10;stroke-dashoffset:0;marker-end:url(#Arrow1Mend)" />
  <path
     inkscape:connector-curvature="0"
     id="path3105"
     d="M 98.091606,451.32319 641.46849,757.25916 1537.0156,571.06604 993.19392,265.33547 z"
     style="fill:#2069a7;fill-opacity:0.19607843;stroke:#000000;stroke-width:1;stroke-linecap:butt;stroke-linejoin:miter;stroke-opacity:1;stroke-miterlimit:4;stroke-dasharray:2, 2;stroke-dashoffset:0" />
  <polyline
     points="817.38,511.237 491.236,327.454"
     id="polyline26"
     style="fill:none;stroke:#000000;stroke-width:3.75;marker-end:url(#Arrow1Mend);stroke-opacity:1;stroke-miterlimit:4;stroke-dasharray:none" />
  <polyline
     points="817.38,511.237 1354.73,399.69"
     id="polyline34"
     style="fill:none;stroke:#000000;stroke-width:3.75;stroke-opacity:1;stroke-miterlimit:4;stroke-dasharray:none;marker-end:url(#Arrow1Mend)" />
  <polyline
     points="817.38,511.237 817.38,905.017"
     id="polyline38"
     style="fill:none;stroke:#000000;stroke-width:1.25;marker-end:url(#Arrow1Mend);stroke-opacity:1;stroke-miterlimit:4;stroke-dasharray:none" />
  <circle
     cx="817.38"
     cy="511.237"
     r="2"
     id="circle42"
     sodipodi:cx="817.38"
     sodipodi:cy="511.237"
     sodipodi:rx="2"
     sodipodi:ry="2"
     style="fill:#5a5a5a" />
  <polyline
     points="948.981,483.918 1058.92,545.87"
     id="polyline46"
     style="fill:none;stroke:#808080;stroke-width:2.5;stroke-miterlimit:4;stroke-dasharray:2.5,7.5;stroke-dashoffset:0;stroke-opacity:1" />
  <polyline
     points="817.38,511.237 1058.92,545.87"
     id="polyline48"
     style="fill:none;stroke:#808080;stroke-width:2.5;stroke-miterlimit:4;stroke-dasharray:2.5,7.5;stroke-dashoffset:0;stroke-opacity:1" />
  <polyline
     points="817.38,511.237 817.38,117.458"
     id="polyline52"
     style="fill:none;stroke:#000000;stroke-width:1.25;stroke-opacity:1;stroke-miterlimit:4;stroke-dasharray:none;marker-end:url(#Arrow1Mend)" />
  <polyline
     points="1058.92,256.547 1058.92,835.192"
     id="polyline54"
     style="fill:none;stroke:#808080;stroke-width:2.5;stroke-miterlimit:4;stroke-dasharray:2.5,7.5;stroke-dashoffset:0;stroke-opacity:1" />
  <polyline
     points="817.38,511.237 1058.92,256.547"
     id="polyline56"
     style="fill:none;stroke:#0000aa;stroke-width:7.5;stroke-miterlimit:4;stroke-dasharray:none;stroke-opacity:1;marker-end:url(#Arrow1Mend)" />
  <polyline
     points="927.32,573.189 1058.92,545.87"
     id="polyline62"
     style="fill:none;stroke:#808080;stroke-width:2.5;stroke-miterlimit:4;stroke-dasharray:2.5,7.5;stroke-dashoffset:0;stroke-opacity:1" />
  <circle
     cx="1536.95"
     cy="571.43298"
     r="2"
     id="circle64"
     sodipodi:cx="1536.95"
     sodipodi:cy="571.43298"
     sodipodi:rx="2"
     sodipodi:ry="2"
     style="fill:#5a5a5a" />
  <polyline
     points="817.38,511.237 280.035,622.785"
     id="polyline68"
     style="fill:none;stroke:#000000;stroke-width:3.75;marker-end:url(#Arrow1Mend);stroke-opacity:1;stroke-miterlimit:4;stroke-dasharray:none" />
  <polyline
     points="817.38,511.237 1143.52,695.02"
     id="polyline72"
     style="fill:none;stroke:#000000;stroke-width:3.75;marker-end:url(#Arrow1Mend);stroke-opacity:1;stroke-miterlimit:4;stroke-dasharray:none" />
  <circle
     cx="948.98102"
     cy="483.918"
     r="2"
     id="circle36"
     sodipodi:cx="948.98102"
     sodipodi:cy="483.918"
     sodipodi:rx="2"
     sodipodi:ry="2"
     style="fill:#5a5a5a" />
  <circle
     transform="matrix(2.7596252,0,0,2.7596252,-1863.3024,-960.52657)"
     cx="1058.92"
     cy="545.87"
     r="2"
     id="circle50"
     sodipodi:cx="1058.92"
     sodipodi:cy="545.87"
     sodipodi:rx="2"
     sodipodi:ry="2"
     style="fill:#5a5a5a" />
  <circle
     cx="927.32001"
     cy="573.18903"
     r="2"
     id="circle66"
     sodipodi:cx="927.32001"
     sodipodi:cy="573.18903"
     sodipodi:rx="2"
     sodipodi:ry="2"
     style="fill:#5a5a5a" />
  <g
     ns0:preamble="/home/jeremy/papers/2011-enief/inkscape.tex"
     ns0:text="$x+$"
     word-spacing="normal"
     letter-spacing="normal"
     font-size-adjust="none"
     font-stretch="normal"
     font-weight="normal"
     font-variant="normal"
     font-style="normal"
     stroke-miterlimit="10.433"
     xml:space="preserve"
     transform="matrix(5,0,0,-5,38.037182,4005.9326)"
     id="content"
     style="font-style:normal;font-variant:normal;font-weight:normal;font-stretch:normal;letter-spacing:normal;word-spacing:normal;text-anchor:start;fill:none;stroke:#000000;stroke-linecap:butt;stroke-linejoin:miter;stroke-miterlimit:10.43299961;stroke-opacity:1;stroke-dasharray:none;stroke-dashoffset:0"><path
       id="path4446"
       d="m 226.76,660.23 0,0.03 0.01,0.03 0.01,0.03 0.01,0.04 0.01,0.04 0.01,0.04 0.01,0.04 0.02,0.05 0.01,0.04 0.02,0.05 0.02,0.05 0.02,0.05 0.02,0.05 0.03,0.05 0.02,0.05 0.03,0.05 0.03,0.05 0.03,0.04 0.03,0.05 0.04,0.04 0.04,0.05 0.04,0.04 0.04,0.04 0.04,0.03 0.05,0.03 0.05,0.03 0.02,0.01 0.03,0.02 0.02,0.01 0.03,0.01 0.03,0.01 0.03,0 0.03,0.01 0.02,0.01 0.04,0 0.03,0 0.03,0.01 0.03,0 c 0.05,0 0.29,0 0.5,-0.13 -0.28,-0.05 -0.48,-0.3 -0.48,-0.54 0,-0.16 0.11,-0.35 0.38,-0.35 0.22,0 0.54,0.18 0.54,0.58 0,0.52 -0.59,0.66 -0.93,0.66 -0.58,0 -0.93,-0.53 -1.04,-0.76 -0.25,0.66 -0.79,0.76 -1.08,0.76 -1.03,0 -1.6,-1.29 -1.6,-1.53 0,-0.1 0.1,-0.1 0.12,-0.1 0.08,0 0.11,0.02 0.13,0.11 0.34,1.05 0.99,1.3 1.33,1.3 0.19,0 0.54,-0.09 0.54,-0.67 0,-0.31 -0.17,-0.97 -0.54,-2.36 -0.16,-0.62 -0.51,-1.04 -0.94,-1.04 -0.06,0 -0.29,0 -0.5,0.13 0.25,0.05 0.47,0.26 0.47,0.54 0,0.27 -0.22,0.35 -0.37,0.35 -0.3,0 -0.55,-0.26 -0.55,-0.58 0,-0.46 0.5,-0.65 0.94,-0.65 0.65,0 1.01,0.69 1.04,0.75 0.12,-0.37 0.48,-0.75 1.07,-0.75 1.03,0 1.6,1.28 1.6,1.53 0,0.1 -0.09,0.1 -0.12,0.1 -0.09,0 -0.11,-0.04 -0.13,-0.11 -0.33,-1.07 -1.01,-1.31 -1.33,-1.31 -0.38,0 -0.54,0.32 -0.54,0.66 0,0.22 0.06,0.44 0.17,0.87 z"
       inkscape:connector-curvature="0"
       style="fill:#000000;stroke-width:0" /><path
       id="path4448"
       d="m 233.2,659.52 h 2.77 c 0.14,0 0.33,0 0.33,0.2 0,0.2 -0.19,0.2 -0.33,0.2 h -2.77 v 2.78 c 0,0.14 0,0.33 -0.2,0.33 -0.2,0 -0.2,-0.19 -0.2,-0.33 v -2.78 h -2.79 c -0.14,0 -0.33,0 -0.33,-0.2 0,-0.2 0.19,-0.2 0.33,-0.2 h 2.79 v -2.78 c 0,-0.14 0,-0.33 0.2,-0.33 0.2,0 0.2,0.19 0.2,0.33 z"
       inkscape:connector-curvature="0"
       style="fill:#000000;stroke-width:0" /></g>  <g
     id="g4529"
     transform="matrix(5,0,0,-5,-672.08915,3609.4205)"
     xml:space="preserve"
     stroke-miterlimit="10.433"
     font-style="normal"
     font-variant="normal"
     font-weight="normal"
     font-stretch="normal"
     font-size-adjust="none"
     letter-spacing="normal"
     word-spacing="normal"
     ns0:text="$x-$"
     ns0:preamble="/home/jeremy/papers/2011-enief/inkscape.tex"
     style="font-style:normal;font-variant:normal;font-weight:normal;font-stretch:normal;letter-spacing:normal;word-spacing:normal;text-anchor:start;fill:none;stroke:#000000;stroke-linecap:butt;stroke-linejoin:miter;stroke-miterlimit:10.43299961;stroke-opacity:1;stroke-dasharray:none;stroke-dashoffset:0"><path
       style="fill:#000000;stroke-width:0"
       inkscape:connector-curvature="0"
       d="m 226.76,660.23 0,0.03 0.01,0.03 0.01,0.03 0.01,0.04 0.01,0.04 0.01,0.04 0.01,0.04 0.02,0.05 0.01,0.04 0.02,0.05 0.02,0.05 0.02,0.05 0.02,0.05 0.03,0.05 0.02,0.05 0.03,0.05 0.03,0.05 0.03,0.04 0.03,0.05 0.04,0.04 0.04,0.05 0.04,0.04 0.04,0.04 0.04,0.03 0.05,0.03 0.05,0.03 0.02,0.01 0.03,0.02 0.02,0.01 0.03,0.01 0.03,0.01 0.03,0 0.03,0.01 0.02,0.01 0.04,0 0.03,0 0.03,0.01 0.03,0 c 0.05,0 0.29,0 0.5,-0.13 -0.28,-0.05 -0.48,-0.3 -0.48,-0.54 0,-0.16 0.11,-0.35 0.38,-0.35 0.22,0 0.54,0.18 0.54,0.58 0,0.52 -0.59,0.66 -0.93,0.66 -0.58,0 -0.93,-0.53 -1.04,-0.76 -0.25,0.66 -0.79,0.76 -1.08,0.76 -1.03,0 -1.6,-1.29 -1.6,-1.53 0,-0.1 0.1,-0.1 0.12,-0.1 0.08,0 0.11,0.02 0.13,0.11 0.34,1.05 0.99,1.3 1.33,1.3 0.19,0 0.54,-0.09 0.54,-0.67 0,-0.31 -0.17,-0.97 -0.54,-2.36 -0.16,-0.62 -0.51,-1.04 -0.94,-1.04 -0.06,0 -0.29,0 -0.5,0.13 0.25,0.05 0.47,0.26 0.47,0.54 0,0.27 -0.22,0.35 -0.37,0.35 -0.3,0 -0.55,-0.26 -0.55,-0.58 0,-0.46 0.5,-0.65 0.94,-0.65 0.65,0 1.01,0.69 1.04,0.75 0.12,-0.37 0.48,-0.75 1.07,-0.75 1.03,0 1.6,1.28 1.6,1.53 0,0.1 -0.09,0.1 -0.12,0.1 -0.09,0 -0.11,-0.04 -0.13,-0.11 -0.33,-1.07 -1.01,-1.31 -1.33,-1.31 -0.38,0 -0.54,0.32 -0.54,0.66 0,0.22 0.06,0.44 0.17,0.87 z"
       id="path4531" /><path
       style="fill:#000000;stroke-width:0"
       inkscape:connector-curvature="0"
       d="m 235.68,659.52 0.03,0 0.04,0 0.03,0 0.01,0 0.02,0 0.01,0 0.02,0.01 0.01,0 0.02,0 0.01,0 0.01,0.01 0.02,0 0.01,0 0.01,0.01 0.01,0.01 0.02,0 0.01,0.01 0.01,0.01 0,0 0.01,0.01 0.01,0.01 0,0.01 0.01,0 0,0.01 0,0.01 0.01,0 0,0.01 0,0.01 0,0 0,0.01 0.01,0.01 0,0.01 0,0 0,0.01 0,0.01 0,0.01 0,0.01 c 0,0.2 -0.18,0.2 -0.35,0.2 h -5.38 c -0.17,0 -0.35,0 -0.35,-0.2 0,-0.2 0.18,-0.2 0.35,-0.2 z"
       id="path4533" /></g>  <g
     style="font-style:normal;font-variant:normal;font-weight:normal;font-stretch:normal;letter-spacing:normal;word-spacing:normal;text-anchor:start;fill:none;stroke:#000000;stroke-linecap:butt;stroke-linejoin:miter;stroke-miterlimit:10.43299961;stroke-opacity:1;stroke-dasharray:none;stroke-dashoffset:0"
     ns0:preamble="/home/jeremy/papers/2011-enief/inkscape.tex"
     ns0:text="$y-$"
     word-spacing="normal"
     letter-spacing="normal"
     font-size-adjust="none"
     font-stretch="normal"
     font-weight="normal"
     font-variant="normal"
     font-style="normal"
     stroke-miterlimit="10.433"
     xml:space="preserve"
     transform="matrix(5,0,0,-5,-916.14558,3923.1383)"
     id="g4618"><path
       id="path4620"
       d="m 228.27,661.02 0,0.01 0,0 0,0.01 0,0 0.01,0.02 0,0.01 0,0.01 0.01,0.01 0,0.01 0,0 0,0.01 0,0.01 0.01,0.01 0,0.01 0,0 0,0.01 0,0 0,0.01 0,0.01 0,0 0,0.01 0,0 0.01,0.01 0,0.01 0,0.01 0,0.01 0,0.01 0,0.01 0,0 0,0.01 c 0,0.18 -0.14,0.27 -0.29,0.27 -0.1,0 -0.26,-0.06 -0.35,-0.21 -0.02,-0.05 -0.1,-0.36 -0.14,-0.54 -0.07,-0.26 -0.14,-0.53 -0.2,-0.79 l -0.45,-1.79 c -0.03,-0.15 -0.46,-0.85 -1.12,-0.85 -0.51,0 -0.62,0.44 -0.62,0.81 0,0.46 0.17,1.07 0.51,1.95 0.16,0.4 0.2,0.51 0.2,0.71 0,0.45 -0.32,0.82 -0.82,0.82 -0.94,0 -1.31,-1.45 -1.31,-1.53 0,-0.1 0.1,-0.1 0.12,-0.1 0.1,0 0.11,0.02 0.16,0.17 0.27,0.94 0.67,1.24 1,1.24 0.08,0 0.25,0 0.25,-0.32 0,-0.25 -0.1,-0.51 -0.17,-0.7 -0.39,-1.05 -0.57,-1.61 -0.57,-2.08 0,-0.89 0.62,-1.18 1.21,-1.18 0.39,0 0.73,0.16 1.01,0.44 -0.13,-0.51 -0.25,-1 -0.65,-1.53 -0.26,-0.33 -0.64,-0.62 -1.1,-0.62 -0.13,0 -0.58,0.03 -0.75,0.41 0.16,0 0.29,0 0.43,0.12 0.1,0.09 0.19,0.22 0.19,0.41 0,0.31 -0.26,0.35 -0.36,0.35 -0.23,0 -0.56,-0.16 -0.56,-0.65 0,-0.49 0.44,-0.86 1.05,-0.86 1.03,0 2.05,0.9 2.33,2.02 z"
       inkscape:connector-curvature="0"
       style="fill:#000000;stroke-width:0" /><path
       id="path4622"
       d="m 235.23,659.52 0.03,0 0.03,0 0.04,0 0.01,0 0.02,0 0.01,0 0.02,0.01 0.01,0 0.02,0 0.01,0 0.01,0.01 0.02,0 0.01,0 0.01,0.01 0.01,0.01 0.01,0 0.01,0.01 0.01,0.01 0.01,0 0.01,0.01 0.01,0.01 0,0.01 0.01,0 0,0.01 0,0.01 0,0 0.01,0.01 0,0.01 0,0 0,0.01 0,0.01 0.01,0.01 0,0 0,0.01 0,0.01 0,0.01 0,0.01 c 0,0.2 -0.18,0.2 -0.35,0.2 h -5.38 c -0.17,0 -0.35,0 -0.35,-0.2 0,-0.2 0.18,-0.2 0.35,-0.2 z"
       inkscape:connector-curvature="0"
       style="fill:#000000;stroke-width:0" /></g>  <g
     id="g4710"
     transform="matrix(5,0,0,-5,244.55462,3677.5875)"
     xml:space="preserve"
     stroke-miterlimit="10.433"
     font-style="normal"
     font-variant="normal"
     font-weight="normal"
     font-stretch="normal"
     font-size-adjust="none"
     letter-spacing="normal"
     word-spacing="normal"
     ns0:text="$y+$"
     ns0:preamble="/home/jeremy/papers/2011-enief/inkscape.tex"
     style="font-style:normal;font-variant:normal;font-weight:normal;font-stretch:normal;letter-spacing:normal;word-spacing:normal;text-anchor:start;fill:none;stroke:#000000;stroke-linecap:butt;stroke-linejoin:miter;stroke-miterlimit:10.43299961;stroke-opacity:1;stroke-dasharray:none;stroke-dashoffset:0"><path
       style="fill:#000000;stroke-width:0"
       inkscape:connector-curvature="0"
       d="m 228.27,661.02 0,0.01 0,0 0,0.01 0,0 0.01,0.02 0,0.01 0,0.01 0.01,0.01 0,0.01 0,0 0,0.01 0,0.01 0.01,0.01 0,0.01 0,0 0,0.01 0,0 0,0.01 0,0.01 0,0 0,0.01 0,0 0.01,0.01 0,0.01 0,0.01 0,0.01 0,0.01 0,0.01 0,0 0,0.01 c 0,0.18 -0.14,0.27 -0.29,0.27 -0.1,0 -0.26,-0.06 -0.35,-0.21 -0.02,-0.05 -0.1,-0.36 -0.14,-0.54 -0.07,-0.26 -0.14,-0.53 -0.2,-0.79 l -0.45,-1.79 c -0.03,-0.15 -0.46,-0.85 -1.12,-0.85 -0.51,0 -0.62,0.44 -0.62,0.81 0,0.46 0.17,1.07 0.51,1.95 0.16,0.4 0.2,0.51 0.2,0.71 0,0.45 -0.32,0.82 -0.82,0.82 -0.94,0 -1.31,-1.45 -1.31,-1.53 0,-0.1 0.1,-0.1 0.12,-0.1 0.1,0 0.11,0.02 0.16,0.17 0.27,0.94 0.67,1.24 1,1.24 0.08,0 0.25,0 0.25,-0.32 0,-0.25 -0.1,-0.51 -0.17,-0.7 -0.39,-1.05 -0.57,-1.61 -0.57,-2.08 0,-0.89 0.62,-1.18 1.21,-1.18 0.39,0 0.73,0.16 1.01,0.44 -0.13,-0.51 -0.25,-1 -0.65,-1.53 -0.26,-0.33 -0.64,-0.62 -1.1,-0.62 -0.13,0 -0.58,0.03 -0.75,0.41 0.16,0 0.29,0 0.43,0.12 0.1,0.09 0.19,0.22 0.19,0.41 0,0.31 -0.26,0.35 -0.36,0.35 -0.23,0 -0.56,-0.16 -0.56,-0.65 0,-0.49 0.44,-0.86 1.05,-0.86 1.03,0 2.05,0.9 2.33,2.02 z"
       id="path4712" /><path
       style="fill:#000000;stroke-width:0"
       inkscape:connector-curvature="0"
       d="m 232.74,659.52 h 2.78 c 0.14,0 0.33,0 0.33,0.2 0,0.2 -0.19,0.2 -0.33,0.2 h -2.78 v 2.78 c 0,0.14 0,0.33 -0.2,0.33 -0.19,0 -0.19,-0.19 -0.19,-0.33 v -2.78 h -2.79 c -0.14,0 -0.33,0 -0.33,-0.2 0,-0.2 0.19,-0.2 0.33,-0.2 h 2.79 v -2.78 c 0,-0.14 0,-0.33 0.19,-0.33 0.2,0 0.2,0.19 0.2,0.33 z"
       id="path4714" /></g>  <g
     style="font-style:normal;font-variant:normal;font-weight:normal;font-stretch:normal;letter-spacing:normal;word-spacing:normal;text-anchor:start;fill:none;stroke:#000000;stroke-linecap:butt;stroke-linejoin:miter;stroke-miterlimit:10.43299961;stroke-opacity:1;stroke-dasharray:none;stroke-dashoffset:0"
     ns0:preamble="/home/jeremy/papers/2011-enief/inkscape.tex"
     ns0:text="$z+$"
     text-anchor="start"
     word-spacing="normal"
     letter-spacing="normal"
     font-size-adjust="none"
     font-stretch="normal"
     font-weight="normal"
     font-variant="normal"
     font-style="normal"
     fill-opacity="1"
     fill-rule="evenodd"
     fill="none"
     stroke-opacity="1"
     stroke-dashoffset="0"
     stroke-dasharray="none"
     stroke-miterlimit="10.433"
     stroke-linejoin="miter"
     stroke-linecap="butt"
     stroke="black"
     xml:space="preserve"
     transform="matrix(5,0,0,-5,-323.39951,3389.8305)"
     id="g4805"><path
       id="path4807"
       fill="black"
       stroke-width="0"
       d="M224.76,658.06 L224.8,658.11 L224.85,658.16 L224.9,658.21 L224.95,658.26 L224.99,658.31 L225.03,658.35 L225.08,658.39 L225.12,658.44 L225.16,658.48 L225.2,658.52 L225.23,658.55 L225.27,658.59 L225.31,658.63 L225.34,658.66 L225.41,658.73 L225.48,658.79 L225.55,658.85 L225.61,658.91 L225.68,658.97 L225.81,659.08 L225.87,659.13 L225.94,659.19 C225.94,659.2,226.56,659.73,226.91,660.09 C227.86,661.01,228.08,661.49,228.08,661.53 C228.08,661.63,227.99,661.63,227.97,661.63 C227.9,661.63,227.87,661.61,227.82,661.52 C227.52,661.04,227.31,660.88,227.07,660.88 C226.84,660.88,226.71,661.03,226.57,661.2 C226.38,661.43,226.21,661.63,225.88,661.63 C225.13,661.63,224.68,660.7,224.68,660.49 C224.68,660.44,224.71,660.38,224.79,660.38 C224.88,660.38,224.9,660.43,224.92,660.49 C225.11,660.95,225.69,660.96,225.77,660.96 C225.98,660.96,226.17,660.89,226.4,660.81 C226.79,660.66,226.9,660.66,227.16,660.66 C226.8,660.23,225.97,659.52,225.78,659.36 L224.88,658.53 C224.21,657.86,223.86,657.29,223.86,657.22 C223.86,657.13,223.96,657.13,223.98,657.13 C224.06,657.13,224.08,657.15,224.14,657.26 C224.37,657.6,224.67,657.87,224.98,657.87 C225.21,657.87,225.31,657.78,225.56,657.49 C225.73,657.28,225.91,657.13,226.2,657.13 C227.18,657.13,227.76,658.39,227.76,658.66 C227.76,658.71,227.72,658.76,227.64,658.76 C227.55,658.76,227.53,658.7,227.5,658.63 C227.27,657.98,226.64,657.79,226.31,657.79 C226.11,657.79,225.93,657.85,225.72,657.92 C225.38,658.05,225.23,658.09,225.02,658.09 C225,658.09,224.85,658.09,224.76,658.06 Z " /><path
       id="path4809"
       fill="black"
       stroke-width="0"
       d="M232.57,659.52 H235.35 C235.49,659.52,235.68,659.52,235.68,659.72 C235.68,659.92,235.49,659.92,235.35,659.92 H232.57 V662.7 C232.57,662.84,232.57,663.03,232.37,663.03 C232.17,663.03,232.17,662.84,232.17,662.7 V659.92 H229.39 C229.25,659.92,229.06,659.92,229.06,659.72 C229.06,659.52,229.25,659.52,229.39,659.52 H232.17 V656.74 C232.17,656.6,232.17,656.41,232.37,656.41 C232.57,656.41,232.57,656.6,232.57,656.74 Z " /></g>  <g
     id="g4903"
     transform="matrix(5,0,0,-5,-321.74038,4228.7531)"
     xml:space="preserve"
     stroke="black"
     stroke-linecap="butt"
     stroke-linejoin="miter"
     stroke-miterlimit="10.433"
     stroke-dasharray="none"
     stroke-dashoffset="0"
     stroke-opacity="1"
     fill="none"
     fill-rule="evenodd"
     fill-opacity="1"
     font-style="normal"
     font-variant="normal"
     font-weight="normal"
     font-stretch="normal"
     font-size-adjust="none"
     letter-spacing="normal"
     word-spacing="normal"
     text-anchor="start"
     ns0:text="$z-$"
     ns0:preamble="/home/jeremy/papers/2011-enief/inkscape.tex"
     style="font-style:normal;font-variant:normal;font-weight:normal;font-stretch:normal;letter-spacing:normal;word-spacing:normal;text-anchor:start;fill:none;stroke:#000000;stroke-linecap:butt;stroke-linejoin:miter;stroke-miterlimit:10.43299961;stroke-opacity:1;stroke-dasharray:none;stroke-dashoffset:0"><path
       d="M224.76,658.06 L224.8,658.11 L224.85,658.16 L224.9,658.21 L224.95,658.26 L224.99,658.31 L225.03,658.35 L225.08,658.39 L225.12,658.44 L225.16,658.48 L225.2,658.52 L225.23,658.55 L225.27,658.59 L225.31,658.63 L225.34,658.66 L225.41,658.73 L225.48,658.79 L225.55,658.85 L225.61,658.91 L225.68,658.97 L225.81,659.08 L225.87,659.13 L225.94,659.19 C225.94,659.2,226.56,659.73,226.91,660.09 C227.86,661.01,228.08,661.49,228.08,661.53 C228.08,661.63,227.99,661.63,227.97,661.63 C227.9,661.63,227.87,661.61,227.82,661.52 C227.52,661.04,227.31,660.88,227.07,660.88 C226.84,660.88,226.71,661.03,226.57,661.2 C226.38,661.43,226.21,661.63,225.88,661.63 C225.13,661.63,224.68,660.7,224.68,660.49 C224.68,660.44,224.71,660.38,224.79,660.38 C224.88,660.38,224.9,660.43,224.92,660.49 C225.11,660.95,225.69,660.96,225.77,660.96 C225.98,660.96,226.17,660.89,226.4,660.81 C226.79,660.66,226.9,660.66,227.16,660.66 C226.8,660.23,225.97,659.52,225.78,659.36 L224.88,658.53 C224.21,657.86,223.86,657.29,223.86,657.22 C223.86,657.13,223.96,657.13,223.98,657.13 C224.06,657.13,224.08,657.15,224.14,657.26 C224.37,657.6,224.67,657.87,224.98,657.87 C225.21,657.87,225.31,657.78,225.56,657.49 C225.73,657.28,225.91,657.13,226.2,657.13 C227.18,657.13,227.76,658.39,227.76,658.66 C227.76,658.71,227.72,658.76,227.64,658.76 C227.55,658.76,227.53,658.7,227.5,658.63 C227.27,657.98,226.64,657.79,226.31,657.79 C226.11,657.79,225.93,657.85,225.72,657.92 C225.38,658.05,225.23,658.09,225.02,658.09 C225,658.09,224.85,658.09,224.76,658.06 Z "
       stroke-width="0"
       fill="black"
       id="path4905" /><path
       d="M235.06,659.52 L235.09,659.52 L235.12,659.52 L235.15,659.52 L235.17,659.52 L235.19,659.52 L235.2,659.52 L235.22,659.53 L235.23,659.53 L235.24,659.53 L235.26,659.53 L235.27,659.54 L235.28,659.54 L235.3,659.54 L235.31,659.55 L235.32,659.56 L235.33,659.56 L235.34,659.57 L235.35,659.58 L235.36,659.58 L235.37,659.59 L235.38,659.6 L235.38,659.61 L235.38,659.61 L235.39,659.62 L235.39,659.63 L235.39,659.63 L235.4,659.64 L235.4,659.65 L235.4,659.65 L235.4,659.66 L235.4,659.67 L235.4,659.68 L235.41,659.68 L235.41,659.69 L235.41,659.7 L235.41,659.71 L235.41,659.72 C235.41,659.92,235.23,659.92,235.06,659.92 H229.68 C229.51,659.92,229.33,659.92,229.33,659.72 C229.33,659.52,229.51,659.52,229.68,659.52 Z "
       stroke-width="0"
       fill="black"
       id="path4907" /></g>  <path
     style="fill:none;stroke:#000000;stroke-width:0.62500000000000000;stroke-linecap:butt;stroke-linejoin:miter;stroke-miterlimit:4;stroke-opacity:1;stroke-dasharray:none;marker-end:url(#Arrow1Lend);marker-start:url(#Arrow1Lstart)"
     d="m 904.30065,421.42168 c 0,0 25.16009,28.53981 31.37,47.05501 6.20991,18.5152 1.80981,59.72366 1.80981,59.72366"
     id="path6646"
     inkscape:connector-curvature="0"
     sodipodi:nodetypes="czc" />
  <g
     style="font-style:normal;font-variant:normal;font-weight:normal;font-stretch:normal;letter-spacing:normal;word-spacing:normal;text-anchor:start;fill:none;stroke:#000000;stroke-linecap:butt;stroke-linejoin:miter;stroke-miterlimit:10.43299961;stroke-opacity:1;stroke-dasharray:none;stroke-dashoffset:0"
     id="g6729"
     transform="matrix(3.75,0,0,-3.75,108.85058,2939.8064)"
     xml:space="preserve"
     stroke-miterlimit="10.433"
     font-style="normal"
     font-variant="normal"
     font-weight="normal"
     font-stretch="normal"
     font-size-adjust="none"
     letter-spacing="normal"
     word-spacing="normal"
     ns0:text="$\\theta$"
     ns0:preamble="/home/jeremy/papers/2011-enief/inkscape.tex"><path
       style="fill:#000000;stroke-width:0"
       inkscape:connector-curvature="0"
       d="m 227.96,662.2 0,0.07 0,0.06 -0.01,0.07 0,0.08 -0.01,0.07 0,0.08 -0.01,0.08 -0.01,0.09 -0.02,0.08 -0.01,0.08 -0.02,0.09 -0.02,0.08 -0.02,0.09 -0.03,0.08 -0.03,0.09 -0.03,0.08 -0.03,0.08 -0.04,0.07 -0.04,0.08 -0.04,0.07 -0.05,0.06 -0.05,0.07 -0.05,0.06 -0.06,0.05 -0.06,0.05 -0.03,0.02 -0.04,0.03 -0.03,0.02 -0.04,0.01 -0.03,0.02 -0.04,0.02 -0.04,0.01 -0.04,0.01 -0.04,0.01 -0.04,0.01 -0.05,0.01 -0.04,0 -0.05,0.01 -0.05,0 0,-0.22 c 0.48,0 0.54,-0.64 0.54,-1.2 0,-0.49 -0.08,-1 -0.32,-1.98 h -2.08 c 0.17,0.64 0.37,1.43 0.77,2.14 0.27,0.48 0.64,1.04 1.09,1.04 l 0,0.22 c -1.38,0 -2.91,-2.8 -2.91,-5.08 0,-0.93 0.29,-2.03 1.19,-2.03 v 0.21 c -0.33,0 -0.53,0.29 -0.53,1.22 0,0.41 0.06,0.99 0.31,1.96 h 2.07 c -0.1,-0.45 -0.31,-1.3 -0.69,-2.01 -0.35,-0.68 -0.73,-1.17 -1.16,-1.17 v -0.21 c 1.41,0 2.92,2.85 2.92,5.07 z"
       id="path6731" /></g>  <path
     sodipodi:nodetypes="czc"
     inkscape:connector-curvature="0"
     id="path6814"
     d="m 1006.5392,538.48028 c 0,0 9.3655,23.52692 5.2786,40.56986 -4.087,17.04295 -13.72438,32.2749 -13.72438,32.2749"
     style="fill:none;stroke:#000000;stroke-width:0.625;stroke-linecap:butt;stroke-linejoin:miter;stroke-miterlimit:4;stroke-opacity:1;stroke-dasharray:none;marker-start:url(#Arrow1Lstart);marker-end:url(#Arrow1Lend)" />
  <g
     style="font-style:normal;font-variant:normal;font-weight:normal;font-stretch:normal;letter-spacing:normal;word-spacing:normal;text-anchor:start;fill:none;stroke:#000000;stroke-linecap:butt;stroke-linejoin:miter;stroke-miterlimit:10.43299961;stroke-opacity:1;stroke-dasharray:none;stroke-dashoffset:0"
     ns0:preamble="/home/jeremy/papers/2011-enief/inkscape.tex"
     ns0:text="$\\varphi$"
     word-spacing="normal"
     letter-spacing="normal"
     font-size-adjust="none"
     font-stretch="normal"
     font-weight="normal"
     font-variant="normal"
     font-style="normal"
     stroke-miterlimit="10.433"
     xml:space="preserve"
     transform="matrix(3.75,0,0,-3.75,179.15244,3053.3084)"
     id="g8426"><path
       id="path8428"
       d="m 225.12,655.55 0,-0.01 0,-0.01 0,0 0,-0.01 -0.01,-0.01 0,-0.01 0,-0.01 -0.01,-0.01 0,0 0,-0.01 0,-0.01 -0.01,-0.01 0,0 0,-0.01 0,-0.01 0,0 0,-0.01 -0.01,0 0,-0.01 0,0 0,-0.01 0,0 0,-0.01 0,0 0,-0.01 0,-0.01 -0.01,0 0,-0.01 0,-0.01 0,0 c 0,-0.22 0.19,-0.28 0.29,-0.28 0.05,0 0.27,0.03 0.37,0.26 0.03,0.08 0.08,0.4 0.35,1.82 0.09,-0.01 0.16,-0.02 0.33,-0.02 1.65,0 3.18,1.55 3.18,3.13 l -0.28,-0.22 c 0,-1.13 -1.28,-2.34 -2.81,-2.34 h 0 c -0.08,0 -0.1,0 -0.18,0.01 -0.12,0 -0.13,0.01 -0.13,0.04 0,0.02 0.17,0.92 0.2,1.07 0.31,1.28 1.08,2.23 1.97,2.23 0.68,0 0.95,-0.54 0.95,-1.01 l 0.28,0.22 c 0,0.77 -0.39,1.37 -1.13,1.37 -1.45,0 -2.04,-1.93 -2.64,-3.87 -1.08,0.2 -1.63,0.76 -1.63,1.47 0,0.28 0.23,1.37 0.82,2.06 0.08,0.09 0.08,0.11 0.08,0.13 0,0.04 -0.02,0.1 -0.12,0.1 -0.27,0 -1.04,-1.44 -1.04,-2.4 0,-0.93 0.66,-1.66 1.72,-1.9 z"
       inkscape:connector-curvature="0"
       style="fill:#000000;stroke-width:0" /></g>  <g
     id="g8616"
     transform="matrix(0,-2.5,-2.5,0,2691.6917,1004.1709)"
     xml:space="preserve"
     stroke-miterlimit="10.433"
     font-style="normal"
     font-variant="normal"
     font-weight="normal"
     font-stretch="normal"
     font-size-adjust="none"
     letter-spacing="normal"
     word-spacing="normal"
     ns0:text="$+\\hat{\\Omega}_z$"
     ns0:preamble="/home/jeremy/papers/2011-enief/inkscape.tex"
     style="font-style:normal;font-variant:normal;font-weight:normal;font-stretch:normal;letter-spacing:normal;word-spacing:normal;text-anchor:start;fill:none;stroke:#000000;stroke-linecap:butt;stroke-linejoin:miter;stroke-miterlimit:10.43299961;stroke-opacity:1;stroke-dasharray:none;stroke-dashoffset:0"><path
       d="m 227.5,659.52 h 2.78 c 0.14,0 0.32,0 0.32,0.2 0,0.2 -0.18,0.2 -0.32,0.2 h -2.78 v 2.78 c 0,0.14 0,0.33 -0.2,0.33 -0.2,0 -0.2,-0.19 -0.2,-0.33 v -2.78 h -2.78 c -0.14,0 -0.33,0 -0.33,-0.2 0,-0.2 0.19,-0.2 0.33,-0.2 h 2.78 v -2.78 c 0,-0.14 0,-0.33 0.2,-0.33 0.2,0 0.2,0.19 0.2,0.33 z"
       id="path8618"
       inkscape:connector-curvature="0"
       style="fill:#000000;stroke-width:0" /><polygon
       points="234.77,666.65 233.44,665.3 233.62,665.12 234.77,666.13 235.92,665.12 236.1,665.3 "
       id="polygon8620"
       style="fill:#000000;stroke-width:0" /><path
       d="m 237.92,658.84 h -0.25 c -0.05,-0.25 -0.09,-0.48 -0.18,-0.72 -0.05,-0.16 -0.08,-0.24 -0.66,-0.24 h -0.79 c 0.13,0.56 0.43,1.03 0.88,1.69 0.47,0.71 0.88,1.39 0.88,2.17 0,1.39 -1.35,2.5 -3.03,2.5 -1.71,0 -3.03,-1.13 -3.03,-2.5 0,-0.78 0.41,-1.46 0.87,-2.17 0.44,-0.66 0.76,-1.13 0.89,-1.69 h -0.8 c -0.57,0 -0.6,0.08 -0.65,0.23 -0.08,0.23 -0.13,0.49 -0.18,0.73 h -0.25 l 0.33,-1.61 h 1.59 c 0.22,0 0.25,0 0.25,0.21 0,0.7 -0.31,1.57 -0.54,2.21 -0.21,0.57 -0.49,1.36 -0.49,2.11 0,1.58 1.1,2.26 2,2.26 0.96,0 2.01,-0.72 2.01,-2.26 0,-0.75 -0.27,-1.5 -0.56,-2.32 -0.14,-0.42 -0.46,-1.31 -0.46,-2 0,-0.21 0.03,-0.21 0.26,-0.21 h 1.58 z"
       id="path8622"
       inkscape:connector-curvature="0"
       style="fill:#000000;stroke-width:0" /><path
       d="m 239.55,656.35 0.03,0.04 0.03,0.03 0.04,0.03 0.03,0.04 0.04,0.03 0.01,0.02 0.02,0.02 0.02,0.02 0.03,0.02 0.02,0.02 0.02,0.02 0.03,0.02 0.02,0.02 0.03,0.03 0.03,0.02 0.03,0.03 0.03,0.02 0.03,0.03 0.04,0.03 0.04,0.03 0.04,0.04 0.04,0.03 0.04,0.04 0.05,0.03 0.05,0.04 0.05,0.05 0.06,0.04 c 0.14,0.12 0.66,0.53 0.87,0.73 0.42,0.42 0.69,0.77 0.69,0.85 0,0.09 -0.1,0.09 -0.12,0.09 -0.07,0 -0.09,-0.02 -0.12,-0.07 -0.22,-0.32 -0.36,-0.43 -0.53,-0.43 -0.09,0 -0.19,0.01 -0.4,0.21 -0.24,0.24 -0.39,0.29 -0.55,0.29 -0.56,0 -0.93,-0.61 -0.93,-0.82 0,-0.06 0.07,-0.08 0.12,-0.08 0.08,0 0.09,0.02 0.12,0.1 0.11,0.24 0.5,0.26 0.61,0.26 0.16,0 0.34,-0.05 0.44,-0.07 0.38,-0.08 0.43,-0.08 0.6,-0.08 -0.18,-0.19 -0.3,-0.31 -0.97,-0.84 -0.54,-0.43 -0.73,-0.61 -0.86,-0.75 -0.42,-0.41 -0.62,-0.71 -0.62,-0.77 0,-0.09 0.09,-0.09 0.12,-0.09 0.07,0 0.08,0.01 0.12,0.07 0.19,0.27 0.4,0.42 0.64,0.42 0.08,0 0.19,0 0.37,-0.18 0.22,-0.2 0.36,-0.31 0.58,-0.31 0.75,0 1.21,0.84 1.21,1.08 0,0.08 -0.07,0.09 -0.11,0.09 -0.09,0 -0.1,-0.04 -0.13,-0.11 -0.13,-0.35 -0.54,-0.52 -0.88,-0.52 -0.16,0 -0.34,0.04 -0.51,0.08 -0.32,0.07 -0.38,0.07 -0.5,0.07 -0.02,0 -0.12,0 -0.16,-0.01 z"
       id="path8624"
       inkscape:connector-curvature="0"
       style="fill:#000000;stroke-width:0" /></g>  <g
     id="g9040"
     transform="matrix(0,-2.5,-2.5,0,2691.6026,1313.3492)"
     xml:space="preserve"
     stroke-miterlimit="10.433"
     font-style="normal"
     font-variant="normal"
     font-weight="normal"
     font-stretch="normal"
     font-size-adjust="none"
     letter-spacing="normal"
     word-spacing="normal"
     ns0:text="$-\\hat{\\Omega}_z$"
     ns0:preamble="/home/jeremy/papers/2011-enief/inkscape.tex"
     style="font-style:normal;font-variant:normal;font-weight:normal;font-stretch:normal;letter-spacing:normal;word-spacing:normal;text-anchor:start;fill:none;stroke:#000000;stroke-linecap:butt;stroke-linejoin:miter;stroke-miterlimit:10.43299961;stroke-opacity:1;stroke-dasharray:none;stroke-dashoffset:0"><path
       d="m 229.99,659.52 0.03,0 0.03,0 0.03,0 0.02,0 0.01,0 0.02,0 0.01,0.01 0.02,0 0.01,0 0.02,0 0.01,0.01 0.01,0 0.02,0 0.01,0.01 0.01,0.01 0.01,0 0.01,0.01 0.01,0.01 0.01,0 0.01,0.01 0.01,0.01 0,0.01 0,0 0.01,0.01 0,0.01 0,0 0,0.01 0.01,0.01 0,0 0,0.01 0,0.01 0,0.01 0,0 0.01,0.01 0,0.01 0,0.01 0,0.01 c 0,0.2 -0.18,0.2 -0.35,0.2 h -5.38 c -0.17,0 -0.35,0 -0.35,-0.2 0,-0.2 0.18,-0.2 0.35,-0.2 z"
       id="path9042"
       inkscape:connector-curvature="0"
       style="fill:#000000;stroke-width:0" /><polygon
       points="234.77,666.13 235.92,665.12 236.1,665.3 234.77,666.65 233.44,665.3 233.62,665.12 "
       id="polygon9044"
       style="fill:#000000;stroke-width:0" /><path
       d="m 237.92,658.84 h -0.25 c -0.05,-0.25 -0.09,-0.48 -0.18,-0.72 -0.05,-0.16 -0.08,-0.24 -0.66,-0.24 h -0.79 c 0.13,0.56 0.43,1.03 0.88,1.69 0.47,0.71 0.88,1.39 0.88,2.17 0,1.39 -1.35,2.5 -3.03,2.5 -1.71,0 -3.03,-1.13 -3.03,-2.5 0,-0.78 0.41,-1.46 0.87,-2.17 0.44,-0.66 0.76,-1.13 0.89,-1.69 h -0.8 c -0.57,0 -0.6,0.08 -0.65,0.23 -0.08,0.23 -0.13,0.49 -0.18,0.73 h -0.25 l 0.33,-1.61 h 1.59 c 0.22,0 0.25,0 0.25,0.21 0,0.7 -0.31,1.57 -0.54,2.21 -0.21,0.57 -0.49,1.36 -0.49,2.11 0,1.58 1.1,2.26 2,2.26 0.96,0 2.01,-0.72 2.01,-2.26 0,-0.75 -0.27,-1.5 -0.56,-2.32 -0.14,-0.42 -0.46,-1.31 -0.46,-2 0,-0.21 0.03,-0.21 0.26,-0.21 h 1.58 z"
       id="path9046"
       inkscape:connector-curvature="0"
       style="fill:#000000;stroke-width:0" /><path
       d="m 239.55,656.35 0.03,0.04 0.03,0.03 0.04,0.03 0.03,0.04 0.04,0.03 0.01,0.02 0.02,0.02 0.02,0.02 0.03,0.02 0.02,0.02 0.02,0.02 0.03,0.02 0.02,0.02 0.03,0.03 0.03,0.02 0.03,0.03 0.03,0.02 0.03,0.03 0.04,0.03 0.04,0.03 0.04,0.04 0.04,0.03 0.04,0.04 0.05,0.03 0.05,0.04 0.05,0.05 0.06,0.04 c 0.14,0.12 0.66,0.53 0.87,0.73 0.42,0.42 0.69,0.77 0.69,0.85 0,0.09 -0.1,0.09 -0.12,0.09 -0.07,0 -0.09,-0.02 -0.12,-0.07 -0.22,-0.32 -0.36,-0.43 -0.53,-0.43 -0.09,0 -0.19,0.01 -0.4,0.21 -0.24,0.24 -0.39,0.29 -0.55,0.29 -0.56,0 -0.93,-0.61 -0.93,-0.82 0,-0.06 0.07,-0.08 0.12,-0.08 0.08,0 0.09,0.02 0.12,0.1 0.11,0.24 0.5,0.26 0.61,0.26 0.16,0 0.34,-0.05 0.44,-0.07 0.38,-0.08 0.43,-0.08 0.6,-0.08 -0.18,-0.19 -0.3,-0.31 -0.97,-0.84 -0.54,-0.43 -0.73,-0.61 -0.86,-0.75 -0.42,-0.41 -0.62,-0.71 -0.62,-0.77 0,-0.09 0.09,-0.09 0.12,-0.09 0.07,0 0.08,0.01 0.12,0.07 0.19,0.27 0.4,0.42 0.64,0.42 0.08,0 0.19,0 0.37,-0.18 0.22,-0.2 0.36,-0.31 0.58,-0.31 0.75,0 1.21,0.84 1.21,1.08 0,0.08 -0.07,0.09 -0.11,0.09 -0.09,0 -0.1,-0.04 -0.13,-0.11 -0.13,-0.35 -0.54,-0.52 -0.88,-0.52 -0.16,0 -0.34,0.04 -0.51,0.08 -0.32,0.07 -0.38,0.07 -0.5,0.07 -0.02,0 -0.12,0 -0.16,-0.01 z"
       id="path9048"
       inkscape:connector-curvature="0"
       style="fill:#000000;stroke-width:0" /></g>  <g
     id="g9930"
     transform="matrix(2.1347016,1.3011722,1.3011722,-2.1347016,-331.6802,1618.4517)"
     xml:space="preserve"
     stroke-miterlimit="10.433"
     font-style="normal"
     font-variant="normal"
     font-weight="normal"
     font-stretch="normal"
     font-size-adjust="none"
     letter-spacing="normal"
     word-spacing="normal"
     ns0:text="$\\hat{\\Omega}_x$"
     ns0:preamble="/home/jeremy/papers/2011-enief/inkscape.tex"
     style="font-style:normal;font-variant:normal;font-weight:normal;font-stretch:normal;letter-spacing:normal;word-spacing:normal;text-anchor:start;fill:none;stroke:#000000;stroke-linecap:butt;stroke-linejoin:miter;stroke-miterlimit:10.43299961;stroke-opacity:1;stroke-dasharray:none;stroke-dashoffset:0"><polygon
       points="225.87,665.12 227.03,666.13 228.17,665.12 228.35,665.3 227.03,666.65 225.69,665.3 "
       id="polygon9932"
       style="fill:#000000;stroke-width:0" /><path
       d="m 230.17,658.84 h -0.25 c -0.05,-0.25 -0.09,-0.48 -0.18,-0.72 -0.05,-0.16 -0.08,-0.24 -0.66,-0.24 h -0.79 c 0.13,0.56 0.44,1.03 0.88,1.69 0.47,0.71 0.88,1.39 0.88,2.17 0,1.39 -1.34,2.5 -3.03,2.5 -1.71,0 -3.03,-1.13 -3.03,-2.5 0,-0.78 0.41,-1.46 0.88,-2.17 0.43,-0.66 0.75,-1.13 0.88,-1.69 h -0.8 c -0.57,0 -0.6,0.08 -0.65,0.23 -0.08,0.23 -0.13,0.49 -0.18,0.73 h -0.25 l 0.33,-1.61 h 1.59 c 0.22,0 0.25,0 0.25,0.21 0,0.7 -0.31,1.57 -0.54,2.21 -0.21,0.57 -0.49,1.36 -0.49,2.11 0,1.58 1.1,2.26 2,2.26 0.96,0 2.01,-0.72 2.01,-2.26 0,-0.75 -0.26,-1.5 -0.55,-2.32 -0.15,-0.42 -0.47,-1.31 -0.47,-2 0,-0.21 0.03,-0.21 0.26,-0.21 h 1.58 z"
       id="path9934"
       inkscape:connector-curvature="0"
       style="fill:#000000;stroke-width:0" /><path
       d="m 232.36,656.48 -0.01,-0.02 0,-0.03 -0.01,-0.02 -0.01,-0.03 -0.01,-0.02 -0.01,-0.03 -0.02,-0.02 -0.01,-0.03 -0.01,-0.02 -0.02,-0.03 -0.02,-0.02 -0.01,-0.03 -0.02,-0.02 -0.02,-0.03 -0.02,-0.02 -0.02,-0.03 -0.02,-0.02 -0.02,-0.02 -0.02,-0.02 -0.03,-0.02 -0.02,-0.02 -0.03,-0.02 -0.02,-0.02 -0.03,-0.01 -0.03,-0.02 -0.03,-0.01 -0.03,-0.01 -0.03,-0.01 -0.03,0 -0.03,-0.01 -0.03,0 -0.03,0 c -0.02,0 -0.23,0 -0.38,0.09 0.29,0.09 0.31,0.34 0.31,0.39 0,0.15 -0.12,0.25 -0.28,0.25 -0.2,0 -0.4,-0.16 -0.4,-0.42 0,-0.35 0.39,-0.51 0.73,-0.51 0.32,0 0.61,0.2 0.78,0.49 0.17,-0.36 0.55,-0.49 0.83,-0.49 0.8,0 1.23,0.87 1.23,1.06 0,0.1 -0.09,0.1 -0.11,0.1 -0.1,0 -0.11,-0.04 -0.14,-0.12 -0.14,-0.48 -0.56,-0.84 -0.95,-0.84 -0.28,0 -0.43,0.18 -0.43,0.45 0,0.18 0.17,0.81 0.37,1.58 0.14,0.54 0.45,0.71 0.68,0.71 0.01,0 0.23,0 0.37,-0.09 -0.22,-0.07 -0.3,-0.26 -0.3,-0.39 0,-0.15 0.12,-0.25 0.28,-0.25 0.16,0 0.39,0.13 0.39,0.42 0,0.39 -0.45,0.51 -0.73,0.51 -0.34,0 -0.62,-0.23 -0.78,-0.5 -0.12,0.29 -0.44,0.5 -0.83,0.5 -0.78,0 -1.23,-0.86 -1.23,-1.07 0,-0.09 0.1,-0.09 0.12,-0.09 0.09,0 0.1,0.03 0.13,0.12 0.18,0.54 0.62,0.84 0.96,0.84 0.23,0 0.41,-0.12 0.41,-0.46 0,-0.13 -0.08,-0.48 -0.14,-0.72 z"
       id="path9936"
       inkscape:connector-curvature="0"
       style="fill:#000000;stroke-width:0" /></g>  <g
     style="font-style:normal;font-variant:normal;font-weight:normal;font-stretch:normal;letter-spacing:normal;word-spacing:normal;text-anchor:start;fill:none;stroke:#000000;stroke-linecap:butt;stroke-linejoin:miter;stroke-miterlimit:10.43299961;stroke-opacity:1;stroke-dasharray:none;stroke-dashoffset:0"
     ns0:preamble="/home/jeremy/papers/2011-enief/inkscape.tex"
     ns0:text="$\\hat{\\Omega}_y$"
     word-spacing="normal"
     letter-spacing="normal"
     font-size-adjust="none"
     font-stretch="normal"
     font-weight="normal"
     font-variant="normal"
     font-style="normal"
     stroke-miterlimit="10.433"
     xml:space="preserve"
     transform="matrix(2.4147959,-0.64711705,-0.64711705,-2.4147959,853.76399,2293.1443)"
     id="g10154"><polygon
       id="polygon10156"
       points="225.87,665.12 227.03,666.13 228.17,665.12 228.35,665.3 227.03,666.65 225.69,665.3 "
       style="fill:#000000;stroke-width:0" /><path
       id="path10158"
       d="m 230.17,658.84 h -0.25 c -0.05,-0.25 -0.09,-0.48 -0.18,-0.72 -0.05,-0.16 -0.08,-0.24 -0.66,-0.24 h -0.79 c 0.13,0.56 0.44,1.03 0.88,1.69 0.47,0.71 0.88,1.39 0.88,2.17 0,1.39 -1.34,2.5 -3.03,2.5 -1.71,0 -3.03,-1.13 -3.03,-2.5 0,-0.78 0.41,-1.46 0.88,-2.17 0.43,-0.66 0.75,-1.13 0.88,-1.69 h -0.8 c -0.57,0 -0.6,0.08 -0.65,0.23 -0.08,0.23 -0.13,0.49 -0.18,0.73 h -0.25 l 0.33,-1.61 h 1.59 c 0.22,0 0.25,0 0.25,0.21 0,0.7 -0.31,1.57 -0.54,2.21 -0.21,0.57 -0.49,1.36 -0.49,2.11 0,1.58 1.1,2.26 2,2.26 0.96,0 2.01,-0.72 2.01,-2.26 0,-0.75 -0.26,-1.5 -0.55,-2.32 -0.15,-0.42 -0.47,-1.31 -0.47,-2 0,-0.21 0.03,-0.21 0.26,-0.21 h 1.58 z"
       inkscape:connector-curvature="0"
       style="fill:#000000;stroke-width:0" /><path
       id="path10160"
       d="m 234.5,658.36 0,0.01 0,0 0,0.01 0,0 0.01,0 0,0.01 0,0.01 0,0 0,0.01 0,0.01 0.01,0 0,0.01 0,0 0,0.01 0,0 0,0.01 0,0 0,0.01 0,0 0,0 0,0.01 0.01,0 0,0 0,0.01 0,0.01 0,0 0,0.01 0,0 0,0.01 0,0 0,0.01 c 0,0.14 -0.11,0.22 -0.23,0.22 -0.08,0 -0.21,-0.04 -0.29,-0.17 -0.02,-0.04 -0.08,-0.26 -0.11,-0.4 l -0.15,-0.58 c -0.04,-0.17 -0.25,-1.04 -0.27,-1.12 -0.01,0 -0.32,-0.6 -0.86,-0.6 -0.47,0 -0.47,0.45 -0.47,0.57 0,0.38 0.16,0.82 0.36,1.35 0.09,0.23 0.12,0.31 0.12,0.43 0,0.33 -0.28,0.59 -0.66,0.59 -0.7,0 -1.02,-0.95 -1.02,-1.07 0,-0.09 0.1,-0.09 0.12,-0.09 0.1,0 0.11,0.04 0.13,0.12 0.17,0.57 0.47,0.84 0.75,0.84 0.12,0 0.17,-0.07 0.17,-0.24 0,-0.16 -0.06,-0.31 -0.09,-0.4 -0.34,-0.85 -0.41,-1.11 -0.41,-1.42 0,-0.11 0,-0.44 0.28,-0.66 0.21,-0.18 0.5,-0.22 0.69,-0.22 0.28,0 0.53,0.11 0.76,0.31 -0.09,-0.38 -0.17,-0.67 -0.46,-1.02 -0.19,-0.21 -0.47,-0.44 -0.84,-0.44 -0.04,0 -0.37,0 -0.52,0.23 0.38,0.04 0.38,0.37 0.38,0.38 0,0.22 -0.2,0.26 -0.27,0.26 -0.18,0 -0.41,-0.14 -0.41,-0.46 0,-0.35 0.34,-0.61 0.83,-0.61 0.7,0 1.56,0.54 1.78,1.41 z"
       inkscape:connector-curvature="0"
       style="fill:#000000;stroke-width:0" /></g>  <g
     style="font-style:normal;font-variant:normal;font-weight:normal;font-stretch:normal;letter-spacing:normal;word-spacing:normal;text-anchor:start;fill:none;stroke:#000000;stroke-linecap:butt;stroke-linejoin:miter;stroke-miterlimit:10.43299961;stroke-opacity:1;stroke-dasharray:none;stroke-dashoffset:0"
     ns0:preamble="/home/jeremy/papers/2011-enief/inkscape.tex"
     ns0:text="$\\boldsymbol{\\hat{\\Omega}} = [ \\hat{\\Omega}_x \\,\\,\\, \\hat{\\Omega}_y \\, +\\hat{\\Omega}_z ]$"
     text-anchor="start"
     word-spacing="normal"
     letter-spacing="normal"
     font-size-adjust="none"
     font-stretch="normal"
     font-weight="normal"
     font-variant="normal"
     font-style="normal"
     fill-opacity="1"
     fill-rule="evenodd"
     fill="none"
     stroke-opacity="1"
     stroke-dashoffset="0"
     stroke-dasharray="none"
     stroke-miterlimit="10.433"
     stroke-linejoin="miter"
     stroke-linecap="butt"
     stroke="black"
     xml:space="preserve"
     transform="matrix(5,0,0,-5,-34.76915,3529.2035)"
     id="g10602"><polygon
       id="polygon10604"
       fill="black"
       stroke-width="0"
       points="227.56,666.54 226,665.28 226.28,664.9 227.56,665.72 228.84,664.91 229.12,665.28 " /><path
       id="path10606"
       fill="black"
       stroke-width="0"
       d="M231.18,659.22 H230.71 C230.7,659.08,230.62,658.66,230.55,658.49 C230.5,658.36,230.46,658.26,229.86,658.26 H229.14 C229.35,658.71,229.63,659.05,229.94,659.44 C230.5,660.16,231.05,660.87,231.05,661.78 C231.05,662.85,230.16,664.16,227.56,664.16 C224.96,664.16,224.07,662.85,224.07,661.78 C224.07,660.86,224.64,660.15,225.18,659.46 C225.53,659.01,225.78,658.67,225.98,658.26 H225.26 C224.68,658.26,224.64,658.36,224.59,658.46 C224.52,658.64,224.43,659.12,224.41,659.22 H223.94 L224.31,657.23 H226.21 C226.43,657.23,226.53,657.23,226.53,657.5 C226.53,658.2,226.23,659.11,226.08,659.55 C225.82,660.33,225.59,661.05,225.59,661.78 C225.59,662.16,225.64,662.87,226.13,663.32 C226.62,663.75,227.26,663.8,227.56,663.8 C228.08,663.8,228.65,663.65,229,663.29 C229.3,663.01,229.53,662.57,229.53,661.78 C229.53,661.08,229.32,660.4,229.07,659.67 C228.88,659.07,228.6,658.2,228.6,657.5 C228.6,657.23,228.7,657.23,228.91,657.23 H230.81 Z " /><path
       id="path10608"
       fill="black"
       stroke-width="0"
       d="M241.31,660.48 L241.34,660.48 L241.37,660.48 L241.4,660.48 L241.41,660.49 L241.42,660.49 L241.44,660.49 L241.45,660.49 L241.47,660.49 L241.48,660.49 L241.5,660.5 L241.51,660.5 L241.52,660.5 L241.53,660.51 L241.55,660.51 L241.56,660.52 L241.57,660.52 L241.58,660.53 L241.59,660.54 L241.6,660.55 L241.61,660.56 L241.62,660.57 L241.62,660.57 L241.62,660.58 L241.63,660.58 L241.63,660.59 L241.63,660.6 L241.63,660.6 L241.64,660.61 L241.64,660.62 L241.64,660.62 L241.64,660.63 L241.64,660.64 L241.64,660.65 L241.65,660.66 L241.65,660.66 L241.65,660.67 L241.65,660.68 C241.65,660.88,241.46,660.88,241.32,660.88 H235.36 C235.22,660.88,235.03,660.88,235.03,660.68 C235.03,660.48,235.22,660.48,235.37,660.48 Z " /><path
       id="path10610"
       fill="black"
       stroke-width="0"
       d="M241.32,658.56 L241.33,658.56 L241.35,658.56 L241.37,658.56 L241.4,658.56 L241.41,658.56 L241.43,658.56 L241.44,658.56 L241.46,658.56 L241.47,658.56 L241.48,658.57 L241.5,658.57 L241.51,658.57 L241.52,658.58 L241.54,658.58 L241.55,658.59 L241.56,658.59 L241.57,658.6 L241.58,658.6 L241.59,658.61 L241.6,658.62 L241.61,658.63 L241.61,658.63 L241.62,658.64 L241.62,658.65 L241.62,658.65 L241.63,658.66 L241.63,658.66 L241.63,658.67 L241.63,658.68 L241.64,658.68 L241.64,658.69 L241.64,658.7 L241.64,658.7 L241.64,658.71 L241.64,658.72 L241.65,658.73 L241.65,658.74 L241.65,658.75 L241.65,658.76 C241.65,658.95,241.46,658.95,241.31,658.95 H235.37 C235.22,658.95,235.03,658.95,235.03,658.76 C235.03,658.56,235.22,658.56,235.36,658.56 Z " /><polygon
       id="polygon10612"
       fill="black"
       stroke-width="0"
       points="247.53,654.75 247.53,655.15 246.56,655.15 246.56,664.29 247.53,664.29 247.53,664.68 246.17,664.68 246.17,654.75 " /><polygon
       id="polygon10614"
       fill="black"
       stroke-width="0"
       points="251.35,666.65 250.02,665.3 250.2,665.12 251.35,666.13 252.49,665.12 252.68,665.3 " /><path
       id="path10616"
       fill="black"
       stroke-width="0"
       d="M254.49,658.84 H254.24 C254.19,658.59,254.15,658.36,254.07,658.12 C254.01,657.96,253.99,657.88,253.41,657.88 H252.61 C252.74,658.44,253.05,658.91,253.5,659.57 C253.96,660.28,254.37,660.96,254.37,661.74 C254.37,663.13,253.03,664.24,251.35,664.24 C249.64,664.24,248.31,663.11,248.31,661.74 C248.31,660.96,248.72,660.28,249.19,659.57 C249.63,658.91,249.95,658.44,250.07,657.88 H249.28 C248.7,657.88,248.67,657.96,248.62,658.11 C248.54,658.34,248.49,658.6,248.44,658.84 H248.2 L248.52,657.23 H250.12 C250.33,657.23,250.36,657.23,250.36,657.44 C250.36,658.14,250.05,659.01,249.83,659.65 C249.62,660.22,249.34,661.01,249.34,661.76 C249.34,663.34,250.43,664.02,251.34,664.02 C252.29,664.02,253.35,663.3,253.35,661.76 C253.35,661.01,253.08,660.26,252.79,659.44 C252.64,659.02,252.32,658.13,252.32,657.44 C252.32,657.23,252.35,657.23,252.58,657.23 H254.16 Z " /><path
       id="path10618"
       fill="black"
       stroke-width="0"
       d="M256.69,656.48 L256.68,656.46 L256.67,656.43 L256.66,656.41 L256.65,656.38 L256.64,656.36 L256.63,656.33 L256.62,656.31 L256.61,656.28 L256.59,656.26 L256.58,656.23 L256.56,656.21 L256.54,656.18 L256.53,656.16 L256.51,656.13 L256.49,656.11 L256.47,656.08 L256.45,656.06 L256.42,656.04 L256.4,656.02 L256.38,656 L256.35,655.98 L256.33,655.96 L256.3,655.94 L256.28,655.93 L256.25,655.91 L256.22,655.9 L256.19,655.89 L256.16,655.88 L256.13,655.88 L256.1,655.87 L256.07,655.87 L256.03,655.87 C256.01,655.87,255.8,655.87,255.66,655.96 C255.94,656.05,255.96,656.3,255.96,656.35 C255.96,656.5,255.84,656.6,255.68,656.6 C255.49,656.6,255.29,656.44,255.29,656.18 C255.29,655.83,255.68,655.67,256.02,655.67 C256.34,655.67,256.62,655.87,256.8,656.16 C256.97,655.8,257.35,655.67,257.63,655.67 C258.43,655.67,258.85,656.54,258.85,656.73 C258.85,656.83,258.76,656.83,258.74,656.83 C258.64,656.83,258.64,656.79,258.61,656.71 C258.46,656.23,258.05,655.87,257.65,655.87 C257.38,655.87,257.23,656.05,257.23,656.32 C257.23,656.5,257.4,657.13,257.59,657.9 C257.73,658.44,258.05,658.61,258.27,658.61 C258.29,658.61,258.51,658.61,258.65,658.52 C258.43,658.45,258.35,658.26,258.35,658.13 C258.35,657.98,258.46,657.88,258.62,657.88 C258.78,657.88,259.01,658.01,259.01,658.3 C259.01,658.69,258.57,658.81,258.29,658.81 C257.94,658.81,257.66,658.58,257.51,658.31 C257.38,658.6,257.06,658.81,256.67,658.81 C255.89,658.81,255.45,657.95,255.45,657.74 C255.45,657.65,255.54,657.65,255.57,657.65 C255.66,657.65,255.66,657.68,255.7,657.77 C255.87,658.31,256.31,658.61,256.65,658.61 C256.88,658.61,257.07,658.49,257.07,658.15 C257.07,658.02,256.99,657.67,256.92,657.43 Z " /><polygon
       id="polygon10620"
       fill="black"
       stroke-width="0"
       points="268.54,666.65 267.21,665.3 267.39,665.12 268.54,666.13 269.69,665.12 269.87,665.3 " /><path
       id="path10622"
       fill="black"
       stroke-width="0"
       d="M271.69,658.84 H271.44 C271.39,658.59,271.35,658.36,271.26,658.12 C271.21,657.96,271.18,657.88,270.6,657.88 H269.8 C269.93,658.44,270.24,658.91,270.69,659.57 C271.16,660.28,271.57,660.96,271.57,661.74 C271.57,663.13,270.22,664.24,268.54,664.24 C266.83,664.24,265.51,663.11,265.51,661.74 C265.51,660.96,265.92,660.28,266.38,659.57 C266.82,658.91,267.14,658.44,267.27,657.88 H266.47 C265.89,657.88,265.86,657.96,265.82,658.11 C265.74,658.34,265.69,658.6,265.64,658.84 H265.39 L265.72,657.23 H267.31 C267.53,657.23,267.56,657.23,267.56,657.44 C267.56,658.14,267.25,659.01,267.02,659.65 C266.81,660.22,266.53,661.01,266.53,661.76 C266.53,663.34,267.63,664.02,268.53,664.02 C269.49,664.02,270.54,663.3,270.54,661.76 C270.54,661.01,270.27,660.26,269.98,659.44 C269.83,659.02,269.52,658.13,269.52,657.44 C269.52,657.23,269.55,657.23,269.77,657.23 H271.36 Z " /><path
       id="path10624"
       fill="black"
       stroke-width="0"
       d="M276.02,658.36 L276.02,658.37 L276.02,658.37 L276.02,658.38 L276.02,658.38 L276.02,658.38 L276.02,658.39 L276.03,658.4 L276.03,658.4 L276.03,658.41 L276.03,658.42 L276.03,658.42 L276.03,658.43 L276.04,658.43 L276.04,658.44 L276.04,658.44 L276.04,658.45 L276.04,658.45 L276.04,658.46 L276.04,658.46 L276.04,658.46 L276.04,658.47 L276.04,658.47 L276.04,658.47 L276.04,658.48 L276.04,658.49 L276.04,658.49 L276.04,658.5 L276.04,658.5 L276.05,658.51 L276.05,658.51 L276.05,658.52 C276.05,658.66,275.93,658.74,275.82,658.74 C275.74,658.74,275.61,658.7,275.53,658.57 C275.51,658.53,275.45,658.31,275.42,658.17 L275.27,657.59 C275.23,657.42,275.01,656.55,274.99,656.47 C274.99,656.47,274.68,655.87,274.14,655.87 C273.66,655.87,273.66,656.32,273.66,656.44 C273.66,656.82,273.82,657.26,274.03,657.79 C274.12,658.02,274.15,658.1,274.15,658.22 C274.15,658.55,273.86,658.81,273.49,658.81 C272.79,658.81,272.47,657.86,272.47,657.74 C272.47,657.65,272.57,657.65,272.59,657.65 C272.69,657.65,272.7,657.69,272.72,657.76 C272.89,658.34,273.19,658.61,273.47,658.61 C273.59,658.61,273.64,658.54,273.64,658.37 C273.64,658.21,273.58,658.06,273.55,657.97 C273.21,657.12,273.14,656.86,273.14,656.55 C273.14,656.44,273.14,656.11,273.41,655.89 C273.63,655.71,273.92,655.67,274.11,655.67 C274.39,655.67,274.64,655.78,274.87,655.98 C274.78,655.6,274.7,655.31,274.41,654.96 C274.22,654.75,273.94,654.52,273.57,654.52 C273.52,654.52,273.2,654.52,273.05,654.75 C273.43,654.79,273.43,655.12,273.43,655.13 C273.43,655.35,273.23,655.39,273.15,655.39 C272.98,655.39,272.75,655.25,272.75,654.93 C272.75,654.58,273.08,654.32,273.58,654.32 C274.28,654.32,275.14,654.86,275.36,655.73 Z " /><path
       id="path10626"
       fill="black"
       stroke-width="0"
       d="M284.88,659.52 H287.65 C287.79,659.52,287.98,659.52,287.98,659.72 C287.98,659.92,287.79,659.92,287.65,659.92 H284.88 V662.7 C284.88,662.84,284.88,663.03,284.68,663.03 C284.48,663.03,284.48,662.84,284.48,662.7 V659.92 H281.69 C281.55,659.92,281.36,659.92,281.36,659.72 C281.36,659.52,281.55,659.52,281.69,659.52 H284.48 V656.74 C284.48,656.6,284.48,656.41,284.68,656.41 C284.88,656.41,284.88,656.6,284.88,656.74 Z " /><polygon
       id="polygon10628"
       fill="black"
       stroke-width="0"
       points="294.36,666.65 293.03,665.3 293.21,665.12 294.36,666.13 295.51,665.12 295.69,665.3 " /><path
       id="path10630"
       fill="black"
       stroke-width="0"
       d="M297.51,658.84 H297.26 C297.21,658.59,297.17,658.36,297.08,658.12 C297.03,657.96,297,657.88,296.42,657.88 H295.63 C295.76,658.44,296.06,658.91,296.51,659.57 C296.98,660.28,297.39,660.96,297.39,661.74 C297.39,663.13,296.04,664.24,294.36,664.24 C292.65,664.24,291.33,663.11,291.33,661.74 C291.33,660.96,291.74,660.28,292.2,659.57 C292.64,658.91,292.96,658.44,293.09,657.88 H292.29 C291.72,657.88,291.69,657.96,291.64,658.11 C291.56,658.34,291.51,658.6,291.46,658.84 H291.21 L291.54,657.23 H293.13 C293.35,657.23,293.38,657.23,293.38,657.44 C293.38,658.14,293.07,659.01,292.84,659.65 C292.63,660.22,292.35,661.01,292.35,661.76 C292.35,663.34,293.45,664.02,294.35,664.02 C295.31,664.02,296.36,663.3,296.36,661.76 C296.36,661.01,296.09,660.26,295.8,659.44 C295.66,659.02,295.34,658.13,295.34,657.44 C295.34,657.23,295.37,657.23,295.6,657.23 H297.18 Z " /><path
       id="path10632"
       fill="black"
       stroke-width="0"
       d="M299.14,656.35 L299.17,656.39 L299.2,656.42 L299.24,656.45 L299.27,656.49 L299.31,656.52 L299.32,656.54 L299.34,656.56 L299.36,656.58 L299.39,656.6 L299.41,656.62 L299.43,656.64 L299.46,656.66 L299.48,656.68 L299.51,656.71 L299.54,656.73 L299.57,656.76 L299.6,656.78 L299.63,656.81 L299.67,656.84 L299.71,656.87 L299.75,656.91 L299.79,656.94 L299.83,656.98 L299.88,657.01 L299.93,657.05 L299.98,657.1 L300.04,657.14 C300.18,657.26,300.7,657.67,300.9,657.87 C301.33,658.29,301.6,658.64,301.6,658.72 C301.6,658.81,301.5,658.81,301.48,658.81 C301.41,658.81,301.39,658.79,301.36,658.74 C301.14,658.42,301,658.31,300.83,658.31 C300.74,658.31,300.64,658.32,300.43,658.52 C300.2,658.76,300.04,658.81,299.88,658.81 C299.32,658.81,298.95,658.2,298.95,657.99 C298.95,657.93,299.02,657.91,299.07,657.91 C299.15,657.91,299.16,657.93,299.19,658.01 C299.3,658.25,299.69,658.27,299.8,658.27 C299.96,658.27,300.14,658.22,300.24,658.2 C300.62,658.12,300.67,658.12,300.84,658.12 C300.66,657.93,300.54,657.81,299.87,657.28 C299.33,656.85,299.14,656.67,299.01,656.53 C298.59,656.12,298.39,655.82,298.39,655.76 C298.39,655.67,298.48,655.67,298.51,655.67 C298.58,655.67,298.59,655.68,298.63,655.74 C298.82,656.01,299.03,656.16,299.27,656.16 C299.35,656.16,299.46,656.16,299.64,655.98 C299.86,655.78,300,655.67,300.22,655.67 C300.97,655.67,301.43,656.51,301.43,656.75 C301.43,656.83,301.36,656.84,301.32,656.84 C301.23,656.84,301.22,656.8,301.19,656.73 C301.06,656.38,300.65,656.21,300.31,656.21 C300.15,656.21,299.97,656.25,299.8,656.29 C299.48,656.36,299.42,656.36,299.3,656.36 C299.28,656.36,299.18,656.36,299.14,656.35 Z " /><polygon
       id="polygon10634"
       fill="black"
       stroke-width="0"
       points="304.14,664.68 302.77,664.68 302.77,664.29 303.74,664.29 303.74,655.15 302.77,655.15 302.77,654.75 304.14,654.75 " /></g>  <g
     id="g10838"
     transform="matrix(5,0,0,-5,-37.182229,4161.4297)"
     xml:space="preserve"
     stroke="black"
     stroke-linecap="butt"
     stroke-linejoin="miter"
     stroke-miterlimit="10.433"
     stroke-dasharray="none"
     stroke-dashoffset="0"
     stroke-opacity="1"
     fill="none"
     fill-rule="evenodd"
     fill-opacity="1"
     font-style="normal"
     font-variant="normal"
     font-weight="normal"
     font-stretch="normal"
     font-size-adjust="none"
     letter-spacing="normal"
     word-spacing="normal"
     text-anchor="start"
     ns0:text="$\\boldsymbol{\\hat{\\Omega}^\\prime} = [ \\hat{\\Omega}_x \\,\\,\\, \\hat{\\Omega}_y \\, -\\hat{\\Omega}_z ]$"
     ns0:preamble="/home/jeremy/papers/2011-enief/inkscape.tex"
     style="font-style:normal;font-variant:normal;font-weight:normal;font-stretch:normal;letter-spacing:normal;word-spacing:normal;text-anchor:start;fill:none;stroke:#000000;stroke-linecap:butt;stroke-linejoin:miter;stroke-miterlimit:10.43299961;stroke-opacity:1;stroke-dasharray:none;stroke-dashoffset:0"><polygon
       points="227.56,666.54 226,665.28 226.28,664.9 227.56,665.72 228.84,664.91 229.12,665.28 "
       stroke-width="0"
       fill="black"
       id="polygon10840" /><path
       d="M231.18,659.22 H230.71 C230.7,659.08,230.62,658.66,230.55,658.49 C230.5,658.36,230.46,658.26,229.86,658.26 H229.14 C229.35,658.71,229.63,659.05,229.94,659.44 C230.5,660.16,231.05,660.87,231.05,661.78 C231.05,662.85,230.16,664.16,227.56,664.16 C224.96,664.16,224.07,662.85,224.07,661.78 C224.07,660.86,224.64,660.15,225.18,659.46 C225.53,659.01,225.78,658.67,225.98,658.26 H225.26 C224.68,658.26,224.64,658.36,224.59,658.46 C224.52,658.64,224.43,659.12,224.41,659.22 H223.94 L224.31,657.23 H226.21 C226.43,657.23,226.53,657.23,226.53,657.5 C226.53,658.2,226.23,659.11,226.08,659.55 C225.82,660.33,225.59,661.05,225.59,661.78 C225.59,662.16,225.64,662.87,226.13,663.32 C226.62,663.75,227.26,663.8,227.56,663.8 C228.08,663.8,228.65,663.65,229,663.29 C229.3,663.01,229.53,662.57,229.53,661.78 C229.53,661.08,229.32,660.4,229.07,659.67 C228.88,659.07,228.6,658.2,228.6,657.5 C228.6,657.23,228.7,657.23,228.91,657.23 H230.81 Z "
       stroke-width="0"
       fill="black"
       id="path10842" /><path
       d="M234.16,663.9 L234.17,663.92 L234.18,663.94 L234.18,663.95 L234.19,663.97 L234.2,663.98 L234.21,664 L234.21,664.02 L234.22,664.03 L234.22,664.04 L234.22,664.05 L234.23,664.06 L234.23,664.07 L234.23,664.08 L234.23,664.09 L234.23,664.1 L234.24,664.11 L234.24,664.12 L234.24,664.13 L234.24,664.14 L234.24,664.15 L234.24,664.16 L234.24,664.18 L234.24,664.19 L234.24,664.2 C234.24,664.56,233.91,664.75,233.66,664.75 C233.46,664.75,233.25,664.64,233.15,664.36 L232.07,661.47 C232.03,661.37,232.03,661.36,232.03,661.34 C232.03,661.32,232.03,661.26,232.1,661.22 C232.17,661.18,232.47,661.05,232.51,661.05 C232.59,661.05,232.6,661.08,232.65,661.18 Z "
       stroke-width="0"
       fill="black"
       id="path10844" /><path
       d="M244.51,660.48 L244.54,660.48 L244.57,660.48 L244.6,660.48 L244.61,660.49 L244.63,660.49 L244.64,660.49 L244.66,660.49 L244.67,660.49 L244.68,660.49 L244.7,660.5 L244.71,660.5 L244.72,660.5 L244.74,660.51 L244.75,660.51 L244.76,660.52 L244.77,660.52 L244.78,660.53 L244.79,660.54 L244.8,660.55 L244.81,660.56 L244.82,660.57 L244.82,660.57 L244.82,660.58 L244.83,660.58 L244.83,660.59 L244.83,660.6 L244.84,660.6 L244.84,660.61 L244.84,660.62 L244.84,660.62 L244.84,660.63 L244.85,660.64 L244.85,660.65 L244.85,660.66 L244.85,660.66 L244.85,660.67 L244.85,660.68 C244.85,660.88,244.66,660.88,244.52,660.88 H238.56 C238.42,660.88,238.23,660.88,238.23,660.68 C238.23,660.48,238.42,660.48,238.57,660.48 Z "
       stroke-width="0"
       fill="black"
       id="path10846" /><path
       d="M244.52,658.56 L244.53,658.56 L244.55,658.56 L244.58,658.56 L244.6,658.56 L244.62,658.56 L244.63,658.56 L244.64,658.56 L244.66,658.56 L244.67,658.56 L244.69,658.57 L244.7,658.57 L244.71,658.57 L244.72,658.58 L244.74,658.58 L244.75,658.59 L244.76,658.59 L244.77,658.6 L244.78,658.6 L244.79,658.61 L244.8,658.62 L244.81,658.63 L244.81,658.63 L244.82,658.64 L244.82,658.65 L244.82,658.65 L244.83,658.66 L244.83,658.66 L244.83,658.67 L244.84,658.68 L244.84,658.68 L244.84,658.69 L244.84,658.7 L244.84,658.7 L244.85,658.71 L244.85,658.72 L244.85,658.73 L244.85,658.74 L244.85,658.75 L244.85,658.76 C244.85,658.95,244.66,658.95,244.51,658.95 H238.57 C238.42,658.95,238.23,658.95,238.23,658.76 C238.23,658.56,238.42,658.56,238.56,658.56 Z "
       stroke-width="0"
       fill="black"
       id="path10848" /><polygon
       points="250.73,654.75 250.73,655.15 249.77,655.15 249.77,664.29 250.73,664.29 250.73,664.68 249.37,664.68 249.37,654.75 "
       stroke-width="0"
       fill="black"
       id="polygon10850" /><polygon
       points="254.55,666.65 253.22,665.3 253.4,665.12 254.55,666.13 255.7,665.12 255.88,665.3 "
       stroke-width="0"
       fill="black"
       id="polygon10852" /><path
       d="M257.7,658.84 H257.45 C257.4,658.59,257.36,658.36,257.27,658.12 C257.22,657.96,257.19,657.88,256.61,657.88 H255.81 C255.94,658.44,256.25,658.91,256.7,659.57 C257.17,660.28,257.58,660.96,257.58,661.74 C257.58,663.13,256.23,664.24,254.55,664.24 C252.84,664.24,251.52,663.11,251.52,661.74 C251.52,660.96,251.92,660.28,252.39,659.57 C252.83,658.91,253.15,658.44,253.28,657.88 H252.48 C251.9,657.88,251.87,657.96,251.82,658.11 C251.74,658.34,251.7,658.6,251.65,658.84 H251.4 L251.73,657.23 H253.32 C253.54,657.23,253.57,657.23,253.57,657.44 C253.57,658.14,253.26,659.01,253.03,659.65 C252.82,660.22,252.54,661.01,252.54,661.76 C252.54,663.34,253.63,664.02,254.54,664.02 C255.5,664.02,256.55,663.3,256.55,661.76 C256.55,661.01,256.28,660.26,255.99,659.44 C255.84,659.02,255.53,658.13,255.53,657.44 C255.53,657.23,255.56,657.23,255.78,657.23 H257.37 Z "
       stroke-width="0"
       fill="black"
       id="path10854" /><path
       d="M259.89,656.48 L259.88,656.46 L259.87,656.43 L259.87,656.41 L259.86,656.38 L259.85,656.36 L259.83,656.33 L259.82,656.31 L259.81,656.28 L259.79,656.26 L259.78,656.23 L259.76,656.21 L259.75,656.18 L259.73,656.16 L259.71,656.13 L259.69,656.11 L259.67,656.08 L259.65,656.06 L259.63,656.04 L259.6,656.02 L259.58,656 L259.56,655.98 L259.53,655.96 L259.5,655.94 L259.48,655.93 L259.45,655.91 L259.42,655.9 L259.39,655.89 L259.36,655.88 L259.33,655.88 L259.3,655.87 L259.27,655.87 L259.23,655.87 C259.21,655.87,259.01,655.87,258.86,655.96 C259.14,656.05,259.17,656.3,259.17,656.35 C259.17,656.5,259.05,656.6,258.89,656.6 C258.69,656.6,258.49,656.44,258.49,656.18 C258.49,655.83,258.88,655.67,259.22,655.67 C259.54,655.67,259.83,655.87,260,656.16 C260.17,655.8,260.55,655.67,260.83,655.67 C261.63,655.67,262.05,656.54,262.05,656.73 C262.05,656.83,261.96,656.83,261.94,656.83 C261.85,656.83,261.84,656.79,261.81,656.71 C261.67,656.23,261.25,655.87,260.86,655.87 C260.58,655.87,260.43,656.05,260.43,656.32 C260.43,656.5,260.6,657.13,260.8,657.9 C260.93,658.44,261.25,658.61,261.48,658.61 C261.49,658.61,261.71,658.61,261.85,658.52 C261.63,658.45,261.55,658.26,261.55,658.13 C261.55,657.98,261.67,657.88,261.83,657.88 C261.98,657.88,262.21,658.01,262.21,658.3 C262.21,658.69,261.77,658.81,261.49,658.81 C261.14,658.81,260.86,658.58,260.71,658.31 C260.59,658.6,260.27,658.81,259.88,658.81 C259.1,658.81,258.65,657.95,258.65,657.74 C258.65,657.65,258.75,657.65,258.77,657.65 C258.86,657.65,258.86,657.68,258.9,657.77 C259.07,658.31,259.51,658.61,259.85,658.61 C260.08,658.61,260.27,658.49,260.27,658.15 C260.27,658.02,260.19,657.67,260.13,657.43 Z "
       stroke-width="0"
       fill="black"
       id="path10856" /><polygon
       points="271.75,666.65 270.41,665.3 270.59,665.12 271.75,666.13 272.89,665.12 273.07,665.3 "
       stroke-width="0"
       fill="black"
       id="polygon10858" /><path
       d="M274.89,658.84 H274.64 C274.59,658.59,274.55,658.36,274.46,658.12 C274.41,657.96,274.38,657.88,273.8,657.88 H273.01 C273.14,658.44,273.45,658.91,273.89,659.57 C274.36,660.28,274.77,660.96,274.77,661.74 C274.77,663.13,273.42,664.24,271.74,664.24 C270.03,664.24,268.71,663.11,268.71,661.74 C268.71,660.96,269.12,660.28,269.58,659.57 C270.02,658.91,270.34,658.44,270.47,657.88 H269.67 C269.1,657.88,269.07,657.96,269.02,658.11 C268.94,658.34,268.89,658.6,268.84,658.84 H268.59 L268.92,657.23 H270.51 C270.73,657.23,270.76,657.23,270.76,657.44 C270.76,658.14,270.45,659.01,270.22,659.65 C270.01,660.22,269.73,661.01,269.73,661.76 C269.73,663.34,270.83,664.02,271.73,664.02 C272.69,664.02,273.74,663.3,273.74,661.76 C273.74,661.01,273.48,660.26,273.19,659.44 C273.04,659.02,272.72,658.13,272.72,657.44 C272.72,657.23,272.75,657.23,272.98,657.23 H274.56 Z "
       stroke-width="0"
       fill="black"
       id="path10860" /><path
       d="M279.22,658.36 L279.22,658.37 L279.22,658.37 L279.22,658.38 L279.22,658.38 L279.23,658.38 L279.23,658.39 L279.23,658.4 L279.23,658.4 L279.23,658.41 L279.23,658.42 L279.24,658.42 L279.24,658.43 L279.24,658.43 L279.24,658.44 L279.24,658.44 L279.24,658.45 L279.24,658.45 L279.24,658.46 L279.24,658.46 L279.24,658.46 L279.24,658.47 L279.25,658.47 L279.25,658.47 L279.25,658.48 L279.25,658.49 L279.25,658.49 L279.25,658.5 L279.25,658.5 L279.25,658.51 L279.25,658.51 L279.25,658.52 C279.25,658.66,279.14,658.74,279.02,658.74 C278.94,658.74,278.81,658.7,278.73,658.57 C278.71,658.53,278.65,658.31,278.62,658.17 L278.47,657.59 C278.43,657.42,278.22,656.55,278.2,656.47 C278.19,656.47,277.88,655.87,277.34,655.87 C276.86,655.87,276.86,656.32,276.86,656.44 C276.86,656.82,277.02,657.26,277.23,657.79 C277.32,658.02,277.35,658.1,277.35,658.22 C277.35,658.55,277.07,658.81,276.69,658.81 C275.99,658.81,275.67,657.86,275.67,657.74 C275.67,657.65,275.77,657.65,275.79,657.65 C275.89,657.65,275.9,657.69,275.92,657.76 C276.09,658.34,276.39,658.61,276.67,658.61 C276.79,658.61,276.84,658.54,276.84,658.37 C276.84,658.21,276.78,658.06,276.75,657.97 C276.41,657.12,276.34,656.86,276.34,656.55 C276.34,656.44,276.34,656.11,276.61,655.89 C276.83,655.71,277.12,655.67,277.31,655.67 C277.59,655.67,277.84,655.78,278.07,655.98 C277.98,655.6,277.9,655.31,277.61,654.96 C277.42,654.75,277.14,654.52,276.77,654.52 C276.73,654.52,276.4,654.52,276.25,654.75 C276.63,654.79,276.63,655.12,276.63,655.13 C276.63,655.35,276.43,655.39,276.36,655.39 C276.18,655.39,275.95,655.25,275.95,654.93 C275.95,654.58,276.29,654.32,276.78,654.32 C277.48,654.32,278.34,654.86,278.56,655.73 Z "
       stroke-width="0"
       fill="black"
       id="path10862" /><path
       d="M290.57,659.52 L290.6,659.52 L290.63,659.52 L290.66,659.52 L290.68,659.52 L290.69,659.52 L290.71,659.52 L290.72,659.53 L290.74,659.53 L290.75,659.53 L290.77,659.53 L290.78,659.54 L290.79,659.54 L290.8,659.54 L290.82,659.55 L290.83,659.56 L290.84,659.56 L290.85,659.57 L290.86,659.58 L290.87,659.58 L290.88,659.59 L290.88,659.6 L290.89,659.61 L290.89,659.61 L290.89,659.62 L290.9,659.63 L290.9,659.63 L290.9,659.64 L290.9,659.65 L290.91,659.65 L290.91,659.66 L290.91,659.67 L290.91,659.68 L290.91,659.68 L290.91,659.69 L290.91,659.7 L290.91,659.71 L290.92,659.72 C290.92,659.92,290.74,659.92,290.57,659.92 H285.18 C285.02,659.92,284.84,659.92,284.84,659.72 C284.84,659.52,285.02,659.52,285.18,659.52 Z "
       stroke-width="0"
       fill="black"
       id="path10864" /><polygon
       points="297.57,666.65 296.23,665.3 296.41,665.12 297.57,666.13 298.71,665.12 298.89,665.3 "
       stroke-width="0"
       fill="black"
       id="polygon10866" /><path
       d="M300.71,658.84 H300.46 C300.41,658.59,300.37,658.36,300.28,658.12 C300.23,657.96,300.2,657.88,299.62,657.88 H298.83 C298.96,658.44,299.27,658.91,299.71,659.57 C300.18,660.28,300.59,660.96,300.59,661.74 C300.59,663.13,299.25,664.24,297.57,664.24 C295.85,664.24,294.53,663.11,294.53,661.74 C294.53,660.96,294.94,660.28,295.41,659.57 C295.84,658.91,296.16,658.44,296.29,657.88 H295.49 C294.92,657.88,294.89,657.96,294.84,658.11 C294.76,658.34,294.71,658.6,294.66,658.84 H294.41 L294.74,657.23 H296.33 C296.55,657.23,296.58,657.23,296.58,657.44 C296.58,658.14,296.27,659.01,296.04,659.65 C295.83,660.22,295.55,661.01,295.55,661.76 C295.55,663.34,296.65,664.02,297.55,664.02 C298.51,664.02,299.57,663.3,299.57,661.76 C299.57,661.01,299.3,660.26,299.01,659.44 C298.86,659.02,298.54,658.13,298.54,657.44 C298.54,657.23,298.57,657.23,298.8,657.23 H300.38 Z "
       stroke-width="0"
       fill="black"
       id="path10868" /><path
       d="M302.34,656.35 L302.37,656.39 L302.4,656.42 L302.44,656.45 L302.47,656.49 L302.51,656.52 L302.53,656.54 L302.55,656.56 L302.57,656.58 L302.59,656.6 L302.61,656.62 L302.63,656.64 L302.66,656.66 L302.68,656.68 L302.71,656.71 L302.74,656.73 L302.77,656.76 L302.8,656.78 L302.84,656.81 L302.87,656.84 L302.91,656.87 L302.95,656.91 L302.99,656.94 L303.03,656.98 L303.08,657.01 L303.13,657.05 L303.18,657.1 L303.24,657.14 C303.38,657.26,303.9,657.67,304.11,657.87 C304.53,658.29,304.8,658.64,304.8,658.72 C304.8,658.81,304.71,658.81,304.68,658.81 C304.61,658.81,304.6,658.79,304.56,658.74 C304.34,658.42,304.2,658.31,304.03,658.31 C303.95,658.31,303.84,658.32,303.63,658.52 C303.4,658.76,303.24,658.81,303.08,658.81 C302.53,658.81,302.15,658.2,302.15,657.99 C302.15,657.93,302.22,657.91,302.27,657.91 C302.35,657.91,302.37,657.93,302.39,658.01 C302.5,658.25,302.89,658.27,303,658.27 C303.16,658.27,303.34,658.22,303.44,658.2 C303.82,658.12,303.87,658.12,304.04,658.12 C303.86,657.93,303.74,657.81,303.08,657.28 C302.53,656.85,302.35,656.67,302.21,656.53 C301.8,656.12,301.59,655.82,301.59,655.76 C301.59,655.67,301.68,655.67,301.71,655.67 C301.78,655.67,301.8,655.68,301.83,655.74 C302.02,656.01,302.23,656.16,302.47,656.16 C302.55,656.16,302.66,656.16,302.85,655.98 C303.06,655.78,303.2,655.67,303.42,655.67 C304.17,655.67,304.64,656.51,304.64,656.75 C304.64,656.83,304.56,656.84,304.52,656.84 C304.43,656.84,304.42,656.8,304.39,656.73 C304.26,656.38,303.85,656.21,303.51,656.21 C303.35,656.21,303.17,656.25,303,656.29 C302.68,656.36,302.62,656.36,302.5,656.36 C302.48,656.36,302.38,656.36,302.34,656.35 Z "
       stroke-width="0"
       fill="black"
       id="path10870" /><polygon
       points="307.34,664.68 305.98,664.68 305.98,664.29 306.94,664.29 306.94,655.15 305.98,655.15 305.98,654.75 307.34,654.75 "
       stroke-width="0"
       fill="black"
       id="polygon10872" /></g>  <g
     ns0:preamble="/home/jeremy/papers/2011-enief/inkscape.tex"
     ns0:text="plano $x-y$"
     word-spacing="normal"
     letter-spacing="normal"
     font-size-adjust="none"
     font-stretch="normal"
     font-weight="normal"
     font-variant="normal"
     font-style="normal"
     stroke-miterlimit="10.433"
     xml:space="preserve"
     transform="matrix(4.9188903,-0.89694947,-0.89694947,-4.9188903,-150.46956,3946.5383)"
     id="g11094"
     style="font-style:normal;font-variant:normal;font-weight:normal;font-stretch:normal;letter-spacing:normal;word-spacing:normal;text-anchor:start;fill:none;stroke:#000000;stroke-linecap:butt;stroke-linejoin:miter;stroke-miterlimit:10.43299961;stroke-opacity:1;stroke-dasharray:none;stroke-dashoffset:0"><path
       id="path11096"
       d="m 225.14,660.97 v 0.66 l -1.43,-0.11 v -0.31 c 0.71,0 0.78,-0.06 0.78,-0.5 v -4.65 c 0,-0.44 -0.11,-0.44 -0.78,-0.44 v -0.31 c 0.34,0.01 0.86,0.03 1.11,0.03 0.27,0 0.78,-0.02 1.13,-0.03 v 0.31 c -0.67,0 -0.78,0 -0.78,0.44 v 1.67 0.09 l 0.14,0.13 c -0.14,0.21 -0.14,0.22 -0.14,0.42 h 0 v 2.21 c 0.29,0.51 0.78,0.8 1.29,0.8 0.72,0 1.33,-0.88 1.33,-2 0,-1.2 -0.7,-2.04 -1.43,-2.04 -0.4,0 -0.78,0.2 -1.05,0.61 l -0.14,-0.13 c 0.05,-0.16 0.47,-0.69 1.23,-0.69 1.18,0 2.22,0.97 2.22,2.25 0,1.26 -0.97,2.25 -2.08,2.25 -0.78,0 -1.2,-0.44 -1.4,-0.66 z"
       inkscape:connector-curvature="0"
       style="fill:#000000;stroke-width:0" /><path
       id="path11098"
       d="m 230.73,664.13 -1.43,-0.11 v -0.31 c 0.69,0 0.77,-0.07 0.77,-0.55 v -5.17 c 0,-0.45 -0.11,-0.45 -0.77,-0.45 v -0.31 c 0.32,0.01 0.85,0.04 1.1,0.04 0.25,0 0.74,-0.03 1.1,-0.04 v 0.31 c -0.66,0 -0.77,0 -0.77,0.45 z"
       inkscape:connector-curvature="0"
       style="fill:#000000;stroke-width:0" /><path
       id="path11100"
       d="m 235.05,657.99 0,-0.04 0.01,-0.03 0.01,-0.04 0,-0.04 0.01,-0.04 0.01,-0.03 0.02,-0.04 0.01,-0.03 0.02,-0.04 0.01,-0.03 0.02,-0.04 0.02,-0.03 0.02,-0.03 0.02,-0.04 0.02,-0.03 0.03,-0.03 0.02,-0.02 0.03,-0.03 0.02,-0.03 0.03,-0.02 0.03,-0.02 0.03,-0.03 0.04,-0.02 0.03,-0.01 0.04,-0.02 0.03,-0.01 0.04,-0.02 0.04,-0.01 0.04,0 0.04,-0.01 0.04,0 0.04,-0.01 c 0.21,0 0.82,0.14 0.82,0.95 v 0.55 h -0.25 v -0.55 c 0,-0.58 -0.25,-0.64 -0.36,-0.64 -0.32,0 -0.37,0.45 -0.37,0.5 v 1.99 c 0,0.41 0,0.8 -0.35,1.17 -0.39,0.39 -0.89,0.54 -1.37,0.54 -0.81,0 -1.5,-0.46 -1.5,-1.12 0,-0.29 0.2,-0.46 0.46,-0.46 0.28,0 0.46,0.19 0.46,0.45 0,0.12 -0.05,0.45 -0.51,0.46 0.27,0.35 0.75,0.46 1.07,0.46 0.49,0 1.06,-0.39 1.06,-1.27 v -0.37 -0.21 -0.99 c 0,-0.95 -0.72,-1.29 -1.17,-1.29 -0.48,0 -0.89,0.35 -0.89,0.85 0,0.54 0.42,1.37 2.06,1.43 h 0 v 0.21 c -0.51,-0.03 -1.21,-0.06 -1.83,-0.36 -0.75,-0.34 -1,-0.85 -1,-1.29 0,-0.81 0.97,-1.05 1.59,-1.05 0.66,0 1.12,0.39 1.31,0.86 z"
       inkscape:connector-curvature="0"
       style="fill:#000000;stroke-width:0" /><path
       id="path11102"
       d="m 237.81,660.65 v -2.66 c 0,-0.45 -0.11,-0.45 -0.78,-0.45 v -0.31 c 0.35,0.01 0.86,0.04 1.13,0.04 0.26,0 0.77,-0.03 1.11,-0.04 v 0.31 c -0.66,0 -0.77,0 -0.77,0.45 v 1.83 c 0,1.03 0.7,1.59 1.34,1.59 0.63,0 0.74,-0.54 0.74,-1.11 v -2.31 c 0,-0.45 -0.11,-0.45 -0.78,-0.45 v -0.31 c 0.35,0.01 0.86,0.04 1.13,0.04 0.25,0 0.77,-0.03 1.11,-0.04 v 0.31 c -0.52,0 -0.77,0 -0.78,0.3 v 1.9 c 0,0.85 0,1.16 -0.31,1.52 -0.13,0.17 -0.46,0.37 -1.04,0.37 -0.73,0 -1.19,-0.43 -1.47,-1.05 v 1.05 l -1.41,-0.11 v -0.31 c 0.7,0 0.78,-0.07 0.78,-0.56 z"
       inkscape:connector-curvature="0"
       style="fill:#000000;stroke-width:0" /><path
       id="path11104"
       d="m 246.94,659.36 -0.01,0.12 0,0.12 -0.02,0.11 -0.02,0.12 -0.02,0.11 -0.03,0.11 -0.04,0.11 -0.04,0.1 -0.04,0.1 -0.05,0.1 -0.05,0.1 -0.06,0.09 -0.06,0.1 -0.07,0.08 -0.07,0.09 -0.07,0.08 -0.08,0.08 -0.08,0.07 -0.08,0.07 -0.09,0.06 -0.09,0.07 -0.09,0.05 -0.09,0.05 -0.1,0.05 -0.1,0.04 -0.1,0.04 -0.11,0.03 -0.1,0.03 -0.11,0.02 -0.11,0.01 -0.11,0.01 -0.11,0 -0.01,-0.21 c 0.44,0 0.86,-0.22 1.12,-0.65 0.26,-0.43 0.26,-1 0.26,-1.38 0,-0.36 0,-0.89 -0.22,-1.33 -0.22,-0.45 -0.65,-0.74 -1.15,-0.74 h 0 c -0.43,0 -0.87,0.21 -1.14,0.67 -0.24,0.44 -0.24,1.04 -0.24,1.4 0,0.39 0,0.92 0.23,1.36 0.27,0.46 0.74,0.67 1.14,0.67 l 0.01,0.21 c -1.25,0 -2.21,-1.08 -2.21,-2.32 0,-1.28 1.04,-2.23 2.2,-2.23 1.2,0 2.21,0.97 2.21,2.23 z"
       inkscape:connector-curvature="0"
       style="fill:#000000;stroke-width:0" /><path
       id="path11106"
       d="m 253.88,660.23 0,0.03 0.01,0.03 0.01,0.03 0.01,0.04 0.01,0.04 0.01,0.04 0.01,0.04 0.02,0.05 0.01,0.04 0.02,0.05 0.02,0.05 0.02,0.05 0.02,0.05 0.03,0.05 0.02,0.05 0.03,0.05 0.03,0.05 0.03,0.04 0.03,0.05 0.04,0.04 0.04,0.05 0.04,0.04 0.04,0.04 0.04,0.03 0.05,0.03 0.05,0.03 0.02,0.01 0.03,0.02 0.02,0.01 0.03,0.01 0.03,0.01 0.03,0 0.03,0.01 0.03,0.01 0.03,0 0.03,0 0.03,0.01 0.03,0 c 0.05,0 0.29,0 0.5,-0.13 -0.28,-0.05 -0.48,-0.3 -0.48,-0.54 0,-0.16 0.11,-0.35 0.38,-0.35 0.22,0 0.54,0.18 0.54,0.58 0,0.52 -0.59,0.66 -0.93,0.66 -0.58,0 -0.92,-0.53 -1.04,-0.76 -0.25,0.66 -0.79,0.76 -1.08,0.76 -1.03,0 -1.6,-1.29 -1.6,-1.53 0,-0.1 0.1,-0.1 0.12,-0.1 0.08,0 0.11,0.02 0.13,0.11 0.34,1.05 0.99,1.3 1.33,1.3 0.19,0 0.54,-0.09 0.54,-0.67 0,-0.31 -0.17,-0.97 -0.54,-2.36 -0.16,-0.62 -0.51,-1.04 -0.94,-1.04 -0.06,0 -0.29,0 -0.5,0.13 0.25,0.05 0.47,0.26 0.47,0.54 0,0.27 -0.22,0.35 -0.37,0.35 -0.3,0 -0.55,-0.26 -0.55,-0.58 0,-0.46 0.5,-0.65 0.94,-0.65 0.65,0 1.01,0.69 1.04,0.75 0.12,-0.37 0.48,-0.75 1.08,-0.75 1.02,0 1.59,1.28 1.59,1.53 0,0.1 -0.09,0.1 -0.12,0.1 -0.09,0 -0.11,-0.04 -0.13,-0.11 -0.33,-1.07 -1.01,-1.31 -1.32,-1.31 -0.39,0 -0.55,0.32 -0.55,0.66 0,0.22 0.06,0.44 0.17,0.87 z"
       inkscape:connector-curvature="0"
       style="fill:#000000;stroke-width:0" /><path
       id="path11108"
       d="m 265.02,659.52 0.03,0 0.03,0 0.03,0 0.02,0 0.01,0 0.02,0 0.01,0.01 0.02,0 0.01,0 0.02,0 0.01,0.01 0.01,0 0.01,0 0.02,0.01 0.01,0.01 0.01,0 0.01,0.01 0.01,0.01 0.01,0 0.01,0.01 0,0.01 0.01,0.01 0,0 0,0.01 0.01,0.01 0,0 0,0.01 0,0.01 0.01,0 0,0.01 0,0.01 0,0.01 0,0 0,0.01 0,0.01 0,0.01 0,0.01 c 0,0.2 -0.17,0.2 -0.34,0.2 h -5.39 c -0.17,0 -0.34,0 -0.34,-0.2 0,-0.2 0.17,-0.2 0.34,-0.2 z"
       inkscape:connector-curvature="0"
       style="fill:#000000;stroke-width:0" /><path
       id="path11110"
       d="m 273.26,661.02 0,0.01 0,0 0,0.01 0.01,0 0,0.02 0,0.01 0,0.01 0.01,0.01 0,0.01 0,0 0,0.01 0.01,0.01 0,0.01 0,0.01 0,0 0,0.01 0,0 0,0.01 0,0.01 0,0 0.01,0.01 0,0 0,0.01 0,0.01 0,0.01 0,0.01 0,0.01 0,0.01 0,0 0,0.01 c 0,0.18 -0.14,0.27 -0.29,0.27 -0.1,0 -0.26,-0.06 -0.35,-0.21 -0.02,-0.05 -0.1,-0.36 -0.14,-0.54 -0.07,-0.26 -0.14,-0.53 -0.2,-0.79 l -0.44,-1.79 c -0.04,-0.15 -0.47,-0.85 -1.13,-0.85 -0.51,0 -0.62,0.44 -0.62,0.81 0,0.46 0.17,1.07 0.51,1.95 0.16,0.4 0.2,0.51 0.2,0.71 0,0.45 -0.32,0.82 -0.82,0.82 -0.94,0 -1.31,-1.45 -1.31,-1.53 0,-0.1 0.1,-0.1 0.12,-0.1 0.1,0 0.11,0.02 0.16,0.17 0.27,0.94 0.67,1.24 1,1.24 0.09,0 0.25,0 0.25,-0.32 0,-0.25 -0.1,-0.51 -0.16,-0.7 -0.4,-1.05 -0.58,-1.61 -0.58,-2.08 0,-0.89 0.62,-1.18 1.21,-1.18 0.39,0 0.73,0.16 1.01,0.44 -0.13,-0.51 -0.25,-1 -0.65,-1.53 -0.26,-0.33 -0.64,-0.62 -1.09,-0.62 -0.14,0 -0.59,0.03 -0.76,0.41 0.16,0 0.29,0 0.43,0.12 0.1,0.09 0.2,0.22 0.2,0.41 0,0.31 -0.27,0.35 -0.37,0.35 -0.23,0 -0.56,-0.16 -0.56,-0.65 0,-0.49 0.44,-0.86 1.06,-0.86 1.02,0 2.04,0.9 2.32,2.02 z"
       inkscape:connector-curvature="0"
       style="fill:#000000;stroke-width:0" /></g></svg>
