<?xml version="1.0" encoding="UTF-8" standalone="no"?>
<svg
   width="1113.4926pt"
   height="977.00757pt"
   viewBox="0 0 1113.4925 977.00757"
   version="1.1"
   id="svg36"
   sodipodi:docname="triang3.svg"
   inkscape:version="1.2.2 (b0a8486541, 2022-12-01)"
   xmlns:inkscape="http://www.inkscape.org/namespaces/inkscape"
   xmlns:sodipodi="http://sodipodi.sourceforge.net/DTD/sodipodi-0.dtd"
   xmlns="http://www.w3.org/2000/svg"
   xmlns:svg="http://www.w3.org/2000/svg"
   xmlns:rdf="http://www.w3.org/1999/02/22-rdf-syntax-ns#"
   xmlns:cc="http://creativecommons.org/ns#"
   xmlns:dc="http://purl.org/dc/elements/1.1/"
   xmlns:ns1="http://www.iki.fi/pav/software/textext/">
  <sodipodi:namedview
     id="namedview38"
     pagecolor="#ffffff"
     bordercolor="#666666"
     borderopacity="1.0"
     inkscape:showpageshadow="2"
     inkscape:pageopacity="0.0"
     inkscape:pagecheckerboard="0"
     inkscape:deskcolor="#d1d1d1"
     inkscape:document-units="pt"
     showgrid="false"
     inkscape:zoom="0.44609184"
     inkscape:cx="821.5797"
     inkscape:cy="643.36528"
     inkscape:window-width="1920"
     inkscape:window-height="1051"
     inkscape:window-x="1920"
     inkscape:window-y="0"
     inkscape:window-maximized="1"
     inkscape:current-layer="svg36" />
  <title
     id="title2">triang3</title>
  <desc
     id="desc4">
Creator: GL2PS 1.4.3, (C) 1999-2020 C. Geuzaine
For: Gmsh
CreationDate: Wed Jul 12 08:02:58 2023
</desc>
  <defs
     id="defs6">
    <marker
       style="overflow:visible"
       id="Arrow2"
       refX="0"
       refY="0"
       orient="auto-start-reverse"
       inkscape:stockid="Arrow2"
       markerWidth="7.6999998"
       markerHeight="5.5999999"
       viewBox="0 0 7.7 5.6"
       inkscape:isstock="true"
       inkscape:collect="always"
       preserveAspectRatio="xMidYMid">
      <path
         transform="scale(0.7)"
         d="M -2,-4 9,0 -2,4 c 2,-2.33 2,-5.66 0,-8 z"
         style="fill:context-stroke;fill-rule:evenodd;stroke:none"
         id="arrow2L" />
    </marker>
  </defs>
  <circle
     fill="#000000"
     cx="81.884399"
     cy="949.25519"
     r="10"
     id="circle8"
     style="stroke:#000000;stroke-width:20;stroke-dasharray:none;stroke-opacity:1" />
  <circle
     fill="#000000"
     cx="796.8844"
     cy="949.25519"
     r="10"
     id="circle10"
     style="stroke:#000000;stroke-width:20;stroke-dasharray:none;stroke-opacity:1" />
  <circle
     fill="#000000"
     cx="81.884399"
     cy="234.25514"
     r="10"
     id="circle12"
     style="stroke:#000000;stroke-width:20;stroke-dasharray:none;stroke-opacity:1" />
  <polyline
     fill="none"
     stroke="#000000"
     stroke-width="5"
     stroke-linecap="butt"
     stroke-linejoin="miter"
     points="456,858 1171,858 456,143 456,858"
     id="polyline14"
     style="stroke:#000000;stroke-width:10;stroke-dasharray:none;stroke-opacity:1"
     transform="translate(-374.1156,91.255148)" />
  <text
     fill="#000000"
     x="106.67404"
     y="919.91132"
     font-size="15px"
     text-anchor="start"
     font-family="Helvetica"
     id="text22"
     style="font-size:72px">1</text>
  <text
     fill="#000000"
     x="812.38025"
     y="919.74664"
     font-size="15px"
     text-anchor="start"
     font-family="Helvetica"
     id="text24"
     style="font-size:72px">2</text>
  <text
     fill="#000000"
     x="93.384399"
     y="222.75514"
     font-size="15px"
     text-anchor="start"
     font-family="Helvetica"
     id="text26"
     style="font-size:72px">3</text>
  <polyline
     fill="none"
     stroke="#000000"
     stroke-width="1"
     stroke-linecap="butt"
     stroke-linejoin="miter"
     points="1567,961 1567,961"
     id="polyline32"
     transform="translate(-1567,15.507538)" />
  <metadata
     id="metadata1025">
    <rdf:RDF>
      <cc:Work
         rdf:about="">
        <dc:title>triang3</dc:title>
      </cc:Work>
    </rdf:RDF>
  </metadata>
  <g
     ns1:version="1.8.2"
     ns1:texconverter="xelatex"
     ns1:pdfconverter="inkscape"
     ns1:text="$x$"
     ns1:preamble="/usr/share/inkscape/extensions/textext/default_packages.tex"
     ns1:scale="5.9116784"
     ns1:alignment="middle center"
     ns1:stroke-to-path="0"
     transform="matrix(5.91168,0,0,5.91168,1084.212,936.50228)"
     ns1:jacobian_sqrt="5.91168"
     id="g1086">
    <defs
       id="id-4d070a42-a61c-4f9f-9ea7-9ffc04acfb73">
      <g
         id="id-121247aa-ce10-4c40-8749-cdb876d33fd5">
        <symbol
           overflow="visible"
           id="id-a8f763ca-b856-42f5-acf9-5bb18f2073bb">
          <path
             style="stroke:none;stroke-width:0"
             d=""
             id="id-25c09153-19ec-4205-9de6-b9ac690c6f93" />
        </symbol>
        <symbol
           overflow="visible"
           id="id-831646cf-841a-44e6-b099-4e3577844f98">
          <path
             style="stroke:none;stroke-width:0"
             d="M 3.328125,-3.015625 C 3.390625,-3.265625 3.625,-4.1875 4.3125,-4.1875 c 0.046875,0 0.296875,0 0.5,0.125 C 4.53125,-4 4.34375,-3.765625 4.34375,-3.515625 c 0,0.15625 0.109375,0.34375 0.375,0.34375 0.21875,0 0.53125,-0.171875 0.53125,-0.578125 0,-0.515625 -0.578125,-0.65625 -0.921875,-0.65625 -0.578125,0 -0.921875,0.53125 -1.046875,0.75 -0.25,-0.65625 -0.78125,-0.75 -1.078125,-0.75 -1.03125,0 -1.609375,1.28125 -1.609375,1.53125 0,0.109375 0.109375,0.109375 0.125,0.109375 0.078125,0 0.109375,-0.03125 0.125,-0.109375 0.34375,-1.0625 1,-1.3125 1.34375,-1.3125 0.1875,0 0.53125,0.09375 0.53125,0.671875 0,0.3125 -0.171875,0.96875 -0.53125,2.375 -0.15625,0.609375 -0.515625,1.03125 -0.953125,1.03125 -0.0625,0 -0.28125,0 -0.5,-0.125 0.25,-0.0625 0.46875,-0.265625 0.46875,-0.546875 0,-0.265625 -0.21875,-0.34375 -0.359375,-0.34375 -0.3125,0 -0.546875,0.25 -0.546875,0.578125 0,0.453125 0.484375,0.65625 0.921875,0.65625 0.671875,0 1.03125,-0.703125 1.046875,-0.75 0.125,0.359375 0.484375,0.75 1.078125,0.75 1.03125,0 1.59375,-1.28125 1.59375,-1.53125 0,-0.109375 -0.078125,-0.109375 -0.109375,-0.109375 -0.09375,0 -0.109375,0.046875 -0.140625,0.109375 -0.328125,1.078125 -1,1.3125 -1.3125,1.3125 -0.390625,0 -0.546875,-0.3125 -0.546875,-0.65625 0,-0.21875 0.046875,-0.4375 0.15625,-0.875 z m 0,0"
             id="id-e9fddba6-bcc9-4972-a248-837784028f30" />
        </symbol>
      </g>
    </defs>
    <g
       id="id-7153409a-674a-428b-9416-fb0b92dde7d0"
       transform="translate(-149.009,-130.359)">
      <g
         style="fill:#000000;fill-opacity:1"
         id="id-07babc4b-c3b7-4ca6-aaef-515849f6d92d">
        <g
           transform="translate(148.712,134.765)"
           id="g1082">
          <path
             style="stroke:none;stroke-width:0"
             d="M 3.328125,-3.015625 C 3.390625,-3.265625 3.625,-4.1875 4.3125,-4.1875 c 0.046875,0 0.296875,0 0.5,0.125 C 4.53125,-4 4.34375,-3.765625 4.34375,-3.515625 c 0,0.15625 0.109375,0.34375 0.375,0.34375 0.21875,0 0.53125,-0.171875 0.53125,-0.578125 0,-0.515625 -0.578125,-0.65625 -0.921875,-0.65625 -0.578125,0 -0.921875,0.53125 -1.046875,0.75 -0.25,-0.65625 -0.78125,-0.75 -1.078125,-0.75 -1.03125,0 -1.609375,1.28125 -1.609375,1.53125 0,0.109375 0.109375,0.109375 0.125,0.109375 0.078125,0 0.109375,-0.03125 0.125,-0.109375 0.34375,-1.0625 1,-1.3125 1.34375,-1.3125 0.1875,0 0.53125,0.09375 0.53125,0.671875 0,0.3125 -0.171875,0.96875 -0.53125,2.375 -0.15625,0.609375 -0.515625,1.03125 -0.953125,1.03125 -0.0625,0 -0.28125,0 -0.5,-0.125 0.25,-0.0625 0.46875,-0.265625 0.46875,-0.546875 0,-0.265625 -0.21875,-0.34375 -0.359375,-0.34375 -0.3125,0 -0.546875,0.25 -0.546875,0.578125 0,0.453125 0.484375,0.65625 0.921875,0.65625 0.671875,0 1.03125,-0.703125 1.046875,-0.75 0.125,0.359375 0.484375,0.75 1.078125,0.75 1.03125,0 1.59375,-1.28125 1.59375,-1.53125 0,-0.109375 -0.078125,-0.109375 -0.109375,-0.109375 -0.09375,0 -0.109375,0.046875 -0.140625,0.109375 -0.328125,1.078125 -1,1.3125 -1.3125,1.3125 -0.390625,0 -0.546875,-0.3125 -0.546875,-0.65625 0,-0.21875 0.046875,-0.4375 0.15625,-0.875 z m 0,0"
             id="id-c2405330-a3e9-4099-b952-ccfcf148e9de" />
        </g>
      </g>
    </g>
  </g>
  <g
     ns1:version="1.8.2"
     ns1:texconverter="xelatex"
     ns1:pdfconverter="inkscape"
     ns1:text="$y$"
     ns1:preamble="/usr/share/inkscape/extensions/textext/default_packages.tex"
     ns1:scale="5.9116784"
     ns1:alignment="middle center"
     ns1:stroke-to-path="0"
     transform="matrix(5.91168,0,0,5.91168,64.83773,0.00147792)"
     ns1:jacobian_sqrt="5.91168"
     id="g1120">
    <defs
       id="id-ef21b383-3c13-47ec-b84b-7392b721719d">
      <g
         id="id-d16aedf3-6c5c-43db-aaac-6841f99d7ca8">
        <symbol
           overflow="visible"
           id="id-0a01b410-0edb-4cc6-8275-d840485af3ec">
          <path
             style="stroke:none"
             d=""
             id="id-229f5ed7-103f-4cfc-8541-349c181a96ea" />
        </symbol>
        <symbol
           overflow="visible"
           id="id-98d861aa-9270-41d5-bd3b-61e0f367d862">
          <path
             style="stroke:none"
             d="m 4.84375,-3.796875 c 0.046875,-0.140625 0.046875,-0.15625 0.046875,-0.234375 0,-0.171875 -0.140625,-0.265625 -0.296875,-0.265625 -0.09375,0 -0.25,0.0625 -0.34375,0.203125 -0.015625,0.0625 -0.109375,0.359375 -0.140625,0.546875 -0.078125,0.25 -0.140625,0.53125 -0.203125,0.796875 l -0.453125,1.796875 c -0.03125,0.140625 -0.46875,0.84375 -1.125,0.84375 -0.5,0 -0.609375,-0.4375 -0.609375,-0.8125 C 1.71875,-1.375 1.890625,-2 2.21875,-2.875 2.375,-3.28125 2.421875,-3.390625 2.421875,-3.59375 c 0,-0.4375 -0.3125,-0.8125 -0.8125,-0.8125 -0.953125,0 -1.3125,1.453125 -1.3125,1.53125 0,0.109375 0.09375,0.109375 0.109375,0.109375 0.109375,0 0.109375,-0.03125 0.15625,-0.1875 0.28125,-0.9375 0.671875,-1.234375 1.015625,-1.234375 0.078125,0 0.25,0 0.25,0.3125 0,0.25 -0.109375,0.515625 -0.171875,0.703125 -0.40625,1.0625 -0.578125,1.625 -0.578125,2.09375 0,0.890625 0.625,1.1875 1.21875,1.1875 0.390625,0 0.71875,-0.171875 1,-0.453125 -0.125,0.515625 -0.25,1.015625 -0.640625,1.546875 -0.265625,0.328125 -0.640625,0.625 -1.09375,0.625 -0.140625,0 -0.59375,-0.03125 -0.765625,-0.421875 0.15625,0 0.296875,0 0.421875,-0.125 C 1.328125,1.203125 1.421875,1.0625 1.421875,0.875 1.421875,0.5625 1.15625,0.53125 1.0625,0.53125 0.828125,0.53125 0.5,0.6875 0.5,1.171875 c 0,0.5 0.4375,0.875 1.0625,0.875 1.015625,0 2.046875,-0.90625 2.328125,-2.03125 z m 0,0"
             id="id-c0208db4-b4b5-416d-bda3-c849cf6c3c46" />
        </symbol>
      </g>
    </defs>
    <g
       id="id-e9231bee-91af-4c51-ae2c-f782329c5da6"
       transform="translate(-149.009,-130.359)">
      <g
         style="fill:#000000;fill-opacity:1"
         id="id-0f822e3e-cf7c-4826-b071-8b61a8c9d5ae">
        <g
           transform="translate(148.712,134.765)"
           id="g1197">
          <path
             style="stroke:none"
             d="m 4.84375,-3.796875 c 0.046875,-0.140625 0.046875,-0.15625 0.046875,-0.234375 0,-0.171875 -0.140625,-0.265625 -0.296875,-0.265625 -0.09375,0 -0.25,0.0625 -0.34375,0.203125 -0.015625,0.0625 -0.109375,0.359375 -0.140625,0.546875 -0.078125,0.25 -0.140625,0.53125 -0.203125,0.796875 l -0.453125,1.796875 c -0.03125,0.140625 -0.46875,0.84375 -1.125,0.84375 -0.5,0 -0.609375,-0.4375 -0.609375,-0.8125 C 1.71875,-1.375 1.890625,-2 2.21875,-2.875 2.375,-3.28125 2.421875,-3.390625 2.421875,-3.59375 c 0,-0.4375 -0.3125,-0.8125 -0.8125,-0.8125 -0.953125,0 -1.3125,1.453125 -1.3125,1.53125 0,0.109375 0.09375,0.109375 0.109375,0.109375 0.109375,0 0.109375,-0.03125 0.15625,-0.1875 0.28125,-0.9375 0.671875,-1.234375 1.015625,-1.234375 0.078125,0 0.25,0 0.25,0.3125 0,0.25 -0.109375,0.515625 -0.171875,0.703125 -0.40625,1.0625 -0.578125,1.625 -0.578125,2.09375 0,0.890625 0.625,1.1875 1.21875,1.1875 0.390625,0 0.71875,-0.171875 1,-0.453125 -0.125,0.515625 -0.25,1.015625 -0.640625,1.546875 -0.265625,0.328125 -0.640625,0.625 -1.09375,0.625 -0.140625,0 -0.59375,-0.03125 -0.765625,-0.421875 0.15625,0 0.296875,0 0.421875,-0.125 C 1.328125,1.203125 1.421875,1.0625 1.421875,0.875 1.421875,0.5625 1.15625,0.53125 1.0625,0.53125 0.828125,0.53125 0.5,0.6875 0.5,1.171875 c 0,0.5 0.4375,0.875 1.0625,0.875 1.015625,0 2.046875,-0.90625 2.328125,-2.03125 z m 0,0"
             id="id-81e33e2a-711f-40fa-ab57-b2789bb77f18" />
        </g>
      </g>
    </g>
  </g>
  <path
     style="fill:none;stroke:#000000;stroke-width:3;stroke-linecap:butt;stroke-linejoin:miter;stroke-dasharray:none;stroke-opacity:1;marker-end:url(#Arrow2)"
     d="M 82.55231,949.09697 H 1053.7751"
     id="path1270" />
  <path
     style="fill:none;stroke:#000000;stroke-width:3;stroke-linecap:butt;stroke-linejoin:miter;stroke-dasharray:none;stroke-opacity:1;marker-end:url(#Arrow2)"
     d="M 78.54694,944.63285 V 68.728028"
     id="path1537"
     sodipodi:nodetypes="cc" />
  <g
     ns1:version="1.8.2"
     ns1:texconverter="xelatex"
     ns1:pdfconverter="inkscape"
     ns1:text="\\[\n\\begin{aligned}\n\\mathbf{x}_1 &amp;= \\begin{bmatrix}0 &amp; 0\\end{bmatrix} \\\\\n\\mathbf{x}_2 &amp;= \\begin{bmatrix}1 &amp; 0\\end{bmatrix} \\\\\n\\mathbf{x}_3 &amp;= \\begin{bmatrix}0 &amp; 1\\end{bmatrix} \\\\\n\\end{aligned}\n\\]"
     ns1:preamble="/usr/share/inkscape/extensions/textext/default_packages.tex"
     ns1:scale="5.9116784"
     ns1:alignment="middle center"
     ns1:stroke-to-path="0"
     transform="matrix(5.91168,0,0,5.91168,611.80005,269.08053)"
     ns1:jacobian_sqrt="5.91168"
     id="g4042">
    <defs
       id="id-addce71e-48a9-4446-b2c0-53abc09755b5">
      <g
         id="id-a698ee5a-c39a-44f5-ac83-917e5c558ed1">
        <symbol
           overflow="visible"
           id="id-7458cd09-bf96-4e8c-a867-0e94897ae59b">
          <path
             style="stroke:none"
             d=""
             id="id-55f33fde-7c7a-47e8-89d9-1281c236ead3" />
        </symbol>
        <symbol
           overflow="visible"
           id="id-b3c4d028-ed4a-4f3c-82e2-075409d0d778">
          <path
             style="stroke:none"
             d="M 3.453125,-2.453125 4.609375,-3.75 C 4.75,-3.890625 4.8125,-3.953125 5.625,-3.953125 v -0.46875 c -0.34375,0.015625 -0.859375,0.03125 -0.90625,0.03125 -0.25,0 -0.75,-0.03125 -1.03125,-0.03125 v 0.46875 c 0.140625,0 0.265625,0.015625 0.375,0.078125 -0.03125,0.0625 -0.03125,0.09375 -0.078125,0.125 L 3.15625,-2.8125 2.171875,-3.953125 h 0.40625 v -0.46875 c -0.265625,0 -0.890625,0.03125 -1.21875,0.03125 -0.3125,0 -0.765625,-0.03125 -1.09375,-0.03125 v 0.46875 h 0.71875 L 2.53125,-2.125 1.21875,-0.65625 c -0.15625,0.1875 -0.515625,0.1875 -1,0.1875 V 0 c 0.34375,-0.015625 0.875,-0.03125 0.921875,-0.03125 0.25,0 0.828125,0.015625 1.015625,0.03125 v -0.46875 c -0.171875,0 -0.359375,-0.046875 -0.359375,-0.109375 0,-0.015625 0,-0.015625 0.0625,-0.09375 l 0.96875,-1.09375 1.09375,1.296875 H 3.53125 V 0 c 0.265625,-0.015625 0.875,-0.03125 1.203125,-0.03125 0.3125,0 0.765625,0.015625 1.09375,0.03125 V -0.46875 H 5.125 Z m 0,0"
             id="id-b26a59a5-4272-428d-ac81-f3e3f9be5003" />
        </symbol>
        <symbol
           overflow="visible"
           id="id-1a0114b7-1279-4393-bf83-98e422231360">
          <path
             style="stroke:none"
             d=""
             id="id-f0e085da-2e8f-4562-a870-8c04712cdd89" />
        </symbol>
        <symbol
           overflow="visible"
           id="id-ab5633ca-8e81-4884-9875-580f9a26a87d">
          <path
             style="stroke:none"
             d="m 2.328125,-4.4375 c 0,-0.1875 0,-0.1875 -0.203125,-0.1875 -0.453125,0.4375 -1.078125,0.4375 -1.359375,0.4375 v 0.25 c 0.15625,0 0.625,0 1,-0.1875 v 3.546875 c 0,0.234375 0,0.328125 -0.6875,0.328125 H 0.8125 V 0 c 0.125,0 0.984375,-0.03125 1.234375,-0.03125 0.21875,0 1.09375,0.03125 1.25,0.03125 V -0.25 H 3.03125 c -0.703125,0 -0.703125,-0.09375 -0.703125,-0.328125 z m 0,0"
             id="id-38afb9e8-17d3-4fe4-9a82-8fff60dfc9e3" />
        </symbol>
        <symbol
           overflow="visible"
           id="id-8dd1bec4-931a-4e9b-a7dc-758bc9c06f79">
          <path
             style="stroke:none"
             d="M 3.515625,-1.265625 H 3.28125 c -0.015625,0.15625 -0.09375,0.5625 -0.1875,0.625 C 3.046875,-0.59375 2.515625,-0.59375 2.40625,-0.59375 H 1.125 c 0.734375,-0.640625 0.984375,-0.84375 1.390625,-1.171875 0.515625,-0.40625 1,-0.84375 1,-1.5 0,-0.84375 -0.734375,-1.359375 -1.625,-1.359375 -0.859375,0 -1.453125,0.609375 -1.453125,1.25 0,0.34375 0.296875,0.390625 0.375,0.390625 0.15625,0 0.359375,-0.125 0.359375,-0.375 0,-0.125 -0.046875,-0.375 -0.40625,-0.375 C 0.984375,-4.21875 1.453125,-4.375 1.78125,-4.375 c 0.703125,0 1.0625,0.546875 1.0625,1.109375 0,0.609375 -0.4375,1.078125 -0.65625,1.328125 L 0.515625,-0.265625 C 0.4375,-0.203125 0.4375,-0.1875 0.4375,0 h 2.875 z m 0,0"
             id="id-1aa4ab88-c54a-4a5c-b8ba-78b1f1d01711" />
        </symbol>
        <symbol
           overflow="visible"
           id="id-fb75c9dd-652f-417e-ac25-f90288ad5771">
          <path
             style="stroke:none"
             d="m 1.90625,-2.328125 c 0.546875,0 0.9375,0.375 0.9375,1.125 0,0.859375 -0.515625,1.125 -0.90625,1.125 -0.28125,0 -0.90625,-0.078125 -1.1875,-0.5 0.328125,0 0.40625,-0.234375 0.40625,-0.390625 0,-0.21875 -0.171875,-0.375 -0.390625,-0.375 -0.1875,0 -0.390625,0.125 -0.390625,0.40625 0,0.65625 0.71875,1.078125 1.5625,1.078125 0.96875,0 1.640625,-0.65625 1.640625,-1.34375 0,-0.546875 -0.4375,-1.09375 -1.203125,-1.25 0.71875,-0.265625 0.984375,-0.78125 0.984375,-1.21875 0,-0.546875 -0.625,-0.953125 -1.40625,-0.953125 -0.765625,0 -1.359375,0.375 -1.359375,0.9375 0,0.234375 0.15625,0.359375 0.359375,0.359375 0.21875,0 0.359375,-0.15625 0.359375,-0.34375 0,-0.203125 -0.140625,-0.359375 -0.359375,-0.375 0.25,-0.296875 0.71875,-0.375 0.984375,-0.375 0.3125,0 0.75,0.15625 0.75,0.75 0,0.296875 -0.09375,0.625 -0.28125,0.828125 -0.21875,0.265625 -0.421875,0.28125 -0.765625,0.3125 -0.171875,0.015625 -0.1875,0.015625 -0.21875,0.015625 -0.015625,0 -0.078125,0.015625 -0.078125,0.09375 0,0.09375 0.0625,0.09375 0.1875,0.09375 z m 0,0"
             id="id-2106b0fa-9c21-4e99-8366-38f58c8c3b62" />
        </symbol>
        <symbol
           overflow="visible"
           id="id-edccd7e5-d231-4cb8-9d86-7bc8f3c5fdd7">
          <path
             style="stroke:none"
             d=""
             id="id-8493c9c9-f985-4278-ab0a-840100d5cb3c" />
        </symbol>
        <symbol
           overflow="visible"
           id="id-3a20b6f6-8cce-43ef-abc9-2240adead47f">
          <path
             style="stroke:none"
             d="m 6.84375,-3.265625 c 0.15625,0 0.34375,0 0.34375,-0.1875 C 7.1875,-3.65625 7,-3.65625 6.859375,-3.65625 h -5.96875 c -0.140625,0 -0.328125,0 -0.328125,0.203125 0,0.1875 0.1875,0.1875 0.328125,0.1875 z m 0.015625,1.9375 c 0.140625,0 0.328125,0 0.328125,-0.203125 0,-0.1875 -0.1875,-0.1875 -0.34375,-0.1875 H 0.890625 c -0.140625,0 -0.328125,0 -0.328125,0.1875 0,0.203125 0.1875,0.203125 0.328125,0.203125 z m 0,0"
             id="id-9878a734-5f1c-48b0-98b5-6bb0f56caf67" />
        </symbol>
        <symbol
           overflow="visible"
           id="id-33d1ac8c-6cd6-4909-87bd-f01261a009e3">
          <path
             style="stroke:none"
             d="m 4.578125,-3.1875 c 0,-0.796875 -0.046875,-1.59375 -0.390625,-2.328125 -0.453125,-0.96875 -1.28125,-1.125 -1.6875,-1.125 -0.609375,0 -1.328125,0.265625 -1.75,1.1875 -0.3125,0.6875 -0.359375,1.46875 -0.359375,2.265625 0,0.75 0.03125,1.640625 0.453125,2.40625 0.421875,0.796875 1.15625,1 1.640625,1 0.53125,0 1.296875,-0.203125 1.734375,-1.15625 0.3125,-0.6875 0.359375,-1.46875 0.359375,-2.25 z M 2.484375,0 C 2.09375,0 1.5,-0.25 1.328125,-1.203125 1.21875,-1.796875 1.21875,-2.71875 1.21875,-3.3125 c 0,-0.640625 0,-1.296875 0.078125,-1.828125 0.1875,-1.1875 0.9375,-1.28125 1.1875,-1.28125 0.328125,0 0.984375,0.1875 1.171875,1.171875 0.109375,0.5625 0.109375,1.3125 0.109375,1.9375 0,0.75 0,1.421875 -0.109375,2.0625 C 3.5,-0.296875 2.9375,0 2.484375,0 Z m 0,0"
             id="id-aa7c0513-5bd5-48ee-8d29-693bb079b8ce" />
        </symbol>
        <symbol
           overflow="visible"
           id="id-d8717a43-93aa-40fb-af90-0a09257a062a">
          <path
             style="stroke:none"
             d="m 2.9375,-6.375 c 0,-0.25 0,-0.265625 -0.234375,-0.265625 C 2.078125,-6 1.203125,-6 0.890625,-6 v 0.3125 c 0.203125,0 0.78125,0 1.296875,-0.265625 v 5.171875 c 0,0.359375 -0.03125,0.46875 -0.921875,0.46875 h -0.3125 V 0 c 0.34375,-0.03125 1.203125,-0.03125 1.609375,-0.03125 0.390625,0 1.265625,0 1.609375,0.03125 v -0.3125 h -0.3125 c -0.90625,0 -0.921875,-0.109375 -0.921875,-0.46875 z m 0,0"
             id="id-6c3a4b66-28f8-4a7a-ac97-8f006bb2f06d" />
        </symbol>
        <symbol
           overflow="visible"
           id="id-f555991a-bffd-4c46-9383-22d11d2a59f4">
          <path
             style="stroke:none"
             d=""
             id="id-b3562220-9ef1-452c-9d42-9e05afca77bf" />
        </symbol>
        <symbol
           overflow="visible"
           id="id-36078961-9d23-43a4-a183-9673fe54c9b6">
          <path
             style="stroke:none"
             d="m 2.015625,11.546875 h 1.90625 V 11.15625 H 2.40625 V 0 h 1.515625 v -0.40625 h -1.90625 z m 0,0"
             id="id-e72b58c4-8c3a-4da6-989b-b99ae498a67f" />
        </symbol>
        <symbol
           overflow="visible"
           id="id-6dc77075-c020-4192-8225-483cec06b085">
          <path
             style="stroke:none"
             d="M 2.140625,11.546875 V -0.40625 H 0.21875 V 0 H 1.734375 V 11.15625 H 0.21875 v 0.390625 z m 0,0"
             id="id-24ceb14b-2f0a-49e2-8b8c-b22ddb7f445c" />
        </symbol>
      </g>
    </defs>
    <g
       id="id-f5f1f269-2c57-49e2-af94-a66a70d2b508"
       transform="translate(-279.829,-135.753)">
      <g
         style="fill:#000000;fill-opacity:1"
         id="id-c489c965-492e-4753-b149-ec9f830b2515">
        <g
           transform="translate(279.61,144.229)"
           id="g4367">
          <path
             style="stroke:none"
             d="M 3.453125,-2.453125 4.609375,-3.75 C 4.75,-3.890625 4.8125,-3.953125 5.625,-3.953125 v -0.46875 c -0.34375,0.015625 -0.859375,0.03125 -0.90625,0.03125 -0.25,0 -0.75,-0.03125 -1.03125,-0.03125 v 0.46875 c 0.140625,0 0.265625,0.015625 0.375,0.078125 -0.03125,0.0625 -0.03125,0.09375 -0.078125,0.125 L 3.15625,-2.8125 2.171875,-3.953125 h 0.40625 v -0.46875 c -0.265625,0 -0.890625,0.03125 -1.21875,0.03125 -0.3125,0 -0.765625,-0.03125 -1.09375,-0.03125 v 0.46875 h 0.71875 L 2.53125,-2.125 1.21875,-0.65625 c -0.15625,0.1875 -0.515625,0.1875 -1,0.1875 V 0 c 0.34375,-0.015625 0.875,-0.03125 0.921875,-0.03125 0.25,0 0.828125,0.015625 1.015625,0.03125 v -0.46875 c -0.171875,0 -0.359375,-0.046875 -0.359375,-0.109375 0,-0.015625 0,-0.015625 0.0625,-0.09375 l 0.96875,-1.09375 1.09375,1.296875 H 3.53125 V 0 c 0.265625,-0.015625 0.875,-0.03125 1.203125,-0.03125 0.3125,0 0.765625,0.015625 1.09375,0.03125 V -0.46875 H 5.125 Z m 0,0"
             id="id-c79c2ce5-ef83-482b-a700-c050ed092ade" />
        </g>
      </g>
      <g
         style="fill:#000000;fill-opacity:1"
         id="id-2d275ba8-8935-4433-9b21-b5d43ffc7d4f">
        <g
           transform="translate(285.657,145.724)"
           id="g4371">
          <path
             style="stroke:none"
             d="m 2.328125,-4.4375 c 0,-0.1875 0,-0.1875 -0.203125,-0.1875 -0.453125,0.4375 -1.078125,0.4375 -1.359375,0.4375 v 0.25 c 0.15625,0 0.625,0 1,-0.1875 v 3.546875 c 0,0.234375 0,0.328125 -0.6875,0.328125 H 0.8125 V 0 c 0.125,0 0.984375,-0.03125 1.234375,-0.03125 0.21875,0 1.09375,0.03125 1.25,0.03125 V -0.25 H 3.03125 c -0.703125,0 -0.703125,-0.09375 -0.703125,-0.328125 z m 0,0"
             id="id-b44bf4db-ab4d-4328-a637-04cdd7942607" />
        </g>
      </g>
      <g
         style="fill:#000000;fill-opacity:1"
         id="id-9589eb42-8591-48d0-a7b5-efa582a59699">
        <g
           transform="translate(292.894,144.229)"
           id="g4375">
          <path
             style="stroke:none"
             d="m 6.84375,-3.265625 c 0.15625,0 0.34375,0 0.34375,-0.1875 C 7.1875,-3.65625 7,-3.65625 6.859375,-3.65625 h -5.96875 c -0.140625,0 -0.328125,0 -0.328125,0.203125 0,0.1875 0.1875,0.1875 0.328125,0.1875 z m 0.015625,1.9375 c 0.140625,0 0.328125,0 0.328125,-0.203125 0,-0.1875 -0.1875,-0.1875 -0.34375,-0.1875 H 0.890625 c -0.140625,0 -0.328125,0 -0.328125,0.1875 0,0.203125 0.1875,0.203125 0.328125,0.203125 z m 0,0"
             id="id-73c9a558-543f-48ef-87bc-573440ba1dca" />
        </g>
      </g>
      <g
         style="fill:#000000;fill-opacity:1"
         id="id-6c2aef8b-7886-45c4-a79f-ef04651e9948">
        <g
           transform="translate(303.41,136.159)"
           id="g4379">
          <path
             style="stroke:none"
             d="m 2.015625,11.546875 h 1.90625 V 11.15625 H 2.40625 V 0 h 1.515625 v -0.40625 h -1.90625 z m 0,0"
             id="id-55749f4b-da63-429a-8940-d3b2af7de035" />
        </g>
      </g>
      <g
         style="fill:#000000;fill-opacity:1"
         id="id-78b19204-f9a6-4f03-b961-832f4f5bac1c">
        <g
           transform="translate(307.561,144.13)"
           id="g4383">
          <path
             style="stroke:none"
             d="m 4.578125,-3.1875 c 0,-0.796875 -0.046875,-1.59375 -0.390625,-2.328125 -0.453125,-0.96875 -1.28125,-1.125 -1.6875,-1.125 -0.609375,0 -1.328125,0.265625 -1.75,1.1875 -0.3125,0.6875 -0.359375,1.46875 -0.359375,2.265625 0,0.75 0.03125,1.640625 0.453125,2.40625 0.421875,0.796875 1.15625,1 1.640625,1 0.53125,0 1.296875,-0.203125 1.734375,-1.15625 0.3125,-0.6875 0.359375,-1.46875 0.359375,-2.25 z M 2.484375,0 C 2.09375,0 1.5,-0.25 1.328125,-1.203125 1.21875,-1.796875 1.21875,-2.71875 1.21875,-3.3125 c 0,-0.640625 0,-1.296875 0.078125,-1.828125 0.1875,-1.1875 0.9375,-1.28125 1.1875,-1.28125 0.328125,0 0.984375,0.1875 1.171875,1.171875 0.109375,0.5625 0.109375,1.3125 0.109375,1.9375 0,0.75 0,1.421875 -0.109375,2.0625 C 3.5,-0.296875 2.9375,0 2.484375,0 Z m 0,0"
             id="id-a4a42e03-d76d-43fa-9ef2-7ebb3c76bebb" />
        </g>
      </g>
      <g
         style="fill:#000000;fill-opacity:1"
         id="id-1b0a66cb-6339-4f8c-9c55-da676ad0bf18">
        <g
           transform="translate(322.505,144.13)"
           id="g4387">
          <path
             style="stroke:none"
             d="m 4.578125,-3.1875 c 0,-0.796875 -0.046875,-1.59375 -0.390625,-2.328125 -0.453125,-0.96875 -1.28125,-1.125 -1.6875,-1.125 -0.609375,0 -1.328125,0.265625 -1.75,1.1875 -0.3125,0.6875 -0.359375,1.46875 -0.359375,2.265625 0,0.75 0.03125,1.640625 0.453125,2.40625 0.421875,0.796875 1.15625,1 1.640625,1 0.53125,0 1.296875,-0.203125 1.734375,-1.15625 0.3125,-0.6875 0.359375,-1.46875 0.359375,-2.25 z M 2.484375,0 C 2.09375,0 1.5,-0.25 1.328125,-1.203125 1.21875,-1.796875 1.21875,-2.71875 1.21875,-3.3125 c 0,-0.640625 0,-1.296875 0.078125,-1.828125 0.1875,-1.1875 0.9375,-1.28125 1.1875,-1.28125 0.328125,0 0.984375,0.1875 1.171875,1.171875 0.109375,0.5625 0.109375,1.3125 0.109375,1.9375 0,0.75 0,1.421875 -0.109375,2.0625 C 3.5,-0.296875 2.9375,0 2.484375,0 Z m 0,0"
             id="id-ea176298-0dc2-4732-8ac0-d45c377c0819" />
        </g>
      </g>
      <g
         style="fill:#000000;fill-opacity:1"
         id="id-379d8180-615c-4b91-8125-ce56bb75ff3d">
        <g
           transform="translate(327.486,136.159)"
           id="g4391">
          <path
             style="stroke:none"
             d="M 2.140625,11.546875 V -0.40625 H 0.21875 V 0 H 1.734375 V 11.15625 H 0.21875 v 0.390625 z m 0,0"
             id="id-20519758-e762-4335-826f-701b8fb262f1" />
        </g>
      </g>
      <g
         style="fill:#000000;fill-opacity:1"
         id="id-449056f0-3885-4d86-8723-6c5e518d3964">
        <g
           transform="translate(279.61,160.269)"
           id="g4395">
          <path
             style="stroke:none"
             d="M 3.453125,-2.453125 4.609375,-3.75 C 4.75,-3.890625 4.8125,-3.953125 5.625,-3.953125 v -0.46875 c -0.34375,0.015625 -0.859375,0.03125 -0.90625,0.03125 -0.25,0 -0.75,-0.03125 -1.03125,-0.03125 v 0.46875 c 0.140625,0 0.265625,0.015625 0.375,0.078125 -0.03125,0.0625 -0.03125,0.09375 -0.078125,0.125 L 3.15625,-2.8125 2.171875,-3.953125 h 0.40625 v -0.46875 c -0.265625,0 -0.890625,0.03125 -1.21875,0.03125 -0.3125,0 -0.765625,-0.03125 -1.09375,-0.03125 v 0.46875 h 0.71875 L 2.53125,-2.125 1.21875,-0.65625 c -0.15625,0.1875 -0.515625,0.1875 -1,0.1875 V 0 c 0.34375,-0.015625 0.875,-0.03125 0.921875,-0.03125 0.25,0 0.828125,0.015625 1.015625,0.03125 v -0.46875 c -0.171875,0 -0.359375,-0.046875 -0.359375,-0.109375 0,-0.015625 0,-0.015625 0.0625,-0.09375 l 0.96875,-1.09375 1.09375,1.296875 H 3.53125 V 0 c 0.265625,-0.015625 0.875,-0.03125 1.203125,-0.03125 0.3125,0 0.765625,0.015625 1.09375,0.03125 V -0.46875 H 5.125 Z m 0,0"
             id="id-95cf0769-cb85-43f4-854c-286835ed009c" />
        </g>
      </g>
      <g
         style="fill:#000000;fill-opacity:1"
         id="id-8f39390e-06d6-4415-a391-db082c7163ee">
        <g
           transform="translate(285.657,161.764)"
           id="g4399">
          <path
             style="stroke:none"
             d="M 3.515625,-1.265625 H 3.28125 c -0.015625,0.15625 -0.09375,0.5625 -0.1875,0.625 C 3.046875,-0.59375 2.515625,-0.59375 2.40625,-0.59375 H 1.125 c 0.734375,-0.640625 0.984375,-0.84375 1.390625,-1.171875 0.515625,-0.40625 1,-0.84375 1,-1.5 0,-0.84375 -0.734375,-1.359375 -1.625,-1.359375 -0.859375,0 -1.453125,0.609375 -1.453125,1.25 0,0.34375 0.296875,0.390625 0.375,0.390625 0.15625,0 0.359375,-0.125 0.359375,-0.375 0,-0.125 -0.046875,-0.375 -0.40625,-0.375 C 0.984375,-4.21875 1.453125,-4.375 1.78125,-4.375 c 0.703125,0 1.0625,0.546875 1.0625,1.109375 0,0.609375 -0.4375,1.078125 -0.65625,1.328125 L 0.515625,-0.265625 C 0.4375,-0.203125 0.4375,-0.1875 0.4375,0 h 2.875 z m 0,0"
             id="id-59c32d2e-63be-4037-90b5-5ba6751ed5aa" />
        </g>
      </g>
      <g
         style="fill:#000000;fill-opacity:1"
         id="id-aca1ecf9-f035-4feb-9a77-3140d88afd82">
        <g
           transform="translate(292.894,160.269)"
           id="g4403">
          <path
             style="stroke:none"
             d="m 6.84375,-3.265625 c 0.15625,0 0.34375,0 0.34375,-0.1875 C 7.1875,-3.65625 7,-3.65625 6.859375,-3.65625 h -5.96875 c -0.140625,0 -0.328125,0 -0.328125,0.203125 0,0.1875 0.1875,0.1875 0.328125,0.1875 z m 0.015625,1.9375 c 0.140625,0 0.328125,0 0.328125,-0.203125 0,-0.1875 -0.1875,-0.1875 -0.34375,-0.1875 H 0.890625 c -0.140625,0 -0.328125,0 -0.328125,0.1875 0,0.203125 0.1875,0.203125 0.328125,0.203125 z m 0,0"
             id="id-980bae88-82e1-41d5-a371-25e64e50bf08" />
        </g>
      </g>
      <g
         style="fill:#000000;fill-opacity:1"
         id="id-7bca6b88-88c6-44ab-ac65-4cfb02ace2c6">
        <g
           transform="translate(303.41,152.199)"
           id="g4407">
          <path
             style="stroke:none"
             d="m 2.015625,11.546875 h 1.90625 V 11.15625 H 2.40625 V 0 h 1.515625 v -0.40625 h -1.90625 z m 0,0"
             id="id-fdf89750-5902-4adb-a849-f8d0474b0a1f" />
        </g>
      </g>
      <g
         style="fill:#000000;fill-opacity:1"
         id="id-aa5ae362-72fa-4a27-bad7-54f77403a682">
        <g
           transform="translate(307.561,160.169)"
           id="g4411">
          <path
             style="stroke:none"
             d="m 2.9375,-6.375 c 0,-0.25 0,-0.265625 -0.234375,-0.265625 C 2.078125,-6 1.203125,-6 0.890625,-6 v 0.3125 c 0.203125,0 0.78125,0 1.296875,-0.265625 v 5.171875 c 0,0.359375 -0.03125,0.46875 -0.921875,0.46875 h -0.3125 V 0 c 0.34375,-0.03125 1.203125,-0.03125 1.609375,-0.03125 0.390625,0 1.265625,0 1.609375,0.03125 v -0.3125 h -0.3125 c -0.90625,0 -0.921875,-0.109375 -0.921875,-0.46875 z m 0,0"
             id="id-994019e0-1fec-413a-8231-411e7a3c9a55" />
        </g>
      </g>
      <g
         style="fill:#000000;fill-opacity:1"
         id="id-89e38347-13f9-4cae-adca-322b8f6d7574">
        <g
           transform="translate(322.505,160.169)"
           id="g4415">
          <path
             style="stroke:none"
             d="m 4.578125,-3.1875 c 0,-0.796875 -0.046875,-1.59375 -0.390625,-2.328125 -0.453125,-0.96875 -1.28125,-1.125 -1.6875,-1.125 -0.609375,0 -1.328125,0.265625 -1.75,1.1875 -0.3125,0.6875 -0.359375,1.46875 -0.359375,2.265625 0,0.75 0.03125,1.640625 0.453125,2.40625 0.421875,0.796875 1.15625,1 1.640625,1 0.53125,0 1.296875,-0.203125 1.734375,-1.15625 0.3125,-0.6875 0.359375,-1.46875 0.359375,-2.25 z M 2.484375,0 C 2.09375,0 1.5,-0.25 1.328125,-1.203125 1.21875,-1.796875 1.21875,-2.71875 1.21875,-3.3125 c 0,-0.640625 0,-1.296875 0.078125,-1.828125 0.1875,-1.1875 0.9375,-1.28125 1.1875,-1.28125 0.328125,0 0.984375,0.1875 1.171875,1.171875 0.109375,0.5625 0.109375,1.3125 0.109375,1.9375 0,0.75 0,1.421875 -0.109375,2.0625 C 3.5,-0.296875 2.9375,0 2.484375,0 Z m 0,0"
             id="id-751afae6-b0a5-4987-86bc-e0e2d0efc041" />
        </g>
      </g>
      <g
         style="fill:#000000;fill-opacity:1"
         id="id-687d5a36-b753-41e6-8291-7750435f7f1b">
        <g
           transform="translate(327.486,152.199)"
           id="g4419">
          <path
             style="stroke:none"
             d="M 2.140625,11.546875 V -0.40625 H 0.21875 V 0 H 1.734375 V 11.15625 H 0.21875 v 0.390625 z m 0,0"
             id="id-46e397ad-6ce4-469a-bbba-49fd1fe76778" />
        </g>
      </g>
      <g
         style="fill:#000000;fill-opacity:1"
         id="id-23bd5cf3-c62b-4258-94f6-03f4dd26384d">
        <g
           transform="translate(279.61,176.309)"
           id="g4423">
          <path
             style="stroke:none"
             d="M 3.453125,-2.453125 4.609375,-3.75 C 4.75,-3.890625 4.8125,-3.953125 5.625,-3.953125 v -0.46875 c -0.34375,0.015625 -0.859375,0.03125 -0.90625,0.03125 -0.25,0 -0.75,-0.03125 -1.03125,-0.03125 v 0.46875 c 0.140625,0 0.265625,0.015625 0.375,0.078125 -0.03125,0.0625 -0.03125,0.09375 -0.078125,0.125 L 3.15625,-2.8125 2.171875,-3.953125 h 0.40625 v -0.46875 c -0.265625,0 -0.890625,0.03125 -1.21875,0.03125 -0.3125,0 -0.765625,-0.03125 -1.09375,-0.03125 v 0.46875 h 0.71875 L 2.53125,-2.125 1.21875,-0.65625 c -0.15625,0.1875 -0.515625,0.1875 -1,0.1875 V 0 c 0.34375,-0.015625 0.875,-0.03125 0.921875,-0.03125 0.25,0 0.828125,0.015625 1.015625,0.03125 v -0.46875 c -0.171875,0 -0.359375,-0.046875 -0.359375,-0.109375 0,-0.015625 0,-0.015625 0.0625,-0.09375 l 0.96875,-1.09375 1.09375,1.296875 H 3.53125 V 0 c 0.265625,-0.015625 0.875,-0.03125 1.203125,-0.03125 0.3125,0 0.765625,0.015625 1.09375,0.03125 V -0.46875 H 5.125 Z m 0,0"
             id="id-05281199-05a9-4a40-9b8a-a5e30dbd8746" />
        </g>
      </g>
      <g
         style="fill:#000000;fill-opacity:1"
         id="id-27ed4d23-db74-4dbb-b6af-b858d89d4dea">
        <g
           transform="translate(285.657,177.803)"
           id="g4427">
          <path
             style="stroke:none"
             d="m 1.90625,-2.328125 c 0.546875,0 0.9375,0.375 0.9375,1.125 0,0.859375 -0.515625,1.125 -0.90625,1.125 -0.28125,0 -0.90625,-0.078125 -1.1875,-0.5 0.328125,0 0.40625,-0.234375 0.40625,-0.390625 0,-0.21875 -0.171875,-0.375 -0.390625,-0.375 -0.1875,0 -0.390625,0.125 -0.390625,0.40625 0,0.65625 0.71875,1.078125 1.5625,1.078125 0.96875,0 1.640625,-0.65625 1.640625,-1.34375 0,-0.546875 -0.4375,-1.09375 -1.203125,-1.25 0.71875,-0.265625 0.984375,-0.78125 0.984375,-1.21875 0,-0.546875 -0.625,-0.953125 -1.40625,-0.953125 -0.765625,0 -1.359375,0.375 -1.359375,0.9375 0,0.234375 0.15625,0.359375 0.359375,0.359375 0.21875,0 0.359375,-0.15625 0.359375,-0.34375 0,-0.203125 -0.140625,-0.359375 -0.359375,-0.375 0.25,-0.296875 0.71875,-0.375 0.984375,-0.375 0.3125,0 0.75,0.15625 0.75,0.75 0,0.296875 -0.09375,0.625 -0.28125,0.828125 -0.21875,0.265625 -0.421875,0.28125 -0.765625,0.3125 -0.171875,0.015625 -0.1875,0.015625 -0.21875,0.015625 -0.015625,0 -0.078125,0.015625 -0.078125,0.09375 0,0.09375 0.0625,0.09375 0.1875,0.09375 z m 0,0"
             id="id-f5b2daa2-060f-45a0-a169-0e6151db0963" />
        </g>
      </g>
      <g
         style="fill:#000000;fill-opacity:1"
         id="id-96113784-bcde-42f8-848d-9a5280034f89">
        <g
           transform="translate(292.894,176.309)"
           id="g4431">
          <path
             style="stroke:none"
             d="m 6.84375,-3.265625 c 0.15625,0 0.34375,0 0.34375,-0.1875 C 7.1875,-3.65625 7,-3.65625 6.859375,-3.65625 h -5.96875 c -0.140625,0 -0.328125,0 -0.328125,0.203125 0,0.1875 0.1875,0.1875 0.328125,0.1875 z m 0.015625,1.9375 c 0.140625,0 0.328125,0 0.328125,-0.203125 0,-0.1875 -0.1875,-0.1875 -0.34375,-0.1875 H 0.890625 c -0.140625,0 -0.328125,0 -0.328125,0.1875 0,0.203125 0.1875,0.203125 0.328125,0.203125 z m 0,0"
             id="id-bca6b346-09e0-460b-b3bd-63d83dbff142" />
        </g>
      </g>
      <g
         style="fill:#000000;fill-opacity:1"
         id="id-37875b84-3d9d-425e-ac44-4f56d0d64b06">
        <g
           transform="translate(303.41,168.239)"
           id="g4435">
          <path
             style="stroke:none"
             d="m 2.015625,11.546875 h 1.90625 V 11.15625 H 2.40625 V 0 h 1.515625 v -0.40625 h -1.90625 z m 0,0"
             id="id-55425d8d-8bdb-4858-8eed-4f7a665e58de" />
        </g>
      </g>
      <g
         style="fill:#000000;fill-opacity:1"
         id="id-326fee66-2fda-434b-8bfa-e7384f43ae9f">
        <g
           transform="translate(307.561,176.209)"
           id="g4439">
          <path
             style="stroke:none"
             d="m 4.578125,-3.1875 c 0,-0.796875 -0.046875,-1.59375 -0.390625,-2.328125 -0.453125,-0.96875 -1.28125,-1.125 -1.6875,-1.125 -0.609375,0 -1.328125,0.265625 -1.75,1.1875 -0.3125,0.6875 -0.359375,1.46875 -0.359375,2.265625 0,0.75 0.03125,1.640625 0.453125,2.40625 0.421875,0.796875 1.15625,1 1.640625,1 0.53125,0 1.296875,-0.203125 1.734375,-1.15625 0.3125,-0.6875 0.359375,-1.46875 0.359375,-2.25 z M 2.484375,0 C 2.09375,0 1.5,-0.25 1.328125,-1.203125 1.21875,-1.796875 1.21875,-2.71875 1.21875,-3.3125 c 0,-0.640625 0,-1.296875 0.078125,-1.828125 0.1875,-1.1875 0.9375,-1.28125 1.1875,-1.28125 0.328125,0 0.984375,0.1875 1.171875,1.171875 0.109375,0.5625 0.109375,1.3125 0.109375,1.9375 0,0.75 0,1.421875 -0.109375,2.0625 C 3.5,-0.296875 2.9375,0 2.484375,0 Z m 0,0"
             id="id-7785a327-65d1-4268-b4b3-cdadda476f2a" />
        </g>
      </g>
      <g
         style="fill:#000000;fill-opacity:1"
         id="id-bbf7f060-7c27-4084-bc70-ddfba51b53a5">
        <g
           transform="translate(322.505,176.209)"
           id="g4443">
          <path
             style="stroke:none"
             d="m 2.9375,-6.375 c 0,-0.25 0,-0.265625 -0.234375,-0.265625 C 2.078125,-6 1.203125,-6 0.890625,-6 v 0.3125 c 0.203125,0 0.78125,0 1.296875,-0.265625 v 5.171875 c 0,0.359375 -0.03125,0.46875 -0.921875,0.46875 h -0.3125 V 0 c 0.34375,-0.03125 1.203125,-0.03125 1.609375,-0.03125 0.390625,0 1.265625,0 1.609375,0.03125 v -0.3125 h -0.3125 c -0.90625,0 -0.921875,-0.109375 -0.921875,-0.46875 z m 0,0"
             id="id-cc519a87-29f8-4675-9529-42d386a48d94" />
        </g>
      </g>
      <g
         style="fill:#000000;fill-opacity:1"
         id="id-3257cdeb-00fa-4213-a3e9-5230b7cfd2e4">
        <g
           transform="translate(327.486,168.239)"
           id="g4447">
          <path
             style="stroke:none"
             d="M 2.140625,11.546875 V -0.40625 H 0.21875 V 0 H 1.734375 V 11.15625 H 0.21875 v 0.390625 z m 0,0"
             id="id-6a61bd1a-4032-4894-8c8a-2816364002a6" />
        </g>
      </g>
    </g>
  </g>
</svg>
