<?xml version="1.0" encoding="UTF-8" standalone="no"?>
<!-- Created with Inkscape (http://www.inkscape.org/) -->

<svg
   width="799.77148"
   height="560.00513"
   id="svg3219"
   version="1.1"
   inkscape:version="1.2.2 (b0a8486541, 2022-12-01)"
   sodipodi:docname="bc-1st-order.svg"
   xmlns:inkscape="http://www.inkscape.org/namespaces/inkscape"
   xmlns:sodipodi="http://sodipodi.sourceforge.net/DTD/sodipodi-0.dtd"
   xmlns:xlink="http://www.w3.org/1999/xlink"
   xmlns="http://www.w3.org/2000/svg"
   xmlns:svg="http://www.w3.org/2000/svg"
   xmlns:rdf="http://www.w3.org/1999/02/22-rdf-syntax-ns#"
   xmlns:cc="http://creativecommons.org/ns#"
   xmlns:dc="http://purl.org/dc/elements/1.1/"
   xmlns:ns1="http://www.iki.fi/pav/software/textext/">
  <defs
     id="defs3221">
    <marker
       style="overflow:visible"
       id="Arrow2"
       refX="0"
       refY="0"
       orient="auto-start-reverse"
       inkscape:stockid="Arrow2"
       markerWidth="7.6999998"
       markerHeight="5.5999999"
       viewBox="0 0 7.7 5.6"
       inkscape:isstock="true"
       inkscape:collect="always"
       preserveAspectRatio="xMidYMid">
      <path
         transform="scale(0.7)"
         d="M -2,-4 9,0 -2,4 c 2,-2.33 2,-5.66 0,-8 z"
         style="fill:context-stroke;fill-rule:evenodd;stroke:none"
         id="arrow2L" />
    </marker>
    <inkscape:perspective
       sodipodi:type="inkscape:persp3d"
       inkscape:vp_x="0 : 526.18109 : 1"
       inkscape:vp_y="0 : 1000 : 0"
       inkscape:vp_z="744.09448 : 526.18109 : 1"
       inkscape:persp3d-origin="372.04724 : 350.78739 : 1"
       id="perspective3227" />
    <inkscape:perspective
       id="perspective3208"
       inkscape:persp3d-origin="0.5 : 0.33333333 : 1"
       inkscape:vp_z="1 : 0.5 : 1"
       inkscape:vp_y="0 : 1000 : 0"
       inkscape:vp_x="0 : 0.5 : 1"
       sodipodi:type="inkscape:persp3d" />
    <linearGradient
       inkscape:collect="always"
       xlink:href="#linearGradient7917"
       id="linearGradient3224"
       x1="251.2979"
       y1="546.73798"
       x2="880"
       y2="39"
       gradientUnits="userSpaceOnUse" />
    <linearGradient
       id="linearGradient7917">
      <stop
         style="stop-color:#bde57b;stop-opacity:1;"
         offset="0"
         id="stop7919" />
      <stop
         style="stop-color:#e7f2a7;stop-opacity:0.46918491;"
         offset="1"
         id="stop7921" />
    </linearGradient>
    <linearGradient
       gradientTransform="translate(-54.499634,417.18869)"
       y2="39"
       x2="880"
       y1="546.73798"
       x1="251.2979"
       gradientUnits="userSpaceOnUse"
       id="linearGradient3217"
       xlink:href="#linearGradient7917"
       inkscape:collect="always" />
    <inkscape:perspective
       id="perspective3105"
       inkscape:persp3d-origin="0.5 : 0.33333333 : 1"
       inkscape:vp_z="1 : 0.5 : 1"
       inkscape:vp_y="0 : 1000 : 0"
       inkscape:vp_x="0 : 0.5 : 1"
       sodipodi:type="inkscape:persp3d" />
    <inkscape:perspective
       id="perspective3385"
       inkscape:persp3d-origin="0.5 : 0.33333333 : 1"
       inkscape:vp_z="1 : 0.5 : 1"
       inkscape:vp_y="0 : 1000 : 0"
       inkscape:vp_x="0 : 0.5 : 1"
       sodipodi:type="inkscape:persp3d" />
    <inkscape:perspective
       id="perspective4878"
       inkscape:persp3d-origin="0.5 : 0.33333333 : 1"
       inkscape:vp_z="1 : 0.5 : 1"
       inkscape:vp_y="0 : 1000 : 0"
       inkscape:vp_x="0 : 0.5 : 1"
       sodipodi:type="inkscape:persp3d" />
  </defs>
  <sodipodi:namedview
     id="base"
     pagecolor="#ffffff"
     bordercolor="#666666"
     borderopacity="1.0"
     inkscape:pageopacity="0.0"
     inkscape:pageshadow="2"
     inkscape:zoom="0.98994949"
     inkscape:cx="375.27167"
     inkscape:cy="313.14729"
     inkscape:document-units="px"
     inkscape:current-layer="layer1"
     showgrid="true"
     inkscape:window-width="1920"
     inkscape:window-height="1051"
     inkscape:window-x="1920"
     inkscape:window-y="0"
     inkscape:window-maximized="1"
     inkscape:showpageshadow="2"
     inkscape:pagecheckerboard="0"
     inkscape:deskcolor="#d1d1d1">
    <inkscape:grid
       type="xygrid"
       id="grid4061"
       empspacing="5"
       visible="true"
       enabled="true"
       snapvisiblegridlinesonly="true" />
  </sodipodi:namedview>
  <metadata
     id="metadata3224">
    <rdf:RDF>
      <cc:Work
         rdf:about="">
        <dc:format>image/svg+xml</dc:format>
        <dc:type
           rdf:resource="http://purl.org/dc/dcmitype/StillImage" />
      </cc:Work>
    </rdf:RDF>
  </metadata>
  <g
     inkscape:label="Layer 1"
     inkscape:groupmode="layer"
     id="layer1"
     transform="translate(0.5, -491.862)">
    <path
       style="opacity:0.64658634;fill:url(#linearGradient3217);fill-opacity:1;stroke:#003305;stroke-width:4;stroke-linecap:butt;stroke-linejoin:miter;stroke-miterlimit:4;stroke-opacity:1;stroke-dasharray:none"
       d="m 40.538688,687.32911 c 0.331149,5.85996 0.782478,11.72507 1.64036,17.53134 1.45766,9.86566 4.288438,19.48743 5.946298,29.32143 0.80827,4.79445 1.55522,9.60944 1.94793,14.45566 0.69585,8.58706 0.16143,17.23843 0.71766,25.83566 0.37038,5.72461 0.8991,11.44707 1.74288,17.12126 1.09621,7.37172 2.68823,14.66471 4.30594,21.9398 1.53644,6.90958 3.0606,13.83675 5.12613,20.60702 2.48271,8.13769 5.413896,16.14853 8.714406,23.99025 3.48654,8.28372 7.39487,16.40171 11.68757,24.29783 3.9191,7.20892 8.16531,14.25652 12.8153,21.0171 6.116558,8.8928 12.668368,17.51757 19.786838,25.63062 6.51841,7.42915 13.59139,14.37986 20.91458,21.0171 5.5248,5.00731 11.35457,9.68324 17.3263,14.1481 7.42453,5.55107 15.05275,10.85544 22.96503,15.68594 7.83095,4.78085 15.9216,9.15725 24.1953,13.12287 6.61622,3.17119 13.39499,6.0276 20.29945,8.50941 8.9022,3.1999 17.97905,5.9561 27.16845,8.2018 9.86405,2.4106 19.85561,4.4202 29.93656,5.6387 13.7269,1.6592 27.6082,1.5918 41.41907,2.2555 4.09973,0.1971 8.20455,0.2852 12.3027,0.5127 9.37178,0.52 18.73306,1.2219 28.09115,1.9479 9.1648,0.711 18.29525,1.897 27.47602,2.358 13.89289,0.6977 27.84135,1.4503 41.72665,0.6151 9.63906,-0.5797 19.20303,-2.1824 28.70629,-3.8958 14.82511,-2.6729 29.42802,-6.4646 44.08465,-9.9447 13.60437,-3.2303 27.29835,-6.1659 40.70142,-10.14978 11.50953,-3.42104 22.88874,-7.33153 34.03746,-11.79008 6.6597,-2.66332 13.19226,-5.66082 19.58179,-8.91946 6.7894,-3.46257 13.47463,-7.16206 19.88936,-11.27747 5.6041,-3.59534 11.08615,-7.4219 16.19855,-11.68756 6.58809,-5.49693 12.61121,-11.65248 18.55656,-17.83891 5.63602,-5.86455 10.96448,-12.02307 16.19855,-18.249 5.36804,-6.38529 10.50665,-12.96256 15.58342,-19.58179 5.24951,-6.84446 10.44116,-13.73901 15.37836,-20.81206 4.87182,-6.9794 9.54223,-14.10203 14.04558,-21.32467 5.16312,-8.2808 10.14468,-16.67998 14.86576,-25.22052 3.77859,-6.83556 7.40963,-13.75904 10.76486,-20.81206 2.97829,-6.26067 5.78709,-12.60933 8.30432,-19.06918 2.20527,-5.65929 4.26909,-11.38616 5.9463,-17.22378 2.17925,-7.58501 4.08249,-15.2751 5.33117,-23.06755 0.77641,-4.84524 1.13893,-9.75749 1.33279,-14.66071 0.11612,-2.93688 0.14107,-5.88787 -0.10252,-8.81693 -0.38696,-4.65293 -1.0949,-9.29301 -2.15297,-13.84054 -0.90874,-3.90572 -2.07126,-7.7705 -3.58829,-11.48251 -1.84446,-4.51319 -4.2077,-8.80874 -6.66396,-13.02035 -1.87662,-3.21774 -4.0301,-6.26755 -6.15135,-9.32955 -2.38228,-3.43879 -4.71204,-6.92886 -7.38162,-10.14972 -3.5946,-4.33691 -7.64037,-8.28155 -11.58503,-12.3027 -4.68773,-4.77863 -9.41105,-9.53052 -14.35315,-14.04558 -5.17219,-4.72528 -10.59199,-9.17414 -15.9935,-13.63548 -6.41116,-5.29526 -12.87787,-10.5273 -19.47927,-15.58342 -5.41561,-4.1479 -10.89508,-8.21819 -16.50612,-12.09765 -5.87089,-4.05912 -11.92203,-7.85211 -17.94143,-11.68756 -6.75765,-4.30585 -13.54927,-8.55987 -20.40197,-12.71278 -6.27552,-3.80312 -12.56234,-7.59295 -18.96665,-11.17495 -7.83196,-4.38049 -15.80726,-8.50166 -23.78521,-12.61026 -6.25012,-3.21877 -12.5153,-6.4127 -18.86414,-9.43208 -5.24878,-2.49621 -10.52095,-4.95318 -15.89098,-7.17657 -8.67347,-3.59113 -17.49376,-6.82651 -26.34827,-9.94468 -5.59617,-1.97072 -11.14945,-4.14145 -16.91621,-5.53622 -4.00282,-0.96814 -8.10517,-1.5111 -12.20017,-1.94792 -4.39005,-0.46829 -8.81496,-0.91729 -13.2254,-0.71766 -5.20944,0.2358 -10.37942,1.17432 -15.48089,2.25549 -5.20761,1.10367 -10.36742,2.50939 -15.37837,4.30595 -5.97731,2.14302 -11.79204,4.76557 -17.42882,7.68918 -5.06218,2.62559 -9.84157,5.76811 -14.66071,8.81693 -6.20764,3.92725 -12.31718,8.01153 -18.35152,12.20019 -7.41809,5.14917 -14.56503,10.67997 -21.93981,15.89098 -5.01662,3.54474 -10.04613,7.07446 -15.17332,10.45729 -4.11521,2.71514 -8.20327,5.49038 -12.50774,7.89423 -3.32262,1.85553 -6.77294,3.48178 -10.25225,5.0236 -3.1272,1.38578 -6.27392,2.75998 -9.53459,3.79333 -3.21593,1.01917 -6.50217,1.88323 -9.84215,2.35802 -5.01303,0.71262 -10.11173,0.85395 -15.17333,0.71766 -4.73852,-0.1276 -9.4878,-0.56845 -14.1481,-1.43532 -6.37377,-1.18559 -12.61406,-3.06745 -18.76161,-5.12612 -6.38461,-2.13806 -12.53776,-4.91544 -18.76161,-7.48414 -5.1517,-2.1262 -10.15904,-4.60712 -15.37837,-6.56144 -4.7771,-1.78873 -9.63229,-3.391 -14.55819,-4.71603 -3.91602,-1.05338 -7.86752,-2.06954 -11.8926,-2.56306 -4.27609,-0.5243 -8.62615,-0.78601 -12.91783,-0.41009 -5.14783,0.45091 -10.15531,1.94413 -15.17333,3.17819 -3.65582,0.89906 -7.28965,1.90387 -10.86738,3.07568 -4.92242,1.61223 -9.76898,3.46063 -14.55819,5.43369 -5.75573,2.37124 -11.43445,4.93836 -17.01873,7.68918 -6.50098,3.20239 -12.9083,6.60699 -19.1717,10.25225 -5.58857,3.25251 -11.009248,6.78937 -16.403588,10.35477 -3.25821,2.15352 -6.50037,4.33706 -9.63711,6.66396 -5.2938,3.92705 -10.50888,7.97545 -15.48091,12.30269 -5.196566,4.52266 -10.554756,8.96104 -14.968276,14.25062 -3.35199,4.01735 -6.35624,8.40197 -8.61188,13.12288 -1.686656,3.53006 -2.686053,7.3681 -3.588288,11.17495 -0.86942,3.6684 -1.488389,7.41353 -1.742882,11.17495 -0.117675,1.73924 0.0042,3.4882 0.102522,5.22864 z"
       id="path7550"
       inkscape:connector-curvature="0"
       sodipodi:nodetypes="caaaaaaaaaaaaaaaaaaaaaaaaaaaaaaaaaaaaaaaaaaaaaaaaaaaaaaaaaaaaaaaaaaaaaaaaaaaaaaaaaaaaaaaaaaaaaa" />
    <rect
       style="fill:none;stroke:#003305;stroke-opacity:1;stroke-width:0;stroke-miterlimit:4;stroke-dasharray:none"
       id="rect5690"
       width="798.77148"
       height="559.00513"
       x="0"
       y="492.36218" />
    <path
       style="fill:none;stroke:#000000;stroke-width:2.66666667;stroke-linecap:butt;stroke-linejoin:miter;stroke-opacity:1;stroke-dasharray:21.33333333,10.66666667;stroke-dashoffset:0"
       d="M 49.216226,961.99194 768.88998,640.26366"
       id="path1561" />
    <path
       style="fill:none;stroke:#000000;stroke-width:10.66666667;stroke-linecap:butt;stroke-linejoin:miter;stroke-dasharray:none;stroke-dashoffset:0;stroke-opacity:1;marker-end:url(#Arrow2)"
       d="M 318.61849,841.73486 527.33203,748.43002"
       id="path3015" />
    <circle
       style="fill:#ffffff;fill-opacity:1;stroke:#0094d9;stroke-width:2.02848;stroke-linecap:round;stroke-linejoin:bevel;stroke-dasharray:none;stroke-dashoffset:0;stroke-opacity:1"
       id="path3340"
       cx="116.89831"
       cy="931.72638"
       r="6.8928499" />
    <circle
       style="fill:#ffffff;fill-opacity:1;stroke:#0094d9;stroke-width:2.02848;stroke-linecap:round;stroke-linejoin:bevel;stroke-dasharray:none;stroke-dashoffset:0;stroke-opacity:1"
       id="circle4070"
       cx="723.30835"
       cy="660.78119"
       r="6.8928499" />
    <g
       transform="matrix(4.4167393,0,0,4.4167393,76.578876,895.59447)"
       ns1:version="1.8.2"
       ns1:texconverter="xelatex"
       ns1:pdfconverter="inkscape"
       ns1:text="$A$"
       ns1:preamble="/usr/share/inkscape/extensions/textext/default_packages.tex"
       ns1:scale="1.0"
       ns1:alignment="middle center"
       ns1:stroke-to-path="0"
       ns1:inkscapeversion="1.2.2"
       ns1:jacobian_sqrt="1.33333"
       id="g5629">
      <defs
         id="id-67dafb15-3a16-4ec2-aecf-573531934949">
        <g
           id="id-5a9dd156-7853-403e-a443-9e68dc8d45a2">
          <symbol
             overflow="visible"
             id="id-ff15b76b-4b8a-440e-b1af-de8b03005298">
            <path
               style="stroke:none;stroke-width:0"
               d=""
               id="id-9c09a57e-59ce-46e1-add8-4218074ba6f8" />
          </symbol>
          <symbol
             overflow="visible"
             id="id-63635643-68e2-4832-9a68-27c55319b59f">
            <path
               style="stroke:none;stroke-width:0"
               d="M 1.78125,-1.140625 C 1.390625,-0.484375 1,-0.34375 0.5625,-0.3125 0.4375,-0.296875 0.34375,-0.296875 0.34375,-0.109375 0.34375,-0.046875 0.40625,0 0.484375,0 0.75,0 1.0625,-0.03125 1.328125,-0.03125 c 0.34375,0 0.6875,0.03125 1,0.03125 0.0625,0 0.1875,0 0.1875,-0.1875 0,-0.109375 -0.078125,-0.125 -0.15625,-0.125 -0.21875,-0.015625 -0.46875,-0.09375 -0.46875,-0.34375 0,-0.125 0.0625,-0.234375 0.140625,-0.375 l 0.765625,-1.265625 h 2.5 c 0.015625,0.203125 0.15625,1.5625 0.15625,1.65625 0,0.296875 -0.515625,0.328125 -0.71875,0.328125 C 4.59375,-0.3125 4.5,-0.3125 4.5,-0.109375 4.5,0 4.609375,0 4.640625,0 5.046875,0 5.46875,-0.03125 5.875,-0.03125 6.125,-0.03125 6.765625,0 7.015625,0 7.0625,0 7.1875,0 7.1875,-0.203125 7.1875,-0.3125 7.09375,-0.3125 6.953125,-0.3125 6.34375,-0.3125 6.34375,-0.375 6.3125,-0.671875 l -0.609375,-6.21875 c -0.015625,-0.203125 -0.015625,-0.25 -0.1875,-0.25 -0.15625,0 -0.203125,0.078125 -0.265625,0.171875 z M 2.984375,-2.609375 4.9375,-5.90625 5.265625,-2.609375 Z m 0,0"
               id="id-37dc8c3c-4f8f-4f5e-b367-04cb1574063e" />
          </symbol>
        </g>
      </defs>
      <g
         id="id-5d90639c-5252-4138-ac0d-fbe00eeef3b8"
         transform="translate(-149.056,-127.624)">
        <g
           style="fill:#000000;fill-opacity:1"
           id="id-b7956875-85ce-494f-8634-c0461bd34587">
          <g
             transform="translate(148.712,134.765)"
             id="g5625">
            <path
               style="stroke:none;stroke-width:0"
               d="M 1.78125,-1.140625 C 1.390625,-0.484375 1,-0.34375 0.5625,-0.3125 0.4375,-0.296875 0.34375,-0.296875 0.34375,-0.109375 0.34375,-0.046875 0.40625,0 0.484375,0 0.75,0 1.0625,-0.03125 1.328125,-0.03125 c 0.34375,0 0.6875,0.03125 1,0.03125 0.0625,0 0.1875,0 0.1875,-0.1875 0,-0.109375 -0.078125,-0.125 -0.15625,-0.125 -0.21875,-0.015625 -0.46875,-0.09375 -0.46875,-0.34375 0,-0.125 0.0625,-0.234375 0.140625,-0.375 l 0.765625,-1.265625 h 2.5 c 0.015625,0.203125 0.15625,1.5625 0.15625,1.65625 0,0.296875 -0.515625,0.328125 -0.71875,0.328125 C 4.59375,-0.3125 4.5,-0.3125 4.5,-0.109375 4.5,0 4.609375,0 4.640625,0 5.046875,0 5.46875,-0.03125 5.875,-0.03125 6.125,-0.03125 6.765625,0 7.015625,0 7.0625,0 7.1875,0 7.1875,-0.203125 7.1875,-0.3125 7.09375,-0.3125 6.953125,-0.3125 6.34375,-0.3125 6.34375,-0.375 6.3125,-0.671875 l -0.609375,-6.21875 c -0.015625,-0.203125 -0.015625,-0.25 -0.1875,-0.25 -0.15625,0 -0.203125,0.078125 -0.265625,0.171875 z M 2.984375,-2.609375 4.9375,-5.90625 5.265625,-2.609375 Z m 0,0"
               id="id-630c004f-6163-41bf-a917-42342f3dab82" />
          </g>
        </g>
      </g>
    </g>
    <g
       transform="matrix(4.4167393,0,0,4.4167393,716.15856,617.2618)"
       ns1:version="1.8.2"
       ns1:texconverter="xelatex"
       ns1:pdfconverter="inkscape"
       ns1:text="$B$"
       ns1:preamble="/usr/share/inkscape/extensions/textext/default_packages.tex"
       ns1:scale="1.0"
       ns1:alignment="middle center"
       ns1:stroke-to-path="0"
       ns1:inkscapeversion="1.2.2"
       ns1:jacobian_sqrt="1.33333"
       id="g5737">
      <defs
         id="id-30391dd8-0f07-41af-a7ac-23b8ad2c3783">
        <g
           id="id-8d458a35-95e5-452b-95ff-08628f16adbe">
          <symbol
             overflow="visible"
             id="id-87d04873-dee7-4b57-bc58-e14b0e8962ed">
            <path
               style="stroke:none;stroke-width:0"
               d=""
               id="id-1c253ce0-4e73-49aa-8507-ba4d855b9960" />
          </symbol>
          <symbol
             overflow="visible"
             id="id-8f3211f5-ed16-4e15-a43b-f96b9e3d845a">
            <path
               style="stroke:none;stroke-width:0"
               d="M 1.59375,-0.78125 C 1.5,-0.390625 1.46875,-0.3125 0.6875,-0.3125 c -0.171875,0 -0.265625,0 -0.265625,0.203125 C 0.421875,0 0.515625,0 0.6875,0 H 4.25 C 5.828125,0 7,-1.171875 7,-2.15625 7,-2.875 6.421875,-3.453125 5.453125,-3.5625 6.484375,-3.75 7.53125,-4.484375 7.53125,-5.4375 c 0,-0.734375 -0.65625,-1.375 -1.84375,-1.375 H 2.328125 c -0.1875,0 -0.28125,0 -0.28125,0.203125 0,0.109375 0.09375,0.109375 0.28125,0.109375 0.015625,0 0.203125,0 0.375,0.015625 0.171875,0.03125 0.265625,0.03125 0.265625,0.171875 0,0.03125 -0.015625,0.0625 -0.03125,0.1875 z m 1.5,-2.875 0.625,-2.46875 C 3.8125,-6.46875 3.828125,-6.5 4.25,-6.5 h 1.296875 c 0.875,0 1.078125,0.59375 1.078125,1.03125 0,0.875 -0.859375,1.8125 -2.0625,1.8125 z m -0.4375,3.34375 c -0.140625,0 -0.15625,0 -0.21875,0 -0.109375,-0.015625 -0.140625,-0.03125 -0.140625,-0.109375 0,-0.03125 0,-0.046875 0.0625,-0.21875 l 0.6875,-2.78125 h 1.875 c 0.953125,0 1.15625,0.734375 1.15625,1.15625 C 6.078125,-1.28125 5.1875,-0.3125 4,-0.3125 Z m 0,0"
               id="id-1ff33ebf-4de2-404e-b293-567cc20933e0" />
          </symbol>
        </g>
      </defs>
      <g
         id="id-a0ed0eb1-f711-4d6a-af29-fce8e971e478"
         transform="translate(-149.134,-127.953)">
        <g
           style="fill:#000000;fill-opacity:1"
           id="id-be11d1bf-2670-4eb1-a683-599ed04a611f">
          <g
             transform="translate(148.712,134.765)"
             id="g5733">
            <path
               style="stroke:none;stroke-width:0"
               d="M 1.59375,-0.78125 C 1.5,-0.390625 1.46875,-0.3125 0.6875,-0.3125 c -0.171875,0 -0.265625,0 -0.265625,0.203125 C 0.421875,0 0.515625,0 0.6875,0 H 4.25 C 5.828125,0 7,-1.171875 7,-2.15625 7,-2.875 6.421875,-3.453125 5.453125,-3.5625 6.484375,-3.75 7.53125,-4.484375 7.53125,-5.4375 c 0,-0.734375 -0.65625,-1.375 -1.84375,-1.375 H 2.328125 c -0.1875,0 -0.28125,0 -0.28125,0.203125 0,0.109375 0.09375,0.109375 0.28125,0.109375 0.015625,0 0.203125,0 0.375,0.015625 0.171875,0.03125 0.265625,0.03125 0.265625,0.171875 0,0.03125 -0.015625,0.0625 -0.03125,0.1875 z m 1.5,-2.875 0.625,-2.46875 C 3.8125,-6.46875 3.828125,-6.5 4.25,-6.5 h 1.296875 c 0.875,0 1.078125,0.59375 1.078125,1.03125 0,0.875 -0.859375,1.8125 -2.0625,1.8125 z m -0.4375,3.34375 c -0.140625,0 -0.15625,0 -0.21875,0 -0.109375,-0.015625 -0.140625,-0.03125 -0.140625,-0.109375 0,-0.03125 0,-0.046875 0.0625,-0.21875 l 0.6875,-2.78125 h 1.875 c 0.953125,0 1.15625,0.734375 1.15625,1.15625 C 6.078125,-1.28125 5.1875,-0.3125 4,-0.3125 Z m 0,0"
               id="id-f301316f-0c80-44ac-9818-86f8a2a354d8" />
          </g>
        </g>
      </g>
    </g>
    <g
       transform="matrix(3.9803791,-1.9142019,1.9142019,3.9803791,415.42779,741.78084)"
       ns1:version="1.8.2"
       ns1:texconverter="xelatex"
       ns1:pdfconverter="inkscape"
       ns1:text="$\\boldsymbol{\\hat{\\Omega}}$"
       ns1:preamble="/usr/share/inkscape/extensions/textext/default_packages.tex"
       ns1:scale="1.0"
       ns1:alignment="middle center"
       ns1:stroke-to-path="0"
       ns1:inkscapeversion="1.2.2"
       ns1:jacobian_sqrt="1.33333"
       id="g6380">
      <defs
         id="id-aa05d34f-b7a9-4ea2-8b14-098640db03b4">
        <g
           id="id-6086400d-4f87-40f2-a197-08f5f11d8f64">
          <symbol
             overflow="visible"
             id="id-6e0ac8b2-be7c-41dc-84bf-650d074a70f2">
            <path
               style="stroke:none;stroke-width:0"
               d=""
               id="id-8498d455-70a0-4204-bf8c-8fee7941c8f6" />
          </symbol>
          <symbol
             overflow="visible"
             id="id-62db11ca-ef03-421f-891a-65224708dc3b">
            <path
               style="stroke:none;stroke-width:0"
               d="m 2.859375,-6.921875 -1.5625,1.265625 0.28125,0.375 1.28125,-0.8125 1.28125,0.8125 0.28125,-0.375 z m 0,0"
               id="id-b81112d8-9856-451e-8aed-2df7e53e5ac7" />
          </symbol>
          <symbol
             overflow="visible"
             id="id-0243d578-093c-4bf5-883b-ea47acdaec94">
            <path
               style="stroke:none;stroke-width:0"
               d="M 7.765625,-2 H 7.296875 C 7.28125,-1.859375 7.203125,-1.4375 7.125,-1.25 7.078125,-1.125 7.03125,-1.03125 6.4375,-1.03125 H 5.71875 c 0.21875,-0.4375 0.484375,-0.796875 0.796875,-1.1875 0.5625,-0.71875 1.125,-1.4375 1.125,-2.34375 0,-1.0625 -0.90625,-2.390625 -3.5,-2.390625 -2.609375,0 -3.5,1.328125 -3.5,2.390625 0,0.921875 0.5625,1.640625 1.109375,2.328125 0.359375,0.453125 0.609375,0.78125 0.796875,1.203125 H 1.828125 C 1.25,-1.03125 1.203125,-1.125 1.15625,-1.21875 1.09375,-1.40625 1,-1.890625 0.984375,-2 H 0.515625 L 0.875,0 H 2.78125 C 3,0 3.09375,0 3.09375,-0.265625 c 0,-0.703125 -0.296875,-1.625 -0.4375,-2.0625 -0.265625,-0.78125 -0.5,-1.5 -0.5,-2.234375 0,-0.375 0.0625,-1.09375 0.546875,-1.53125 0.484375,-0.453125 1.140625,-0.5 1.4375,-0.5 0.515625,0 1.078125,0.15625 1.4375,0.515625 0.296875,0.28125 0.53125,0.71875 0.53125,1.515625 0,0.703125 -0.203125,1.375 -0.453125,2.125 -0.1875,0.59375 -0.484375,1.46875 -0.484375,2.171875 C 5.171875,0 5.28125,0 5.5,0 h 1.890625 z m 0,0"
               id="id-029b264c-264f-4989-b465-7a90f27c786e" />
          </symbol>
        </g>
      </defs>
      <g
         id="id-7c1c675a-33aa-47ac-b976-33da019032e7"
         transform="translate(-149.228,-125.435)">
        <g
           style="fill:#000000;fill-opacity:1"
           id="id-bdf97d0e-20ad-4f39-bb1b-93c32ebd269a">
          <g
             transform="translate(149.985,132.357)"
             id="g6372">
            <path
               style="stroke:none;stroke-width:0"
               d="m 2.859375,-6.921875 -1.5625,1.265625 0.28125,0.375 1.28125,-0.8125 1.28125,0.8125 0.28125,-0.375 z m 0,0"
               id="id-f943da92-f13c-45c6-9838-6bc933a76baf" />
          </g>
        </g>
        <g
           style="fill:#000000;fill-opacity:1"
           id="id-1cc06e82-8afe-4674-b183-6b83a7f7fcec">
          <g
             transform="translate(148.712,134.765)"
             id="g6376">
            <path
               style="stroke:none;stroke-width:0"
               d="M 7.765625,-2 H 7.296875 C 7.28125,-1.859375 7.203125,-1.4375 7.125,-1.25 7.078125,-1.125 7.03125,-1.03125 6.4375,-1.03125 H 5.71875 c 0.21875,-0.4375 0.484375,-0.796875 0.796875,-1.1875 0.5625,-0.71875 1.125,-1.4375 1.125,-2.34375 0,-1.0625 -0.90625,-2.390625 -3.5,-2.390625 -2.609375,0 -3.5,1.328125 -3.5,2.390625 0,0.921875 0.5625,1.640625 1.109375,2.328125 0.359375,0.453125 0.609375,0.78125 0.796875,1.203125 H 1.828125 C 1.25,-1.03125 1.203125,-1.125 1.15625,-1.21875 1.09375,-1.40625 1,-1.890625 0.984375,-2 H 0.515625 L 0.875,0 H 2.78125 C 3,0 3.09375,0 3.09375,-0.265625 c 0,-0.703125 -0.296875,-1.625 -0.4375,-2.0625 -0.265625,-0.78125 -0.5,-1.5 -0.5,-2.234375 0,-0.375 0.0625,-1.09375 0.546875,-1.53125 0.484375,-0.453125 1.140625,-0.5 1.4375,-0.5 0.515625,0 1.078125,0.15625 1.4375,0.515625 0.296875,0.28125 0.53125,0.71875 0.53125,1.515625 0,0.703125 -0.203125,1.375 -0.453125,2.125 -0.1875,0.59375 -0.484375,1.46875 -0.484375,2.171875 C 5.171875,0 5.28125,0 5.5,0 h 1.890625 z m 0,0"
               id="id-a6fec46a-3683-4779-bae4-77141b246306" />
          </g>
        </g>
      </g>
    </g>
    <g
       transform="matrix(4.4167371,0,0,4.4167371,603.80014,904.91813)"
       ns1:version="1.8.2"
       ns1:texconverter="xelatex"
       ns1:pdfconverter="inkscape"
       ns1:text="$U$"
       ns1:preamble="/usr/share/inkscape/extensions/textext/default_packages.tex"
       ns1:scale="5.06115012787532"
       ns1:alignment="middle center"
       ns1:stroke-to-path="0"
       ns1:inkscapeversion="1.2.2"
       ns1:jacobian_sqrt="6.74818"
       id="g931">
      <defs
         id="id-f97ad508-2c3a-4e67-8979-99ac5e436d06">
        <g
           id="id-bf55a2bf-7b5e-46d2-a9d9-ce9f0e29905d">
          <symbol
             overflow="visible"
             id="id-c8ca9980-1645-4b04-bb4c-824a10c5b84d">
            <path
               style="stroke:none"
               d=""
               id="id-b600076f-1597-4bc2-b94c-3b57c5b2e35c" />
          </symbol>
          <symbol
             overflow="visible"
             id="id-a0b21df5-60fb-4983-9d34-9454ea9c1c6c">
            <path
               style="stroke:none"
               d="M 6.328125,-5.765625 C 6.4375,-6.171875 6.609375,-6.46875 7.40625,-6.5 c 0.046875,0 0.171875,-0.015625 0.171875,-0.203125 0,0 0,-0.109375 -0.125,-0.109375 -0.328125,0 -0.6875,0.03125 -1.015625,0.03125 -0.34375,0 -0.71875,-0.03125 -1.046875,-0.03125 -0.0625,0 -0.171875,0 -0.171875,0.203125 C 5.21875,-6.5 5.3125,-6.5 5.390625,-6.5 c 0.578125,0.015625 0.6875,0.21875 0.6875,0.4375 0,0.03125 -0.03125,0.1875 -0.03125,0.203125 l -0.90625,3.5625 C 4.8125,-0.953125 3.65625,-0.09375 2.65625,-0.09375 c -0.671875,0 -1.203125,-0.4375 -1.203125,-1.296875 0,-0.015625 0,-0.328125 0.109375,-0.765625 L 2.515625,-6.046875 C 2.609375,-6.40625 2.625,-6.5 3.359375,-6.5 c 0.265625,0 0.34375,0 0.34375,-0.203125 0,-0.109375 -0.109375,-0.109375 -0.140625,-0.109375 -0.28125,0 -1,0.03125 -1.28125,0.03125 -0.28125,0 -1,-0.03125 -1.28125,-0.03125 -0.078125,0 -0.1875,0 -0.1875,0.203125 C 0.8125,-6.5 0.890625,-6.5 1.09375,-6.5 c 0.015625,0 0.203125,0 0.375,0.015625 0.171875,0.03125 0.265625,0.03125 0.265625,0.171875 0,0.046875 -0.109375,0.46875 -0.171875,0.703125 l -0.21875,0.875 C 1.25,-4.34375 0.78125,-2.46875 0.734375,-2.265625 0.671875,-2 0.671875,-1.84375 0.671875,-1.6875 c 0,1.203125 0.90625,1.90625 1.953125,1.90625 1.25,0 2.484375,-1.125 2.8125,-2.4375 z m 0,0"
               id="id-a9248fe8-0dc1-46d6-9dc4-de3b81daaff3" />
          </symbol>
        </g>
      </defs>
      <g
         id="id-f26d2e35-f412-4d9f-aab3-993c3527213a"
         transform="translate(-149.384,-127.953)">
        <g
           style="fill:#000000;fill-opacity:1"
           id="id-44104fcc-b467-4738-80a6-da168d247715">
          <g
             transform="translate(148.712,134.765)"
             id="g1073">
            <path
               style="stroke:none"
               d="M 6.328125,-5.765625 C 6.4375,-6.171875 6.609375,-6.46875 7.40625,-6.5 c 0.046875,0 0.171875,-0.015625 0.171875,-0.203125 0,0 0,-0.109375 -0.125,-0.109375 -0.328125,0 -0.6875,0.03125 -1.015625,0.03125 -0.34375,0 -0.71875,-0.03125 -1.046875,-0.03125 -0.0625,0 -0.171875,0 -0.171875,0.203125 C 5.21875,-6.5 5.3125,-6.5 5.390625,-6.5 c 0.578125,0.015625 0.6875,0.21875 0.6875,0.4375 0,0.03125 -0.03125,0.1875 -0.03125,0.203125 l -0.90625,3.5625 C 4.8125,-0.953125 3.65625,-0.09375 2.65625,-0.09375 c -0.671875,0 -1.203125,-0.4375 -1.203125,-1.296875 0,-0.015625 0,-0.328125 0.109375,-0.765625 L 2.515625,-6.046875 C 2.609375,-6.40625 2.625,-6.5 3.359375,-6.5 c 0.265625,0 0.34375,0 0.34375,-0.203125 0,-0.109375 -0.109375,-0.109375 -0.140625,-0.109375 -0.28125,0 -1,0.03125 -1.28125,0.03125 -0.28125,0 -1,-0.03125 -1.28125,-0.03125 -0.078125,0 -0.1875,0 -0.1875,0.203125 C 0.8125,-6.5 0.890625,-6.5 1.09375,-6.5 c 0.015625,0 0.203125,0 0.375,0.015625 0.171875,0.03125 0.265625,0.03125 0.265625,0.171875 0,0.046875 -0.109375,0.46875 -0.171875,0.703125 l -0.21875,0.875 C 1.25,-4.34375 0.78125,-2.46875 0.734375,-2.265625 0.671875,-2 0.671875,-1.84375 0.671875,-1.6875 c 0,1.203125 0.90625,1.90625 1.953125,1.90625 1.25,0 2.484375,-1.125 2.8125,-2.4375 z m 0,0"
               id="id-5ffa47d2-088f-4302-acc9-22a836e26c7b" />
          </g>
        </g>
      </g>
    </g>
  </g>
</svg>
