<?xml version="1.0" encoding="UTF-8" standalone="no"?>
<!-- Created with Inkscape (http://www.inkscape.org/) -->

<svg
   sodipodi:docname="cc.svg"
   inkscape:version="1.2.2 (b0a8486541, 2022-12-01)"
   version="1.1"
   id="svg2"
   height="194.99998"
   width="313.94138"
   xmlns:inkscape="http://www.inkscape.org/namespaces/inkscape"
   xmlns:sodipodi="http://sodipodi.sourceforge.net/DTD/sodipodi-0.dtd"
   xmlns="http://www.w3.org/2000/svg"
   xmlns:svg="http://www.w3.org/2000/svg"
   xmlns:rdf="http://www.w3.org/1999/02/22-rdf-syntax-ns#"
   xmlns:cc="http://creativecommons.org/ns#"
   xmlns:dc="http://purl.org/dc/elements/1.1/"
   xmlns:ns0="http://www.iki.fi/pav/software/textext/">
  <sodipodi:namedview
     id="base"
     pagecolor="#ffffff"
     bordercolor="#666666"
     borderopacity="1.0"
     inkscape:pageopacity="0.0"
     inkscape:pageshadow="2"
     inkscape:zoom="3.4726563"
     inkscape:cx="131.1676"
     inkscape:cy="101.36333"
     inkscape:document-units="px"
     inkscape:current-layer="layer1"
     showgrid="true"
     inkscape:window-width="1920"
     inkscape:window-height="1015"
     inkscape:window-x="0"
     inkscape:window-y="0"
     inkscape:window-maximized="1"
     inkscape:showpageshadow="2"
     inkscape:pagecheckerboard="0"
     inkscape:deskcolor="#d1d1d1">
    <inkscape:grid
       type="xygrid"
       id="grid3888"
       originx="-53.029319"
       originy="-27.362199" />
  </sodipodi:namedview>
  <defs
     id="defs4">
    <marker
       inkscape:stockid="Arrow1Mstart"
       orient="auto"
       refY="0"
       refX="0"
       id="Arrow1Mstart"
       style="overflow:visible">
      <path
         id="path4672"
         d="M 0,0 5,-5 -12.5,0 5,5 Z"
         style="fill-rule:evenodd;stroke:#000000;stroke-width:1pt"
         transform="matrix(0.4,0,0,0.4,4,0)" />
    </marker>
    <marker
       inkscape:stockid="Arrow1Mend"
       orient="auto"
       refY="0"
       refX="0"
       id="Arrow1Mend"
       style="overflow:visible">
      <path
         id="path4675"
         d="M 0,0 5,-5 -12.5,0 5,5 Z"
         style="fill-rule:evenodd;stroke:#000000;stroke-width:1pt"
         transform="matrix(-0.4,0,0,-0.4,-4,0)" />
    </marker>
  </defs>
  <metadata
     id="metadata7">
    <rdf:RDF>
      <cc:Work
         rdf:about="">
        <dc:format>image/svg+xml</dc:format>
        <dc:type
           rdf:resource="http://purl.org/dc/dcmitype/StillImage" />
      </cc:Work>
    </rdf:RDF>
  </metadata>
  <g
     inkscape:label="Layer 1"
     inkscape:groupmode="layer"
     id="layer1"
     transform="translate(-53.029319,-27.362199)">
    <path
       style="fill:none;stroke:#000000;stroke-width:1px;stroke-linecap:butt;stroke-linejoin:miter;stroke-opacity:1;marker-end:url(#Arrow1Mend)"
       d="M 125,192.36218 V 42.362183"
       id="path3890"
       inkscape:connector-curvature="0" />
    <path
       style="fill:none;stroke:#000000;stroke-width:1px;stroke-linecap:butt;stroke-linejoin:miter;stroke-opacity:1;marker-start:url(#Arrow1Mstart);marker-end:url(#Arrow1Mend)"
       d="M 55,192.36218 H 365"
       id="path3892"
       inkscape:connector-curvature="0"
       sodipodi:nodetypes="cc" />
    <path
       style="fill:none;stroke:#000000;stroke-width:1;stroke-linecap:butt;stroke-linejoin:miter;stroke-miterlimit:4;stroke-dasharray:2, 2;stroke-dashoffset:0;stroke-opacity:1"
       d="m 125,142.36218 -45,50"
       id="path5478"
       inkscape:connector-curvature="0"
       sodipodi:nodetypes="cc" />
    <g
       style="font-style:normal;font-variant:normal;font-weight:normal;font-stretch:normal;letter-spacing:normal;word-spacing:normal;text-anchor:start;fill:none;stroke:#000000;stroke-linecap:butt;stroke-linejoin:miter;stroke-miterlimit:10.433;stroke-dasharray:none;stroke-dashoffset:0;stroke-opacity:1"
       id="g5667"
       transform="matrix(1.5,0,0,-1.5,5.37,1190.6672)"
       xml:space="preserve"
       stroke-miterlimit="10.433"
       font-style="normal"
       font-variant="normal"
       font-weight="normal"
       font-stretch="normal"
       font-size-adjust="none"
       letter-spacing="normal"
       word-spacing="normal"
       ns0:text="$x$"
       ns0:preamble="/home/jeremy/papers/2011-enief/inkscape.tex">
<path
   style="fill:#000000;stroke-width:0"
   inkscape:connector-curvature="0"
   d="m 226.76,660.23 v 0.03 l 0.01,0.03 0.01,0.03 0.01,0.04 0.01,0.04 0.01,0.04 0.01,0.04 0.02,0.05 0.01,0.04 0.02,0.05 0.02,0.05 0.02,0.05 0.02,0.05 0.03,0.05 0.02,0.05 0.03,0.05 0.03,0.05 0.03,0.04 0.03,0.05 0.04,0.04 0.04,0.05 0.04,0.04 0.04,0.04 0.04,0.03 0.05,0.03 0.05,0.03 0.02,0.01 0.03,0.02 0.02,0.01 0.03,0.01 0.03,0.01 h 0.03 l 0.03,0.01 0.02,0.01 h 0.04 0.03 l 0.03,0.01 h 0.03 c 0.05,0 0.29,0 0.5,-0.13 -0.28,-0.05 -0.48,-0.3 -0.48,-0.54 0,-0.16 0.11,-0.35 0.38,-0.35 0.22,0 0.54,0.18 0.54,0.58 0,0.52 -0.59,0.66 -0.93,0.66 -0.58,0 -0.93,-0.53 -1.04,-0.76 -0.25,0.66 -0.79,0.76 -1.08,0.76 -1.03,0 -1.6,-1.29 -1.6,-1.53 0,-0.1 0.1,-0.1 0.12,-0.1 0.08,0 0.11,0.02 0.13,0.11 0.34,1.05 0.99,1.3 1.33,1.3 0.19,0 0.54,-0.09 0.54,-0.67 0,-0.31 -0.17,-0.97 -0.54,-2.36 -0.16,-0.62 -0.51,-1.04 -0.94,-1.04 -0.06,0 -0.29,0 -0.5,0.13 0.25,0.05 0.47,0.26 0.47,0.54 0,0.27 -0.22,0.35 -0.37,0.35 -0.3,0 -0.55,-0.26 -0.55,-0.58 0,-0.46 0.5,-0.65 0.94,-0.65 0.65,0 1.01,0.69 1.04,0.75 0.12,-0.37 0.48,-0.75 1.07,-0.75 1.03,0 1.6,1.28 1.6,1.53 0,0.1 -0.09,0.1 -0.12,0.1 -0.09,0 -0.11,-0.04 -0.13,-0.11 -0.33,-1.07 -1.01,-1.31 -1.33,-1.31 -0.38,0 -0.54,0.32 -0.54,0.66 0,0.22 0.06,0.44 0.17,0.87 z"
   id="path5669" />
</g>
    <g
       style="font-style:normal;font-variant:normal;font-weight:normal;font-stretch:normal;letter-spacing:normal;word-spacing:normal;text-anchor:start;fill:none;stroke:#000000;stroke-linecap:butt;stroke-linejoin:miter;stroke-miterlimit:10.433;stroke-dasharray:none;stroke-dashoffset:0;stroke-opacity:1"
       ns0:preamble="/home/jeremy/papers/2011-enief/inkscape.tex"
       ns0:text="$\\phi(x)$"
       word-spacing="normal"
       letter-spacing="normal"
       font-size-adjust="none"
       font-stretch="normal"
       font-weight="normal"
       font-variant="normal"
       font-style="normal"
       stroke-miterlimit="10.433"
       xml:space="preserve"
       transform="matrix(1.5,0,0,-1.5,-225.88,1024.3822)"
       id="content">
<path
   id="path5718"
   d="m 227.78,663.89 v 0 0 0 0.01 0 0 0 0 0.01 0 0 0.01 h 0.01 v 0.01 0.01 0 0.01 0 0.01 l 0.01,0.02 v 0 0.01 0 0.01 0 l 0.01,0.01 v 0 0.01 0 0 0 0 0 0.01 0 0 0 0 0 c 0,0.01 0,0.1 -0.12,0.1 -0.1,0 -0.11,-0.03 -0.15,-0.2 l -0.58,-2.29 c -1.58,-0.05 -3.04,-1.37 -3.04,-2.73 0,-0.94 0.7,-1.73 1.91,-1.79 l 0.05,0.21 c -0.6,0.03 -1.31,0.38 -1.31,1.38 0,1.19 0.85,2.58 2.33,2.71 l -1.02,-4.09 -0.05,-0.21 c -0.08,-0.31 -0.15,-0.63 -0.23,-0.94 -0.12,-0.46 -0.22,-0.84 -0.22,-0.87 0,-0.1 0.07,-0.11 0.12,-0.11 0.05,0 0.07,0.01 0.1,0.04 0.02,0.02 0.08,0.26 0.11,0.4 l 0.38,1.48 0.05,0.21 1.02,4.09 c 0.76,-0.04 1.33,-0.5 1.33,-1.37 0,-1.18 -0.86,-2.6 -2.35,-2.72 l -0.05,-0.21 c 1.6,0.04 3.04,1.39 3.04,2.72 0,0.78 -0.52,1.7 -1.91,1.8 z"
   inkscape:connector-curvature="0"
   style="fill:#000000;stroke-width:0" />
<path
   id="path5720"
   d="m 232.66,654.85 v 0.01 0 0 0.01 0 0 0.01 0 h -0.01 v 0.01 0 0.01 h -0.01 v 0.01 0 l -0.01,0.01 v 0.01 h -0.01 v 0.01 h -0.01 v 0.01 0 h -0.01 v 0.01 h -0.01 v 0.01 0 l -0.01,0.01 v 0 l -0.01,0.01 v 0 l -0.01,0.01 -0.01,0.01 v 0 l -0.01,0.01 v 0.01 h -0.01 l -0.01,0.01 -0.01,0.01 v 0 l -0.01,0.01 -0.01,0.01 c -1.24,1.25 -1.56,3.13 -1.56,4.65 0,1.73 0.38,3.45 1.6,4.7 0.13,0.12 0.13,0.14 0.13,0.17 0,0.07 -0.04,0.09 -0.1,0.09 -0.1,0 -0.99,-0.67 -1.58,-1.93 -0.51,-1.09 -0.63,-2.2 -0.63,-3.03 0,-0.78 0.11,-1.98 0.66,-3.1 0.6,-1.22 1.45,-1.87 1.55,-1.87 0.06,0 0.1,0.03 0.1,0.1 z"
   inkscape:connector-curvature="0"
   style="fill:#000000;stroke-width:0" />
<path
   id="path5722"
   d="m 236.57,660.23 v 0.03 l 0.01,0.03 0.01,0.03 0.01,0.04 0.01,0.04 0.01,0.04 0.01,0.04 0.02,0.05 0.01,0.04 0.02,0.05 0.02,0.05 0.02,0.05 0.02,0.05 0.03,0.05 0.02,0.05 0.03,0.05 0.03,0.05 0.03,0.04 0.03,0.05 0.04,0.04 0.04,0.05 0.04,0.04 0.04,0.04 0.04,0.03 0.05,0.03 0.05,0.03 0.02,0.01 0.03,0.02 0.02,0.01 0.03,0.01 0.03,0.01 h 0.03 l 0.03,0.01 0.03,0.01 h 0.03 0.03 l 0.03,0.01 h 0.03 c 0.05,0 0.29,0 0.5,-0.13 -0.28,-0.05 -0.48,-0.3 -0.48,-0.54 0,-0.16 0.11,-0.35 0.38,-0.35 0.22,0 0.54,0.18 0.54,0.58 0,0.52 -0.59,0.66 -0.93,0.66 -0.58,0 -0.92,-0.53 -1.04,-0.76 -0.25,0.66 -0.79,0.76 -1.08,0.76 -1.03,0 -1.6,-1.29 -1.6,-1.53 0,-0.1 0.1,-0.1 0.12,-0.1 0.08,0 0.11,0.02 0.13,0.11 0.34,1.05 0.99,1.3 1.33,1.3 0.19,0 0.54,-0.09 0.54,-0.67 0,-0.31 -0.17,-0.97 -0.54,-2.36 -0.16,-0.62 -0.51,-1.04 -0.94,-1.04 -0.06,0 -0.29,0 -0.5,0.13 0.25,0.05 0.47,0.26 0.47,0.54 0,0.27 -0.22,0.35 -0.37,0.35 -0.3,0 -0.55,-0.26 -0.55,-0.58 0,-0.46 0.5,-0.65 0.94,-0.65 0.65,0 1.01,0.69 1.04,0.75 0.12,-0.37 0.48,-0.75 1.08,-0.75 1.02,0 1.59,1.28 1.59,1.53 0,0.1 -0.09,0.1 -0.12,0.1 -0.09,0 -0.11,-0.04 -0.13,-0.11 -0.33,-1.07 -1.01,-1.31 -1.32,-1.31 -0.39,0 -0.55,0.32 -0.55,0.66 0,0.22 0.06,0.44 0.17,0.87 z"
   inkscape:connector-curvature="0"
   style="fill:#000000;stroke-width:0" />
<path
   id="path5724"
   d="m 241.81,659.72 v 0.07 0.08 0.08 0.08 l -0.01,0.17 -0.01,0.17 -0.02,0.18 -0.02,0.19 -0.03,0.2 -0.03,0.2 -0.04,0.2 -0.05,0.21 -0.05,0.21 -0.06,0.21 -0.07,0.21 -0.08,0.21 -0.04,0.11 -0.05,0.11 -0.04,0.1 -0.06,0.11 c -0.59,1.22 -1.45,1.86 -1.55,1.86 -0.06,0 -0.1,-0.03 -0.1,-0.09 0,-0.03 0,-0.05 0.19,-0.23 0.98,-0.99 1.54,-2.57 1.54,-4.64 0,-1.7 -0.36,-3.45 -1.6,-4.7 -0.13,-0.12 -0.13,-0.14 -0.13,-0.17 0,-0.06 0.04,-0.1 0.1,-0.1 0.1,0 1,0.68 1.58,1.94 0.51,1.09 0.63,2.19 0.63,3.03 z"
   inkscape:connector-curvature="0"
   style="fill:#000000;stroke-width:0" />
</g>
    <path
       style="fill:none;stroke:#000000;stroke-width:3;stroke-linecap:butt;stroke-linejoin:miter;stroke-miterlimit:4;stroke-dasharray:none;stroke-opacity:1"
       d="m 125,142.36218 c 0,0 12.70886,-14.0227 20,-20 9.29442,-7.6196 19.36336,-14.4048 30,-20 15.88664,-8.356854 32.87068,-14.632645 50,-19.999997 21.21882,-6.648767 43.05948,-11.386414 65,-15 16.52714,-2.722006 50,-5 50,-5"
       id="path5750"
       inkscape:connector-curvature="0"
       sodipodi:nodetypes="caaaac" />
    <path
       inkscape:connector-curvature="0"
       id="path5817"
       d="m 125,192.36218 v 30"
       style="fill:none;stroke:#000000;stroke-width:0.5;stroke-linecap:butt;stroke-linejoin:miter;stroke-miterlimit:4;stroke-dasharray:none;stroke-opacity:1" />
    <path
       style="fill:none;stroke:#000000;stroke-width:0.5;stroke-linecap:butt;stroke-linejoin:miter;stroke-miterlimit:4;stroke-dasharray:none;stroke-opacity:1"
       d="m 80,192.36218 v 30"
       id="path5819"
       inkscape:connector-curvature="0" />
    <path
       sodipodi:nodetypes="cc"
       style="fill:none;stroke:#000000;stroke-width:0.5;stroke-linecap:butt;stroke-linejoin:miter;stroke-miterlimit:4;stroke-dasharray:none;stroke-opacity:1;marker-start:url(#Arrow1Mstart);marker-end:url(#Arrow1Mend)"
       d="M 125,217.36218 H 80"
       id="path5821"
       inkscape:connector-curvature="0" />
    <g
       style="font-style:normal;font-variant:normal;font-weight:normal;font-stretch:normal;letter-spacing:normal;word-spacing:normal;text-anchor:start;fill:none;stroke:#000000;stroke-linecap:butt;stroke-linejoin:miter;stroke-miterlimit:10.433;stroke-dasharray:none;stroke-dashoffset:0;stroke-opacity:1"
       ns0:preamble="/home/jeremy/papers/2011-enief/inkscape.tex"
       ns0:text="$\\partial U$"
       word-spacing="normal"
       letter-spacing="normal"
       font-size-adjust="none"
       font-stretch="normal"
       font-weight="normal"
       font-variant="normal"
       font-style="normal"
       stroke-miterlimit="10.433"
       xml:space="preserve"
       transform="matrix(1.5,0,0,-1.5,-277.075,1053.2622)"
       id="g6304">
<path
   id="path6306"
   d="m 228.04,660.6 -0.01,0.06 -0.01,0.06 -0.02,0.05 -0.01,0.06 -0.02,0.06 -0.02,0.05 -0.02,0.05 -0.02,0.06 -0.03,0.05 -0.03,0.05 -0.03,0.05 -0.03,0.04 -0.03,0.05 -0.03,0.05 -0.04,0.04 -0.04,0.04 -0.04,0.04 -0.04,0.04 -0.05,0.03 -0.04,0.04 -0.05,0.03 -0.05,0.03 -0.06,0.02 -0.05,0.03 -0.06,0.02 -0.06,0.02 -0.06,0.02 -0.06,0.01 -0.07,0.01 -0.06,0.01 h -0.07 l -0.07,0.01 v -0.22 c 1.08,0 1.1,-1.12 1.1,-1.32 0,-0.71 -0.64,-2.95 -2.17,-2.95 v 0 c -1.09,0 -1.09,1.03 -1.09,1.13 0,0.26 0.25,1.66 0.65,2.25 0.4,0.57 0.89,0.89 1.51,0.89 v 0.22 c -0.61,0 -1.26,-0.16 -2.03,-0.94 -0.83,-0.82 -0.9,-1.75 -0.9,-2.06 0,-0.61 0.44,-1.76 1.83,-1.76 2.37,0 3.4,3.33 3.4,4.76 0,1.57 -0.92,2.57 -2.15,2.57 -1.44,0 -1.9,-1.29 -1.9,-1.57 0,-0.14 0.08,-0.35 0.38,-0.35 0.33,0 0.54,0.3 0.54,0.53 0,0.34 -0.31,0.34 -0.47,0.34 0.44,0.74 1.15,0.8 1.43,0.8 0.73,0 1.43,-0.52 1.43,-1.8 0,-0.39 -0.06,-0.89 -0.27,-1.7 z"
   inkscape:connector-curvature="0"
   style="fill:#000000;stroke-width:0" />
<path
   id="path6308"
   d="m 235.6,662.98 0.02,0.07 0.01,0.04 0.01,0.03 0.01,0.04 0.01,0.03 0.02,0.04 0.01,0.03 0.02,0.03 0.02,0.03 0.02,0.03 0.02,0.03 0.02,0.03 0.03,0.03 0.02,0.02 0.03,0.03 0.03,0.02 0.04,0.02 0.03,0.02 0.04,0.02 0.04,0.02 0.04,0.02 0.04,0.02 0.05,0.01 0.05,0.02 0.05,0.01 0.06,0.01 0.06,0.01 0.06,0.01 h 0.07 l 0.07,0.01 h 0.03 0.04 c 0.05,0 0.17,0.01 0.17,0.2 0,0.01 0,0.11 -0.13,0.11 -0.33,0 -0.67,-0.03 -1.01,-0.03 -0.34,0 -0.71,0.03 -1.04,0.03 -0.06,0 -0.18,0 -0.18,-0.2 0,-0.11 0.1,-0.11 0.18,-0.11 0.57,-0.01 0.68,-0.22 0.68,-0.43 0,-0.04 -0.02,-0.18 -0.03,-0.21 l -0.9,-3.55 c -0.34,-1.33 -1.48,-2.2 -2.48,-2.2 -0.67,0 -1.21,0.44 -1.21,1.3 0,0.02 0,0.33 0.11,0.77 l 0.97,3.87 c 0.09,0.35 0.11,0.45 0.83,0.45 0.26,0 0.34,0 0.34,0.2 0,0.11 -0.11,0.11 -0.14,0.11 -0.28,0 -0.99,-0.03 -1.27,-0.03 -0.29,0 -1,0.03 -1.29,0.03 -0.08,0 -0.18,0 -0.18,-0.2 0,-0.11 0.08,-0.11 0.27,-0.11 0.02,0 0.21,0 0.38,-0.02 0.18,-0.02 0.27,-0.03 0.27,-0.16 0,-0.06 -0.11,-0.47 -0.17,-0.7 l -0.22,-0.88 c -0.09,-0.38 -0.57,-2.26 -0.61,-2.45 -0.06,-0.28 -0.06,-0.43 -0.06,-0.58 0,-1.21 0.9,-1.9 1.95,-1.9 1.25,0 2.48,1.12 2.81,2.43 z"
   inkscape:connector-curvature="0"
   style="fill:#000000;stroke-width:0" />
</g>
    <path
       style="fill:none;stroke:#000000;stroke-width:0.5;stroke-linecap:butt;stroke-linejoin:miter;stroke-miterlimit:4;stroke-dasharray:none;stroke-opacity:1"
       d="m 80,62.362183 c 0,0 35.59118,10.189978 31,22 -1.9475,5.009604 -14.105189,-7.02977 -16,-2 -3.976325,10.555143 28,18.999997 28,18.999997"
       id="path6337"
       inkscape:connector-curvature="0"
       sodipodi:nodetypes="caac" />
    <g
       transform="matrix(1.5 0 0 1.5 99.6158 202.207)"
       ns0:version="1.8.2"
       ns0:texconverter="xelatex"
       ns0:pdfconverter="inkscape"
       ns0:text="$\\zeta$"
       ns0:preamble="/usr/share/inkscape/extensions/textext/default_packages.tex"
       ns0:scale="0.75"
       ns0:alignment="middle center"
       ns0:stroke-to-path="0"
       ns0:inkscapeversion="1.2.2"
       ns0:jacobian_sqrt="1.5"
       style="stroke:#000000;stroke-opacity:1;stroke-width:0"
       id="g5792">
      <defs
         id="id-f977fd9f-ba1b-4364-992b-cbd7d39c8b7d"
         style="stroke:#000000;stroke-opacity:1;stroke-width:0">
        <g
           id="id-cebb9a0b-ac0b-4810-b69d-5333277ea6eb"
           style="stroke:#000000;stroke-opacity:1;stroke-width:0">
          <symbol
             overflow="visible"
             id="id-abb56fe7-8fa4-4b4d-8603-921773b895e6"
             style="stroke:#000000;stroke-opacity:1;stroke-width:0">
            <path
               style="stroke:#000000;stroke-opacity:1;stroke-width:0"
               d=""
               id="id-68d1c530-7fc4-4790-a163-250692044f0c" />
          </symbol>
          <symbol
             overflow="visible"
             id="id-41c11479-bf3e-4f12-bdb4-12b70aac065f"
             style="stroke:#000000;stroke-opacity:1;stroke-width:0">
            <path
               style="stroke:#000000;stroke-opacity:1;stroke-width:0"
               d="m 3.234375,-5.765625 c 0.171875,0.171875 0.40625,0.171875 0.609375,0.171875 0.25,0 0.875,0 0.875,-0.3125 0,-0.25 -0.390625,-0.265625 -0.796875,-0.265625 -0.109375,0 -0.375,0 -0.625,0.09375 -0.0625,-0.109375 -0.078125,-0.15625 -0.078125,-0.375 0,-0.140625 0.046875,-0.34375 0.046875,-0.359375 0,-0.078125 -0.046875,-0.140625 -0.109375,-0.140625 -0.1875,0 -0.1875,0.46875 -0.1875,0.5 0,0.15625 0.03125,0.34375 0.109375,0.484375 -1.046875,0.53125 -2.625,2.375 -2.625,4.296875 0,1.40625 0.90625,1.71875 1.625,1.953125 C 2.375,0.390625 2.40625,0.390625 2.6875,0.484375 c 0.21875,0.078125 0.625,0.21875 0.625,0.6875 0,0.265625 -0.1875,0.65625 -0.5625,0.65625 -0.25,0 -0.53125,-0.125 -0.734375,-0.296875 C 1.9375,1.46875 1.9375,1.453125 1.890625,1.453125 1.84375,1.453125 1.796875,1.5 1.796875,1.5625 c 0,0.109375 0.421875,0.484375 0.953125,0.484375 0.625,0 1.09375,-0.640625 1.09375,-1.203125 C 3.84375,0.453125 3.65625,0.25 3.5625,0.171875 3.40625,-0.015625 3.203125,-0.078125 2.625,-0.28125 1.828125,-0.546875 1.671875,-0.59375 1.421875,-0.8125 1,-1.1875 1,-1.75 1,-1.9375 1,-3.484375 2.21875,-5.234375 3.234375,-5.765625 Z M 3.453125,-5.875 c 0.15625,-0.078125 0.328125,-0.078125 0.46875,-0.078125 0.328125,0 0.359375,0.015625 0.546875,0.0625 -0.078125,0.03125 -0.1875,0.078125 -0.625,0.078125 -0.203125,0 -0.28125,0 -0.390625,-0.0625 z m 0,0"
               id="id-caf2f130-f534-4423-a37c-39e5b29c90b4" />
          </symbol>
        </g>
      </defs>
      <g
         id="id-e6a2f41d-aa21-4179-b86f-02c8bdd674ba"
         transform="translate(-149.165, -127.812)"
         style="stroke:#000000;stroke-opacity:1;stroke-width:0">
        <g
           style="fill:#000000;fill-opacity:1;stroke:#000000;stroke-opacity:1;stroke-width:0"
           id="id-3937e4e2-45bb-4bbf-824b-fe9b1d7c7713">
          <g
             transform="translate(148.712, 134.765)"
             style="stroke:#000000;stroke-opacity:1;stroke-width:0"
             id="g954">
            <path
               style="stroke:#000000;stroke-opacity:1;stroke-width:0"
               d="m 3.234375,-5.765625 c 0.171875,0.171875 0.40625,0.171875 0.609375,0.171875 0.25,0 0.875,0 0.875,-0.3125 0,-0.25 -0.390625,-0.265625 -0.796875,-0.265625 -0.109375,0 -0.375,0 -0.625,0.09375 -0.0625,-0.109375 -0.078125,-0.15625 -0.078125,-0.375 0,-0.140625 0.046875,-0.34375 0.046875,-0.359375 0,-0.078125 -0.046875,-0.140625 -0.109375,-0.140625 -0.1875,0 -0.1875,0.46875 -0.1875,0.5 0,0.15625 0.03125,0.34375 0.109375,0.484375 -1.046875,0.53125 -2.625,2.375 -2.625,4.296875 0,1.40625 0.90625,1.71875 1.625,1.953125 C 2.375,0.390625 2.40625,0.390625 2.6875,0.484375 c 0.21875,0.078125 0.625,0.21875 0.625,0.6875 0,0.265625 -0.1875,0.65625 -0.5625,0.65625 -0.25,0 -0.53125,-0.125 -0.734375,-0.296875 C 1.9375,1.46875 1.9375,1.453125 1.890625,1.453125 1.84375,1.453125 1.796875,1.5 1.796875,1.5625 c 0,0.109375 0.421875,0.484375 0.953125,0.484375 0.625,0 1.09375,-0.640625 1.09375,-1.203125 C 3.84375,0.453125 3.65625,0.25 3.5625,0.171875 3.40625,-0.015625 3.203125,-0.078125 2.625,-0.28125 1.828125,-0.546875 1.671875,-0.59375 1.421875,-0.8125 1,-1.1875 1,-1.75 1,-1.9375 1,-3.484375 2.21875,-5.234375 3.234375,-5.765625 Z M 3.453125,-5.875 c 0.15625,-0.078125 0.328125,-0.078125 0.46875,-0.078125 0.328125,0 0.359375,0.015625 0.546875,0.0625 -0.078125,0.03125 -0.1875,0.078125 -0.625,0.078125 -0.203125,0 -0.28125,0 -0.390625,-0.0625 z m 0,0"
               id="id-54a3e6d0-3ad2-4ca0-92ce-5209d27a5803" />
          </g>
        </g>
      </g>
    </g>
  </g>
</svg>
