<?xml version="1.0" encoding="UTF-8" standalone="no"?>
<!-- Created with Inkscape (http://www.inkscape.org/) -->

<svg
   width="307.66089"
   height="229.59042"
   id="svg2"
   version="1.1"
   inkscape:version="1.2.2 (b0a8486541, 2022-12-01)"
   sodipodi:docname="neutron.svg"
   xmlns:inkscape="http://www.inkscape.org/namespaces/inkscape"
   xmlns:sodipodi="http://sodipodi.sourceforge.net/DTD/sodipodi-0.dtd"
   xmlns:xlink="http://www.w3.org/1999/xlink"
   xmlns="http://www.w3.org/2000/svg"
   xmlns:svg="http://www.w3.org/2000/svg"
   xmlns:rdf="http://www.w3.org/1999/02/22-rdf-syntax-ns#"
   xmlns:cc="http://creativecommons.org/ns#"
   xmlns:dc="http://purl.org/dc/elements/1.1/"
   xmlns:ns0="http://www.iki.fi/pav/software/textext/">
  <sodipodi:namedview
     id="base"
     pagecolor="#ffffff"
     bordercolor="#666666"
     borderopacity="1.0"
     inkscape:pageopacity="0.0"
     inkscape:pageshadow="2"
     inkscape:zoom="2.5412793"
     inkscape:cx="137.52916"
     inkscape:cy="114.11575"
     inkscape:document-units="px"
     inkscape:current-layer="layer1"
     showgrid="false"
     inkscape:window-width="1920"
     inkscape:window-height="1051"
     inkscape:window-x="1920"
     inkscape:window-y="0"
     inkscape:window-maximized="1"
     inkscape:showpageshadow="2"
     inkscape:pagecheckerboard="0"
     inkscape:deskcolor="#d1d1d1">
    <inkscape:grid
       id="grid2985"
       type="xygrid"
       originx="-122.56784"
       originy="-112.14291" />
  </sodipodi:namedview>
  <defs
     id="defs4">
    <inkscape:perspective
       id="perspective59"
       inkscape:persp3d-origin="372.04724 : -471.98437 : 1"
       inkscape:vp_z="744.09448 : -296.59067 : 1"
       inkscape:vp_y="0 : 1000 : 0"
       inkscape:vp_x="0 : -296.59067 : 1"
       sodipodi:type="inkscape:persp3d" />
    <linearGradient
       id="linearGradient6089">
      <stop
         id="stop6091"
         offset="0"
         style="stop-color:#ffffff;stop-opacity:1;" />
      <stop
         id="stop6093"
         offset="1"
         style="stop-color:#ffffff;stop-opacity:0;" />
    </linearGradient>
    <marker
       style="overflow:visible"
       id="Arrow2Mend"
       refX="0"
       refY="0"
       orient="auto"
       inkscape:stockid="Arrow2Mend">
      <path
         transform="scale(-0.6)"
         d="M 8.7185878,4.0337352 -2.2072895,0.01601326 8.7185884,-4.0017078 c -1.7454984,2.3720609 -1.7354408,5.6174519 -6e-7,8.035443 z"
         style="fill-rule:evenodd;stroke-width:0.625;stroke-linejoin:round"
         id="path3790" />
    </marker>
    <marker
       style="overflow:visible"
       id="Arrow2Lend"
       refX="0"
       refY="0"
       orient="auto"
       inkscape:stockid="Arrow2Lend">
      <path
         transform="matrix(-1.1,0,0,-1.1,-1.1,0)"
         d="M 8.7185878,4.0337352 -2.2072895,0.01601326 8.7185884,-4.0017078 c -1.7454984,2.3720609 -1.7354408,5.6174519 -6e-7,8.035443 z"
         style="fill-rule:evenodd;stroke-width:0.625;stroke-linejoin:round"
         id="path3784" />
    </marker>
    <marker
       style="overflow:visible"
       id="Arrow1Lstart"
       refX="0"
       refY="0"
       orient="auto"
       inkscape:stockid="Arrow1Lstart">
      <path
         transform="matrix(0.8,0,0,0.8,10,0)"
         style="fill-rule:evenodd;stroke:#000000;stroke-width:1pt"
         d="M 0,0 5,-5 -12.5,0 5,5 Z"
         id="path3763" />
    </marker>
    <marker
       style="overflow:visible"
       id="Arrow1Lend"
       refX="0"
       refY="0"
       orient="auto"
       inkscape:stockid="Arrow1Lend">
      <path
         transform="matrix(-0.8,0,0,-0.8,-10,0)"
         style="fill-rule:evenodd;stroke:#000000;stroke-width:1pt"
         d="M 0,0 5,-5 -12.5,0 5,5 Z"
         id="path3766" />
    </marker>
    <marker
       style="overflow:visible"
       id="Arrow1Mend"
       refX="0"
       refY="0"
       orient="auto"
       inkscape:stockid="Arrow1Mend">
      <path
         transform="matrix(-0.4,0,0,-0.4,-4,0)"
         style="fill-rule:evenodd;stroke:#000000;stroke-width:1pt"
         d="M 0,0 5,-5 -12.5,0 5,5 Z"
         id="path3772" />
    </marker>
    <marker
       style="overflow:visible"
       id="Arrow1Mstart"
       refX="0"
       refY="0"
       orient="auto"
       inkscape:stockid="Arrow1Mstart">
      <path
         transform="matrix(0.4,0,0,0.4,4,0)"
         style="fill-rule:evenodd;stroke:#000000;stroke-width:1pt"
         d="M 0,0 5,-5 -12.5,0 5,5 Z"
         id="path3769" />
    </marker>
    <radialGradient
       gradientUnits="userSpaceOnUse"
       r="5.0666666"
       fy="187.36218"
       fx="305"
       cy="187.36218"
       cx="305"
       id="radialGradient6531"
       xlink:href="#linearGradient6089"
       inkscape:collect="always" />
  </defs>
  <metadata
     id="metadata7">
    <rdf:RDF>
      <cc:Work
         rdf:about="">
        <dc:format>image/svg+xml</dc:format>
        <dc:type
           rdf:resource="http://purl.org/dc/dcmitype/StillImage" />
      </cc:Work>
    </rdf:RDF>
  </metadata>
  <g
     id="layer1"
     inkscape:groupmode="layer"
     inkscape:label="Layer 1"
     transform="translate(-122.56784,-112.14291)">
    <path
       sodipodi:nodetypes="ccc"
       inkscape:connector-curvature="0"
       id="path2987"
       d="m 160,122.36218 v 140 h 240"
       style="fill:none;stroke:#000000;stroke-width:0.5;stroke-linecap:butt;stroke-linejoin:miter;stroke-miterlimit:4;stroke-dasharray:none;stroke-opacity:1;marker-start:url(#Arrow1Lstart);marker-end:url(#Arrow1Lend)" />
    <path
       sodipodi:nodetypes="cc"
       inkscape:connector-curvature="0"
       id="path2989"
       d="m 160,262.36218 -30,70"
       style="fill:none;stroke:#000000;stroke-width:0.5;stroke-linecap:butt;stroke-linejoin:miter;stroke-miterlimit:4;stroke-dasharray:none;stroke-opacity:1;marker-end:url(#Arrow1Lend)" />
    <path
       inkscape:connector-curvature="0"
       id="path6099"
       d="m 241,155.36218 v 152"
       style="fill:none;stroke:#000000;stroke-width:0.5;stroke-linecap:butt;stroke-linejoin:miter;stroke-miterlimit:4;stroke-dasharray:0.5, 1;stroke-dashoffset:0;stroke-opacity:1" />
    <path
       sodipodi:nodetypes="ccc"
       inkscape:connector-curvature="0"
       id="path6101"
       d="m 141,307.36218 h 100 l 14,-45"
       style="fill:none;stroke:#000000;stroke-width:0.5;stroke-linecap:butt;stroke-linejoin:miter;stroke-miterlimit:4;stroke-dasharray:0.5, 1;stroke-dashoffset:0;stroke-opacity:1" />
    <path
       inkscape:connector-curvature="0"
       id="path6103"
       d="m 241,155.36218 125,45"
       style="opacity:0.5;fill:none;stroke:#000000;stroke-width:0.5;stroke-linecap:butt;stroke-linejoin:miter;stroke-miterlimit:4;stroke-dasharray:none;stroke-opacity:1;marker-end:url(#Arrow1Lend)" />
    <circle
       transform="matrix(1.5,0,0,1.5,-216,-125.68109)"
       id="path6087"
       style="opacity:0.8;fill:#3ba7fb;fill-opacity:1;fill-rule:nonzero;stroke:#000000;stroke-width:0.133333;stroke-miterlimit:4;stroke-dasharray:none;stroke-opacity:1"
       cx="305"
       cy="187.36218"
       r="5" />
    <circle
       transform="matrix(0.69999912,0,0,0.69999956,25.500268,21.708739)"
       id="path6087-5"
       style="opacity:0.8;fill:url(#radialGradient6531);fill-opacity:1;fill-rule:nonzero;stroke:none"
       cx="305"
       cy="187.36218"
       r="5" />
    <g
       id="g6583"
       transform="matrix(0.28125,0,0,0.28125,38.271243,241.02646)">
      <g
         word-spacing="normal"
         letter-spacing="normal"
         font-size-adjust="none"
         font-stretch="normal"
         font-weight="normal"
         font-variant="normal"
         font-style="normal"
         stroke-miterlimit="10.433"
         xml:space="preserve"
         transform="matrix(1.0629921,0,0,-1.0629921,-186.02362,789.27165)"
         id="content"
         style="font-style:normal;font-variant:normal;font-weight:normal;font-stretch:normal;letter-spacing:normal;word-spacing:normal;text-anchor:start;fill:none;stroke:#000000;stroke-linecap:butt;stroke-linejoin:miter;stroke-miterlimit:10.433;stroke-dasharray:none;stroke-dashoffset:0;stroke-opacity:1"><path
           id="path6586"
           d="m 472.16,421.25 0.03,0.13 0.04,0.15 0.04,0.16 0.04,0.18 0.06,0.19 0.06,0.21 0.06,0.22 0.07,0.22 0.08,0.23 0.09,0.24 0.1,0.25 0.1,0.24 0.11,0.25 0.12,0.25 0.13,0.25 0.14,0.25 0.15,0.24 0.15,0.24 0.17,0.23 0.18,0.22 0.18,0.22 0.2,0.2 0.21,0.19 0.22,0.18 0.23,0.16 0.25,0.14 0.12,0.07 0.13,0.06 0.14,0.05 0.13,0.05 0.14,0.05 0.14,0.04 0.15,0.03 0.15,0.03 0.15,0.02 0.16,0.02 0.16,0.01 h 0.16 c 0.25,0 1.44,0 2.48,-0.64 -1.39,-0.25 -2.39,-1.5 -2.39,-2.69 0,-0.79 0.55,-1.75 1.89,-1.75 1.1,0 2.69,0.89 2.69,2.89 0,2.6 -2.94,3.28 -4.63,3.28 -2.89,0 -4.64,-2.64 -5.23,-3.78 -1.25,3.28 -3.94,3.78 -5.37,3.78 -5.19,0 -8.04,-6.42 -8.04,-7.67 0,-0.5 0.5,-0.5 0.61,-0.5 0.39,0 0.55,0.11 0.64,0.55 1.69,5.28 4.99,6.53 6.68,6.53 0.95,0 2.68,-0.44 2.68,-3.33 0,-1.54 -0.84,-4.89 -2.68,-11.86 -0.8,-3.09 -2.54,-5.18 -4.74,-5.18 -0.3,0 -1.44,0 -2.48,0.65 1.25,0.24 2.34,1.28 2.34,2.69 0,1.34 -1.09,1.73 -1.84,1.73 -1.5,0 -2.75,-1.29 -2.75,-2.89 0,-2.28 2.5,-3.28 4.68,-3.28 3.3,0 5.08,3.49 5.24,3.78 0.59,-1.84 2.39,-3.78 5.37,-3.78 5.14,0 7.99,6.42 7.99,7.67 0,0.5 -0.45,0.5 -0.61,0.5 -0.44,0 -0.55,-0.2 -0.64,-0.54 -1.64,-5.33 -5.03,-6.53 -6.63,-6.53 -1.95,0 -2.75,1.59 -2.75,3.29 0,1.1 0.3,2.19 0.86,4.38 z"
           inkscape:connector-curvature="0"
           style="fill:#000000;stroke-width:0" /></g>
    </g>
    <g
       transform="matrix(0.28125,0,0,0.28125,322.22416,162.61941)"
       id="g6654">
      <g
         style="font-style:normal;font-variant:normal;font-weight:normal;font-stretch:normal;letter-spacing:normal;word-spacing:normal;text-anchor:start;fill:none;stroke:#000000;stroke-linecap:butt;stroke-linejoin:miter;stroke-miterlimit:10.433;stroke-dasharray:none;stroke-dashoffset:0;stroke-opacity:1"
         id="g6656"
         transform="matrix(1.0629921,0,0,-1.0629921,-186.02362,789.27165)"
         xml:space="preserve"
         stroke-miterlimit="10.433"
         font-style="normal"
         font-variant="normal"
         font-weight="normal"
         font-stretch="normal"
         font-size-adjust="none"
         letter-spacing="normal"
         word-spacing="normal"><path
           style="fill:#000000;stroke-width:0"
           inkscape:connector-curvature="0"
           d="m 479.74,425.18 0.01,0.04 0.01,0.03 0.01,0.06 0.02,0.05 0.01,0.06 0.01,0.05 0.02,0.04 0.01,0.05 0.01,0.04 0.01,0.04 v 0.04 l 0.01,0.04 0.01,0.04 0.01,0.03 v 0.03 l 0.01,0.03 v 0.03 l 0.01,0.03 v 0.03 l 0.01,0.05 v 0.06 0.05 0.05 l 0.01,0.05 v 0.03 0.03 0.03 0.03 c 0,0.91 -0.69,1.35 -1.44,1.35 -0.5,0 -1.3,-0.3 -1.75,-1.05 -0.1,-0.25 -0.5,-1.78 -0.69,-2.69 -0.36,-1.29 -0.7,-2.64 -1,-3.98 l -2.25,-8.97 c -0.19,-0.75 -2.33,-4.23 -5.62,-4.23 -2.54,0 -3.1,2.18 -3.1,4.03 0,2.29 0.86,5.39 2.55,9.76 0.8,2.05 1,2.6 1,3.6 0,2.23 -1.59,4.07 -4.09,4.07 -4.74,0 -6.58,-7.21 -6.58,-7.67 0,-0.5 0.5,-0.5 0.61,-0.5 0.5,0 0.54,0.11 0.79,0.91 1.35,4.69 3.33,6.17 5.03,6.17 0.4,0 1.25,0 1.25,-1.59 0,-1.25 -0.5,-2.53 -0.85,-3.49 -1.99,-5.28 -2.9,-8.12 -2.9,-10.47 0,-4.42 3.15,-5.92 6.08,-5.92 1.96,0 3.64,0.85 5.03,2.24 -0.64,-2.58 -1.23,-5.03 -3.23,-7.68 -1.3,-1.68 -3.19,-3.14 -5.48,-3.14 -0.69,0 -2.94,0.16 -3.79,2.1 0.8,0 1.46,0 2.14,0.61 0.5,0.43 1,1.09 1,2.03 0,1.55 -1.34,1.75 -1.84,1.75 -1.14,0 -2.8,-0.8 -2.8,-3.24 0,-2.5 2.21,-4.34 5.29,-4.34 5.14,0 10.26,4.55 11.67,10.17 z"
           id="path6658" /></g>
    </g>
    <g
       id="g6732"
       transform="matrix(0.28125,0,0,0.28125,72.103183,18.18072)">
      <g
         word-spacing="normal"
         letter-spacing="normal"
         font-size-adjust="none"
         font-stretch="normal"
         font-weight="normal"
         font-variant="normal"
         font-style="normal"
         stroke-miterlimit="10.433"
         xml:space="preserve"
         transform="matrix(1.0629921,0,0,-1.0629921,-186.02362,789.27165)"
         id="g6734"
         style="font-style:normal;font-variant:normal;font-weight:normal;font-stretch:normal;letter-spacing:normal;word-spacing:normal;text-anchor:start;fill:none;stroke:#000000;stroke-linecap:butt;stroke-linejoin:miter;stroke-miterlimit:10.433;stroke-dasharray:none;stroke-dashoffset:0;stroke-opacity:1"><path
           id="path6736"
           d="m 462.14,410.34 0.25,0.27 0.24,0.25 0.24,0.25 0.23,0.24 0.22,0.23 0.22,0.22 0.21,0.22 0.2,0.21 0.2,0.2 0.2,0.19 0.19,0.19 0.19,0.19 0.18,0.17 0.19,0.18 0.35,0.33 0.34,0.32 0.33,0.3 0.33,0.29 0.32,0.29 0.65,0.56 0.33,0.29 0.33,0.28 c 0,0.05 3.08,2.69 4.88,4.49 4.73,4.64 5.83,7.03 5.83,7.21 0,0.5 -0.46,0.5 -0.55,0.5 -0.35,0 -0.5,-0.09 -0.75,-0.54 -1.49,-2.39 -2.53,-3.19 -3.74,-3.19 -1.2,0 -1.79,0.75 -2.54,1.59 -0.94,1.16 -1.78,2.14 -3.44,2.14 -3.73,0 -6.02,-4.62 -6.02,-5.67 0,-0.25 0.14,-0.54 0.6,-0.54 0.45,0 0.54,0.25 0.64,0.54 0.95,2.3 3.84,2.35 4.23,2.35 1.05,0 2,-0.36 3.14,-0.75 2,-0.75 2.55,-0.75 3.85,-0.75 -1.8,-2.14 -5.99,-5.74 -6.92,-6.53 l -4.49,-4.18 c -3.39,-3.34 -5.14,-6.18 -5.14,-6.53 0,-0.5 0.5,-0.5 0.59,-0.5 0.41,0 0.5,0.1 0.8,0.64 1.16,1.75 2.64,3.1 4.24,3.1 1.15,0 1.65,-0.46 2.89,-1.89 0.86,-1.05 1.75,-1.85 3.18,-1.85 4.94,0 7.83,6.33 7.83,7.67 0,0.25 -0.2,0.5 -0.59,0.5 -0.46,0 -0.55,-0.29 -0.71,-0.65 -1.14,-3.24 -4.32,-4.17 -5.98,-4.17 -0.98,0 -1.89,0.29 -2.94,0.64 -1.68,0.64 -2.43,0.84 -3.48,0.84 -0.1,0 -0.89,0 -1.35,-0.14 z"
           inkscape:connector-curvature="0"
           style="fill:#000000;stroke-width:0" /></g>
    </g>
    <g
       ns0:preamble=""
       ns0:text="$\\mathbf{x}$"
       word-spacing="normal"
       letter-spacing="normal"
       font-size-adjust="none"
       font-stretch="normal"
       font-weight="normal"
       font-variant="normal"
       font-style="normal"
       fill-rule="even-odd"
       stroke-miterlimit="10.433"
       xml:space="preserve"
       transform="matrix(1.2632418,-1.5505548,-1.5505548,-1.2632418,1026.9812,1418.66)"
       id="g3165"
       style="font-style:normal;font-variant:normal;font-weight:normal;font-stretch:normal;letter-spacing:normal;word-spacing:normal;text-anchor:start;fill:none;stroke:#000000;stroke-linecap:butt;stroke-linejoin:miter;stroke-miterlimit:10.433;stroke-dasharray:none;stroke-dashoffset:0;stroke-opacity:1"><path
         id="path3167"
         d="m 226.88,709.57 1.16,1.3 c 0.14,0.14 0.19,0.21 1.02,0.21 v 0.47 c -0.35,-0.02 -0.86,-0.03 -0.91,-0.03 -0.25,0 -0.75,0.02 -1.03,0.03 v -0.47 c 0.14,0 0.26,-0.02 0.38,-0.09 -0.04,-0.06 -0.04,-0.08 -0.08,-0.12 l -0.84,-0.94 -0.98,1.15 h 0.4 v 0.47 c -0.26,-0.01 -0.88,-0.03 -1.2,-0.03 -0.32,0 -0.77,0.02 -1.1,0.03 v -0.47 h 0.71 l 1.55,-1.84 -1.3,-1.46 c -0.17,-0.19 -0.53,-0.19 -1.01,-0.19 v -0.47 c 0.35,0.02 0.87,0.03 0.92,0.03 0.25,0 0.83,-0.02 1.02,-0.03 v 0.47 c -0.18,0 -0.36,0.05 -0.36,0.11 0,0.01 0,0.02 0.07,0.1 l 0.96,1.09 1.1,-1.3 h -0.39 v -0.47 c 0.26,0.01 0.87,0.03 1.19,0.03 0.32,0 0.77,-0.02 1.1,-0.03 v 0.47 h -0.71 z"
         style="fill:#000000;stroke-width:0"
         inkscape:connector-curvature="0" /></g>
    <path
       inkscape:connector-curvature="0"
       id="path5321"
       d="M 160,262.36218 240.08022,156.56273"
       style="fill:none;stroke:#000000;stroke-width:1.5;stroke-linecap:round;stroke-linejoin:miter;stroke-miterlimit:4;stroke-dasharray:none;stroke-opacity:1;marker-end:url(#Arrow2Mend)"
       sodipodi:nodetypes="cc" />
    <g
       style="font-style:normal;font-variant:normal;font-weight:normal;font-stretch:normal;letter-spacing:normal;word-spacing:normal;text-anchor:start;fill:none;stroke:#000000;stroke-linecap:butt;stroke-linejoin:miter;stroke-miterlimit:10.433;stroke-dasharray:none;stroke-dashoffset:0;stroke-opacity:1"
       id="g3898"
       transform="matrix(1.3625426,0.5244619,0.5244619,-1.3625426,-371.86883,941.9275)"
       xml:space="preserve"
       stroke-miterlimit="10.433"
       font-style="normal"
       font-variant="normal"
       font-weight="normal"
       font-stretch="normal"
       font-size-adjust="none"
       letter-spacing="normal"
       word-spacing="normal"
       ns0:text="$\\hat{\\Omega}$"
       ns0:preamble="/home/jeremy/papers/2011-enief/inkscape.tex"><polygon
         style="fill:#000000;stroke-width:0"
         points="227.03,666.13 228.17,665.12 228.35,665.3 227.03,666.65 225.69,665.3 225.87,665.12 "
         id="polygon3900" /><path
         style="fill:#000000;stroke-width:0"
         inkscape:connector-curvature="0"
         d="m 230.17,658.84 h -0.25 c -0.05,-0.25 -0.09,-0.48 -0.18,-0.72 -0.05,-0.16 -0.08,-0.24 -0.66,-0.24 h -0.79 c 0.13,0.56 0.44,1.03 0.88,1.69 0.47,0.71 0.88,1.39 0.88,2.17 0,1.39 -1.34,2.5 -3.03,2.5 -1.71,0 -3.03,-1.13 -3.03,-2.5 0,-0.78 0.41,-1.46 0.88,-2.17 0.43,-0.66 0.75,-1.13 0.88,-1.69 h -0.8 c -0.57,0 -0.6,0.08 -0.65,0.23 -0.08,0.23 -0.13,0.49 -0.18,0.73 h -0.25 l 0.33,-1.61 h 1.59 c 0.22,0 0.25,0 0.25,0.21 0,0.7 -0.31,1.57 -0.54,2.21 -0.21,0.57 -0.49,1.36 -0.49,2.11 0,1.58 1.1,2.26 2,2.26 0.96,0 2.01,-0.72 2.01,-2.26 0,-0.75 -0.26,-1.5 -0.55,-2.32 -0.15,-0.42 -0.47,-1.31 -0.47,-2 0,-0.21 0.03,-0.21 0.26,-0.21 h 1.58 z"
         id="path3902" /></g>
    <path
       inkscape:connector-curvature="0"
       id="path6103-4"
       d="M 241.16044,155.36218 296,175.16218"
       style="fill:none;stroke:#000000;stroke-width:1;stroke-linecap:round;stroke-linejoin:miter;stroke-miterlimit:4;stroke-dasharray:none;stroke-opacity:1;marker-end:url(#Arrow1Mend)"
       sodipodi:nodetypes="cc" />
    <g
       ns0:preamble="/home/jeremy/papers/2011-enief/inkscape.tex"
       ns0:text="$E = \\frac{1}{2} mv^2$"
       word-spacing="normal"
       letter-spacing="normal"
       font-size-adjust="none"
       font-stretch="normal"
       font-weight="normal"
       font-variant="normal"
       font-style="normal"
       stroke-miterlimit="10.433"
       xml:space="preserve"
       transform="matrix(1.340465,0,0,-1.340465,70.367492,1086.3651)"
       id="g4016"
       style="font-style:normal;font-variant:normal;font-weight:normal;font-stretch:normal;letter-spacing:normal;word-spacing:normal;text-anchor:start;fill:none;stroke:#000000;stroke-linecap:butt;stroke-linejoin:miter;stroke-miterlimit:10.433;stroke-dasharray:none;stroke-dashoffset:0;stroke-opacity:1"><path
         id="path4018"
         d="m 230.48,659.55 v 0 0.01 0.01 l 0.01,0.01 v 0.01 l 0.01,0.01 v 0.01 0.01 l 0.01,0.01 v 0.01 0 0 l 0.01,0.01 v 0 0.01 0 0.01 0 0 0.01 0 h 0.01 v 0 0.01 0 c 0,0.01 0,0.11 -0.12,0.11 -0.09,0 -0.11,-0.06 -0.13,-0.12 -0.65,-1.47 -1.02,-2.14 -2.72,-2.14 h -1.45 c -0.14,0 -0.16,0 -0.22,0.01 -0.1,0.01 -0.13,0.02 -0.13,0.1 0,0.03 0,0.05 0.05,0.23 l 0.68,2.71 h 0.98 c 0.85,0 0.85,-0.21 0.85,-0.45 0,-0.07 0,-0.19 -0.07,-0.49 -0.02,-0.05 -0.03,-0.08 -0.03,-0.11 0,-0.05 0.04,-0.11 0.13,-0.11 0.08,0 0.11,0.05 0.15,0.2 l 0.56,2.32 c 0,0.06 -0.05,0.11 -0.12,0.11 -0.09,0 -0.11,-0.06 -0.14,-0.18 -0.2,-0.75 -0.38,-0.98 -1.3,-0.98 h -0.93 l 0.59,2.39 c 0.09,0.35 0.1,0.39 0.54,0.39 h 1.4 c 1.22,0 1.52,-0.29 1.52,-1.1 0,-0.24 0,-0.26 -0.04,-0.53 0,-0.06 -0.01,-0.13 -0.01,-0.18 0,-0.05 0.03,-0.11 0.11,-0.11 0.11,0 0.12,0.06 0.14,0.24 l 0.2,1.72 c 0.03,0.27 -0.02,0.27 -0.26,0.27 h -5.03 c -0.2,0 -0.3,0 -0.3,-0.2 0,-0.11 0.09,-0.11 0.28,-0.11 0.37,0 0.65,0 0.65,-0.18 0,-0.04 0,-0.06 -0.05,-0.23 l -1.32,-5.26 c -0.09,-0.39 -0.11,-0.47 -0.9,-0.47 -0.17,0 -0.28,0 -0.28,-0.19 0,-0.12 0.09,-0.12 0.28,-0.12 h 5.16 c 0.23,0 0.24,0.01 0.31,0.17 z"
         inkscape:connector-curvature="0"
         style="fill:#000000;stroke-width:0" /><path
         id="path4020"
         d="m 240.96,660.48 h 0.03 0.03 0.03 l 0.01,0.01 h 0.02 0.01 0.02 0.01 0.02 l 0.01,0.01 h 0.01 0.02 l 0.01,0.01 h 0.01 l 0.01,0.01 h 0.01 l 0.01,0.01 0.01,0.01 0.01,0.01 0.01,0.01 0.01,0.01 v 0 l 0.01,0.01 v 0 0.01 l 0.01,0.01 v 0 0.01 0.01 0 l 0.01,0.01 v 0.01 0.01 0.01 0 0.01 0.01 c 0,0.2 -0.19,0.2 -0.33,0.2 h -5.96 c -0.14,0 -0.33,0 -0.33,-0.2 0,-0.2 0.19,-0.2 0.34,-0.2 z"
         inkscape:connector-curvature="0"
         style="fill:#000000;stroke-width:0" /><path
         id="path4022"
         d="m 240.97,658.56 h 0.02 0.01 0.03 0.02 0.02 0.01 0.02 0.01 0.01 l 0.02,0.01 h 0.01 0.01 l 0.02,0.01 h 0.01 l 0.01,0.01 h 0.01 l 0.01,0.01 h 0.01 l 0.01,0.01 0.01,0.01 0.01,0.01 h 0.01 v 0.01 0.01 h 0.01 v 0.01 0 l 0.01,0.01 v 0.01 0 0.01 0.01 h 0.01 v 0.01 0.01 0.01 0.01 0.01 0.01 c 0,0.19 -0.19,0.19 -0.34,0.19 h -5.94 c -0.15,0 -0.34,0 -0.34,-0.19 0,-0.2 0.19,-0.2 0.33,-0.2 z"
         inkscape:connector-curvature="0"
         style="fill:#000000;stroke-width:0" /><path
         id="path4024"
         d="m 248.17,665.58 v 0.01 0.01 0.01 0 0.01 0.01 0.01 0 0.01 0.01 0 0.01 0 0.01 0.01 0 0.01 0 l -0.01,0.01 v 0.01 0 l -0.01,0.01 v 0.01 0 l -0.01,0.01 v 0 l -0.01,0.01 h -0.01 v 0 l -0.01,0.01 h -0.01 -0.01 -0.01 v 0 h -0.01 v 0 h -0.01 v 0 h -0.01 -0.01 v 0 h -0.01 -0.01 -0.01 v 0 h -0.01 -0.01 -0.01 l -0.01,0.01 h -0.01 c -0.44,-0.44 -1.08,-0.45 -1.36,-0.45 v -0.25 c 0.17,0 0.63,0 1.01,0.2 v -3.55 c 0,-0.23 0,-0.32 -0.7,-0.32 h -0.26 v -0.25 c 0.12,0 0.98,0.03 1.24,0.03 0.21,0 1.09,-0.03 1.24,-0.03 v 0.25 h -0.26 c -0.7,0 -0.7,0.09 -0.7,0.32 z"
         inkscape:connector-curvature="0"
         style="fill:#000000;stroke-width:0" /><line
         id="line4026"
         y2="659.72998"
         x2="249.81"
         y1="659.72998"
         x1="245.84"
         style="stroke-width:0.398" /><path
         id="path4028"
         d="m 249.36,655.07 h -0.24 c -0.02,-0.16 -0.09,-0.57 -0.18,-0.64 -0.06,-0.04 -0.59,-0.04 -0.69,-0.04 h -1.28 c 0.73,0.65 0.97,0.84 1.39,1.17 0.52,0.41 1,0.84 1,1.5 0,0.84 -0.74,1.36 -1.63,1.36 -0.87,0 -1.45,-0.61 -1.45,-1.25 0,-0.35 0.3,-0.39 0.37,-0.39 0.17,0 0.37,0.12 0.37,0.37 0,0.13 -0.05,0.37 -0.41,0.37 0.21,0.49 0.69,0.65 1.01,0.65 0.7,0 1.06,-0.55 1.06,-1.11 0,-0.6 -0.43,-1.08 -0.65,-1.33 l -1.68,-1.66 c -0.07,-0.06 -0.07,-0.08 -0.07,-0.27 h 2.87 z"
         inkscape:connector-curvature="0"
         style="fill:#000000;stroke-width:0" /><path
         id="path4030"
         d="m 251.88,657.82 v -0.01 -0.02 l -0.01,-0.01 v -0.02 l -0.01,-0.03 v -0.03 l -0.01,-0.03 -0.01,-0.04 -0.01,-0.03 v -0.03 l -0.01,-0.01 v -0.02 -0.01 l -0.01,-0.02 v -0.01 -0.01 l -0.01,-0.02 v -0.01 -0.01 -0.01 -0.01 l -0.01,-0.01 v -0.01 0 -0.01 -0.01 c 0,-0.17 0.14,-0.26 0.29,-0.26 0.12,0 0.3,0.08 0.37,0.27 0.01,0.02 0.13,0.49 0.19,0.74 l 0.22,0.89 c 0.06,0.22 0.12,0.44 0.17,0.67 0.04,0.17 0.12,0.46 0.12,0.5 0.15,0.3 0.68,1.21 1.63,1.21 0.45,0 0.53,-0.37 0.53,-0.7 0,-0.25 -0.07,-0.53 -0.15,-0.82 l -0.27,-1.16 -0.2,-0.75 c -0.04,-0.2 -0.13,-0.54 -0.13,-0.59 0,-0.17 0.14,-0.26 0.29,-0.26 0.3,0 0.36,0.24 0.44,0.56 0.14,0.56 0.51,2.01 0.6,2.4 0.03,0.13 0.56,1.32 1.64,1.32 0.43,0 0.54,-0.34 0.54,-0.7 0,-0.56 -0.42,-1.7 -0.62,-2.22 -0.09,-0.24 -0.13,-0.35 -0.13,-0.55 0,-0.47 0.35,-0.81 0.82,-0.81 0.94,0 1.3,1.45 1.3,1.53 0,0.1 -0.09,0.1 -0.12,0.1 -0.1,0 -0.1,-0.04 -0.15,-0.18 -0.15,-0.53 -0.46,-1.24 -1.01,-1.24 -0.17,0 -0.24,0.1 -0.24,0.33 0,0.25 0.09,0.49 0.18,0.71 0.19,0.51 0.61,1.62 0.61,2.18 0,0.65 -0.4,1.07 -1.15,1.07 -0.74,0 -1.25,-0.44 -1.62,-0.97 -0.01,0.13 -0.04,0.47 -0.32,0.71 -0.25,0.21 -0.57,0.26 -0.81,0.26 -0.9,0 -1.39,-0.64 -1.56,-0.87 -0.04,0.57 -0.46,0.87 -0.91,0.87 -0.46,0 -0.65,-0.39 -0.74,-0.57 -0.18,-0.35 -0.31,-0.93 -0.31,-0.96 0,-0.1 0.1,-0.1 0.12,-0.1 0.1,0 0.11,0.01 0.17,0.22 0.17,0.71 0.37,1.19 0.73,1.19 0.16,0 0.31,-0.08 0.31,-0.46 0,-0.21 -0.03,-0.32 -0.16,-0.83 z"
         inkscape:connector-curvature="0"
         style="fill:#000000;stroke-width:0" /><path
         id="path4032"
         d="m 264.41,660.93 v 0.02 0.03 0.02 0.03 l -0.01,0.02 v 0.02 0.02 0.02 l -0.01,0.04 -0.01,0.04 v 0.04 l -0.01,0.04 -0.01,0.03 -0.02,0.03 -0.01,0.03 -0.01,0.03 -0.02,0.02 -0.01,0.03 -0.02,0.02 -0.01,0.02 -0.02,0.02 -0.02,0.02 -0.01,0.01 -0.02,0.02 -0.02,0.01 -0.02,0.01 -0.02,0.01 -0.01,0.01 -0.02,0.01 -0.02,0.01 h -0.02 l -0.02,0.01 h -0.02 -0.01 l -0.02,0.01 h -0.02 c -0.25,0 -0.49,-0.26 -0.49,-0.48 0,-0.13 0.05,-0.19 0.16,-0.3 0.21,-0.2 0.34,-0.46 0.34,-0.81 0,-0.42 -0.6,-2.7 -1.77,-2.7 -0.51,0 -0.74,0.35 -0.74,0.87 0,0.56 0.27,1.28 0.58,2.1 0.07,0.17 0.12,0.31 0.12,0.5 0,0.45 -0.32,0.82 -0.81,0.82 -0.94,0 -1.32,-1.45 -1.32,-1.53 0,-0.1 0.1,-0.1 0.12,-0.1 0.1,0 0.11,0.02 0.16,0.17 0.29,1.01 0.72,1.24 1.01,1.24 0.07,0 0.24,0 0.24,-0.32 0,-0.25 -0.1,-0.52 -0.17,-0.7 -0.43,-1.15 -0.56,-1.61 -0.56,-2.03 0,-1.08 0.87,-1.23 1.33,-1.23 1.67,0 2.24,3.28 2.24,3.8 z"
         inkscape:connector-curvature="0"
         style="fill:#000000;stroke-width:0" /><path
         id="path4034"
         d="m 268.46,662.12 h -0.24 c -0.02,-0.16 -0.09,-0.57 -0.18,-0.64 -0.06,-0.04 -0.59,-0.04 -0.69,-0.04 h -1.28 c 0.73,0.65 0.97,0.84 1.39,1.17 0.52,0.41 1,0.84 1,1.5 0,0.84 -0.74,1.36 -1.63,1.36 -0.87,0 -1.45,-0.61 -1.45,-1.25 0,-0.35 0.3,-0.39 0.37,-0.39 0.17,0 0.37,0.12 0.37,0.37 0,0.13 -0.05,0.37 -0.41,0.37 0.21,0.5 0.69,0.65 1.01,0.65 0.7,0 1.06,-0.54 1.06,-1.11 0,-0.6 -0.43,-1.08 -0.65,-1.33 l -1.68,-1.66 c -0.07,-0.06 -0.07,-0.07 -0.07,-0.27 h 2.87 z"
         inkscape:connector-curvature="0"
         style="fill:#000000;stroke-width:0" /></g>
  </g>
</svg>
