<?xml version="1.0" encoding="UTF-8" standalone="no"?>
<svg
   xmlns:ns0="http://www.iki.fi/pav/software/textext/"
   xmlns:dc="http://purl.org/dc/elements/1.1/"
   xmlns:cc="http://creativecommons.org/ns#"
   xmlns:rdf="http://www.w3.org/1999/02/22-rdf-syntax-ns#"
   xmlns:svg="http://www.w3.org/2000/svg"
   xmlns="http://www.w3.org/2000/svg"
   xmlns:sodipodi="http://sodipodi.sourceforge.net/DTD/sodipodi-0.dtd"
   xmlns:inkscape="http://www.inkscape.org/namespaces/inkscape"
   sodipodi:docname="normal.svg"
   inkscape:version="0.48.5 r10040"
   version="1.1"
   id="svg2"
   viewBox="0 0 1245 650"
   height="650px"
   width="1245px">
  <sodipodi:namedview
     pagecolor="#ffffff"
     bordercolor="#666666"
     borderopacity="1"
     objecttolerance="10"
     gridtolerance="10"
     guidetolerance="10"
     inkscape:pageopacity="0"
     inkscape:pageshadow="2"
     inkscape:window-width="1920"
     inkscape:window-height="1025"
     id="namedview54"
     showgrid="false"
     inkscape:zoom="0.80966038"
     inkscape:cx="762.28813"
     inkscape:cy="429.48163"
     inkscape:window-x="-4"
     inkscape:window-y="-3"
     inkscape:window-maximized="1"
     inkscape:current-layer="svg2" />
  <metadata
     id="metadata56">
    <rdf:RDF>
      <cc:Work
         rdf:about="">
        <dc:format>image/svg+xml</dc:format>
        <dc:type
           rdf:resource="http://purl.org/dc/dcmitype/StillImage" />
      </cc:Work>
    </rdf:RDF>
  </metadata>
  <title
     id="title4">normal</title>
  <desc
     id="desc6">
Creator: GL2PS 1.3.8, (C) 1999-2012 C. Geuzaine
For: Gmsh
CreationDate: Sat Jul 18 09:11:24 2015
</desc>
  <defs
     id="defs8">
    <marker
       style="overflow:visible;"
       id="Arrow1Mend"
       refX="0.0"
       refY="0.0"
       orient="auto"
       inkscape:stockid="Arrow1Mend">
      <path
         transform="scale(0.4) rotate(180) translate(10,0)"
         style="fill-rule:evenodd;stroke:#000000;stroke-width:1.0pt;"
         d="M 0.0,0.0 L 5.0,-5.0 L -12.5,0.0 L 5.0,5.0 L 0.0,0.0 z "
         id="path3779" />
    </marker>
  </defs>
  <path
     sodipodi:nodetypes="ccccccccc"
     inkscape:connector-curvature="0"
     id="polyline14"
     d="m 721.869,354.636 -383.671,-106.593 0,0 86.94,223.708 0,0 383.671,106.594 0,0 -86.94,-223.709 z"
     style="fill:#72ac2b;fill-opacity:0.2971698;stroke:#336633;stroke-width:2;stroke-opacity:1" />
  <circle
     cx="573.50403"
     cy="413.194"
     r="2"
     id="circle32"
     sodipodi:cx="573.50403"
     sodipodi:cy="413.194"
     sodipodi:rx="2"
     sodipodi:ry="2"
     style="fill:#5a5a5a" />
  <polyline
     points="383.8,360.489 763.207,465.898"
     id="polyline34"
     style="fill:none;stroke:#808080;stroke-width:1;stroke-dasharray:5, 3, 5, 3" />
  <polyline
     points="616.491,523.805 530.517,302.582"
     id="polyline36"
     style="fill:none;stroke:#808080;stroke-width:1;stroke-dasharray:5, 3, 5, 3" />
  <polyline
     points="573.504,413.194 839.581,128.423"
     id="polyline40"
     style="fill:none;stroke:#b47320;stroke-width:6;stroke-opacity:1;stroke-miterlimit:4;stroke-dasharray:none;marker-end:url(#Arrow1Mend)" />
  <polyline
     points="573.504,413.194 659.548,237.859"
     id="polyline42"
     style="fill:none;stroke:#333333;stroke-width:4;stroke-opacity:1;stroke-miterlimit:4;stroke-dasharray:none;marker-end:url(#Arrow1Mend)" />
  <g
     style="font-style:normal;font-variant:normal;font-weight:normal;font-stretch:normal;letter-spacing:normal;word-spacing:normal;text-anchor:start;fill:none;stroke:#000000;stroke-linecap:butt;stroke-linejoin:miter;stroke-miterlimit:10.43299961;stroke-opacity:1;stroke-dasharray:none;stroke-dashoffset:0"
     id="content"
     transform="matrix(4.7666325,0,0,-4.7666325,-470.52471,3406.8924)"
     xml:space="preserve"
     stroke-miterlimit="10.433"
     font-style="normal"
     font-variant="normal"
     font-weight="normal"
     font-stretch="normal"
     font-size-adjust="none"
     letter-spacing="normal"
     word-spacing="normal"
     ns0:text="$\\mathbf{\\hat{n}}$"
     ns0:preamble="/home/jeremy/papers/2011-enief/inkscape.tex"><polygon
       style="fill:#000000;stroke-width:0"
       points="228.17,662.87 226.6,664.13 225.04,662.88 225.32,662.49 226.6,663.32 227.89,662.5 "
       id="polygon4442" /><path
       style="fill:#000000;stroke-width:0"
       inkscape:connector-curvature="0"
       d="m 224.57,660.77 v -3.07 h -0.69 v -0.47 c 0.28,0.01 0.87,0.04 1.25,0.04 0.39,0 0.98,-0.03 1.26,-0.04 v 0.47 h -0.69 v 2.08 c 0,1.08 0.85,1.57 1.48,1.57 0.34,0 0.55,-0.21 0.55,-0.97 v -2.68 h -0.69 v -0.47 c 0.28,0.01 0.88,0.04 1.26,0.04 0.38,0 0.97,-0.03 1.25,-0.04 v 0.47 h -0.69 v 2.58 c 0,1.04 -0.53,1.43 -1.53,1.43 -0.95,0 -1.48,-0.57 -1.74,-1.08 v 1.08 l -1.71,-0.08 v -0.47 c 0.62,0 0.69,0 0.69,-0.39 z"
       id="path4444" /></g>  <path
     style="font-style:normal;font-variant:normal;font-weight:normal;font-stretch:normal;letter-spacing:normal;word-spacing:normal;text-anchor:start;fill:#000000;stroke:#000000;stroke-width:0;stroke-linecap:butt;stroke-linejoin:miter;stroke-miterlimit:10.43299961;stroke-opacity:1;stroke-dasharray:none;stroke-dashoffset:0"
     inkscape:connector-curvature="0"
     d="m 775.51459,133.04689 h 3.86099 v -2.24031 c -1.66834,0.14296 -5.71996,0.14296 -7.57895,0.14296 -2.47867,0 -7.14996,0 -9.43795,-0.14296 v 2.24031 h 6.72095 v 23.16584 c 0,0.90566 0,5.91064 -4.71895,5.91064 -0.81033,0 -2.38333,-0.14296 -3.76563,-0.76268 v -0.0476 c 0,0 2.0973,-0.90566 2.0973,-3.43198 0,-2.52631 -2.00198,-3.62265 -3.57498,-3.62265 -1.76364,0 -3.67031,1.19167 -3.67031,3.62265 0,3.67031 3.76566,5.91062 9.15196,5.91062 6.3396,0 10.91557,-2.66932 10.91557,-7.57895 z"
     id="path4511" />
  <g
     style="font-style:normal;font-variant:normal;font-weight:normal;font-stretch:normal;letter-spacing:normal;word-spacing:normal;text-anchor:start;fill:none;stroke:#000000;stroke-linecap:butt;stroke-linejoin:miter;stroke-miterlimit:10.43299961;stroke-opacity:1;stroke-dasharray:none;stroke-dashoffset:0"
     id="g4600"
     transform="matrix(4.7666325,0,0,-4.7666325,-908.52582,3252.1669)"
     xml:space="preserve"
     stroke-miterlimit="10.433"
     font-style="normal"
     font-variant="normal"
     font-weight="normal"
     font-stretch="normal"
     font-size-adjust="none"
     letter-spacing="normal"
     word-spacing="normal"
     ns0:text="$A=1$"
     ns0:preamble="/home/jeremy/papers/2011-enief/inkscape.tex"><path
       style="fill:#000000;stroke-width:0"
       inkscape:connector-curvature="0"
       d="m 225.21,658.38 -0.03,-0.06 -0.04,-0.06 -0.04,-0.06 -0.04,-0.05 -0.03,-0.05 -0.04,-0.04 -0.04,-0.05 -0.03,-0.04 -0.04,-0.04 -0.04,-0.04 -0.04,-0.03 -0.03,-0.03 -0.04,-0.03 -0.04,-0.03 -0.04,-0.02 -0.03,-0.03 -0.04,-0.02 -0.04,-0.02 -0.04,-0.02 -0.04,-0.02 -0.03,-0.01 -0.04,-0.01 -0.04,-0.02 -0.04,-0.01 -0.04,-0.01 -0.04,-0.01 -0.04,0 -0.04,-0.01 -0.08,-0.01 -0.08,-0.01 c -0.12,-0.01 -0.21,-0.01 -0.21,-0.2 0,-0.06 0.05,-0.11 0.13,-0.11 0.27,0 0.58,0.04 0.85,0.04 0.33,0 0.68,-0.04 1,-0.04 0.06,0 0.19,0 0.19,0.19 0,0.11 -0.09,0.12 -0.16,0.12 -0.23,0.02 -0.47,0.1 -0.47,0.35 0,0.12 0.06,0.23 0.14,0.37 l 0.76,1.27 h 2.49 l -0.03,0.31 h -2.27 l 1.96,3.28 0.31,-3.28 0.03,-0.31 c 0.03,-0.21 0.16,-1.56 0.16,-1.66 0,-0.3 -0.51,-0.33 -0.71,-0.33 -0.14,0 -0.24,0 -0.24,-0.2 0,-0.11 0.12,-0.11 0.14,-0.11 0.41,0 0.83,0.04 1.24,0.04 0.25,0 0.88,-0.04 1.13,-0.04 0.06,0 0.17,0 0.17,0.2 0,0.11 -0.09,0.11 -0.22,0.11 -0.62,0 -0.62,0.07 -0.65,0.36 l -0.61,6.21 c -0.02,0.2 -0.02,0.24 -0.19,0.24 -0.16,0 -0.19,-0.07 -0.25,-0.17 z"
       id="path4602" /><path
       style="fill:#000000;stroke-width:0"
       inkscape:connector-curvature="0"
       d="m 240.51,660.48 0.02,0 0.03,0 0.03,0 0.02,0.01 0.01,0 0.02,0 0.01,0 0.01,0 0.02,0 0.01,0.01 0.02,0 0.01,0 0.01,0.01 0.01,0 0.01,0.01 0.02,0 0.01,0.01 0.01,0.01 0.01,0.01 0,0.01 0.01,0.01 0.01,0 0,0.01 0,0 0.01,0.01 0,0.01 0,0 0,0.01 0.01,0.01 0,0 0,0.01 0,0.01 0,0.01 0,0.01 0,0 0,0.01 0,0.01 c 0,0.2 -0.19,0.2 -0.32,0.2 h -5.96 c -0.14,0 -0.33,0 -0.33,-0.2 0,-0.2 0.19,-0.2 0.34,-0.2 z"
       id="path4604" /><path
       style="fill:#000000;stroke-width:0"
       inkscape:connector-curvature="0"
       d="m 240.52,658.56 0.01,0 0.01,0 0.03,0 0.03,0 0.01,0 0.02,0 0.01,0 0.01,0 0.02,0 0.01,0.01 0.01,0 0.02,0 0.01,0.01 0.01,0 0.01,0.01 0.02,0 0.01,0.01 0.01,0 0.01,0.01 0.01,0.01 0,0.01 0.01,0 0,0.01 0.01,0.01 0,0 0,0.01 0.01,0 0,0.01 0,0.01 0,0 0.01,0.01 0,0.01 0,0 0,0.01 0,0.01 0,0.01 0,0.01 0,0.01 0,0.01 c 0,0.19 -0.19,0.19 -0.33,0.19 h -5.94 c -0.15,0 -0.34,0 -0.34,-0.19 0,-0.2 0.19,-0.2 0.33,-0.2 z"
       id="path4606" /><path
       style="fill:#000000;stroke-width:0"
       inkscape:connector-curvature="0"
       d="m 247.12,663.59 0,0.01 -0.01,0.01 0,0.02 0,0.01 0,0 0,0.01 0,0.01 0,0.01 0,0.01 0,0.01 0,0.01 0,0.01 0,0 0,0.01 0,0.01 0,0 0,0.01 0,0.01 0,0.01 0,0.01 -0.01,0.01 0,0.01 0,0.01 -0.01,0 0,0.01 -0.01,0.01 -0.01,0 0,0.01 -0.01,0 -0.01,0.01 0,0 -0.01,0 0,0 -0.01,0 -0.01,0 0,0 -0.01,0.01 0,0 -0.01,0 -0.01,0 -0.01,0 0,0 -0.01,0 -0.01,0 -0.01,0 -0.01,0 0,0 -0.01,0 -0.01,0 -0.01,0 -0.01,0 -0.01,0 c -0.62,-0.63 -1.5,-0.63 -1.82,-0.63 v -0.31 c 0.2,0 0.79,0 1.31,0.25 v -5.14 c 0,-0.36 -0.03,-0.48 -0.93,-0.48 h -0.32 v -0.31 c 0.35,0.04 1.22,0.04 1.62,0.04 0.39,0 1.26,0 1.61,-0.04 v 0.31 h -0.32 c -0.9,0 -0.92,0.11 -0.92,0.48 z"
       id="path4608" /></g>  <path
     style="fill:none;stroke:#000000;stroke-width:1px;stroke-linecap:butt;stroke-linejoin:miter;stroke-opacity:1"
     d="m 234.82529,130.61213 c 4.8666,3.99721 166.18996,53.45644 153.70431,100.22951 -12.48566,46.77307 -93.53998,-41.80188 -106.80025,6.00077 -13.26027,47.80265 157.66191,107.24152 157.66191,107.24152"
     id="path4653"
     inkscape:connector-curvature="0"
     sodipodi:nodetypes="czzc" />
</svg>
