<?xml version="1.0" encoding="UTF-8" standalone="no"?>
<!-- Created with Inkscape (http://www.inkscape.org/) -->

<svg
   width="685.65741"
   height="422.59488"
   id="svg2"
   version="1.1"
   inkscape:version="1.2.2 (b0a8486541, 2022-12-01)"
   sodipodi:docname="reflejado.svg"
   xmlns:inkscape="http://www.inkscape.org/namespaces/inkscape"
   xmlns:sodipodi="http://sodipodi.sourceforge.net/DTD/sodipodi-0.dtd"
   xmlns:xlink="http://www.w3.org/1999/xlink"
   xmlns="http://www.w3.org/2000/svg"
   xmlns:svg="http://www.w3.org/2000/svg"
   xmlns:rdf="http://www.w3.org/1999/02/22-rdf-syntax-ns#"
   xmlns:cc="http://creativecommons.org/ns#"
   xmlns:dc="http://purl.org/dc/elements/1.1/"
   xmlns:ns0="http://www.iki.fi/pav/software/textext/">
  <sodipodi:namedview
     id="base"
     pagecolor="#ffffff"
     bordercolor="#666666"
     borderopacity="1.0"
     inkscape:pageopacity="0.0"
     inkscape:pageshadow="2"
     inkscape:zoom="1.0735014"
     inkscape:cx="319.98095"
     inkscape:cy="190.03236"
     inkscape:document-units="px"
     inkscape:current-layer="layer1"
     showgrid="false"
     inkscape:window-width="1920"
     inkscape:window-height="1051"
     inkscape:window-x="1920"
     inkscape:window-y="0"
     inkscape:window-maximized="1"
     inkscape:showpageshadow="2"
     inkscape:pagecheckerboard="0"
     inkscape:deskcolor="#d1d1d1" />
  <defs
     id="defs4">
    <marker
       style="overflow:visible"
       id="Arrow1Lend"
       refX="0"
       refY="0"
       orient="auto"
       inkscape:stockid="Arrow1Lend">
      <path
         transform="matrix(-0.8,0,0,-0.8,-10,0)"
         style="fill-rule:evenodd;stroke:#000000;stroke-width:1pt"
         d="M 0,0 5,-5 -12.5,0 5,5 Z"
         id="path3792" />
    </marker>
    <linearGradient
       id="linearGradient3761">
      <stop
         id="stop3763"
         offset="0"
         style="stop-color:#4fac61;stop-opacity:0.82526314;" />
      <stop
         id="stop3765"
         offset="1"
         style="stop-color:#ffffff;stop-opacity:0;" />
    </linearGradient>
    <filter
       id="filter3781"
       inkscape:collect="always"
       x="-0.01416095"
       y="-0.010411251"
       width="1.0283219"
       height="1.0208225">
      <feGaussianBlur
         id="feGaussianBlur3783"
         stdDeviation="1.5465391"
         inkscape:collect="always" />
    </filter>
    <linearGradient
       gradientTransform="translate(-135.70749,53.206055)"
       y2="369.16516"
       x2="180.24509"
       y1="46.458309"
       x1="421.81067"
       gradientUnits="userSpaceOnUse"
       id="linearGradient5055"
       xlink:href="#linearGradient3761"
       inkscape:collect="always" />
  </defs>
  <metadata
     id="metadata7">
    <rdf:RDF>
      <cc:Work
         rdf:about="">
        <dc:format>image/svg+xml</dc:format>
        <dc:type
           rdf:resource="http://purl.org/dc/dcmitype/StillImage" />
      </cc:Work>
    </rdf:RDF>
  </metadata>
  <g
     id="layer1"
     inkscape:groupmode="layer"
     inkscape:label="Layer 1"
     transform="translate(-30.194182,-18.087799)">
    <path
       style="fill:url(#linearGradient5055);fill-opacity:1;stroke:none;filter:url(#filter3781)"
       d="m 86.656721,80.463016 c 0,0 89.346729,49.871124 119.543999,81.141264 30.19727,31.27014 46.39655,60.59209 61.93989,98.48443 15.54334,37.89234 27.87295,126.35738 27.87295,126.35738 0,0 -19.49972,33.68183 -32.20875,39.82077 -12.70903,6.13893 -39.52074,13.94143 -56.9847,9.29098 -17.46396,-4.65046 -23.43398,-34.31429 -44.59672,-40.26093 -21.16274,-5.94664 -29.84081,21.75441 -56.9847,12.38798 -27.143889,-9.36643 -55.496529,-61.58988 -53.887709,-91.05164 1.60882,-29.46176 19.47214,-38.39988 19.82077,-67.51448 0.34863,-29.11461 -34.37317,-41.31974 -37.16394,-73.70848 -2.79077,-32.38874 52.64891,-94.947274 52.64891,-94.947274 z"
       id="path3759"
       inkscape:connector-curvature="0"
       sodipodi:nodetypes="czzczzzzzzzc" />
    <path
       sodipodi:nodetypes="czzc"
       inkscape:connector-curvature="0"
       id="path2985"
       d="m 86.656721,80.463016 c 0,0 89.346729,49.871124 119.543999,81.141264 30.19727,31.27014 46.39655,60.59209 61.93989,98.48443 15.54334,37.89234 27.87295,126.35738 27.87295,126.35738"
       style="fill:none;stroke:#656669;stroke-width:4;stroke-linecap:butt;stroke-linejoin:miter;stroke-miterlimit:4;stroke-dasharray:none;stroke-opacity:1" />
    <path
       style="fill:none;stroke:#000000;stroke-width:1;stroke-linecap:butt;stroke-linejoin:miter;stroke-miterlimit:4;stroke-dasharray:1, 1;stroke-dashoffset:0;stroke-opacity:1;marker-end:none"
       d="M 282.12701,273.53407 182.40378,109.39335"
       id="path4229"
       inkscape:connector-curvature="0" />
    <path
       sodipodi:nodetypes="cc"
       inkscape:connector-curvature="0"
       id="path4419"
       d="M 336.61661,18.966686 239.27204,197.02453"
       style="fill:none;stroke:#000000;stroke-width:2.25;stroke-linecap:butt;stroke-linejoin:miter;stroke-miterlimit:4;stroke-dasharray:none;stroke-opacity:1;marker-end:url(#Arrow1Lend)" />
    <g
       style="font-style:normal;font-variant:normal;font-weight:normal;font-stretch:normal;letter-spacing:normal;word-spacing:normal;text-anchor:start;opacity:0.5;fill:#b9bebe;fill-opacity:1;stroke:#bfbebd;stroke-linecap:butt;stroke-linejoin:miter;stroke-miterlimit:10.433;stroke-dasharray:none;stroke-dashoffset:0;stroke-opacity:1"
       id="g5280"
       transform="matrix(2.1387594,3.1379734,14.501445,-8.904801,-9739.988,5310.7499)"
       xml:space="preserve"
       stroke-miterlimit="10.433"
       font-style="normal"
       font-variant="normal"
       font-weight="normal"
       font-stretch="normal"
       font-size-adjust="none"
       letter-spacing="normal"
       word-spacing="normal"
       ns0:text="$\\{$"
       ns0:preamble="/home/jeremy/papers/2011-enief/inkscape.tex"><path
         style="fill:#b9bebe;fill-opacity:1;stroke:#bfbebd;stroke-width:0;stroke-opacity:1"
         inkscape:connector-curvature="0"
         d="m 226.25,663.36 v 0.04 0.04 l 0.01,0.04 v 0.04 l 0.01,0.04 0.01,0.05 0.01,0.04 0.02,0.04 0.01,0.05 0.02,0.04 0.02,0.05 0.03,0.04 0.02,0.04 0.03,0.05 0.04,0.04 0.03,0.04 0.04,0.04 0.04,0.04 0.05,0.04 0.05,0.03 0.05,0.04 0.06,0.03 0.06,0.03 0.06,0.03 0.07,0.03 0.07,0.02 0.08,0.03 0.08,0.02 h 0.04 l 0.05,0.01 0.04,0.01 0.05,0.01 h 0.04 l 0.05,0.01 h 0.05 l 0.05,0.01 c 0.05,0.01 0.09,0.05 0.09,0.11 0,0.1 -0.08,0.1 -0.19,0.1 -0.99,0 -1.9,-0.5 -1.91,-1.24 v -2.26 c 0,-0.39 0,-0.71 -0.4,-1.03 -0.34,-0.29 -0.72,-0.31 -0.94,-0.32 -0.05,-0.01 -0.09,-0.05 -0.09,-0.11 0,-0.1 0.06,-0.1 0.16,-0.11 0.65,-0.04 1.13,-0.4 1.24,-0.89 0.03,-0.1 0.03,-0.12 0.03,-0.48 v -1.97 c 0,-0.42 0,-0.73 0.48,-1.11 0.39,-0.3 1.04,-0.41 1.43,-0.41 0.11,0 0.19,0 0.19,0.11 0,0.1 -0.06,0.1 -0.16,0.11 -0.63,0.04 -1.11,0.36 -1.24,0.86 -0.03,0.09 -0.03,0.11 -0.03,0.47 v 2.09 c 0,0.45 -0.08,0.62 -0.4,0.94 -0.21,0.21 -0.5,0.31 -0.78,0.39 0.82,0.23 1.18,0.68 1.18,1.26 z"
         id="path5282" /></g>
    <path
       sodipodi:nodetypes="cc"
       inkscape:connector-curvature="0"
       id="path4421"
       d="m 237.39347,199.51573 200.21765,-4.58055"
       style="fill:none;stroke:#000000;stroke-width:2.25;stroke-linecap:butt;stroke-linejoin:miter;stroke-miterlimit:4;stroke-dasharray:none;stroke-opacity:1;marker-end:url(#Arrow1Lend)" />
    <g
       style="font-style:normal;font-variant:normal;font-weight:normal;font-stretch:normal;letter-spacing:normal;word-spacing:normal;text-anchor:start;fill:none;stroke:#000000;stroke-linecap:butt;stroke-linejoin:miter;stroke-miterlimit:10.433;stroke-dasharray:none;stroke-dashoffset:0;stroke-opacity:1"
       id="g4504"
       transform="matrix(3,0,0,-3,-562.89519,2287.1016)"
       xml:space="preserve"
       stroke-miterlimit="10.433"
       font-style="normal"
       font-variant="normal"
       font-weight="normal"
       font-stretch="normal"
       font-size-adjust="none"
       letter-spacing="normal"
       word-spacing="normal"
       ns0:text="$U$"
       ns0:preamble="/home/jeremy/papers/2011-enief/inkscape.tex"><path
         style="fill:#000000;stroke-width:0"
         inkscape:connector-curvature="0"
         d="m 229.75,662.98 0.02,0.07 0.01,0.04 0.01,0.03 0.01,0.04 0.02,0.03 0.01,0.04 0.02,0.03 0.01,0.03 0.02,0.03 0.02,0.03 0.02,0.03 0.03,0.03 0.02,0.03 0.03,0.02 0.03,0.03 0.03,0.02 0.03,0.02 0.03,0.02 0.04,0.02 0.04,0.02 0.04,0.02 0.05,0.02 0.04,0.01 0.05,0.02 0.06,0.01 0.05,0.01 0.06,0.01 0.07,0.01 h 0.06 l 0.07,0.01 h 0.04 0.03 c 0.05,0 0.17,0.01 0.17,0.2 0,0.01 0,0.11 -0.13,0.11 -0.32,0 -0.67,-0.03 -1.01,-0.03 -0.34,0 -0.71,0.03 -1.03,0.03 -0.06,0 -0.19,0 -0.19,-0.2 0,-0.11 0.11,-0.11 0.19,-0.11 0.56,-0.01 0.67,-0.22 0.67,-0.43 0,-0.04 -0.02,-0.18 -0.03,-0.21 l -0.89,-3.55 c -0.34,-1.33 -1.49,-2.2 -2.48,-2.2 -0.68,0 -1.21,0.44 -1.21,1.3 0,0.02 0,0.33 0.1,0.77 l 0.97,3.87 c 0.09,0.35 0.11,0.45 0.84,0.45 0.25,0 0.33,0 0.33,0.2 0,0.11 -0.11,0.11 -0.14,0.11 -0.27,0 -0.99,-0.03 -1.27,-0.03 -0.29,0 -1,0.03 -1.28,0.03 -0.08,0 -0.19,0 -0.19,-0.2 0,-0.11 0.09,-0.11 0.28,-0.11 0.02,0 0.21,0 0.38,-0.02 0.17,-0.02 0.26,-0.03 0.26,-0.16 0,-0.06 -0.11,-0.47 -0.17,-0.7 l -0.22,-0.88 c -0.08,-0.38 -0.56,-2.26 -0.6,-2.45 -0.07,-0.28 -0.07,-0.43 -0.07,-0.58 0,-1.21 0.9,-1.9 1.95,-1.9 1.25,0 2.49,1.12 2.81,2.43 z"
         id="path4506" /></g>
    <g
       style="font-style:normal;font-variant:normal;font-weight:normal;font-stretch:normal;letter-spacing:normal;word-spacing:normal;text-anchor:start;fill:none;stroke:#000000;stroke-linecap:butt;stroke-linejoin:miter;stroke-miterlimit:10.433;stroke-dasharray:none;stroke-dashoffset:0;stroke-opacity:1"
       ns0:preamble="/home/jeremy/papers/2011-enief/inkscape.tex"
       ns0:text="$\\partial U$"
       word-spacing="normal"
       letter-spacing="normal"
       font-size-adjust="none"
       font-stretch="normal"
       font-weight="normal"
       font-variant="normal"
       font-style="normal"
       stroke-miterlimit="10.433"
       xml:space="preserve"
       transform="matrix(3,0,0,-3,-276.60082,2323.908)"
       id="g4556"><path
         id="path4558"
         d="m 228.04,660.6 -0.01,0.06 -0.01,0.06 -0.02,0.05 -0.01,0.06 -0.02,0.06 -0.02,0.05 -0.02,0.05 -0.02,0.06 -0.03,0.05 -0.03,0.05 -0.03,0.05 -0.03,0.04 -0.03,0.05 -0.03,0.05 -0.04,0.04 -0.04,0.04 -0.04,0.04 -0.04,0.04 -0.05,0.03 -0.04,0.04 -0.05,0.03 -0.05,0.03 -0.06,0.02 -0.05,0.03 -0.06,0.02 -0.06,0.02 -0.06,0.02 -0.06,0.01 -0.07,0.01 -0.06,0.01 h -0.07 l -0.07,0.01 v -0.22 c 1.08,0 1.1,-1.12 1.1,-1.32 0,-0.71 -0.64,-2.95 -2.17,-2.95 v 0 c -1.09,0 -1.09,1.03 -1.09,1.13 0,0.26 0.25,1.66 0.65,2.25 0.4,0.57 0.89,0.89 1.51,0.89 v 0.22 c -0.61,0 -1.26,-0.16 -2.03,-0.94 -0.83,-0.82 -0.9,-1.75 -0.9,-2.06 0,-0.61 0.44,-1.76 1.83,-1.76 2.37,0 3.4,3.33 3.4,4.76 0,1.57 -0.92,2.57 -2.15,2.57 -1.44,0 -1.9,-1.29 -1.9,-1.57 0,-0.14 0.08,-0.35 0.38,-0.35 0.33,0 0.54,0.3 0.54,0.53 0,0.34 -0.31,0.34 -0.47,0.34 0.44,0.74 1.15,0.8 1.43,0.8 0.73,0 1.43,-0.52 1.43,-1.8 0,-0.39 -0.06,-0.89 -0.27,-1.7 z"
         inkscape:connector-curvature="0"
         style="fill:#000000;stroke-width:0" /><path
         id="path4560"
         d="m 235.6,662.98 0.02,0.07 0.01,0.04 0.01,0.03 0.01,0.04 0.01,0.03 0.02,0.04 0.01,0.03 0.02,0.03 0.02,0.03 0.02,0.03 0.02,0.03 0.02,0.03 0.03,0.03 0.02,0.02 0.03,0.03 0.03,0.02 0.04,0.02 0.03,0.02 0.04,0.02 0.04,0.02 0.04,0.02 0.04,0.02 0.05,0.01 0.05,0.02 0.05,0.01 0.06,0.01 0.06,0.01 0.06,0.01 h 0.07 l 0.07,0.01 h 0.03 0.04 c 0.05,0 0.17,0.01 0.17,0.2 0,0.01 0,0.11 -0.13,0.11 -0.33,0 -0.67,-0.03 -1.01,-0.03 -0.34,0 -0.71,0.03 -1.04,0.03 -0.06,0 -0.18,0 -0.18,-0.2 0,-0.11 0.1,-0.11 0.18,-0.11 0.57,-0.01 0.68,-0.22 0.68,-0.43 0,-0.04 -0.02,-0.18 -0.03,-0.21 l -0.9,-3.55 c -0.34,-1.33 -1.48,-2.2 -2.48,-2.2 -0.67,0 -1.21,0.44 -1.21,1.3 0,0.02 0,0.33 0.11,0.77 l 0.97,3.87 c 0.09,0.35 0.11,0.45 0.83,0.45 0.26,0 0.34,0 0.34,0.2 0,0.11 -0.11,0.11 -0.14,0.11 -0.28,0 -0.99,-0.03 -1.27,-0.03 -0.29,0 -1,0.03 -1.29,0.03 -0.08,0 -0.18,0 -0.18,-0.2 0,-0.11 0.08,-0.11 0.27,-0.11 0.02,0 0.21,0 0.38,-0.02 0.18,-0.02 0.27,-0.03 0.27,-0.16 0,-0.06 -0.11,-0.47 -0.17,-0.7 l -0.22,-0.88 c -0.09,-0.38 -0.57,-2.26 -0.61,-2.45 -0.06,-0.28 -0.06,-0.43 -0.06,-0.58 0,-1.21 0.9,-1.9 1.95,-1.9 1.25,0 2.48,1.12 2.81,2.43 z"
         inkscape:connector-curvature="0"
         style="fill:#000000;stroke-width:0" /></g>
    <g
       id="g4618"
       transform="matrix(3,0,0,-3,-321.88362,2245.9973)"
       xml:space="preserve"
       stroke-miterlimit="10.433"
       font-style="normal"
       font-variant="normal"
       font-weight="normal"
       font-stretch="normal"
       font-size-adjust="none"
       letter-spacing="normal"
       word-spacing="normal"
       ns0:text="$\\mathbf{x} \\in \\partial U$"
       ns0:preamble="/home/jeremy/papers/2011-enief/inkscape.tex"
       style="font-style:normal;font-variant:normal;font-weight:normal;font-stretch:normal;letter-spacing:normal;word-spacing:normal;text-anchor:start;fill:none;stroke:#000000;stroke-linecap:butt;stroke-linejoin:miter;stroke-miterlimit:10.433;stroke-dasharray:none;stroke-dashoffset:0;stroke-opacity:1"><path
         style="fill:#000000;stroke-width:0"
         inkscape:connector-curvature="0"
         d="m 226.87,659.68 1.17,1.29 c 0.13,0.14 0.19,0.21 1.01,0.21 v 0.47 c -0.34,-0.02 -0.86,-0.03 -0.91,-0.03 -0.25,0 -0.75,0.02 -1.03,0.03 v -0.47 c 0.14,0 0.26,-0.02 0.38,-0.09 -0.04,-0.06 -0.04,-0.08 -0.08,-0.12 l -0.83,-0.93 -0.98,1.14 h 0.4 v 0.47 c -0.26,-0.01 -0.89,-0.03 -1.21,-0.03 -0.31,0 -0.76,0.02 -1.09,0.03 v -0.47 h 0.71 l 1.55,-1.83 -1.3,-1.46 c -0.17,-0.19 -0.53,-0.19 -1.01,-0.19 v -0.47 c 0.35,0.03 0.87,0.04 0.92,0.04 0.25,0 0.82,-0.03 1.02,-0.04 v 0.47 c -0.18,0 -0.37,0.05 -0.37,0.11 0,0.01 0,0.02 0.07,0.1 l 0.97,1.08 1.09,-1.29 h -0.39 v -0.47 c 0.26,0.01 0.87,0.04 1.2,0.04 0.32,0 0.76,-0.03 1.09,-0.04 v 0.47 h -0.7 z"
         id="path4620" /><path
         style="fill:#000000;stroke-width:0"
         inkscape:connector-curvature="0"
         d="m 237.7,659.52 h 0.03 0.03 0.03 0.02 0.01 0.02 l 0.01,0.01 h 0.02 0.01 0.02 l 0.01,0.01 h 0.01 0.02 l 0.01,0.01 0.01,0.01 h 0.01 l 0.01,0.01 0.01,0.01 H 238 l 0.01,0.01 0.01,0.01 v 0.01 0 l 0.01,0.01 v 0.01 0 0.01 l 0.01,0.01 v 0 0.01 0.01 0.01 0 0.01 l 0.01,0.01 v 0.01 0.01 c 0,0.2 -0.18,0.2 -0.35,0.2 h -4.22 c 0.12,1.33 1.26,2.28 2.67,2.28 h 1.55 c 0.17,0 0.35,0 0.35,0.2 0,0.2 -0.18,0.2 -0.35,0.2 h -1.57 c -1.7,0 -3.06,-1.29 -3.06,-2.88 0,-1.59 1.36,-2.88 3.06,-2.88 h 1.57 c 0.17,0 0.35,0 0.35,0.2 0,0.19 -0.18,0.19 -0.35,0.19 h -1.55 c -1.41,0 -2.55,0.96 -2.67,2.29 z"
         id="path4622" /><path
         style="fill:#000000;stroke-width:0"
         inkscape:connector-curvature="0"
         d="m 246.26,660.6 -0.01,0.06 -0.01,0.06 -0.01,0.05 -0.02,0.06 -0.02,0.06 -0.02,0.05 -0.02,0.05 -0.02,0.06 -0.03,0.05 -0.02,0.05 -0.03,0.05 -0.03,0.04 -0.04,0.05 -0.03,0.05 -0.04,0.04 -0.04,0.04 -0.04,0.04 -0.04,0.04 -0.04,0.03 -0.05,0.04 -0.05,0.03 -0.05,0.03 -0.05,0.02 -0.06,0.03 -0.05,0.02 -0.06,0.02 -0.06,0.02 -0.07,0.01 -0.06,0.01 -0.07,0.01 h -0.07 l -0.07,0.01 v -0.22 c 1.08,0 1.1,-1.12 1.1,-1.32 0,-0.71 -0.63,-2.95 -2.17,-2.95 v 0 c -1.09,0 -1.09,1.03 -1.09,1.13 0,0.26 0.25,1.66 0.66,2.25 0.39,0.57 0.88,0.89 1.5,0.89 v 0.22 c -0.61,0 -1.26,-0.16 -2.03,-0.94 -0.83,-0.82 -0.9,-1.75 -0.9,-2.06 0,-0.61 0.44,-1.76 1.83,-1.76 2.37,0 3.41,3.33 3.41,4.76 0,1.57 -0.93,2.57 -2.15,2.57 -1.44,0 -1.9,-1.29 -1.9,-1.57 0,-0.14 0.08,-0.35 0.38,-0.35 0.32,0 0.53,0.3 0.53,0.53 0,0.34 -0.31,0.34 -0.47,0.34 0.44,0.74 1.15,0.8 1.44,0.8 0.72,0 1.42,-0.52 1.42,-1.8 0,-0.39 -0.06,-0.89 -0.27,-1.7 z"
         id="path4624" /><path
         style="fill:#000000;stroke-width:0"
         inkscape:connector-curvature="0"
         d="m 253.82,662.98 0.02,0.07 0.01,0.04 0.01,0.03 0.01,0.04 0.02,0.03 0.01,0.04 0.02,0.03 0.01,0.03 0.02,0.03 0.02,0.03 0.02,0.03 0.03,0.03 0.02,0.03 0.03,0.02 0.03,0.03 0.03,0.02 0.03,0.02 0.03,0.02 0.04,0.02 0.04,0.02 0.04,0.02 0.05,0.02 0.04,0.01 0.05,0.02 0.06,0.01 0.05,0.01 0.06,0.01 0.07,0.01 h 0.06 l 0.07,0.01 h 0.04 0.03 c 0.05,0 0.17,0.01 0.17,0.2 0,0.01 0,0.11 -0.13,0.11 -0.32,0 -0.67,-0.03 -1.01,-0.03 -0.34,0 -0.71,0.03 -1.04,0.03 -0.06,0 -0.17,0 -0.17,-0.2 0,-0.11 0.09,-0.11 0.17,-0.11 0.57,-0.01 0.68,-0.22 0.68,-0.43 0,-0.04 -0.02,-0.18 -0.03,-0.21 l -0.89,-3.55 c -0.34,-1.33 -1.49,-2.2 -2.48,-2.2 -0.68,0 -1.21,0.44 -1.21,1.3 0,0.02 0,0.33 0.1,0.77 l 0.97,3.87 c 0.09,0.35 0.11,0.45 0.83,0.45 0.26,0 0.34,0 0.34,0.2 0,0.11 -0.11,0.11 -0.14,0.11 -0.28,0 -0.99,-0.03 -1.27,-0.03 -0.29,0 -0.99,0.03 -1.28,0.03 -0.08,0 -0.19,0 -0.19,-0.2 0,-0.11 0.09,-0.11 0.28,-0.11 0.02,0 0.2,0 0.37,-0.02 0.18,-0.02 0.27,-0.03 0.27,-0.16 0,-0.06 -0.11,-0.47 -0.17,-0.7 l -0.21,-0.88 c -0.09,-0.38 -0.57,-2.26 -0.61,-2.45 -0.07,-0.28 -0.07,-0.43 -0.07,-0.58 0,-1.21 0.9,-1.9 1.95,-1.9 1.25,0 2.49,1.12 2.81,2.43 z"
         id="path4626" /></g>
    <path
       sodipodi:nodetypes="czzc"
       inkscape:connector-curvature="0"
       id="path5051"
       d="m 344.32668,263.8051 c 0,0 -78.43574,-15.18358 -73.08908,-34.68634 5.34666,-19.50276 35.07265,23.17163 40.26093,3.7164 5.18828,-19.45523 -73.08907,-33.44755 -73.08907,-33.44755"
       style="fill:none;stroke:#000000;stroke-width:0.25;stroke-linecap:butt;stroke-linejoin:miter;stroke-miterlimit:4;stroke-dasharray:none;stroke-opacity:1" />
    <path
       sodipodi:nodetypes="czc"
       inkscape:connector-curvature="0"
       id="path5053"
       d="m 282.03573,305.44223 c 0,0 31.76395,23.80132 47.65615,28.96901 15.8922,5.16769 59.23152,6.81873 59.23152,6.81873"
       style="fill:none;stroke:#000000;stroke-width:0.25;stroke-linecap:butt;stroke-linejoin:miter;stroke-miterlimit:4;stroke-dasharray:none;stroke-opacity:1" />
    <path
       style="fill:none;stroke:#000000;stroke-width:2.25;stroke-linecap:butt;stroke-linejoin:miter;stroke-miterlimit:4;stroke-dasharray:none;stroke-opacity:1;marker-end:url(#Arrow1Lend)"
       d="M 238.5863,199.38947 411.9181,93.859148"
       id="path5057"
       inkscape:connector-curvature="0"
       sodipodi:nodetypes="cc" />
    <path
       sodipodi:nodetypes="cc"
       inkscape:connector-curvature="0"
       id="path5065"
       d="M 440.07373,194.8704 336.01471,18.341705"
       style="fill:none;stroke:#000000;stroke-width:1;stroke-linecap:butt;stroke-linejoin:miter;stroke-miterlimit:4;stroke-dasharray:1, 1;stroke-dashoffset:0;stroke-opacity:1;marker-end:none" />
    <g
       style="font-style:normal;font-variant:normal;font-weight:normal;font-stretch:normal;letter-spacing:normal;word-spacing:normal;text-anchor:start;fill:none;stroke:#000000;stroke-linecap:butt;stroke-linejoin:miter;stroke-miterlimit:10.433;stroke-dasharray:none;stroke-dashoffset:0;stroke-opacity:1"
       ns0:preamble="/home/jeremy/papers/2011-enief/inkscape.tex"
       ns0:text="$\\boldsymbol{\\hat\\Omega}$"
       text-anchor="start"
       word-spacing="normal"
       letter-spacing="normal"
       font-size-adjust="none"
       font-stretch="normal"
       font-weight="normal"
       font-variant="normal"
       font-style="normal"
       fill-opacity="1"
       fill-rule="evenodd"
       fill="none"
       stroke-opacity="1"
       stroke-dashoffset="0"
       stroke-dasharray="none"
       stroke-miterlimit="10.433"
       stroke-linejoin="miter"
       stroke-linecap="butt"
       stroke="black"
       xml:space="preserve"
       transform="matrix(1.4645283,-2.6182355,-2.6182355,-1.4645283,1670.5282,1655.6914)"
       id="g3110"><polygon
         id="polygon3112"
         fill="#000000"
         stroke-width="0"
         points="226.28,664.9 227.56,665.72 228.84,664.91 229.12,665.28 227.56,666.54 226,665.28 " /><path
         id="path3114"
         fill="#000000"
         stroke-width="0"
         d="m 231.18,659.22 h -0.47 c -0.01,-0.14 -0.09,-0.56 -0.16,-0.73 -0.05,-0.13 -0.09,-0.23 -0.69,-0.23 h -0.72 c 0.21,0.45 0.49,0.79 0.8,1.18 0.56,0.72 1.11,1.43 1.11,2.34 0,1.07 -0.89,2.38 -3.49,2.38 -2.6,0 -3.49,-1.31 -3.49,-2.38 0,-0.92 0.57,-1.63 1.11,-2.32 0.35,-0.45 0.6,-0.79 0.8,-1.2 h -0.72 c -0.58,0 -0.62,0.1 -0.67,0.2 -0.07,0.18 -0.16,0.66 -0.18,0.76 h -0.47 l 0.37,-1.99 h 1.9 c 0.22,0 0.32,0 0.32,0.27 0,0.7 -0.3,1.61 -0.45,2.05 -0.26,0.78 -0.49,1.5 -0.49,2.23 0,0.38 0.05,1.09 0.54,1.54 0.49,0.43 1.13,0.48 1.43,0.48 0.52,0 1.09,-0.15 1.44,-0.51 0.3,-0.28 0.53,-0.72 0.53,-1.51 0,-0.7 -0.21,-1.38 -0.46,-2.11 -0.19,-0.6 -0.47,-1.47 -0.47,-2.17 0,-0.27 0.1,-0.27 0.31,-0.27 h 1.9 z" /></g>
    <g
       style="font-style:normal;font-variant:normal;font-weight:normal;font-stretch:normal;letter-spacing:normal;word-spacing:normal;text-anchor:start;fill:none;stroke:#000000;stroke-linecap:butt;stroke-linejoin:miter;stroke-miterlimit:10.433;stroke-dasharray:none;stroke-dashoffset:0;stroke-opacity:1"
       ns0:preamble="/home/jeremy/papers/2011-enief/inkscape.tex"
       ns0:text="$\\boldsymbol{\\hat\\Omega} \\cdot \\mathbf{\\hat{n}}$"
       text-anchor="start"
       word-spacing="normal"
       letter-spacing="normal"
       font-size-adjust="none"
       font-stretch="normal"
       font-weight="normal"
       font-variant="normal"
       font-style="normal"
       fill-opacity="1"
       fill-rule="evenodd"
       fill="none"
       stroke-opacity="1"
       stroke-dashoffset="0"
       stroke-dasharray="none"
       stroke-miterlimit="10.433"
       stroke-linejoin="miter"
       stroke-linecap="butt"
       stroke="black"
       xml:space="preserve"
       transform="matrix(1.5802995,-1.0303664,-1.0303664,-1.5802995,611.57205,1415.3172)"
       id="content"><polygon
         id="polygon3108"
         fill="#000000"
         stroke-width="0"
         points="226.28,664.9 227.56,665.72 228.84,664.91 229.12,665.28 227.56,666.54 226,665.28 " /><path
         id="path3110"
         fill="#000000"
         stroke-width="0"
         d="m 231.18,659.22 h -0.47 c -0.01,-0.14 -0.09,-0.56 -0.16,-0.73 -0.05,-0.13 -0.09,-0.23 -0.69,-0.23 h -0.72 c 0.21,0.45 0.49,0.79 0.8,1.18 0.56,0.72 1.11,1.43 1.11,2.34 0,1.07 -0.89,2.38 -3.49,2.38 -2.6,0 -3.49,-1.31 -3.49,-2.38 0,-0.92 0.57,-1.63 1.11,-2.32 0.35,-0.45 0.6,-0.79 0.8,-1.2 h -0.72 c -0.58,0 -0.62,0.1 -0.67,0.2 -0.07,0.18 -0.16,0.66 -0.18,0.76 h -0.47 l 0.37,-1.99 h 1.9 c 0.22,0 0.32,0 0.32,0.27 0,0.7 -0.3,1.61 -0.45,2.05 -0.26,0.78 -0.49,1.5 -0.49,2.23 0,0.38 0.05,1.09 0.54,1.54 0.49,0.43 1.13,0.48 1.43,0.48 0.52,0 1.09,-0.15 1.44,-0.51 0.3,-0.28 0.53,-0.72 0.53,-1.51 0,-0.7 -0.21,-1.38 -0.46,-2.11 -0.19,-0.6 -0.47,-1.47 -0.47,-2.17 0,-0.27 0.1,-0.27 0.31,-0.27 h 1.9 z" /><path
         id="path3112"
         fill="#000000"
         stroke-width="0"
         d="m 235.83,659.72 v 0.02 0.03 l -0.01,0.03 v 0.02 l -0.01,0.03 v 0.02 l -0.01,0.03 -0.01,0.02 -0.01,0.03 -0.01,0.02 -0.02,0.02 -0.01,0.02 -0.02,0.02 -0.01,0.02 -0.02,0.02 -0.02,0.02 -0.01,0.02 -0.02,0.01 -0.02,0.02 -0.02,0.01 -0.03,0.02 -0.02,0.01 -0.02,0.01 -0.02,0.01 -0.03,0.01 -0.02,0.01 -0.03,0.01 h -0.02 l -0.03,0.01 h -0.02 -0.03 -0.03 c -0.29,0 -0.52,-0.23 -0.52,-0.52 0,-0.29 0.23,-0.53 0.52,-0.53 0.29,0 0.53,0.24 0.53,0.53 z" /><polygon
         id="polygon3114"
         fill="#000000"
         stroke-width="0"
         points="240.79,662.49 242.07,663.32 243.36,662.5 243.64,662.87 242.07,664.13 240.51,662.88 " /><path
         id="path3116"
         fill="#000000"
         stroke-width="0"
         d="m 240.04,660.77 v -3.07 h -0.69 v -0.47 c 0.28,0.01 0.87,0.04 1.25,0.04 0.39,0 0.98,-0.03 1.26,-0.04 v 0.47 h -0.69 v 2.08 c 0,1.08 0.85,1.57 1.48,1.57 0.34,0 0.55,-0.21 0.55,-0.97 v -2.68 h -0.69 v -0.47 c 0.28,0.01 0.88,0.04 1.26,0.04 0.38,0 0.97,-0.03 1.25,-0.04 v 0.47 h -0.69 v 2.58 c 0,1.04 -0.53,1.43 -1.53,1.43 -0.95,0 -1.48,-0.57 -1.74,-1.08 v 1.08 l -1.71,-0.08 v -0.47 c 0.62,0 0.69,0 0.69,-0.39 z" /></g>
    <g
       id="g3246"
       transform="matrix(3,0,0,-3,-253.18947,2067.0077)"
       xml:space="preserve"
       stroke="black"
       stroke-linecap="butt"
       stroke-linejoin="miter"
       stroke-miterlimit="10.433"
       stroke-dasharray="none"
       stroke-dashoffset="0"
       stroke-opacity="1"
       fill="none"
       fill-rule="evenodd"
       fill-opacity="1"
       font-style="normal"
       font-variant="normal"
       font-weight="normal"
       font-stretch="normal"
       font-size-adjust="none"
       letter-spacing="normal"
       word-spacing="normal"
       text-anchor="start"
       ns0:text="$\\mathbf{\\hat{n}}(\\mathbf{x})$"
       ns0:preamble="/home/jeremy/papers/2011-enief/inkscape.tex"
       style="font-style:normal;font-variant:normal;font-weight:normal;font-stretch:normal;letter-spacing:normal;word-spacing:normal;text-anchor:start;fill:none;stroke:#000000;stroke-linecap:butt;stroke-linejoin:miter;stroke-miterlimit:10.433;stroke-dasharray:none;stroke-dashoffset:0;stroke-opacity:1"><polygon
         points="225.32,662.49 226.6,663.32 227.89,662.5 228.17,662.87 226.6,664.13 225.04,662.88 "
         stroke-width="0"
         fill="#000000"
         id="polygon3248" /><path
         d="m 224.57,660.77 v -3.07 h -0.69 v -0.47 c 0.28,0.01 0.87,0.04 1.25,0.04 0.39,0 0.98,-0.03 1.26,-0.04 v 0.47 h -0.69 v 2.08 c 0,1.08 0.85,1.57 1.48,1.57 0.34,0 0.55,-0.21 0.55,-0.97 v -2.68 h -0.69 v -0.47 c 0.28,0.01 0.88,0.04 1.26,0.04 0.38,0 0.97,-0.03 1.25,-0.04 v 0.47 h -0.69 v 2.58 c 0,1.04 -0.53,1.43 -1.53,1.43 -0.95,0 -1.48,-0.57 -1.74,-1.08 v 1.08 l -1.71,-0.08 v -0.47 c 0.62,0 0.69,0 0.69,-0.39 z"
         stroke-width="0"
         fill="#000000"
         id="path3250" /><path
         d="m 233.09,654.85 v 0.01 0 0 0.01 0 0 0.01 h -0.01 v 0 0.01 0 0.01 h -0.01 v 0.01 h -0.01 v 0.01 l -0.01,0.01 v 0 0.01 h -0.01 v 0.01 0 h -0.01 v 0.01 h -0.01 v 0.01 h -0.01 v 0.01 H 233 v 0.01 h -0.01 V 655 l -0.01,0.01 v 0 l -0.01,0.01 -0.01,0.01 v 0 l -0.01,0.01 -0.01,0.01 v 0 l -0.01,0.01 -0.01,0.01 c -1.24,1.25 -1.56,3.13 -1.56,4.65 0,1.73 0.38,3.45 1.6,4.7 0.13,0.12 0.13,0.14 0.13,0.17 0,0.07 -0.04,0.09 -0.1,0.09 -0.1,0 -0.99,-0.67 -1.58,-1.93 -0.51,-1.09 -0.63,-2.2 -0.63,-3.03 0,-0.78 0.11,-1.98 0.66,-3.1 0.6,-1.22 1.45,-1.87 1.55,-1.87 0.06,0 0.1,0.03 0.1,0.1 z"
         stroke-width="0"
         fill="#000000"
         id="path3252" /><path
         d="m 237.11,659.68 1.17,1.29 c 0.13,0.14 0.19,0.21 1.01,0.21 v 0.47 c -0.35,-0.02 -0.86,-0.03 -0.91,-0.03 -0.25,0 -0.75,0.02 -1.03,0.03 v -0.47 c 0.14,0 0.26,-0.02 0.38,-0.09 -0.04,-0.06 -0.04,-0.08 -0.08,-0.12 l -0.83,-0.93 -0.98,1.14 h 0.4 v 0.47 c -0.26,-0.01 -0.89,-0.03 -1.21,-0.03 -0.31,0 -0.76,0.02 -1.09,0.03 v -0.47 h 0.71 l 1.55,-1.83 -1.3,-1.46 c -0.17,-0.19 -0.53,-0.19 -1.01,-0.19 v -0.47 c 0.35,0.03 0.87,0.04 0.91,0.04 0.25,0 0.83,-0.03 1.03,-0.04 v 0.47 c -0.18,0 -0.37,0.05 -0.37,0.11 0,0.01 0,0.02 0.07,0.1 l 0.97,1.08 1.09,-1.29 h -0.39 v -0.47 c 0.26,0.01 0.87,0.04 1.2,0.04 0.31,0 0.76,-0.03 1.09,-0.04 v 0.47 h -0.7 z"
         stroke-width="0"
         fill="#000000"
         id="path3254" /><path
         d="m 242.59,659.72 v 0.07 0.08 0.08 0.08 l -0.01,0.17 -0.01,0.17 -0.02,0.18 -0.02,0.19 -0.03,0.2 -0.03,0.2 -0.04,0.2 -0.05,0.21 -0.05,0.21 -0.06,0.21 -0.07,0.21 -0.08,0.21 -0.04,0.11 -0.05,0.11 -0.04,0.1 -0.05,0.11 c -0.6,1.22 -1.46,1.86 -1.56,1.86 -0.06,0 -0.09,-0.03 -0.09,-0.09 0,-0.03 0,-0.05 0.18,-0.23 0.98,-0.99 1.55,-2.57 1.55,-4.64 0,-1.7 -0.37,-3.45 -1.61,-4.7 -0.12,-0.12 -0.12,-0.14 -0.12,-0.17 0,-0.06 0.03,-0.1 0.09,-0.1 0.1,0 1,0.68 1.59,1.94 0.5,1.09 0.62,2.19 0.62,3.03 z"
         stroke-width="0"
         fill="#000000"
         id="path3256" /></g>
    <g
       style="font-style:normal;font-variant:normal;font-weight:normal;font-stretch:normal;letter-spacing:normal;word-spacing:normal;text-anchor:start;fill:none;stroke:#000000;stroke-linecap:butt;stroke-linejoin:miter;stroke-miterlimit:10.433;stroke-dasharray:none;stroke-dashoffset:0;stroke-opacity:1"
       ns0:preamble="/home/jeremy/papers/2011-enief/inkscape.tex"
       ns0:text="$\\boldsymbol{\\hat\\Omega^{\\prime}} = \\boldsymbol{\\hat\\Omega} - 2 \\left(\\boldsymbol{\\hat\\Omega} \\cdot \\mathbf{\\hat{n}}\\right) \\mathbf{\\hat{n}}$"
       text-anchor="start"
       word-spacing="normal"
       letter-spacing="normal"
       font-size-adjust="none"
       font-stretch="normal"
       font-weight="normal"
       font-variant="normal"
       font-style="normal"
       fill-opacity="1"
       fill-rule="evenodd"
       fill="none"
       stroke-opacity="1"
       stroke-dashoffset="0"
       stroke-dasharray="none"
       stroke-miterlimit="10.433"
       stroke-linejoin="miter"
       stroke-linecap="butt"
       stroke="black"
       xml:space="preserve"
       transform="matrix(3,0,0,-3,-234.54838,2190.5612)"
       id="g3373"><polygon
         id="polygon3375"
         fill="#000000"
         stroke-width="0"
         points="226.28,663.4 227.56,664.23 228.84,663.41 229.12,663.78 227.56,665.04 226,663.79 " /><path
         id="path3377"
         fill="#000000"
         stroke-width="0"
         d="m 231.18,657.73 h -0.47 c -0.01,-0.14 -0.09,-0.56 -0.16,-0.74 -0.05,-0.13 -0.09,-0.23 -0.69,-0.23 h -0.72 c 0.21,0.45 0.49,0.8 0.8,1.19 0.56,0.71 1.11,1.43 1.11,2.33 0,1.07 -0.89,2.38 -3.49,2.38 -2.6,0 -3.49,-1.31 -3.49,-2.38 0,-0.91 0.57,-1.63 1.11,-2.31 0.35,-0.45 0.6,-0.79 0.8,-1.21 h -0.72 c -0.58,0 -0.62,0.1 -0.67,0.2 -0.07,0.18 -0.16,0.67 -0.18,0.77 h -0.47 l 0.37,-1.99 h 1.9 c 0.22,0 0.32,0 0.32,0.27 0,0.7 -0.3,1.61 -0.45,2.05 -0.26,0.78 -0.49,1.5 -0.49,2.22 0,0.39 0.05,1.09 0.54,1.54 0.49,0.44 1.13,0.49 1.43,0.49 0.52,0 1.09,-0.15 1.44,-0.51 0.3,-0.29 0.53,-0.72 0.53,-1.52 0,-0.69 -0.21,-1.37 -0.46,-2.11 -0.19,-0.59 -0.47,-1.46 -0.47,-2.16 0,-0.27 0.1,-0.27 0.31,-0.27 h 1.9 z" /><path
         id="path3379"
         fill="#000000"
         stroke-width="0"
         d="m 234.16,662.41 0.01,0.02 0.01,0.01 v 0.02 l 0.01,0.01 0.01,0.02 0.01,0.01 v 0.02 l 0.01,0.02 v 0.01 0 l 0.01,0.01 v 0.01 0.01 0.01 0.01 l 0.01,0.01 v 0.01 0.01 0.02 0.01 0.01 0.01 0.01 0.02 c 0,0.36 -0.33,0.55 -0.58,0.55 -0.2,0 -0.41,-0.11 -0.51,-0.39 l -1.08,-2.9 c -0.04,-0.09 -0.04,-0.11 -0.04,-0.13 0,-0.02 0,-0.07 0.07,-0.12 0.07,-0.03 0.37,-0.17 0.41,-0.17 0.08,0 0.09,0.04 0.14,0.13 z" /><path
         id="path3381"
         fill="#000000"
         stroke-width="0"
         d="m 244.51,658.99 h 0.03 0.03 0.03 0.01 0.02 0.01 l 0.02,0.01 h 0.01 0.01 0.02 l 0.01,0.01 h 0.01 0.02 l 0.01,0.01 h 0.01 l 0.01,0.01 0.01,0.01 0.01,0.01 h 0.01 l 0.01,0.01 0.01,0.01 v 0.01 0 l 0.01,0.01 v 0.01 0 l 0.01,0.01 v 0.01 0 0.01 0.01 h 0.01 v 0.01 0.01 0.01 0.01 0.01 c 0,0.2 -0.19,0.2 -0.33,0.2 h -5.96 c -0.14,0 -0.33,0 -0.33,-0.2 0,-0.2 0.19,-0.2 0.34,-0.2 z" /><path
         id="path3383"
         fill="#000000"
         stroke-width="0"
         d="m 244.52,657.06 h 0.01 0.02 0.03 0.02 0.02 l 0.01,0.01 h 0.01 0.02 0.01 0.02 l 0.01,0.01 h 0.01 0.01 l 0.02,0.01 h 0.01 l 0.01,0.01 h 0.01 l 0.01,0.01 0.01,0.01 0.01,0.01 0.01,0.01 v 0 l 0.01,0.01 v 0 0.01 h 0.01 v 0.01 0.01 h 0.01 v 0.01 0.01 0 0.01 l 0.01,0.01 v 0.01 0 0.01 0.01 0.01 c 0,0.2 -0.19,0.2 -0.34,0.2 h -5.94 c -0.15,0 -0.34,0 -0.34,-0.2 0,-0.2 0.19,-0.2 0.33,-0.2 z" /><polygon
         id="polygon3385"
         fill="#000000"
         stroke-width="0"
         points="251.04,663.4 252.32,664.23 253.6,663.41 253.88,663.78 252.32,665.04 250.76,663.79 " /><path
         id="path3387"
         fill="#000000"
         stroke-width="0"
         d="m 255.94,657.73 h -0.46 c -0.02,-0.14 -0.1,-0.56 -0.17,-0.74 -0.05,-0.13 -0.09,-0.23 -0.69,-0.23 h -0.72 c 0.21,0.45 0.49,0.8 0.8,1.19 0.56,0.71 1.11,1.43 1.11,2.33 0,1.07 -0.89,2.38 -3.49,2.38 -2.6,0 -3.49,-1.31 -3.49,-2.38 0,-0.91 0.57,-1.63 1.11,-2.31 0.35,-0.45 0.6,-0.79 0.8,-1.21 h -0.72 c -0.58,0 -0.62,0.1 -0.67,0.2 -0.07,0.18 -0.16,0.67 -0.18,0.77 h -0.47 l 0.37,-1.99 h 1.9 c 0.22,0 0.32,0 0.32,0.27 0,0.7 -0.3,1.61 -0.45,2.05 -0.26,0.78 -0.49,1.5 -0.49,2.22 0,0.39 0.05,1.09 0.54,1.54 0.49,0.44 1.13,0.49 1.43,0.49 0.52,0 1.08,-0.15 1.44,-0.51 0.3,-0.29 0.53,-0.72 0.53,-1.52 0,-0.69 -0.21,-1.37 -0.46,-2.11 -0.19,-0.59 -0.47,-1.46 -0.47,-2.16 0,-0.27 0.1,-0.27 0.31,-0.27 h 1.9 z" /><path
         id="path3389"
         fill="#000000"
         stroke-width="0"
         d="m 265.24,658.03 h 0.03 0.03 0.03 0.02 0.01 0.02 0.01 0.02 l 0.01,0.01 h 0.02 0.01 l 0.01,0.01 h 0.01 l 0.02,0.01 h 0.01 l 0.01,0.01 h 0.01 l 0.01,0.01 0.01,0.01 0.01,0.01 v 0.01 h 0.01 v 0.01 0.01 h 0.01 v 0.01 0 0.01 l 0.01,0.01 v 0.01 0 0.01 0.01 0.01 0.01 0 0.01 c 0,0.2 -0.17,0.2 -0.34,0.2 h -5.39 c -0.17,0 -0.34,0 -0.34,-0.2 0,-0.19 0.17,-0.19 0.34,-0.19 z" /><path
         id="path3391"
         fill="#000000"
         stroke-width="0"
         d="m 269.91,656.51 1.05,1.02 c 1.55,1.37 2.15,1.91 2.15,2.9 0,1.13 -0.9,1.93 -2.11,1.93 -1.12,0 -1.86,-0.92 -1.86,-1.8 0,-0.56 0.5,-0.56 0.53,-0.56 0.17,0 0.51,0.12 0.51,0.53 0,0.26 -0.17,0.52 -0.52,0.52 -0.08,0 -0.1,0 -0.13,-0.01 0.23,0.64 0.77,1.01 1.34,1.01 0.91,0 1.33,-0.81 1.33,-1.62 0,-0.79 -0.49,-1.58 -1.04,-2.2 l -1.91,-2.12 c -0.11,-0.11 -0.11,-0.13 -0.11,-0.37 h 3.69 l 0.28,1.73 h -0.25 c -0.05,-0.3 -0.12,-0.74 -0.22,-0.88 -0.07,-0.08 -0.72,-0.08 -0.94,-0.08 z" /><path
         id="path3393"
         fill="#000000"
         stroke-width="0"
         d="m 280.41,649.44 v 0 -0.01 0 0 0 h 0.01 v 0 0 0 0 l 0.01,-0.01 v 0 -0.01 h 0.01 v 0 l 0.01,-0.01 v 0 l 0.01,-0.01 v 0 l 0.01,-0.01 0.01,-0.01 v 0 l 0.01,-0.01 v 0 l 0.01,-0.01 v 0 0 l 0.01,-0.01 v 0 h 0.01 v -0.01 0 0 0 0 0 0 h 0.01 v 0 0 0 0 h 0.22 c 0.03,0 0.11,0.01 0.11,0.1 0,0.04 -0.02,0.05 -0.04,0.09 -0.36,0.35 -0.9,0.9 -1.52,1.99 -1.07,1.91 -1.47,4.36 -1.47,6.75 0,4.41 1.26,7 3,8.76 0.03,0.03 0.03,0.06 0.03,0.08 0,0.1 -0.07,0.1 -0.19,0.1 -0.13,0 -0.15,0 -0.24,-0.08 -0.95,-0.82 -2.01,-2.2 -2.7,-4.29 -0.43,-1.31 -0.65,-2.91 -0.65,-4.56 0,-2.36 0.42,-5.02 1.99,-7.32 0.26,-0.39 0.63,-0.8 0.63,-0.81 0.1,-0.12 0.24,-0.28 0.32,-0.35 z" /><polygon
         id="polygon3395"
         fill="#000000"
         stroke-width="0"
         points="284.08,663.4 285.36,664.23 286.65,663.41 286.92,663.78 285.36,665.04 283.8,663.79 " /><path
         id="path3397"
         fill="#000000"
         stroke-width="0"
         d="m 288.98,657.73 h -0.46 c -0.02,-0.14 -0.1,-0.56 -0.17,-0.74 -0.05,-0.13 -0.09,-0.23 -0.69,-0.23 h -0.71 c 0.2,0.45 0.48,0.8 0.79,1.19 0.56,0.71 1.12,1.43 1.12,2.33 0,1.07 -0.9,2.38 -3.5,2.38 -2.59,0 -3.49,-1.31 -3.49,-2.38 0,-0.91 0.57,-1.63 1.11,-2.31 0.35,-0.45 0.6,-0.79 0.8,-1.21 h -0.71 c -0.59,0 -0.63,0.1 -0.68,0.2 -0.07,0.18 -0.16,0.67 -0.18,0.77 h -0.47 l 0.37,-1.99 h 1.9 c 0.22,0 0.32,0 0.32,0.27 0,0.7 -0.3,1.61 -0.45,2.05 -0.26,0.78 -0.49,1.5 -0.49,2.22 0,0.39 0.05,1.09 0.54,1.54 0.49,0.44 1.13,0.49 1.43,0.49 0.52,0 1.09,-0.15 1.45,-0.51 0.29,-0.29 0.52,-0.72 0.52,-1.52 0,-0.69 -0.21,-1.37 -0.45,-2.11 -0.19,-0.59 -0.48,-1.46 -0.48,-2.16 0,-0.27 0.1,-0.27 0.32,-0.27 h 1.9 z" /><path
         id="path3399"
         fill="#000000"
         stroke-width="0"
         d="m 293.63,658.22 v 0.03 0.03 0.02 l -0.01,0.03 v 0.03 l -0.01,0.02 -0.01,0.02 -0.01,0.03 -0.01,0.02 -0.01,0.02 -0.01,0.03 -0.02,0.02 -0.01,0.02 -0.02,0.02 -0.01,0.02 -0.02,0.02 -0.02,0.01 -0.02,0.02 -0.02,0.02 -0.02,0.01 -0.02,0.01 -0.02,0.02 -0.03,0.01 -0.02,0.01 -0.02,0.01 -0.03,0.01 h -0.02 l -0.03,0.01 h -0.02 l -0.03,0.01 h -0.03 -0.02 c -0.29,0 -0.53,-0.24 -0.53,-0.53 0,-0.28 0.24,-0.52 0.53,-0.52 0.28,0 0.52,0.24 0.52,0.52 z" /><polygon
         id="polygon3401"
         fill="#000000"
         stroke-width="0"
         points="298.59,661 299.88,661.82 301.16,661.01 301.44,661.37 299.88,662.64 298.32,661.38 " /><path
         id="path3403"
         fill="#000000"
         stroke-width="0"
         d="m 297.84,659.28 v -3.07 h -0.69 v -0.47 c 0.28,0.01 0.88,0.03 1.25,0.03 0.39,0 0.98,-0.02 1.26,-0.03 v 0.47 h -0.69 v 2.07 c 0,1.09 0.86,1.57 1.48,1.57 0.34,0 0.55,-0.2 0.55,-0.96 v -2.68 h -0.68 v -0.47 c 0.27,0.01 0.87,0.03 1.25,0.03 0.39,0 0.97,-0.02 1.25,-0.03 v 0.47 h -0.68 v 2.57 c 0,1.04 -0.54,1.43 -1.54,1.43 -0.95,0 -1.48,-0.56 -1.74,-1.07 v 1.07 l -1.71,-0.08 v -0.47 c 0.62,0 0.69,0 0.69,-0.38 z" /><path
         id="path3405"
         fill="#000000"
         stroke-width="0"
         d="m 307.21,658.27 -0.01,0.53 -0.02,0.54 -0.05,0.54 -0.06,0.54 -0.08,0.54 -0.1,0.54 -0.12,0.53 -0.14,0.53 -0.17,0.51 -0.09,0.26 -0.1,0.25 -0.1,0.26 -0.11,0.24 -0.12,0.25 -0.12,0.24 -0.13,0.24 -0.14,0.24 -0.14,0.23 -0.15,0.23 -0.16,0.22 -0.17,0.22 -0.17,0.22 -0.18,0.21 c -0.14,0.16 -0.51,0.55 -0.75,0.76 -0.06,0.06 -0.08,0.06 -0.21,0.06 -0.1,0 -0.19,0 -0.19,-0.1 0,-0.04 0.04,-0.08 0.06,-0.1 0.34,-0.35 0.87,-0.9 1.49,-1.99 1.07,-1.91 1.47,-4.36 1.47,-6.74 0,-4.31 -1.19,-6.95 -2.98,-8.76 -0.02,-0.03 -0.04,-0.05 -0.04,-0.08 0,-0.1 0.09,-0.1 0.19,-0.1 0.13,0 0.15,0 0.24,0.08 0.94,0.81 2,2.19 2.69,4.29 0.44,1.36 0.66,2.97 0.66,4.57 z" /><polygon
         id="polygon3407"
         fill="#000000"
         stroke-width="0"
         points="312.57,661 313.85,661.82 315.14,661.01 315.42,661.37 313.85,662.64 312.29,661.38 " /><path
         id="path3409"
         fill="#000000"
         stroke-width="0"
         d="m 311.81,659.28 v -3.07 h -0.68 v -0.47 c 0.28,0.01 0.87,0.03 1.25,0.03 0.39,0 0.98,-0.02 1.25,-0.03 v 0.47 h -0.68 v 2.07 c 0,1.09 0.85,1.57 1.48,1.57 0.34,0 0.55,-0.2 0.55,-0.96 v -2.68 h -0.69 v -0.47 c 0.28,0.01 0.88,0.03 1.25,0.03 0.39,0 0.98,-0.02 1.26,-0.03 v 0.47 h -0.69 v 2.57 c 0,1.04 -0.54,1.43 -1.53,1.43 -0.96,0 -1.48,-0.56 -1.74,-1.07 v 1.07 l -1.71,-0.08 v -0.47 c 0.61,0 0.68,0 0.68,-0.38 z" /></g>
  </g>
</svg>
