<?xml version="1.0" encoding="UTF-8" standalone="no"?>
<!-- Created with Inkscape (http://www.inkscape.org/) -->

<svg
   xmlns:ns0="http://www.iki.fi/pav/software/textext/"
   xmlns:dc="http://purl.org/dc/elements/1.1/"
   xmlns:cc="http://creativecommons.org/ns#"
   xmlns:rdf="http://www.w3.org/1999/02/22-rdf-syntax-ns#"
   xmlns:svg="http://www.w3.org/2000/svg"
   xmlns="http://www.w3.org/2000/svg"
   xmlns:xlink="http://www.w3.org/1999/xlink"
   xmlns:sodipodi="http://sodipodi.sourceforge.net/DTD/sodipodi-0.dtd"
   xmlns:inkscape="http://www.inkscape.org/namespaces/inkscape"
   width="744.09448819"
   height="1052.3622047"
   id="svg2"
   version="1.1"
   inkscape:version="0.48.5 r10040"
   sodipodi:docname="reflejado.svg">
  <sodipodi:namedview
     id="base"
     pagecolor="#ffffff"
     bordercolor="#666666"
     borderopacity="1.0"
     inkscape:pageopacity="0.0"
     inkscape:pageshadow="2"
     inkscape:zoom="1.0735014"
     inkscape:cx="384.61974"
     inkscape:cy="878.1506"
     inkscape:document-units="px"
     inkscape:current-layer="layer1"
     showgrid="false"
     inkscape:window-width="1920"
     inkscape:window-height="1025"
     inkscape:window-x="-4"
     inkscape:window-y="-3"
     inkscape:window-maximized="1" />
  <defs
     id="defs4">
    <marker
       style="overflow:visible;"
       id="Arrow1Lend"
       refX="0.0"
       refY="0.0"
       orient="auto"
       inkscape:stockid="Arrow1Lend">
      <path
         transform="scale(0.8) rotate(180) translate(12.5,0)"
         style="fill-rule:evenodd;stroke:#000000;stroke-width:1.0pt;"
         d="M 0.0,0.0 L 5.0,-5.0 L -12.5,0.0 L 5.0,5.0 L 0.0,0.0 z "
         id="path3792" />
    </marker>
    <linearGradient
       id="linearGradient3761">
      <stop
         id="stop3763"
         offset="0"
         style="stop-color:#4fac61;stop-opacity:0.82526314;" />
      <stop
         id="stop3765"
         offset="1"
         style="stop-color:#ffffff;stop-opacity:0;" />
    </linearGradient>
    <filter
       id="filter3781"
       inkscape:collect="always">
      <feGaussianBlur
         id="feGaussianBlur3783"
         stdDeviation="1.5465391"
         inkscape:collect="always" />
    </filter>
    <linearGradient
       gradientTransform="translate(-135.70749,53.206055)"
       y2="369.16516"
       x2="180.24509"
       y1="46.458309"
       x1="421.81067"
       gradientUnits="userSpaceOnUse"
       id="linearGradient5055"
       xlink:href="#linearGradient3761"
       inkscape:collect="always" />
  </defs>
  <metadata
     id="metadata7">
    <rdf:RDF>
      <cc:Work
         rdf:about="">
        <dc:format>image/svg+xml</dc:format>
        <dc:type
           rdf:resource="http://purl.org/dc/dcmitype/StillImage" />
        <dc:title />
      </cc:Work>
    </rdf:RDF>
  </metadata>
  <g
     id="layer1"
     inkscape:groupmode="layer"
     inkscape:label="Layer 1">
    <path
       style="fill:url(#linearGradient5055);fill-opacity:1;stroke:none;filter:url(#filter3781)"
       d="m 86.656721,80.463016 c 0,0 89.346729,49.871124 119.543999,81.141264 30.19727,31.27014 46.39655,60.59209 61.93989,98.48443 15.54334,37.89234 27.87295,126.35738 27.87295,126.35738 0,0 -19.49972,33.68183 -32.20875,39.82077 -12.70903,6.13893 -39.52074,13.94143 -56.9847,9.29098 -17.46396,-4.65046 -23.43398,-34.31429 -44.59672,-40.26093 -21.16274,-5.94664 -29.84081,21.75441 -56.9847,12.38798 -27.143889,-9.36643 -55.496529,-61.58988 -53.887709,-91.05164 1.60882,-29.46176 19.47214,-38.39988 19.82077,-67.51448 0.34863,-29.11461 -34.37317,-41.31974 -37.16394,-73.70848 -2.79077,-32.38874 52.64891,-94.947274 52.64891,-94.947274 z"
       id="path3759"
       inkscape:connector-curvature="0"
       sodipodi:nodetypes="czzczzzzzzzc" />
    <path
       sodipodi:nodetypes="czzc"
       inkscape:connector-curvature="0"
       id="path2985"
       d="m 86.656721,80.463016 c 0,0 89.346729,49.871124 119.543999,81.141264 30.19727,31.27014 46.39655,60.59209 61.93989,98.48443 15.54334,37.89234 27.87295,126.35738 27.87295,126.35738"
       style="fill:none;stroke:#656669;stroke-width:4;stroke-linecap:butt;stroke-linejoin:miter;stroke-miterlimit:4;stroke-opacity:1;stroke-dasharray:none" />
    <path
       style="fill:none;stroke:#000000;stroke-width:1;stroke-linecap:butt;stroke-linejoin:miter;stroke-miterlimit:4;stroke-opacity:1;stroke-dasharray:1, 1;stroke-dashoffset:0;marker-end:none"
       d="M 282.12701,273.53407 182.40378,109.39335"
       id="path4229"
       inkscape:connector-curvature="0" />
    <path
       sodipodi:nodetypes="cc"
       inkscape:connector-curvature="0"
       id="path4419"
       d="M 336.61661,18.966686 239.27204,197.02453"
       style="fill:none;stroke:#000000;stroke-width:2.25;stroke-linecap:butt;stroke-linejoin:miter;stroke-miterlimit:4;stroke-opacity:1;stroke-dasharray:none;marker-end:url(#Arrow1Lend)" />
    <g
       style="font-style:normal;font-variant:normal;font-weight:normal;font-stretch:normal;letter-spacing:normal;word-spacing:normal;text-anchor:start;opacity:0.5;fill:#b9bebe;fill-opacity:1;stroke:#bfbebd;stroke-linecap:butt;stroke-linejoin:miter;stroke-miterlimit:10.43299961;stroke-opacity:1;stroke-dasharray:none;stroke-dashoffset:0"
       id="g5280"
       transform="matrix(2.1387594,3.1379734,14.501445,-8.904801,-9739.988,5310.7499)"
       xml:space="preserve"
       stroke-miterlimit="10.433"
       font-style="normal"
       font-variant="normal"
       font-weight="normal"
       font-stretch="normal"
       font-size-adjust="none"
       letter-spacing="normal"
       word-spacing="normal"
       ns0:text="$\\{$"
       ns0:preamble="/home/jeremy/papers/2011-enief/inkscape.tex"><path
         style="fill:#b9bebe;fill-opacity:1;stroke:#bfbebd;stroke-width:0;stroke-opacity:1"
         inkscape:connector-curvature="0"
         d="m 226.25,663.36 0,0.04 0,0.04 0.01,0.04 0,0.04 0.01,0.04 0.01,0.05 0.01,0.04 0.02,0.04 0.01,0.05 0.02,0.04 0.02,0.05 0.03,0.04 0.02,0.04 0.03,0.05 0.04,0.04 0.03,0.04 0.04,0.04 0.04,0.04 0.05,0.04 0.05,0.03 0.05,0.04 0.06,0.03 0.06,0.03 0.06,0.03 0.07,0.03 0.07,0.02 0.08,0.03 0.08,0.02 0.04,0 0.05,0.01 0.04,0.01 0.05,0.01 0.04,0 0.05,0.01 0.05,0 0.05,0.01 c 0.05,0.01 0.09,0.05 0.09,0.11 0,0.1 -0.08,0.1 -0.19,0.1 -0.99,0 -1.9,-0.5 -1.91,-1.24 v -2.26 c 0,-0.39 0,-0.71 -0.4,-1.03 -0.34,-0.29 -0.72,-0.31 -0.94,-0.32 -0.05,-0.01 -0.09,-0.05 -0.09,-0.11 0,-0.1 0.06,-0.1 0.16,-0.11 0.65,-0.04 1.13,-0.4 1.24,-0.89 0.03,-0.1 0.03,-0.12 0.03,-0.48 v -1.97 c 0,-0.42 0,-0.73 0.48,-1.11 0.39,-0.3 1.04,-0.41 1.43,-0.41 0.11,0 0.19,0 0.19,0.11 0,0.1 -0.06,0.1 -0.16,0.11 -0.63,0.04 -1.11,0.36 -1.24,0.86 -0.03,0.09 -0.03,0.11 -0.03,0.47 v 2.09 c 0,0.45 -0.08,0.62 -0.4,0.94 -0.21,0.21 -0.5,0.31 -0.78,0.39 0.82,0.23 1.18,0.68 1.18,1.26 z"
         id="path5282" /></g>    <path
       sodipodi:nodetypes="cc"
       inkscape:connector-curvature="0"
       id="path4421"
       d="m 237.39347,199.51573 200.21765,-4.58055"
       style="fill:none;stroke:#000000;stroke-width:2.25;stroke-linecap:butt;stroke-linejoin:miter;stroke-miterlimit:4;stroke-opacity:1;stroke-dasharray:none;marker-end:url(#Arrow1Lend)" />
    <g
       style="font-style:normal;font-variant:normal;font-weight:normal;font-stretch:normal;letter-spacing:normal;word-spacing:normal;text-anchor:start;fill:none;stroke:#000000;stroke-linecap:butt;stroke-linejoin:miter;stroke-miterlimit:10.43299961;stroke-opacity:1;stroke-dasharray:none;stroke-dashoffset:0"
       id="g4504"
       transform="matrix(3,0,0,-3,-562.89519,2287.1016)"
       xml:space="preserve"
       stroke-miterlimit="10.433"
       font-style="normal"
       font-variant="normal"
       font-weight="normal"
       font-stretch="normal"
       font-size-adjust="none"
       letter-spacing="normal"
       word-spacing="normal"
       ns0:text="$U$"
       ns0:preamble="/home/jeremy/papers/2011-enief/inkscape.tex"><path
         style="fill:#000000;stroke-width:0"
         inkscape:connector-curvature="0"
         d="m 229.75,662.98 0.02,0.07 0.01,0.04 0.01,0.03 0.01,0.04 0.02,0.03 0.01,0.04 0.02,0.03 0.01,0.03 0.02,0.03 0.02,0.03 0.02,0.03 0.03,0.03 0.02,0.03 0.03,0.02 0.03,0.03 0.03,0.02 0.03,0.02 0.03,0.02 0.04,0.02 0.04,0.02 0.04,0.02 0.05,0.02 0.04,0.01 0.05,0.02 0.06,0.01 0.05,0.01 0.06,0.01 0.07,0.01 0.06,0 0.07,0.01 0.04,0 0.03,0 c 0.05,0 0.17,0.01 0.17,0.2 0,0.01 0,0.11 -0.13,0.11 -0.32,0 -0.67,-0.03 -1.01,-0.03 -0.34,0 -0.71,0.03 -1.03,0.03 -0.06,0 -0.19,0 -0.19,-0.2 0,-0.11 0.11,-0.11 0.19,-0.11 0.56,-0.01 0.67,-0.22 0.67,-0.43 0,-0.04 -0.02,-0.18 -0.03,-0.21 l -0.89,-3.55 c -0.34,-1.33 -1.49,-2.2 -2.48,-2.2 -0.68,0 -1.21,0.44 -1.21,1.3 0,0.02 0,0.33 0.1,0.77 l 0.97,3.87 c 0.09,0.35 0.11,0.45 0.84,0.45 0.25,0 0.33,0 0.33,0.2 0,0.11 -0.11,0.11 -0.14,0.11 -0.27,0 -0.99,-0.03 -1.27,-0.03 -0.29,0 -1,0.03 -1.28,0.03 -0.08,0 -0.19,0 -0.19,-0.2 0,-0.11 0.09,-0.11 0.28,-0.11 0.02,0 0.21,0 0.38,-0.02 0.17,-0.02 0.26,-0.03 0.26,-0.16 0,-0.06 -0.11,-0.47 -0.17,-0.7 l -0.22,-0.88 c -0.08,-0.38 -0.56,-2.26 -0.6,-2.45 -0.07,-0.28 -0.07,-0.43 -0.07,-0.58 0,-1.21 0.9,-1.9 1.95,-1.9 1.25,0 2.49,1.12 2.81,2.43 z"
         id="path4506" /></g>    <g
       style="font-style:normal;font-variant:normal;font-weight:normal;font-stretch:normal;letter-spacing:normal;word-spacing:normal;text-anchor:start;fill:none;stroke:#000000;stroke-linecap:butt;stroke-linejoin:miter;stroke-miterlimit:10.43299961;stroke-opacity:1;stroke-dasharray:none;stroke-dashoffset:0"
       ns0:preamble="/home/jeremy/papers/2011-enief/inkscape.tex"
       ns0:text="$\\partial U$"
       word-spacing="normal"
       letter-spacing="normal"
       font-size-adjust="none"
       font-stretch="normal"
       font-weight="normal"
       font-variant="normal"
       font-style="normal"
       stroke-miterlimit="10.433"
       xml:space="preserve"
       transform="matrix(3,0,0,-3,-276.60082,2323.908)"
       id="g4556"><path
         id="path4558"
         d="m 228.04,660.6 -0.01,0.06 -0.01,0.06 -0.02,0.05 -0.01,0.06 -0.02,0.06 -0.02,0.05 -0.02,0.05 -0.02,0.06 -0.03,0.05 -0.03,0.05 -0.03,0.05 -0.03,0.04 -0.03,0.05 -0.03,0.05 -0.04,0.04 -0.04,0.04 -0.04,0.04 -0.04,0.04 -0.05,0.03 -0.04,0.04 -0.05,0.03 -0.05,0.03 -0.06,0.02 -0.05,0.03 -0.06,0.02 -0.06,0.02 -0.06,0.02 -0.06,0.01 -0.07,0.01 -0.06,0.01 -0.07,0 -0.07,0.01 v -0.22 c 1.08,0 1.1,-1.12 1.1,-1.32 0,-0.71 -0.64,-2.95 -2.17,-2.95 h 0 c -1.09,0 -1.09,1.03 -1.09,1.13 0,0.26 0.25,1.66 0.65,2.25 0.4,0.57 0.89,0.89 1.51,0.89 v 0.22 c -0.61,0 -1.26,-0.16 -2.03,-0.94 -0.83,-0.82 -0.9,-1.75 -0.9,-2.06 0,-0.61 0.44,-1.76 1.83,-1.76 2.37,0 3.4,3.33 3.4,4.76 0,1.57 -0.92,2.57 -2.15,2.57 -1.44,0 -1.9,-1.29 -1.9,-1.57 0,-0.14 0.08,-0.35 0.38,-0.35 0.33,0 0.54,0.3 0.54,0.53 0,0.34 -0.31,0.34 -0.47,0.34 0.44,0.74 1.15,0.8 1.43,0.8 0.73,0 1.43,-0.52 1.43,-1.8 0,-0.39 -0.06,-0.89 -0.27,-1.7 z"
         inkscape:connector-curvature="0"
         style="fill:#000000;stroke-width:0" /><path
         id="path4560"
         d="m 235.6,662.98 0.02,0.07 0.01,0.04 0.01,0.03 0.01,0.04 0.01,0.03 0.02,0.04 0.01,0.03 0.02,0.03 0.02,0.03 0.02,0.03 0.02,0.03 0.02,0.03 0.03,0.03 0.02,0.02 0.03,0.03 0.03,0.02 0.04,0.02 0.03,0.02 0.04,0.02 0.04,0.02 0.04,0.02 0.04,0.02 0.05,0.01 0.05,0.02 0.05,0.01 0.06,0.01 0.06,0.01 0.06,0.01 0.07,0 0.07,0.01 0.03,0 0.04,0 c 0.05,0 0.17,0.01 0.17,0.2 0,0.01 0,0.11 -0.13,0.11 -0.33,0 -0.67,-0.03 -1.01,-0.03 -0.34,0 -0.71,0.03 -1.04,0.03 -0.06,0 -0.18,0 -0.18,-0.2 0,-0.11 0.1,-0.11 0.18,-0.11 0.57,-0.01 0.68,-0.22 0.68,-0.43 0,-0.04 -0.02,-0.18 -0.03,-0.21 l -0.9,-3.55 c -0.34,-1.33 -1.48,-2.2 -2.48,-2.2 -0.67,0 -1.21,0.44 -1.21,1.3 0,0.02 0,0.33 0.11,0.77 l 0.97,3.87 c 0.09,0.35 0.11,0.45 0.83,0.45 0.26,0 0.34,0 0.34,0.2 0,0.11 -0.11,0.11 -0.14,0.11 -0.28,0 -0.99,-0.03 -1.27,-0.03 -0.29,0 -1,0.03 -1.29,0.03 -0.08,0 -0.18,0 -0.18,-0.2 0,-0.11 0.08,-0.11 0.27,-0.11 0.02,0 0.21,0 0.38,-0.02 0.18,-0.02 0.27,-0.03 0.27,-0.16 0,-0.06 -0.11,-0.47 -0.17,-0.7 l -0.22,-0.88 c -0.09,-0.38 -0.57,-2.26 -0.61,-2.45 -0.06,-0.28 -0.06,-0.43 -0.06,-0.58 0,-1.21 0.9,-1.9 1.95,-1.9 1.25,0 2.48,1.12 2.81,2.43 z"
         inkscape:connector-curvature="0"
         style="fill:#000000;stroke-width:0" /></g>    <g
       id="g4618"
       transform="matrix(3,0,0,-3,-321.88362,2245.9973)"
       xml:space="preserve"
       stroke-miterlimit="10.433"
       font-style="normal"
       font-variant="normal"
       font-weight="normal"
       font-stretch="normal"
       font-size-adjust="none"
       letter-spacing="normal"
       word-spacing="normal"
       ns0:text="$\\mathbf{x} \\in \\partial U$"
       ns0:preamble="/home/jeremy/papers/2011-enief/inkscape.tex"
       style="font-style:normal;font-variant:normal;font-weight:normal;font-stretch:normal;letter-spacing:normal;word-spacing:normal;text-anchor:start;fill:none;stroke:#000000;stroke-linecap:butt;stroke-linejoin:miter;stroke-miterlimit:10.43299961;stroke-opacity:1;stroke-dasharray:none;stroke-dashoffset:0"><path
         style="fill:#000000;stroke-width:0"
         inkscape:connector-curvature="0"
         d="m 226.87,659.68 1.17,1.29 c 0.13,0.14 0.19,0.21 1.01,0.21 v 0.47 c -0.34,-0.02 -0.86,-0.03 -0.91,-0.03 -0.25,0 -0.75,0.02 -1.03,0.03 v -0.47 c 0.14,0 0.26,-0.02 0.38,-0.09 -0.04,-0.06 -0.04,-0.08 -0.08,-0.12 l -0.83,-0.93 -0.98,1.14 h 0.4 v 0.47 c -0.26,-0.01 -0.89,-0.03 -1.21,-0.03 -0.31,0 -0.76,0.02 -1.09,0.03 v -0.47 h 0.71 l 1.55,-1.83 -1.3,-1.46 c -0.17,-0.19 -0.53,-0.19 -1.01,-0.19 v -0.47 c 0.35,0.03 0.87,0.04 0.92,0.04 0.25,0 0.82,-0.03 1.02,-0.04 v 0.47 c -0.18,0 -0.37,0.05 -0.37,0.11 0,0.01 0,0.02 0.07,0.1 l 0.97,1.08 1.09,-1.29 h -0.39 v -0.47 c 0.26,0.01 0.87,0.04 1.2,0.04 0.32,0 0.76,-0.03 1.09,-0.04 v 0.47 h -0.7 z"
         id="path4620" /><path
         style="fill:#000000;stroke-width:0"
         inkscape:connector-curvature="0"
         d="m 237.7,659.52 0.03,0 0.03,0 0.03,0 0.02,0 0.01,0 0.02,0 0.01,0.01 0.02,0 0.01,0 0.02,0 0.01,0.01 0.01,0 0.02,0 0.01,0.01 0.01,0.01 0.01,0 0.01,0.01 0.01,0.01 0.01,0 0.01,0.01 0.01,0.01 0,0.01 0,0 0.01,0.01 0,0.01 0,0 0,0.01 0.01,0.01 0,0 0,0.01 0,0.01 0,0.01 0,0 0,0.01 0.01,0.01 0,0.01 0,0.01 c 0,0.2 -0.18,0.2 -0.35,0.2 h -4.22 c 0.12,1.33 1.26,2.28 2.67,2.28 h 1.55 c 0.17,0 0.35,0 0.35,0.2 0,0.2 -0.18,0.2 -0.35,0.2 h -1.57 c -1.7,0 -3.06,-1.29 -3.06,-2.88 0,-1.59 1.36,-2.88 3.06,-2.88 h 1.57 c 0.17,0 0.35,0 0.35,0.2 0,0.19 -0.18,0.19 -0.35,0.19 h -1.55 c -1.41,0 -2.55,0.96 -2.67,2.29 z"
         id="path4622" /><path
         style="fill:#000000;stroke-width:0"
         inkscape:connector-curvature="0"
         d="m 246.26,660.6 -0.01,0.06 -0.01,0.06 -0.01,0.05 -0.02,0.06 -0.02,0.06 -0.02,0.05 -0.02,0.05 -0.02,0.06 -0.03,0.05 -0.02,0.05 -0.03,0.05 -0.03,0.04 -0.04,0.05 -0.03,0.05 -0.04,0.04 -0.04,0.04 -0.04,0.04 -0.04,0.04 -0.04,0.03 -0.05,0.04 -0.05,0.03 -0.05,0.03 -0.05,0.02 -0.06,0.03 -0.05,0.02 -0.06,0.02 -0.06,0.02 -0.07,0.01 -0.06,0.01 -0.07,0.01 -0.07,0 -0.07,0.01 v -0.22 c 1.08,0 1.1,-1.12 1.1,-1.32 0,-0.71 -0.63,-2.95 -2.17,-2.95 h 0 c -1.09,0 -1.09,1.03 -1.09,1.13 0,0.26 0.25,1.66 0.66,2.25 0.39,0.57 0.88,0.89 1.5,0.89 v 0.22 c -0.61,0 -1.26,-0.16 -2.03,-0.94 -0.83,-0.82 -0.9,-1.75 -0.9,-2.06 0,-0.61 0.44,-1.76 1.83,-1.76 2.37,0 3.41,3.33 3.41,4.76 0,1.57 -0.93,2.57 -2.15,2.57 -1.44,0 -1.9,-1.29 -1.9,-1.57 0,-0.14 0.08,-0.35 0.38,-0.35 0.32,0 0.53,0.3 0.53,0.53 0,0.34 -0.31,0.34 -0.47,0.34 0.44,0.74 1.15,0.8 1.44,0.8 0.72,0 1.42,-0.52 1.42,-1.8 0,-0.39 -0.06,-0.89 -0.27,-1.7 z"
         id="path4624" /><path
         style="fill:#000000;stroke-width:0"
         inkscape:connector-curvature="0"
         d="m 253.82,662.98 0.02,0.07 0.01,0.04 0.01,0.03 0.01,0.04 0.02,0.03 0.01,0.04 0.02,0.03 0.01,0.03 0.02,0.03 0.02,0.03 0.02,0.03 0.03,0.03 0.02,0.03 0.03,0.02 0.03,0.03 0.03,0.02 0.03,0.02 0.03,0.02 0.04,0.02 0.04,0.02 0.04,0.02 0.05,0.02 0.04,0.01 0.05,0.02 0.06,0.01 0.05,0.01 0.06,0.01 0.07,0.01 0.06,0 0.07,0.01 0.04,0 0.03,0 c 0.05,0 0.17,0.01 0.17,0.2 0,0.01 0,0.11 -0.13,0.11 -0.32,0 -0.67,-0.03 -1.01,-0.03 -0.34,0 -0.71,0.03 -1.04,0.03 -0.06,0 -0.17,0 -0.17,-0.2 0,-0.11 0.09,-0.11 0.17,-0.11 0.57,-0.01 0.68,-0.22 0.68,-0.43 0,-0.04 -0.02,-0.18 -0.03,-0.21 l -0.89,-3.55 c -0.34,-1.33 -1.49,-2.2 -2.48,-2.2 -0.68,0 -1.21,0.44 -1.21,1.3 0,0.02 0,0.33 0.1,0.77 l 0.97,3.87 c 0.09,0.35 0.11,0.45 0.83,0.45 0.26,0 0.34,0 0.34,0.2 0,0.11 -0.11,0.11 -0.14,0.11 -0.28,0 -0.99,-0.03 -1.27,-0.03 -0.29,0 -0.99,0.03 -1.28,0.03 -0.08,0 -0.19,0 -0.19,-0.2 0,-0.11 0.09,-0.11 0.28,-0.11 0.02,0 0.2,0 0.37,-0.02 0.18,-0.02 0.27,-0.03 0.27,-0.16 0,-0.06 -0.11,-0.47 -0.17,-0.7 l -0.21,-0.88 c -0.09,-0.38 -0.57,-2.26 -0.61,-2.45 -0.07,-0.28 -0.07,-0.43 -0.07,-0.58 0,-1.21 0.9,-1.9 1.95,-1.9 1.25,0 2.49,1.12 2.81,2.43 z"
         id="path4626" /></g>    <path
       sodipodi:nodetypes="czzc"
       inkscape:connector-curvature="0"
       id="path5051"
       d="m 344.32668,263.8051 c 0,0 -78.43574,-15.18358 -73.08908,-34.68634 5.34666,-19.50276 35.07265,23.17163 40.26093,3.7164 5.18828,-19.45523 -73.08907,-33.44755 -73.08907,-33.44755"
       style="fill:none;stroke:#000000;stroke-width:0.25;stroke-linecap:butt;stroke-linejoin:miter;stroke-miterlimit:4;stroke-opacity:1;stroke-dasharray:none" />
    <path
       sodipodi:nodetypes="czc"
       inkscape:connector-curvature="0"
       id="path5053"
       d="m 282.03573,305.44223 c 0,0 31.76395,23.80132 47.65615,28.96901 15.8922,5.16769 59.23152,6.81873 59.23152,6.81873"
       style="fill:none;stroke:#000000;stroke-width:0.25;stroke-linecap:butt;stroke-linejoin:miter;stroke-miterlimit:4;stroke-opacity:1;stroke-dasharray:none" />
    <path
       style="fill:none;stroke:#000000;stroke-width:2.25;stroke-linecap:butt;stroke-linejoin:miter;stroke-miterlimit:4;stroke-opacity:1;stroke-dasharray:none;marker-end:url(#Arrow1Lend)"
       d="M 238.5863,199.38947 411.9181,93.859148"
       id="path5057"
       inkscape:connector-curvature="0"
       sodipodi:nodetypes="cc" />
    <path
       sodipodi:nodetypes="cc"
       inkscape:connector-curvature="0"
       id="path5065"
       d="M 440.07373,194.8704 336.01471,18.341705"
       style="fill:none;stroke:#000000;stroke-width:1;stroke-linecap:butt;stroke-linejoin:miter;stroke-miterlimit:4;stroke-opacity:1;stroke-dasharray:1, 1;stroke-dashoffset:0;marker-end:none" />
    <g
       style="font-style:normal;font-variant:normal;font-weight:normal;font-stretch:normal;letter-spacing:normal;word-spacing:normal;text-anchor:start;fill:none;stroke:#000000;stroke-linecap:butt;stroke-linejoin:miter;stroke-miterlimit:10.43299961;stroke-opacity:1;stroke-dasharray:none;stroke-dashoffset:0"
       ns0:preamble="/home/jeremy/papers/2011-enief/inkscape.tex"
       ns0:text="$\\boldsymbol{\\hat\\Omega}$"
       text-anchor="start"
       word-spacing="normal"
       letter-spacing="normal"
       font-size-adjust="none"
       font-stretch="normal"
       font-weight="normal"
       font-variant="normal"
       font-style="normal"
       fill-opacity="1"
       fill-rule="evenodd"
       fill="none"
       stroke-opacity="1"
       stroke-dashoffset="0"
       stroke-dasharray="none"
       stroke-miterlimit="10.433"
       stroke-linejoin="miter"
       stroke-linecap="butt"
       stroke="black"
       xml:space="preserve"
       transform="matrix(1.4645283,-2.6182355,-2.6182355,-1.4645283,1670.5282,1655.6914)"
       id="g3110"><polygon
         id="polygon3112"
         fill="black"
         stroke-width="0"
         points="227.56,666.54 226,665.28 226.28,664.9 227.56,665.72 228.84,664.91 229.12,665.28 " /><path
         id="path3114"
         fill="black"
         stroke-width="0"
         d="M231.18,659.22 H230.71 C230.7,659.08,230.62,658.66,230.55,658.49 C230.5,658.36,230.46,658.26,229.86,658.26 H229.14 C229.35,658.71,229.63,659.05,229.94,659.44 C230.5,660.16,231.05,660.87,231.05,661.78 C231.05,662.85,230.16,664.16,227.56,664.16 C224.96,664.16,224.07,662.85,224.07,661.78 C224.07,660.86,224.64,660.15,225.18,659.46 C225.53,659.01,225.78,658.67,225.98,658.26 H225.26 C224.68,658.26,224.64,658.36,224.59,658.46 C224.52,658.64,224.43,659.12,224.41,659.22 H223.94 L224.31,657.23 H226.21 C226.43,657.23,226.53,657.23,226.53,657.5 C226.53,658.2,226.23,659.11,226.08,659.55 C225.82,660.33,225.59,661.05,225.59,661.78 C225.59,662.16,225.64,662.87,226.13,663.32 C226.62,663.75,227.26,663.8,227.56,663.8 C228.08,663.8,228.65,663.65,229,663.29 C229.3,663.01,229.53,662.57,229.53,661.78 C229.53,661.08,229.32,660.4,229.07,659.67 C228.88,659.07,228.6,658.2,228.6,657.5 C228.6,657.23,228.7,657.23,228.91,657.23 H230.81 Z " /></g>    <g
       style="font-style:normal;font-variant:normal;font-weight:normal;font-stretch:normal;letter-spacing:normal;word-spacing:normal;text-anchor:start;fill:none;stroke:#000000;stroke-linecap:butt;stroke-linejoin:miter;stroke-miterlimit:10.43299961;stroke-opacity:1;stroke-dasharray:none;stroke-dashoffset:0"
       ns0:preamble="/home/jeremy/papers/2011-enief/inkscape.tex"
       ns0:text="$\\boldsymbol{\\hat\\Omega} \\cdot \\mathbf{\\hat{n}}$"
       text-anchor="start"
       word-spacing="normal"
       letter-spacing="normal"
       font-size-adjust="none"
       font-stretch="normal"
       font-weight="normal"
       font-variant="normal"
       font-style="normal"
       fill-opacity="1"
       fill-rule="evenodd"
       fill="none"
       stroke-opacity="1"
       stroke-dashoffset="0"
       stroke-dasharray="none"
       stroke-miterlimit="10.433"
       stroke-linejoin="miter"
       stroke-linecap="butt"
       stroke="black"
       xml:space="preserve"
       transform="matrix(1.5802995,-1.0303664,-1.0303664,-1.5802995,611.57205,1415.3172)"
       id="content"><polygon
         id="polygon3108"
         fill="black"
         stroke-width="0"
         points="227.56,666.54 226,665.28 226.28,664.9 227.56,665.72 228.84,664.91 229.12,665.28 " /><path
         id="path3110"
         fill="black"
         stroke-width="0"
         d="M231.18,659.22 H230.71 C230.7,659.08,230.62,658.66,230.55,658.49 C230.5,658.36,230.46,658.26,229.86,658.26 H229.14 C229.35,658.71,229.63,659.05,229.94,659.44 C230.5,660.16,231.05,660.87,231.05,661.78 C231.05,662.85,230.16,664.16,227.56,664.16 C224.96,664.16,224.07,662.85,224.07,661.78 C224.07,660.86,224.64,660.15,225.18,659.46 C225.53,659.01,225.78,658.67,225.98,658.26 H225.26 C224.68,658.26,224.64,658.36,224.59,658.46 C224.52,658.64,224.43,659.12,224.41,659.22 H223.94 L224.31,657.23 H226.21 C226.43,657.23,226.53,657.23,226.53,657.5 C226.53,658.2,226.23,659.11,226.08,659.55 C225.82,660.33,225.59,661.05,225.59,661.78 C225.59,662.16,225.64,662.87,226.13,663.32 C226.62,663.75,227.26,663.8,227.56,663.8 C228.08,663.8,228.65,663.65,229,663.29 C229.3,663.01,229.53,662.57,229.53,661.78 C229.53,661.08,229.32,660.4,229.07,659.67 C228.88,659.07,228.6,658.2,228.6,657.5 C228.6,657.23,228.7,657.23,228.91,657.23 H230.81 Z " /><path
         id="path3112"
         fill="black"
         stroke-width="0"
         d="M235.83,659.72 L235.83,659.74 L235.83,659.77 L235.82,659.8 L235.82,659.82 L235.81,659.85 L235.81,659.87 L235.8,659.9 L235.79,659.92 L235.78,659.95 L235.77,659.97 L235.75,659.99 L235.74,660.01 L235.72,660.03 L235.71,660.05 L235.69,660.07 L235.67,660.09 L235.66,660.11 L235.64,660.12 L235.62,660.14 L235.6,660.15 L235.57,660.17 L235.55,660.18 L235.53,660.19 L235.51,660.2 L235.48,660.21 L235.46,660.22 L235.43,660.23 L235.41,660.23 L235.38,660.24 L235.36,660.24 L235.33,660.24 L235.3,660.24 C235.01,660.24,234.78,660.01,234.78,659.72 C234.78,659.43,235.01,659.19,235.3,659.19 C235.59,659.19,235.83,659.43,235.83,659.72 Z " /><polygon
         id="polygon3114"
         fill="black"
         stroke-width="0"
         points="242.07,664.13 240.51,662.88 240.79,662.49 242.07,663.32 243.36,662.5 243.64,662.87 " /><path
         id="path3116"
         fill="black"
         stroke-width="0"
         d="M240.04,660.77 V657.7 H239.35 V657.23 C239.63,657.24,240.22,657.27,240.6,657.27 C240.99,657.27,241.58,657.24,241.86,657.23 V657.7 H241.17 V659.78 C241.17,660.86,242.02,661.35,242.65,661.35 C242.99,661.35,243.2,661.14,243.2,660.38 V657.7 H242.51 V657.23 C242.79,657.24,243.39,657.27,243.77,657.27 C244.15,657.27,244.74,657.24,245.02,657.23 V657.7 H244.33 V660.28 C244.33,661.32,243.8,661.71,242.8,661.71 C241.85,661.71,241.32,661.14,241.06,660.63 V661.71 L239.35,661.63 V661.16 C239.97,661.16,240.04,661.16,240.04,660.77 Z " /></g>    <g
       id="g3246"
       transform="matrix(3,0,0,-3,-253.18947,2067.0077)"
       xml:space="preserve"
       stroke="black"
       stroke-linecap="butt"
       stroke-linejoin="miter"
       stroke-miterlimit="10.433"
       stroke-dasharray="none"
       stroke-dashoffset="0"
       stroke-opacity="1"
       fill="none"
       fill-rule="evenodd"
       fill-opacity="1"
       font-style="normal"
       font-variant="normal"
       font-weight="normal"
       font-stretch="normal"
       font-size-adjust="none"
       letter-spacing="normal"
       word-spacing="normal"
       text-anchor="start"
       ns0:text="$\\mathbf{\\hat{n}}(\\mathbf{x})$"
       ns0:preamble="/home/jeremy/papers/2011-enief/inkscape.tex"
       style="font-style:normal;font-variant:normal;font-weight:normal;font-stretch:normal;letter-spacing:normal;word-spacing:normal;text-anchor:start;fill:none;stroke:#000000;stroke-linecap:butt;stroke-linejoin:miter;stroke-miterlimit:10.43299961;stroke-opacity:1;stroke-dasharray:none;stroke-dashoffset:0"><polygon
         points="226.6,664.13 225.04,662.88 225.32,662.49 226.6,663.32 227.89,662.5 228.17,662.87 "
         stroke-width="0"
         fill="black"
         id="polygon3248" /><path
         d="M224.57,660.77 V657.7 H223.88 V657.23 C224.16,657.24,224.75,657.27,225.13,657.27 C225.52,657.27,226.11,657.24,226.39,657.23 V657.7 H225.7 V659.78 C225.7,660.86,226.55,661.35,227.18,661.35 C227.52,661.35,227.73,661.14,227.73,660.38 V657.7 H227.04 V657.23 C227.32,657.24,227.92,657.27,228.3,657.27 C228.68,657.27,229.27,657.24,229.55,657.23 V657.7 H228.86 V660.28 C228.86,661.32,228.33,661.71,227.33,661.71 C226.38,661.71,225.85,661.14,225.59,660.63 V661.71 L223.88,661.63 V661.16 C224.5,661.16,224.57,661.16,224.57,660.77 Z "
         stroke-width="0"
         fill="black"
         id="path3250" /><path
         d="M233.09,654.85 L233.09,654.86 L233.09,654.86 L233.09,654.86 L233.09,654.87 L233.09,654.87 L233.09,654.87 L233.09,654.88 L233.08,654.88 L233.08,654.88 L233.08,654.89 L233.08,654.89 L233.08,654.9 L233.07,654.9 L233.07,654.91 L233.06,654.91 L233.06,654.92 L233.05,654.93 L233.05,654.93 L233.05,654.94 L233.04,654.94 L233.04,654.95 L233.04,654.95 L233.03,654.95 L233.03,654.96 L233.02,654.96 L233.02,654.97 L233.01,654.97 L233.01,654.98 L233,654.98 L233,654.99 L232.99,654.99 L232.99,655 L232.98,655.01 L232.98,655.01 L232.97,655.02 L232.96,655.03 L232.96,655.03 L232.95,655.04 L232.94,655.05 L232.94,655.05 L232.93,655.06 L232.92,655.07 C231.68,656.32,231.36,658.2,231.36,659.72 C231.36,661.45,231.74,663.17,232.96,664.42 C233.09,664.54,233.09,664.56,233.09,664.59 C233.09,664.66,233.05,664.68,232.99,664.68 C232.89,664.68,232,664.01,231.41,662.75 C230.9,661.66,230.78,660.55,230.78,659.72 C230.78,658.94,230.89,657.74,231.44,656.62 C232.04,655.4,232.89,654.75,232.99,654.75 C233.05,654.75,233.09,654.78,233.09,654.85 Z "
         stroke-width="0"
         fill="black"
         id="path3252" /><path
         d="M237.11,659.68 L238.28,660.97 C238.41,661.11,238.47,661.18,239.29,661.18 V661.65 C238.94,661.63,238.43,661.62,238.38,661.62 C238.13,661.62,237.63,661.64,237.35,661.65 V661.18 C237.49,661.18,237.61,661.16,237.73,661.09 C237.69,661.03,237.69,661.01,237.65,660.97 L236.82,660.04 L235.84,661.18 H236.24 V661.65 C235.98,661.64,235.35,661.62,235.03,661.62 C234.72,661.62,234.27,661.64,233.94,661.65 V661.18 H234.65 L236.2,659.35 L234.9,657.89 C234.73,657.7,234.37,657.7,233.89,657.7 V657.23 C234.24,657.26,234.76,657.27,234.8,657.27 C235.05,657.27,235.63,657.24,235.83,657.23 V657.7 C235.65,657.7,235.46,657.75,235.46,657.81 C235.46,657.82,235.46,657.83,235.53,657.91 L236.5,658.99 L237.59,657.7 H237.2 V657.23 C237.46,657.24,238.07,657.27,238.4,657.27 C238.71,657.27,239.16,657.24,239.49,657.23 V657.7 H238.79 Z "
         stroke-width="0"
         fill="black"
         id="path3254" /><path
         d="M242.59,659.72 L242.59,659.79 L242.59,659.87 L242.59,659.95 L242.59,660.03 L242.58,660.2 L242.57,660.37 L242.55,660.55 L242.53,660.74 L242.5,660.94 L242.47,661.14 L242.43,661.34 L242.38,661.55 L242.33,661.76 L242.27,661.97 L242.2,662.18 L242.12,662.39 L242.08,662.5 L242.03,662.61 L241.99,662.71 L241.94,662.82 C241.34,664.04,240.48,664.68,240.38,664.68 C240.32,664.68,240.29,664.65,240.29,664.59 C240.29,664.56,240.29,664.54,240.47,664.36 C241.45,663.37,242.02,661.79,242.02,659.72 C242.02,658.02,241.65,656.27,240.41,655.02 C240.29,654.9,240.29,654.88,240.29,654.85 C240.29,654.79,240.32,654.75,240.38,654.75 C240.48,654.75,241.38,655.43,241.97,656.69 C242.47,657.78,242.59,658.88,242.59,659.72 Z "
         stroke-width="0"
         fill="black"
         id="path3256" /></g>    <g
       style="font-style:normal;font-variant:normal;font-weight:normal;font-stretch:normal;letter-spacing:normal;word-spacing:normal;text-anchor:start;fill:none;stroke:#000000;stroke-linecap:butt;stroke-linejoin:miter;stroke-miterlimit:10.43299961;stroke-opacity:1;stroke-dasharray:none;stroke-dashoffset:0"
       ns0:preamble="/home/jeremy/papers/2011-enief/inkscape.tex"
       ns0:text="$\\boldsymbol{\\hat\\Omega^{\\prime}} = \\boldsymbol{\\hat\\Omega} - 2 \\left(\\boldsymbol{\\hat\\Omega} \\cdot \\mathbf{\\hat{n}}\\right) \\mathbf{\\hat{n}}$"
       text-anchor="start"
       word-spacing="normal"
       letter-spacing="normal"
       font-size-adjust="none"
       font-stretch="normal"
       font-weight="normal"
       font-variant="normal"
       font-style="normal"
       fill-opacity="1"
       fill-rule="evenodd"
       fill="none"
       stroke-opacity="1"
       stroke-dashoffset="0"
       stroke-dasharray="none"
       stroke-miterlimit="10.433"
       stroke-linejoin="miter"
       stroke-linecap="butt"
       stroke="black"
       xml:space="preserve"
       transform="matrix(3,0,0,-3,-234.54838,2190.5612)"
       id="g3373"><polygon
         id="polygon3375"
         fill="black"
         stroke-width="0"
         points="227.56,665.04 226,663.79 226.28,663.4 227.56,664.23 228.84,663.41 229.12,663.78 " /><path
         id="path3377"
         fill="black"
         stroke-width="0"
         d="M231.18,657.73 H230.71 C230.7,657.59,230.62,657.17,230.55,656.99 C230.5,656.86,230.46,656.76,229.86,656.76 H229.14 C229.35,657.21,229.63,657.56,229.94,657.95 C230.5,658.66,231.05,659.38,231.05,660.28 C231.05,661.35,230.16,662.66,227.56,662.66 C224.96,662.66,224.07,661.35,224.07,660.28 C224.07,659.37,224.64,658.65,225.18,657.97 C225.53,657.52,225.78,657.18,225.98,656.76 H225.26 C224.68,656.76,224.64,656.86,224.59,656.96 C224.52,657.14,224.43,657.63,224.41,657.73 H223.94 L224.31,655.74 H226.21 C226.43,655.74,226.53,655.74,226.53,656.01 C226.53,656.71,226.23,657.62,226.08,658.06 C225.82,658.84,225.59,659.56,225.59,660.28 C225.59,660.67,225.64,661.37,226.13,661.82 C226.62,662.26,227.26,662.31,227.56,662.31 C228.08,662.31,228.65,662.16,229,661.8 C229.3,661.51,229.53,661.08,229.53,660.28 C229.53,659.59,229.32,658.91,229.07,658.17 C228.88,657.58,228.6,656.71,228.6,656.01 C228.6,655.74,228.7,655.74,228.91,655.74 H230.81 Z " /><path
         id="path3379"
         fill="black"
         stroke-width="0"
         d="M234.16,662.41 L234.17,662.43 L234.18,662.44 L234.18,662.46 L234.19,662.47 L234.2,662.49 L234.21,662.5 L234.21,662.52 L234.22,662.54 L234.22,662.55 L234.22,662.55 L234.23,662.56 L234.23,662.57 L234.23,662.58 L234.23,662.59 L234.23,662.6 L234.24,662.61 L234.24,662.62 L234.24,662.63 L234.24,662.65 L234.24,662.66 L234.24,662.67 L234.24,662.68 L234.24,662.69 L234.24,662.71 C234.24,663.07,233.91,663.26,233.66,663.26 C233.46,663.26,233.25,663.15,233.15,662.87 L232.07,659.97 C232.03,659.88,232.03,659.86,232.03,659.84 C232.03,659.82,232.03,659.77,232.1,659.72 C232.17,659.69,232.47,659.55,232.51,659.55 C232.59,659.55,232.6,659.59,232.65,659.68 Z " /><path
         id="path3381"
         fill="black"
         stroke-width="0"
         d="M244.51,658.99 L244.54,658.99 L244.57,658.99 L244.6,658.99 L244.61,658.99 L244.63,658.99 L244.64,658.99 L244.66,659 L244.67,659 L244.68,659 L244.7,659 L244.71,659.01 L244.72,659.01 L244.74,659.01 L244.75,659.02 L244.76,659.02 L244.77,659.03 L244.78,659.04 L244.79,659.05 L244.8,659.05 L244.81,659.06 L244.82,659.07 L244.82,659.08 L244.82,659.08 L244.83,659.09 L244.83,659.1 L244.83,659.1 L244.84,659.11 L244.84,659.12 L244.84,659.12 L244.84,659.13 L244.84,659.14 L244.85,659.14 L244.85,659.15 L244.85,659.16 L244.85,659.17 L244.85,659.18 L244.85,659.19 C244.85,659.39,244.66,659.39,244.52,659.39 H238.56 C238.42,659.39,238.23,659.39,238.23,659.19 C238.23,658.99,238.42,658.99,238.57,658.99 Z " /><path
         id="path3383"
         fill="black"
         stroke-width="0"
         d="M244.52,657.06 L244.53,657.06 L244.55,657.06 L244.58,657.06 L244.6,657.06 L244.62,657.06 L244.63,657.07 L244.64,657.07 L244.66,657.07 L244.67,657.07 L244.69,657.07 L244.7,657.08 L244.71,657.08 L244.72,657.08 L244.74,657.09 L244.75,657.09 L244.76,657.1 L244.77,657.1 L244.78,657.11 L244.79,657.12 L244.8,657.13 L244.81,657.14 L244.81,657.14 L244.82,657.15 L244.82,657.15 L244.82,657.16 L244.83,657.16 L244.83,657.17 L244.83,657.18 L244.84,657.18 L244.84,657.19 L244.84,657.2 L244.84,657.2 L244.84,657.21 L244.85,657.22 L244.85,657.23 L244.85,657.23 L244.85,657.24 L244.85,657.25 L244.85,657.26 C244.85,657.46,244.66,657.46,244.51,657.46 H238.57 C238.42,657.46,238.23,657.46,238.23,657.26 C238.23,657.06,238.42,657.06,238.56,657.06 Z " /><polygon
         id="polygon3385"
         fill="black"
         stroke-width="0"
         points="252.32,665.04 250.76,663.79 251.04,663.4 252.32,664.23 253.6,663.41 253.88,663.78 " /><path
         id="path3387"
         fill="black"
         stroke-width="0"
         d="M255.94,657.73 H255.48 C255.46,657.59,255.38,657.17,255.31,656.99 C255.26,656.86,255.22,656.76,254.62,656.76 H253.9 C254.11,657.21,254.39,657.56,254.7,657.95 C255.26,658.66,255.81,659.38,255.81,660.28 C255.81,661.35,254.92,662.66,252.32,662.66 C249.72,662.66,248.83,661.35,248.83,660.28 C248.83,659.37,249.4,658.65,249.94,657.97 C250.29,657.52,250.54,657.18,250.74,656.76 H250.02 C249.44,656.76,249.4,656.86,249.35,656.96 C249.28,657.14,249.19,657.63,249.17,657.73 H248.7 L249.07,655.74 H250.97 C251.19,655.74,251.29,655.74,251.29,656.01 C251.29,656.71,250.99,657.62,250.84,658.06 C250.58,658.84,250.35,659.56,250.35,660.28 C250.35,660.67,250.4,661.37,250.89,661.82 C251.38,662.26,252.02,662.31,252.32,662.31 C252.84,662.31,253.4,662.16,253.76,661.8 C254.06,661.51,254.29,661.08,254.29,660.28 C254.29,659.59,254.08,658.91,253.83,658.17 C253.64,657.58,253.36,656.71,253.36,656.01 C253.36,655.74,253.46,655.74,253.67,655.74 H255.57 Z " /><path
         id="path3389"
         fill="black"
         stroke-width="0"
         d="M265.24,658.03 L265.27,658.03 L265.3,658.03 L265.33,658.03 L265.35,658.03 L265.36,658.03 L265.38,658.03 L265.39,658.03 L265.41,658.03 L265.42,658.04 L265.44,658.04 L265.45,658.04 L265.46,658.05 L265.47,658.05 L265.49,658.06 L265.5,658.06 L265.51,658.07 L265.52,658.07 L265.53,658.08 L265.54,658.09 L265.55,658.1 L265.55,658.11 L265.56,658.11 L265.56,658.12 L265.56,658.13 L265.57,658.13 L265.57,658.14 L265.57,658.14 L265.57,658.15 L265.58,658.16 L265.58,658.17 L265.58,658.17 L265.58,658.18 L265.58,658.19 L265.58,658.2 L265.58,658.21 L265.58,658.21 L265.58,658.22 C265.58,658.42,265.41,658.42,265.24,658.42 H259.85 C259.68,658.42,259.51,658.42,259.51,658.22 C259.51,658.03,259.68,658.03,259.85,658.03 Z " /><path
         id="path3391"
         fill="black"
         stroke-width="0"
         d="M269.91,656.51 L270.96,657.53 C272.51,658.9,273.11,659.44,273.11,660.43 C273.11,661.56,272.21,662.36,271,662.36 C269.88,662.36,269.14,661.44,269.14,660.56 C269.14,660,269.64,660,269.67,660 C269.84,660,270.18,660.12,270.18,660.53 C270.18,660.79,270.01,661.05,269.66,661.05 C269.58,661.05,269.56,661.05,269.53,661.04 C269.76,661.68,270.3,662.05,270.87,662.05 C271.78,662.05,272.2,661.24,272.2,660.43 C272.2,659.64,271.71,658.85,271.16,658.23 L269.25,656.11 C269.14,656,269.14,655.98,269.14,655.74 H272.83 L273.11,657.47 H272.86 C272.81,657.17,272.74,656.73,272.64,656.59 C272.57,656.51,271.92,656.51,271.7,656.51 Z " /><path
         id="path3393"
         fill="black"
         stroke-width="0"
         d="M280.41,649.44 L280.41,649.44 L280.41,649.43 L280.41,649.43 L280.41,649.43 L280.41,649.43 L280.42,649.43 L280.42,649.43 L280.42,649.43 L280.42,649.43 L280.42,649.43 L280.43,649.42 L280.43,649.42 L280.43,649.41 L280.44,649.41 L280.44,649.41 L280.45,649.4 L280.45,649.4 L280.46,649.39 L280.46,649.39 L280.47,649.38 L280.48,649.37 L280.48,649.37 L280.49,649.36 L280.49,649.36 L280.5,649.35 L280.5,649.35 L280.5,649.35 L280.51,649.34 L280.51,649.34 L280.52,649.34 L280.52,649.33 L280.52,649.33 L280.52,649.33 L280.52,649.33 L280.52,649.33 L280.52,649.33 L280.52,649.33 L280.53,649.33 L280.53,649.33 L280.53,649.33 L280.53,649.33 L280.53,649.33 H280.75 C280.78,649.33,280.86,649.34,280.86,649.43 C280.86,649.47,280.84,649.48,280.82,649.52 C280.46,649.87,279.92,650.42,279.3,651.51 C278.23,653.42,277.83,655.87,277.83,658.26 C277.83,662.67,279.09,665.26,280.83,667.02 C280.86,667.05,280.86,667.08,280.86,667.1 C280.86,667.2,280.79,667.2,280.67,667.2 C280.54,667.2,280.52,667.2,280.43,667.12 C279.48,666.3,278.42,664.92,277.73,662.83 C277.3,661.52,277.08,659.92,277.08,658.27 C277.08,655.91,277.5,653.25,279.07,650.95 C279.33,650.56,279.7,650.15,279.7,650.14 C279.8,650.02,279.94,649.86,280.02,649.79 Z " /><polygon
         id="polygon3395"
         fill="black"
         stroke-width="0"
         points="285.36,665.04 283.8,663.79 284.08,663.4 285.36,664.23 286.65,663.41 286.92,663.78 " /><path
         id="path3397"
         fill="black"
         stroke-width="0"
         d="M288.98,657.73 H288.52 C288.5,657.59,288.42,657.17,288.35,656.99 C288.3,656.86,288.26,656.76,287.66,656.76 H286.95 C287.15,657.21,287.43,657.56,287.74,657.95 C288.3,658.66,288.86,659.38,288.86,660.28 C288.86,661.35,287.96,662.66,285.36,662.66 C282.77,662.66,281.87,661.35,281.87,660.28 C281.87,659.37,282.44,658.65,282.98,657.97 C283.33,657.52,283.58,657.18,283.78,656.76 H283.07 C282.48,656.76,282.44,656.86,282.39,656.96 C282.32,657.14,282.23,657.63,282.21,657.73 H281.74 L282.11,655.74 H284.01 C284.23,655.74,284.33,655.74,284.33,656.01 C284.33,656.71,284.03,657.62,283.88,658.06 C283.62,658.84,283.39,659.56,283.39,660.28 C283.39,660.67,283.44,661.37,283.93,661.82 C284.42,662.26,285.06,662.31,285.36,662.31 C285.88,662.31,286.45,662.16,286.81,661.8 C287.1,661.51,287.33,661.08,287.33,660.28 C287.33,659.59,287.12,658.91,286.88,658.17 C286.69,657.58,286.4,656.71,286.4,656.01 C286.4,655.74,286.5,655.74,286.72,655.74 H288.62 Z " /><path
         id="path3399"
         fill="black"
         stroke-width="0"
         d="M293.63,658.22 L293.63,658.25 L293.63,658.28 L293.63,658.3 L293.62,658.33 L293.62,658.36 L293.61,658.38 L293.6,658.4 L293.59,658.43 L293.58,658.45 L293.57,658.47 L293.56,658.5 L293.54,658.52 L293.53,658.54 L293.51,658.56 L293.5,658.58 L293.48,658.6 L293.46,658.61 L293.44,658.63 L293.42,658.65 L293.4,658.66 L293.38,658.67 L293.36,658.69 L293.33,658.7 L293.31,658.71 L293.29,658.72 L293.26,658.73 L293.24,658.73 L293.21,658.74 L293.19,658.74 L293.16,658.75 L293.13,658.75 L293.11,658.75 C292.82,658.75,292.58,658.51,292.58,658.22 C292.58,657.94,292.82,657.7,293.11,657.7 C293.39,657.7,293.63,657.94,293.63,658.22 Z " /><polygon
         id="polygon3401"
         fill="black"
         stroke-width="0"
         points="299.88,662.64 298.32,661.38 298.59,661 299.88,661.82 301.16,661.01 301.44,661.37 " /><path
         id="path3403"
         fill="black"
         stroke-width="0"
         d="M297.84,659.28 V656.21 H297.15 V655.74 C297.43,655.75,298.03,655.77,298.4,655.77 C298.79,655.77,299.38,655.75,299.66,655.74 V656.21 H298.97 V658.28 C298.97,659.37,299.83,659.85,300.45,659.85 C300.79,659.85,301,659.65,301,658.89 V656.21 H300.32 V655.74 C300.59,655.75,301.19,655.77,301.57,655.77 C301.96,655.77,302.54,655.75,302.82,655.74 V656.21 H302.14 V658.78 C302.14,659.82,301.6,660.21,300.6,660.21 C299.65,660.21,299.12,659.65,298.86,659.14 V660.21 L297.15,660.13 V659.66 C297.77,659.66,297.84,659.66,297.84,659.28 Z " /><path
         id="path3405"
         fill="black"
         stroke-width="0"
         d="M307.21,658.27 L307.2,658.8 L307.18,659.34 L307.13,659.88 L307.07,660.42 L306.99,660.96 L306.89,661.5 L306.77,662.03 L306.63,662.56 L306.46,663.07 L306.37,663.33 L306.27,663.58 L306.17,663.84 L306.06,664.08 L305.94,664.33 L305.82,664.57 L305.69,664.81 L305.55,665.05 L305.41,665.28 L305.26,665.51 L305.1,665.73 L304.93,665.95 L304.76,666.17 L304.58,666.38 C304.44,666.54,304.07,666.93,303.83,667.14 C303.77,667.2,303.75,667.2,303.62,667.2 C303.52,667.2,303.43,667.2,303.43,667.1 C303.43,667.06,303.47,667.02,303.49,667 C303.83,666.65,304.36,666.1,304.98,665.01 C306.05,663.1,306.45,660.65,306.45,658.27 C306.45,653.96,305.26,651.32,303.47,649.51 C303.45,649.48,303.43,649.46,303.43,649.43 C303.43,649.33,303.52,649.33,303.62,649.33 C303.75,649.33,303.77,649.33,303.86,649.41 C304.8,650.22,305.86,651.6,306.55,653.7 C306.99,655.06,307.21,656.67,307.21,658.27 Z " /><polygon
         id="polygon3407"
         fill="black"
         stroke-width="0"
         points="313.85,662.64 312.29,661.38 312.57,661 313.85,661.82 315.14,661.01 315.42,661.37 " /><path
         id="path3409"
         fill="black"
         stroke-width="0"
         d="M311.81,659.28 V656.21 H311.13 V655.74 C311.41,655.75,312,655.77,312.38,655.77 C312.77,655.77,313.36,655.75,313.63,655.74 V656.21 H312.95 V658.28 C312.95,659.37,313.8,659.85,314.43,659.85 C314.77,659.85,314.98,659.65,314.98,658.89 V656.21 H314.29 V655.74 C314.57,655.75,315.17,655.77,315.54,655.77 C315.93,655.77,316.52,655.75,316.8,655.74 V656.21 H316.11 V658.78 C316.11,659.82,315.57,660.21,314.58,660.21 C313.62,660.21,313.1,659.65,312.84,659.14 V660.21 L311.13,660.13 V659.66 C311.74,659.66,311.81,659.66,311.81,659.28 Z " /></g>  </g>
</svg>
