<?xml version="1.0" encoding="UTF-8" standalone="no"?>
<!-- Created with Inkscape (http://www.inkscape.org/) -->

<svg
   width="107.69651mm"
   height="105.58655mm"
   viewBox="0 0 107.69651 105.58655"
   version="1.1"
   id="svg5"
   inkscape:version="1.1.2 (0a00cf5339, 2022-02-04)"
   sodipodi:docname="azmy-figure.svg"
   xmlns:inkscape="http://www.inkscape.org/namespaces/inkscape"
   xmlns:sodipodi="http://sodipodi.sourceforge.net/DTD/sodipodi-0.dtd"
   xmlns:xlink="http://www.w3.org/1999/xlink"
   xmlns="http://www.w3.org/2000/svg"
   xmlns:svg="http://www.w3.org/2000/svg"
   xmlns:ns0="http://www.iki.fi/pav/software/textext/">
  <sodipodi:namedview
     id="namedview7"
     pagecolor="#ffffff"
     bordercolor="#666666"
     borderopacity="1.0"
     inkscape:pageshadow="2"
     inkscape:pageopacity="0.0"
     inkscape:pagecheckerboard="0"
     inkscape:document-units="mm"
     showgrid="true"
     showguides="true"
     inkscape:zoom="1.1474186"
     inkscape:cx="5.229129"
     inkscape:cy="120.70573"
     inkscape:window-width="1920"
     inkscape:window-height="1007"
     inkscape:window-x="0"
     inkscape:window-y="0"
     inkscape:window-maximized="1"
     inkscape:current-layer="layer1"
     fit-margin-top="0"
     fit-margin-left="0"
     fit-margin-right="0"
     fit-margin-bottom="0">
    <inkscape:grid
       type="xygrid"
       id="grid151"
       originx="-23.489032"
       originy="-90.164432" />
  </sodipodi:namedview>
  <defs
     id="defs2">
    <linearGradient
       inkscape:collect="always"
       id="linearGradient2872">
      <stop
         style="stop-color:#5cb4ff;stop-opacity:1"
         offset="0"
         id="stop2868" />
      <stop
         style="stop-color:#94d7ff;stop-opacity:0.65882355"
         offset="1"
         id="stop2870" />
    </linearGradient>
    <linearGradient
       inkscape:collect="always"
       id="linearGradient2518">
      <stop
         style="stop-color:#5cb046;stop-opacity:1"
         offset="0"
         id="stop2514" />
      <stop
         style="stop-color:#479149;stop-opacity:0.42127505"
         offset="1"
         id="stop2516" />
    </linearGradient>
    <marker
       inkscape:stockid="Arrow1Lend"
       orient="auto"
       refY="0"
       refX="0"
       id="Arrow1Lend"
       style="overflow:visible">
      <path
         id="path3902"
         d="M 0,0 5,-5 -12.5,0 5,5 Z"
         style="fill-rule:evenodd;stroke:#000000;stroke-width:1pt"
         transform="matrix(-0.8,0,0,-0.8,-10,0)" />
    </marker>
    <linearGradient
       inkscape:collect="always"
       xlink:href="#linearGradient3963"
       id="linearGradient4946"
       x1="-30"
       y1="297.36218"
       x2="-30"
       y2="162.36218"
       gradientUnits="userSpaceOnUse"
       gradientTransform="matrix(0.37132258,0,0,0.54335139,47.624999,10.406999)" />
    <linearGradient
       id="linearGradient3963">
      <stop
         style="stop-color:#a57e14;stop-opacity:1;"
         offset="0"
         id="stop3965" />
      <stop
         style="stop-color:#daaa52;stop-opacity:0.23157895;"
         offset="1"
         id="stop3967" />
    </linearGradient>
    <linearGradient
       inkscape:collect="always"
       xlink:href="#linearGradient3963"
       id="linearGradient258"
       gradientUnits="userSpaceOnUse"
       gradientTransform="matrix(0,-0.36572005,-0.54356433,0,209.26049,171.97917)"
       x1="-30"
       y1="297.36218"
       x2="-30"
       y2="162.36218" />
    <linearGradient
       inkscape:collect="always"
       xlink:href="#linearGradient2518"
       id="linearGradient2512"
       x1="67.46875"
       y1="170.65625"
       x2="97.895836"
       y2="104.51041"
       gradientUnits="userSpaceOnUse" />
    <linearGradient
       inkscape:collect="always"
       xlink:href="#linearGradient2872"
       id="linearGradient2874"
       x1="58.208332"
       y1="171.97917"
       x2="72.760414"
       y2="140.22917"
       gradientUnits="userSpaceOnUse" />
  </defs>
  <g
     inkscape:label="Layer 1"
     inkscape:groupmode="layer"
     id="layer1"
     transform="translate(-23.489032,-90.164428)">
    <rect
       style="fill:url(#linearGradient2512);fill-opacity:1;fill-rule:evenodd;stroke-width:0.264583"
       id="rect368"
       width="68.791672"
       height="68.791656"
       x="47.625"
       y="103.1875" />
    <g
       style="font-style:normal;font-variant:normal;font-weight:normal;font-stretch:normal;letter-spacing:normal;word-spacing:normal;text-anchor:start;fill:none;stroke:#000000;stroke-linecap:butt;stroke-linejoin:miter;stroke-miterlimit:10.433;stroke-dasharray:none;stroke-dashoffset:0;stroke-opacity:1"
       id="content"
       transform="matrix(0.65059606,0,0,-0.65059606,-17.592768,600.76911)"
       xml:space="preserve"
       stroke-miterlimit="10.433"
       font-style="normal"
       font-variant="normal"
       font-weight="normal"
       font-stretch="normal"
       font-size-adjust="none"
       letter-spacing="normal"
       word-spacing="normal"
       ns0:text="$x$"
       ns0:preamble="/home/jeremy/papers/2011-enief/inkscape.tex"><path
         style="fill:#000000;stroke-width:0"
         inkscape:connector-curvature="0"
         d="m 226.76,660.23 v 0.03 l 0.01,0.03 0.01,0.03 0.01,0.04 0.01,0.04 0.01,0.04 0.01,0.04 0.02,0.05 0.01,0.04 0.02,0.05 0.02,0.05 0.02,0.05 0.02,0.05 0.03,0.05 0.02,0.05 0.03,0.05 0.03,0.05 0.03,0.04 0.03,0.05 0.04,0.04 0.04,0.05 0.04,0.04 0.04,0.04 0.04,0.03 0.05,0.03 0.05,0.03 0.02,0.01 0.03,0.02 0.02,0.01 0.03,0.01 0.03,0.01 h 0.03 l 0.03,0.01 0.02,0.01 h 0.04 0.03 l 0.03,0.01 h 0.03 c 0.05,0 0.29,0 0.5,-0.13 -0.28,-0.05 -0.48,-0.3 -0.48,-0.54 0,-0.16 0.11,-0.35 0.38,-0.35 0.22,0 0.54,0.18 0.54,0.58 0,0.52 -0.59,0.66 -0.93,0.66 -0.58,0 -0.93,-0.53 -1.04,-0.76 -0.25,0.66 -0.79,0.76 -1.08,0.76 -1.03,0 -1.6,-1.29 -1.6,-1.53 0,-0.1 0.1,-0.1 0.12,-0.1 0.08,0 0.11,0.02 0.13,0.11 0.34,1.05 0.99,1.3 1.33,1.3 0.19,0 0.54,-0.09 0.54,-0.67 0,-0.31 -0.17,-0.97 -0.54,-2.36 -0.16,-0.62 -0.51,-1.04 -0.94,-1.04 -0.06,0 -0.29,0 -0.5,0.13 0.25,0.05 0.47,0.26 0.47,0.54 0,0.27 -0.22,0.35 -0.37,0.35 -0.3,0 -0.55,-0.26 -0.55,-0.58 0,-0.46 0.5,-0.65 0.94,-0.65 0.65,0 1.01,0.69 1.04,0.75 0.12,-0.37 0.48,-0.75 1.07,-0.75 1.03,0 1.6,1.28 1.6,1.53 0,0.1 -0.09,0.1 -0.12,0.1 -0.09,0 -0.11,-0.04 -0.13,-0.11 -0.33,-1.07 -1.01,-1.31 -1.33,-1.31 -0.38,0 -0.54,0.32 -0.54,0.66 0,0.22 0.06,0.44 0.17,0.87 z"
         id="path4355" /></g>
    <g
       style="font-style:normal;font-variant:normal;font-weight:normal;font-stretch:normal;letter-spacing:normal;word-spacing:normal;text-anchor:start;fill:none;stroke:#000000;stroke-linecap:butt;stroke-linejoin:miter;stroke-miterlimit:10.433;stroke-dasharray:none;stroke-dashoffset:0;stroke-opacity:1"
       id="content-3"
       transform="matrix(0.65059606,0,0,-0.65059606,-99.214531,520.6183)"
       xml:space="preserve"
       stroke-miterlimit="10.433"
       font-style="normal"
       font-variant="normal"
       font-weight="normal"
       font-stretch="normal"
       font-size-adjust="none"
       letter-spacing="normal"
       word-spacing="normal"
       ns0:text="$x$"
       ns0:preamble="/home/jeremy/papers/2011-enief/inkscape.tex"><path
         style="fill:#000000;stroke-width:0"
         inkscape:connector-curvature="0"
         d="m 226.76,660.23 v 0.03 l 0.01,0.03 0.01,0.03 0.01,0.04 0.01,0.04 0.01,0.04 0.01,0.04 0.02,0.05 0.01,0.04 0.02,0.05 0.02,0.05 0.02,0.05 0.02,0.05 0.03,0.05 0.02,0.05 0.03,0.05 0.03,0.05 0.03,0.04 0.03,0.05 0.04,0.04 0.04,0.05 0.04,0.04 0.04,0.04 0.04,0.03 0.05,0.03 0.05,0.03 0.02,0.01 0.03,0.02 0.02,0.01 0.03,0.01 0.03,0.01 h 0.03 l 0.03,0.01 0.02,0.01 h 0.04 0.03 l 0.03,0.01 h 0.03 c 0.05,0 0.29,0 0.5,-0.13 -0.28,-0.05 -0.48,-0.3 -0.48,-0.54 0,-0.16 0.11,-0.35 0.38,-0.35 0.22,0 0.54,0.18 0.54,0.58 0,0.52 -0.59,0.66 -0.93,0.66 -0.58,0 -0.93,-0.53 -1.04,-0.76 -0.25,0.66 -0.79,0.76 -1.08,0.76 -1.03,0 -1.6,-1.29 -1.6,-1.53 0,-0.1 0.1,-0.1 0.12,-0.1 0.08,0 0.11,0.02 0.13,0.11 0.34,1.05 0.99,1.3 1.33,1.3 0.19,0 0.54,-0.09 0.54,-0.67 0,-0.31 -0.17,-0.97 -0.54,-2.36 -0.16,-0.62 -0.51,-1.04 -0.94,-1.04 -0.06,0 -0.29,0 -0.5,0.13 0.25,0.05 0.47,0.26 0.47,0.54 0,0.27 -0.22,0.35 -0.37,0.35 -0.3,0 -0.55,-0.26 -0.55,-0.58 0,-0.46 0.5,-0.65 0.94,-0.65 0.65,0 1.01,0.69 1.04,0.75 0.12,-0.37 0.48,-0.75 1.07,-0.75 1.03,0 1.6,1.28 1.6,1.53 0,0.1 -0.09,0.1 -0.12,0.1 -0.09,0 -0.11,-0.04 -0.13,-0.11 -0.33,-1.07 -1.01,-1.31 -1.33,-1.31 -0.38,0 -0.54,0.32 -0.54,0.66 0,0.22 0.06,0.44 0.17,0.87 z"
         id="path4355-6" /></g>
    <path
       style="fill:url(#linearGradient4946);fill-opacity:1;stroke:none;stroke-width:0.449175"
       d="m 47.625,104.06023 c 0,0 -1.053784,2.23769 -3.713226,2.71675 -2.65944,0.47909 -5.936032,-8.402915 -9.283065,-8.150263 -3.347031,0.252652 -5.377496,3.990493 -7.426451,8.150263 -2.048954,4.1598 -3.713226,9.14128 -3.713226,16.30055 0,7.15928 5.359258,16.42733 5.569839,24.45082 0.210582,8.02349 -5.357706,16.50212 -3.713226,21.73406 1.644481,5.23192 4.491002,4.85828 7.426452,5.43351 2.93545,0.57523 6.812366,-1.75665 9.283064,-2.71675 2.4707,-0.96011 5.569839,0 5.569839,0 z"
       id="path4938"
       inkscape:connector-curvature="0"
       sodipodi:nodetypes="czzzzzzzzcc" />
    <path
       style="fill:url(#linearGradient258);fill-opacity:1;stroke:none;stroke-width:0.445861"
       d="m 115.57055,171.97917 c 0,0 -2.23856,1.03789 -2.71781,3.6572 -0.47928,2.61932 8.4062,5.84648 8.15345,9.143 -0.25275,3.29654 -3.99205,5.29636 -8.15345,7.31441 -4.16143,2.01804 -9.14486,3.6572 -16.30694,3.6572 -7.162085,0 -16.433767,-5.2784 -24.460401,-5.48581 -8.026632,-0.2074 -16.508584,5.27687 -21.742574,3.65721 -5.233971,-1.61967 -4.860184,-4.42325 -5.43564,-7.3144 -0.575455,-2.89117 1.757339,-6.70958 2.717815,-9.143 0.960486,-2.43343 0,-5.48581 0,-5.48581 z"
       id="path252"
       inkscape:connector-curvature="0"
       sodipodi:nodetypes="czzzzzzzzcc" />
    <rect
       style="fill:url(#linearGradient2874);fill-opacity:1;stroke-width:0.264583"
       id="rect1360"
       width="34.395832"
       height="34.395855"
       x="47.624996"
       y="137.58333" />
    <path
       style="fill:none;stroke:#000000;stroke-width:0.282222px;stroke-linecap:butt;stroke-linejoin:miter;stroke-opacity:1;marker-end:url(#Arrow1Lend)"
       d="M 37.041667,171.97917 H 125.67708"
       id="path3125"
       inkscape:connector-curvature="0"
       sodipodi:nodetypes="cc" />
    <path
       style="fill:none;stroke:#000000;stroke-width:0.282222px;stroke-linecap:butt;stroke-linejoin:miter;stroke-opacity:1;marker-end:url(#Arrow1Lend)"
       d="M 47.625,179.74026 V 95.25"
       id="path32"
       inkscape:connector-curvature="0"
       sodipodi:nodetypes="cc" />
    <text
       id="text4960"
       y="149.91599"
       x="64.038467"
       style="font-style:normal;font-variant:normal;font-weight:normal;font-stretch:normal;font-size:3.38667px;line-height:0%;font-family:Carlito;-inkscape-font-specification:Carlito;text-align:center;letter-spacing:0px;word-spacing:0px;text-anchor:middle;fill:#000000;fill-opacity:1;stroke:none;stroke-width:0.282222"
       xml:space="preserve"><tspan
         y="149.91599"
         x="64.038467"
         id="tspan4962"
         sodipodi:role="line"
         style="font-style:normal;font-variant:normal;font-weight:normal;font-stretch:normal;font-size:3.38667px;line-height:1.25;font-family:Carlito;-inkscape-font-specification:Carlito;text-align:center;text-anchor:middle;stroke-width:0.282222">Source 1</tspan></text>
    <g
       ns0:preamble="/home/jeremy/papers/2011-enief/inkscape.tex"
       ns0:text="\\begin{align*}\nS &amp;= 50 \\\\\n\\Sigma_t &amp;= 50 \\\\\n\\Sigma_s &amp;= 0\n\\end{align*}\n"
       word-spacing="normal"
       letter-spacing="normal"
       font-size-adjust="none"
       font-stretch="normal"
       font-weight="normal"
       font-variant="normal"
       font-style="normal"
       stroke-miterlimit="10.433"
       xml:space="preserve"
       transform="matrix(0.2822222,0,0,-0.2822222,-47.809847,341.34141)"
       id="g5430"
       style="font-style:normal;font-variant:normal;font-weight:normal;font-stretch:normal;letter-spacing:normal;word-spacing:normal;text-anchor:start;fill:none;stroke:#000000;stroke-linecap:butt;stroke-linejoin:miter;stroke-miterlimit:10.433;stroke-dasharray:none;stroke-dashoffset:0;stroke-opacity:1"><path
         id="path5432"
         d="m 389.12,664.14 v 0 0.01 0 0 0.01 0 0 0.01 0 0.01 0 h -0.01 v 0.01 0 0.01 h -0.01 v 0 0.01 h -0.01 v 0 0.01 h -0.01 v 0 l -0.01,0.01 v 0 h -0.01 v 0 0 h -0.01 v 0 0 l -0.01,0.01 v 0 0 h -0.01 v 0 h -0.01 v 0 0 c -0.05,0 -0.06,-0.01 -0.18,-0.15 l -0.48,-0.57 c -0.26,0.47 -0.78,0.72 -1.42,0.72 -1.27,0 -2.46,-1.14 -2.46,-2.35 0,-0.8 0.53,-1.26 1.03,-1.41 l 1.07,-0.27 c 0.37,-0.09 0.91,-0.24 0.91,-1.06 0,-0.89 -0.81,-1.83 -1.79,-1.83 -0.63,0 -1.74,0.22 -1.74,1.46 0,0.23 0.05,0.47 0.06,0.53 0.01,0.04 0.02,0.05 0.02,0.07 0,0.1 -0.07,0.11 -0.12,0.11 -0.05,0 -0.07,-0.01 -0.1,-0.04 -0.04,-0.04 -0.59,-2.3 -0.59,-2.33 0,-0.06 0.04,-0.1 0.1,-0.1 0.06,0 0.06,0.01 0.18,0.14 l 0.49,0.57 c 0.43,-0.57 1.11,-0.71 1.68,-0.71 1.36,0 2.53,1.32 2.53,2.55 0,0.69 -0.34,1.02 -0.49,1.16 -0.23,0.23 -0.38,0.27 -1.26,0.5 -0.22,0.06 -0.58,0.16 -0.67,0.18 -0.27,0.09 -0.61,0.37 -0.61,0.9 0,0.81 0.8,1.65 1.75,1.65 0.82,0 1.43,-0.43 1.43,-1.54 0,-0.32 -0.04,-0.5 -0.04,-0.56 0,-0.01 0,-0.09 0.12,-0.09 0.1,0 0.11,0.02 0.15,0.19 z"
         inkscape:connector-curvature="0"
         style="fill:#000000;stroke-width:0" /><path
         id="path5434"
         d="m 398.99,660.48 h 0.03 0.03 0.03 l 0.02,0.01 h 0.01 0.01 0.02 0.01 0.02 l 0.01,0.01 h 0.01 0.02 l 0.01,0.01 h 0.01 l 0.01,0.01 h 0.01 l 0.01,0.01 0.01,0.01 0.01,0.01 0.01,0.01 0.01,0.01 v 0 l 0.01,0.01 v 0 0.01 l 0.01,0.01 v 0 0.01 0.01 h 0.01 v 0.01 0.01 0.01 0.01 0 0.01 0.01 c 0,0.2 -0.19,0.2 -0.33,0.2 h -5.96 c -0.14,0 -0.32,0 -0.32,-0.2 0,-0.2 0.18,-0.2 0.33,-0.2 z"
         inkscape:connector-curvature="0"
         style="fill:#000000;stroke-width:0" /><path
         id="path5436"
         d="m 399,658.56 h 0.02 0.01 0.03 0.03 0.01 0.01 0.02 0.01 0.02 l 0.01,0.01 h 0.01 0.02 l 0.01,0.01 h 0.01 l 0.01,0.01 h 0.01 l 0.01,0.01 h 0.01 l 0.01,0.01 0.01,0.01 0.01,0.01 h 0.01 v 0.01 0.01 h 0.01 v 0.01 0 l 0.01,0.01 v 0.01 0 0.01 l 0.01,0.01 v 0 0.01 0.01 0.01 0.01 0.01 0.01 c 0,0.19 -0.19,0.19 -0.34,0.19 h -5.94 c -0.15,0 -0.33,0 -0.33,-0.19 0,-0.2 0.18,-0.2 0.32,-0.2 z"
         inkscape:connector-curvature="0"
         style="fill:#000000;stroke-width:0" /><path
         id="path5438"
         d="m 407.14,659.23 v 0.11 0.11 l -0.02,0.11 -0.01,0.1 -0.02,0.11 -0.03,0.1 -0.03,0.1 -0.03,0.1 -0.04,0.1 -0.04,0.09 -0.04,0.09 -0.05,0.09 -0.05,0.09 -0.06,0.08 -0.06,0.08 -0.06,0.07 -0.06,0.08 -0.07,0.06 -0.07,0.07 -0.08,0.06 -0.07,0.06 -0.08,0.05 -0.08,0.05 -0.09,0.04 -0.08,0.04 -0.09,0.04 -0.09,0.03 -0.1,0.02 -0.09,0.02 -0.1,0.02 h -0.1 l -0.1,0.01 c -0.47,0 -0.9,-0.16 -1.26,-0.51 v 1.94 c 0.2,-0.06 0.53,-0.13 0.85,-0.13 1.22,0 1.92,0.9 1.92,1.03 0,0.06 -0.03,0.11 -0.1,0.11 -0.01,0 -0.03,0 -0.08,-0.03 -0.2,-0.09 -0.69,-0.29 -1.36,-0.29 -0.39,0 -0.85,0.07 -1.32,0.28 -0.08,0.03 -0.1,0.03 -0.12,0.03 -0.1,0 -0.1,-0.08 -0.1,-0.24 v -2.94 c 0,-0.18 0,-0.26 0.14,-0.26 0.07,0 0.09,0.03 0.13,0.09 0.11,0.16 0.48,0.7 1.28,0.7 0.52,0 0.77,-0.46 0.85,-0.64 0.16,-0.37 0.18,-0.75 0.18,-1.25 0,-0.35 0,-0.94 -0.24,-1.36 -0.24,-0.39 -0.61,-0.65 -1.06,-0.65 -0.73,0 -1.3,0.53 -1.47,1.12 0.03,-0.01 0.06,-0.02 0.17,-0.02 0.33,0 0.5,0.25 0.5,0.48 0,0.24 -0.17,0.49 -0.5,0.49 -0.14,0 -0.49,-0.07 -0.49,-0.53 0,-0.85 0.69,-1.81 1.81,-1.81 1.15,0 2.16,0.95 2.16,2.21 z"
         inkscape:connector-curvature="0"
         style="fill:#000000;stroke-width:0" /><path
         id="path5440"
         d="m 412.23,660.41 v 0.15 0.15 0.15 l -0.01,0.15 -0.01,0.15 -0.01,0.14 -0.01,0.15 -0.02,0.15 -0.03,0.14 -0.02,0.15 -0.04,0.14 -0.03,0.15 -0.05,0.14 -0.05,0.14 -0.05,0.14 -0.03,0.07 -0.03,0.07 c -0.46,0.95 -1.28,1.11 -1.69,1.11 -0.6,0 -1.33,-0.26 -1.73,-1.18 -0.32,-0.69 -0.37,-1.46 -0.37,-2.26 0,-0.74 0.04,-1.63 0.44,-2.39 0.43,-0.8 1.16,-1 1.65,-1 v 0.21 c -0.39,0 -0.98,0.25 -1.16,1.21 -0.11,0.59 -0.11,1.51 -0.11,2.09 0,0.64 0,1.29 0.08,1.83 0.19,1.18 0.94,1.27 1.19,1.27 0.32,0 0.98,-0.18 1.17,-1.16 0.1,-0.56 0.1,-1.31 0.1,-1.94 0,-0.74 0,-1.42 -0.11,-2.05 -0.15,-0.95 -0.72,-1.25 -1.16,-1.25 v 0 -0.21 c 0.53,0 1.29,0.2 1.73,1.15 0.32,0.68 0.36,1.46 0.36,2.24 z"
         inkscape:connector-curvature="0"
         style="fill:#000000;stroke-width:0" /><path
         id="path5442"
         d="m 382.39,645.53 v 0 l 0.01,0.01 v 0 0.01 h 0.01 v 0.01 h 0.01 v 0 0.01 0 l 0.01,0.01 0.01,0.01 v 0 l 0.01,0.01 v 0.01 0 l 0.01,0.01 v 0 0.01 h 0.01 v 0.01 0 0.01 0 0.01 h 0.01 v 0 0.01 0 0 0 0.01 0 0 0 0.01 c 0,0.05 -0.04,0.1 -0.07,0.14 l -2.04,2.94 h 2.3 c 1.68,0 2.18,-0.36 2.38,-1.93 h 0.25 l -0.27,2.24 h -5.53 c -0.23,0 -0.26,0 -0.26,-0.23 l 2.48,-3.6 -2.36,-2.69 c -0.1,-0.11 -0.1,-0.13 -0.1,-0.16 0,-0.11 0.1,-0.11 0.24,-0.11 h 5.53 l 0.27,2.35 h -0.25 c -0.17,-1.66 -0.85,-1.93 -2.41,-1.93 h -2.75 z"
         inkscape:connector-curvature="0"
         style="fill:#000000;stroke-width:0" /><path
         id="path5444"
         d="m 387.6,643.54 h 0.71 c 0.13,0 0.22,0 0.22,0.16 0,0.09 -0.09,0.09 -0.21,0.09 h -0.66 l 0.26,1.03 c 0,0.04 0.02,0.07 0.02,0.1 0,0.13 -0.1,0.22 -0.24,0.22 -0.17,0 -0.28,-0.11 -0.33,-0.3 -0.04,-0.17 0.05,0.16 -0.26,-1.05 h -0.71 c -0.13,0 -0.22,0 -0.22,-0.15 0,-0.1 0.08,-0.1 0.21,-0.1 h 0.66 l -0.41,-1.64 c -0.05,-0.17 -0.11,-0.42 -0.11,-0.51 0,-0.41 0.35,-0.66 0.75,-0.66 0.77,0 1.21,0.97 1.21,1.06 0,0.09 -0.09,0.09 -0.11,0.09 -0.09,0 -0.09,-0.01 -0.15,-0.13 -0.19,-0.44 -0.55,-0.83 -0.93,-0.83 -0.15,0 -0.25,0.09 -0.25,0.34 0,0.07 0.03,0.22 0.05,0.29 z"
         inkscape:connector-curvature="0"
         style="fill:#000000;stroke-width:0" /><path
         id="path5446"
         d="m 398.99,645.54 h 0.03 0.03 0.03 0.02 0.01 0.01 l 0.02,0.01 h 0.01 0.02 0.01 l 0.01,0.01 h 0.02 0.01 l 0.01,0.01 h 0.01 l 0.01,0.01 0.01,0.01 0.01,0.01 h 0.01 l 0.01,0.01 0.01,0.01 v 0.01 h 0.01 v 0.01 0.01 h 0.01 v 0.01 0.01 0 l 0.01,0.01 v 0.01 0 0.01 0.01 0.01 0.01 0.01 c 0,0.2 -0.19,0.2 -0.33,0.2 h -5.96 c -0.14,0 -0.32,0 -0.32,-0.2 0,-0.2 0.18,-0.2 0.33,-0.2 z"
         inkscape:connector-curvature="0"
         style="fill:#000000;stroke-width:0" /><path
         id="path5448"
         d="m 399,643.61 h 0.02 0.01 0.03 0.03 0.01 l 0.01,0.01 h 0.02 0.01 0.02 0.01 l 0.01,0.01 h 0.02 0.01 l 0.01,0.01 h 0.01 l 0.01,0.01 h 0.01 l 0.01,0.01 0.01,0.01 0.01,0.01 0.01,0.01 h 0.01 v 0.01 0 l 0.01,0.01 v 0 0.01 l 0.01,0.01 v 0 0.01 0.01 h 0.01 v 0.01 0.01 0.01 0 0.01 0.01 0.01 c 0,0.2 -0.19,0.2 -0.34,0.2 h -5.94 c -0.15,0 -0.33,0 -0.33,-0.2 0,-0.2 0.18,-0.2 0.32,-0.2 z"
         inkscape:connector-curvature="0"
         style="fill:#000000;stroke-width:0" /><path
         id="path5450"
         d="m 407.14,644.29 v 0.11 0.11 l -0.02,0.1 -0.01,0.11 -0.02,0.11 -0.03,0.1 -0.03,0.1 -0.03,0.1 -0.04,0.09 -0.04,0.1 -0.04,0.09 -0.05,0.09 -0.05,0.08 -0.06,0.08 -0.06,0.08 -0.06,0.08 -0.06,0.07 -0.07,0.07 -0.07,0.07 -0.08,0.06 -0.07,0.05 -0.08,0.06 -0.08,0.05 -0.09,0.04 -0.08,0.04 -0.09,0.03 -0.09,0.03 -0.1,0.03 -0.09,0.02 -0.1,0.01 -0.1,0.01 h -0.1 c -0.47,0 -0.9,-0.16 -1.26,-0.5 v 1.93 c 0.2,-0.06 0.53,-0.12 0.85,-0.12 1.22,0 1.92,0.9 1.92,1.03 0,0.06 -0.03,0.11 -0.1,0.11 -0.01,0 -0.03,0 -0.08,-0.03 -0.2,-0.09 -0.69,-0.29 -1.36,-0.29 -0.39,0 -0.85,0.07 -1.32,0.28 -0.08,0.03 -0.1,0.03 -0.12,0.03 -0.1,0 -0.1,-0.08 -0.1,-0.24 v -2.94 c 0,-0.18 0,-0.26 0.14,-0.26 0.07,0 0.09,0.03 0.13,0.09 0.11,0.16 0.48,0.69 1.28,0.69 0.52,0 0.77,-0.45 0.85,-0.63 0.16,-0.37 0.18,-0.76 0.18,-1.25 0,-0.35 0,-0.95 -0.24,-1.36 -0.24,-0.39 -0.61,-0.65 -1.06,-0.65 -0.73,0 -1.3,0.53 -1.47,1.11 0.03,-0.01 0.06,-0.02 0.17,-0.02 0.33,0 0.5,0.25 0.5,0.49 0,0.24 -0.17,0.49 -0.5,0.49 -0.14,0 -0.49,-0.07 -0.49,-0.53 0,-0.85 0.69,-1.82 1.81,-1.82 1.15,0 2.16,0.96 2.16,2.22 z"
         inkscape:connector-curvature="0"
         style="fill:#000000;stroke-width:0" /><path
         id="path5452"
         d="m 412.23,645.47 v 0.15 0.15 0.15 l -0.01,0.15 -0.01,0.14 -0.01,0.15 -0.01,0.15 -0.02,0.14 -0.03,0.15 -0.02,0.15 -0.04,0.14 -0.03,0.14 -0.05,0.14 -0.05,0.15 -0.05,0.14 -0.03,0.06 -0.03,0.07 c -0.46,0.96 -1.28,1.12 -1.69,1.12 -0.6,0 -1.33,-0.26 -1.73,-1.19 -0.32,-0.68 -0.37,-1.45 -0.37,-2.25 0,-0.75 0.04,-1.64 0.44,-2.39 0.43,-0.81 1.16,-1.01 1.65,-1.01 v 0.22 c -0.39,0 -0.98,0.25 -1.16,1.2 -0.11,0.6 -0.11,1.51 -0.11,2.1 0,0.63 0,1.29 0.08,1.83 0.19,1.18 0.94,1.27 1.19,1.27 0.32,0 0.98,-0.18 1.17,-1.16 0.1,-0.56 0.1,-1.31 0.1,-1.94 0,-0.75 0,-1.42 -0.11,-2.06 -0.15,-0.94 -0.72,-1.24 -1.16,-1.24 v 0 -0.22 c 0.53,0 1.29,0.21 1.73,1.15 0.32,0.69 0.36,1.46 0.36,2.25 z"
         inkscape:connector-curvature="0"
         style="fill:#000000;stroke-width:0" /><path
         id="path5454"
         d="m 381.64,630.59 v 0 l 0.01,0.01 v 0 0 l 0.01,0.01 v 0 l 0.01,0.01 v 0 0 0.01 l 0.01,0.01 h 0.01 v 0.01 l 0.01,0.01 v 0 0.01 h 0.01 v 0.01 0 l 0.01,0.01 v 0 0.01 0 0.01 0 h 0.01 v 0.01 0 0 0.01 0 0 0.01 0 0 0 c 0,0.05 -0.04,0.1 -0.07,0.14 l -2.04,2.94 h 2.3 c 1.68,0 2.18,-0.35 2.38,-1.92 h 0.25 l -0.27,2.23 h -5.53 c -0.23,0 -0.26,0 -0.26,-0.23 l 2.48,-3.59 -2.36,-2.7 c -0.1,-0.1 -0.1,-0.12 -0.1,-0.15 0,-0.11 0.1,-0.11 0.24,-0.11 h 5.53 l 0.27,2.34 h -0.25 c -0.17,-1.66 -0.85,-1.93 -2.41,-1.93 h -2.75 z"
         inkscape:connector-curvature="0"
         style="fill:#000000;stroke-width:0" /><path
         id="path5456"
         d="m 388.14,628.47 -0.02,-0.01 h -0.02 l -0.01,-0.01 h -0.02 l -0.01,-0.01 -0.02,-0.01 h -0.01 l -0.02,-0.01 -0.01,-0.01 -0.01,-0.01 -0.02,-0.01 -0.01,-0.01 -0.01,-0.01 -0.01,-0.01 -0.01,-0.01 -0.01,-0.01 -0.01,-0.01 -0.01,-0.01 -0.01,-0.01 v -0.02 l -0.01,-0.01 -0.01,-0.01 v -0.01 l -0.01,-0.02 v -0.01 l -0.01,-0.01 v -0.01 -0.02 l -0.01,-0.01 v -0.01 -0.02 -0.01 c 0,-0.16 0.14,-0.22 0.23,-0.22 0.07,0 0.34,0.04 0.34,0.4 0,0.45 -0.51,0.6 -0.93,0.6 -1.09,0 -1.28,-0.8 -1.28,-1.02 0,-0.25 0.15,-0.42 0.24,-0.5 0.18,-0.14 0.31,-0.17 0.79,-0.25 0.15,-0.03 0.59,-0.12 0.59,-0.46 0,-0.12 -0.08,-0.39 -0.37,-0.56 -0.27,-0.15 -0.61,-0.15 -0.69,-0.15 -0.28,0 -0.68,0.06 -0.84,0.29 0.23,0.03 0.38,0.2 0.38,0.4 0,0.17 -0.12,0.25 -0.27,0.25 -0.2,0 -0.4,-0.16 -0.4,-0.46 0,-0.42 0.44,-0.68 1.12,-0.68 1.28,0 1.52,0.88 1.52,1.15 0,0.64 -0.71,0.77 -0.96,0.81 -0.07,0.02 -0.24,0.05 -0.28,0.06 -0.26,0.05 -0.39,0.19 -0.39,0.35 0,0.16 0.13,0.34 0.28,0.44 0.19,0.12 0.44,0.13 0.55,0.13 0.15,0 0.51,-0.02 0.67,-0.25 z"
         inkscape:connector-curvature="0"
         style="fill:#000000;stroke-width:0" /><path
         id="path5458"
         d="m 398.99,630.59 0.03,0.01 h 0.03 0.03 0.02 0.01 0.01 0.02 0.01 l 0.02,0.01 h 0.01 0.01 l 0.02,0.01 h 0.01 0.01 l 0.01,0.01 0.01,0.01 h 0.01 l 0.01,0.01 0.01,0.01 0.01,0.01 0.01,0.01 v 0 l 0.01,0.01 v 0.01 0 l 0.01,0.01 v 0 0.01 0.01 l 0.01,0.01 v 0 0.01 0.01 0.01 0.01 0 0.01 c 0,0.2 -0.19,0.2 -0.33,0.2 h -5.96 c -0.14,0 -0.32,0 -0.32,-0.2 0,-0.2 0.18,-0.2 0.33,-0.2 z"
         inkscape:connector-curvature="0"
         style="fill:#000000;stroke-width:0" /><path
         id="path5460"
         d="m 399,628.67 h 0.02 0.01 0.03 0.03 0.01 0.01 0.02 0.01 l 0.02,0.01 h 0.01 0.01 0.02 l 0.01,0.01 h 0.01 l 0.01,0.01 h 0.01 l 0.01,0.01 0.01,0.01 h 0.01 l 0.01,0.01 0.01,0.01 0.01,0.01 v 0 0.01 h 0.01 v 0.01 0 l 0.01,0.01 v 0.01 0 0.01 l 0.01,0.01 v 0.01 0 0.01 0.01 0.01 0.01 0.01 c 0,0.2 -0.19,0.2 -0.34,0.2 h -5.94 c -0.15,0 -0.33,0 -0.33,-0.2 0,-0.2 0.18,-0.2 0.32,-0.2 z"
         inkscape:connector-curvature="0"
         style="fill:#000000;stroke-width:0" /><path
         id="path5462"
         d="m 407.25,630.53 v 0.15 0.14 0.15 l -0.01,0.15 -0.01,0.15 -0.01,0.15 -0.02,0.14 -0.01,0.15 -0.03,0.15 -0.03,0.14 -0.03,0.15 -0.04,0.14 -0.04,0.14 -0.05,0.14 -0.05,0.14 -0.03,0.07 -0.03,0.07 c -0.46,0.95 -1.28,1.11 -1.69,1.11 -0.6,0 -1.33,-0.25 -1.74,-1.18 -0.32,-0.69 -0.36,-1.46 -0.36,-2.25 0,-0.75 0.04,-1.64 0.44,-2.4 0.43,-0.8 1.16,-1 1.64,-1 v 0.22 c -0.38,0 -0.97,0.24 -1.15,1.2 -0.11,0.6 -0.11,1.51 -0.11,2.1 0,0.63 0,1.29 0.08,1.82 0.19,1.19 0.94,1.27 1.18,1.27 0.33,0 0.99,-0.17 1.18,-1.16 0.1,-0.55 0.1,-1.31 0.1,-1.93 0,-0.75 0,-1.43 -0.11,-2.06 -0.15,-0.94 -0.72,-1.24 -1.17,-1.24 v 0 -0.22 c 0.54,0 1.3,0.21 1.74,1.15 0.31,0.69 0.36,1.46 0.36,2.25 z"
         inkscape:connector-curvature="0"
         style="fill:#000000;stroke-width:0" /></g>
    <g
       style="font-style:normal;font-variant:normal;font-weight:normal;font-stretch:normal;letter-spacing:normal;word-spacing:normal;text-anchor:start;fill:none;stroke:#000000;stroke-linecap:butt;stroke-linejoin:miter;stroke-miterlimit:10.433;stroke-dasharray:none;stroke-dashoffset:0;stroke-opacity:1"
       ns0:preamble="/home/jeremy/papers/2011-enief/inkscape.tex"
       ns0:text="\\begin{align*}\nS &amp;= 0 \\\\\n\\Sigma_t &amp;= 1 \\\\\n\\Sigma_s &amp;= 0.9\n\\end{align*}\n"
       word-spacing="normal"
       letter-spacing="normal"
       font-size-adjust="none"
       font-stretch="normal"
       font-weight="normal"
       font-variant="normal"
       font-style="normal"
       stroke-miterlimit="10.433"
       xml:space="preserve"
       transform="matrix(0.2822222,0,0,-0.2822222,-15.089708,321.921)"
       id="g7218"><path
         id="path7220"
         d="m 387.74,664.14 v 0 0.01 0 0 0.01 0 0 0.01 0 l -0.01,0.01 v 0 0 0.01 0 l -0.01,0.01 v 0 0 l -0.01,0.01 v 0 0 l -0.01,0.01 v 0 h -0.01 v 0.01 h -0.01 v 0 0 h -0.01 v 0 0 h -0.01 v 0.01 0 h -0.01 v 0 h -0.01 v 0 0 h -0.01 c -0.05,0 -0.06,-0.01 -0.18,-0.15 l -0.47,-0.57 c -0.26,0.47 -0.78,0.72 -1.43,0.72 -1.26,0 -2.45,-1.14 -2.45,-2.35 0,-0.8 0.52,-1.26 1.03,-1.41 l 1.06,-0.27 c 0.37,-0.09 0.92,-0.24 0.92,-1.06 0,-0.89 -0.82,-1.83 -1.79,-1.83 -0.64,0 -1.74,0.22 -1.74,1.46 0,0.23 0.05,0.47 0.06,0.53 0.01,0.04 0.02,0.05 0.02,0.07 0,0.1 -0.07,0.11 -0.12,0.11 -0.05,0 -0.07,-0.01 -0.1,-0.04 -0.04,-0.04 -0.6,-2.3 -0.6,-2.33 0,-0.06 0.05,-0.1 0.11,-0.1 0.05,0 0.06,0.01 0.18,0.14 l 0.49,0.57 c 0.43,-0.57 1.1,-0.71 1.68,-0.71 1.35,0 2.53,1.32 2.53,2.55 0,0.69 -0.34,1.02 -0.49,1.16 -0.23,0.23 -0.38,0.27 -1.26,0.5 -0.22,0.06 -0.58,0.16 -0.67,0.18 -0.27,0.09 -0.61,0.37 -0.61,0.9 0,0.81 0.8,1.65 1.74,1.65 0.83,0 1.44,-0.43 1.44,-1.54 0,-0.32 -0.05,-0.5 -0.05,-0.56 0,-0.01 0,-0.09 0.12,-0.09 0.1,0 0.11,0.02 0.15,0.19 z"
         inkscape:connector-curvature="0"
         style="fill:#000000;stroke-width:0" /><path
         id="path7222"
         d="m 397.61,660.48 h 0.03 0.03 0.03 l 0.01,0.01 h 0.02 0.01 0.01 0.02 0.01 l 0.02,0.01 h 0.01 0.01 l 0.01,0.01 h 0.02 l 0.01,0.01 h 0.01 l 0.01,0.01 0.01,0.01 0.01,0.01 0.01,0.01 0.01,0.01 v 0 0.01 h 0.01 v 0.01 0.01 h 0.01 v 0.01 0.01 0 0.01 0.01 l 0.01,0.01 v 0.01 0 0.01 0.01 c 0,0.2 -0.19,0.2 -0.33,0.2 h -5.96 c -0.14,0 -0.33,0 -0.33,-0.2 0,-0.2 0.19,-0.2 0.34,-0.2 z"
         inkscape:connector-curvature="0"
         style="fill:#000000;stroke-width:0" /><path
         id="path7224"
         d="m 397.62,658.56 h 0.01 0.02 0.02 0.03 0.02 0.01 0.01 0.02 0.01 l 0.01,0.01 h 0.02 0.01 l 0.01,0.01 h 0.02 l 0.01,0.01 h 0.01 l 0.01,0.01 h 0.01 l 0.01,0.01 0.01,0.01 0.01,0.01 v 0 l 0.01,0.01 v 0.01 0 l 0.01,0.01 v 0 0.01 l 0.01,0.01 v 0 0.01 0.01 0 0.01 l 0.01,0.01 v 0.01 0.01 0.01 0.01 c 0,0.19 -0.19,0.19 -0.34,0.19 h -5.94 c -0.15,0 -0.34,0 -0.34,-0.19 0,-0.2 0.19,-0.2 0.33,-0.2 z"
         inkscape:connector-curvature="0"
         style="fill:#000000;stroke-width:0" /><path
         id="path7226"
         d="m 405.87,660.41 v 0.15 0.15 l -0.01,0.15 v 0.15 l -0.01,0.15 -0.01,0.14 -0.02,0.15 -0.02,0.15 -0.02,0.14 -0.03,0.15 -0.03,0.14 -0.04,0.15 -0.04,0.14 -0.05,0.14 -0.06,0.14 -0.03,0.07 -0.03,0.07 c -0.45,0.95 -1.27,1.11 -1.69,1.11 -0.6,0 -1.32,-0.26 -1.73,-1.18 -0.32,-0.69 -0.37,-1.46 -0.37,-2.26 0,-0.74 0.04,-1.63 0.45,-2.39 0.43,-0.8 1.15,-1 1.64,-1 v 0.21 c -0.39,0 -0.97,0.25 -1.15,1.21 -0.11,0.59 -0.11,1.51 -0.11,2.09 0,0.64 0,1.29 0.08,1.83 0.19,1.18 0.93,1.27 1.18,1.27 0.33,0 0.99,-0.18 1.18,-1.16 0.09,-0.56 0.09,-1.31 0.09,-1.94 0,-0.74 0,-1.42 -0.11,-2.05 -0.14,-0.95 -0.71,-1.25 -1.16,-1.25 v 0 -0.21 c 0.54,0 1.29,0.2 1.73,1.15 0.32,0.68 0.37,1.46 0.37,2.24 z"
         inkscape:connector-curvature="0"
         style="fill:#000000;stroke-width:0" /><path
         id="path7228"
         d="m 381.01,645.53 v 0 0.01 h 0.01 v 0.01 h 0.01 v 0.01 0 h 0.01 v 0.01 0 l 0.01,0.01 v 0.01 h 0.01 v 0.01 l 0.01,0.01 v 0 0.01 h 0.01 v 0.01 0 0.01 h 0.01 v 0.01 0 0.01 0 0 0.01 0 h 0.01 v 0 0.01 0 0 0 0.01 c 0,0.05 -0.04,0.1 -0.07,0.14 l -2.04,2.94 h 2.3 c 1.68,0 2.17,-0.36 2.38,-1.93 h 0.25 l -0.28,2.24 h -5.52 c -0.24,0 -0.26,0 -0.26,-0.23 l 2.48,-3.6 -2.37,-2.69 c -0.1,-0.11 -0.1,-0.13 -0.1,-0.16 0,-0.11 0.1,-0.11 0.25,-0.11 h 5.52 l 0.28,2.35 h -0.25 c -0.18,-1.66 -0.85,-1.93 -2.41,-1.93 h -2.75 z"
         inkscape:connector-curvature="0"
         style="fill:#000000;stroke-width:0" /><path
         id="path7230"
         d="m 386.21,643.54 h 0.71 c 0.14,0 0.23,0 0.23,0.16 0,0.09 -0.09,0.09 -0.21,0.09 h -0.66 l 0.25,1.03 c 0.01,0.04 0.02,0.07 0.02,0.1 0,0.13 -0.09,0.22 -0.23,0.22 -0.18,0 -0.28,-0.11 -0.33,-0.3 -0.05,-0.17 0.04,0.16 -0.26,-1.05 h -0.71 c -0.14,0 -0.23,0 -0.23,-0.15 0,-0.1 0.09,-0.1 0.21,-0.1 h 0.66 l -0.41,-1.64 c -0.04,-0.17 -0.1,-0.42 -0.1,-0.51 0,-0.41 0.35,-0.66 0.74,-0.66 0.78,0 1.22,0.97 1.22,1.06 0,0.09 -0.1,0.09 -0.12,0.09 -0.08,0 -0.09,-0.01 -0.14,-0.13 -0.2,-0.44 -0.55,-0.83 -0.94,-0.83 -0.14,0 -0.24,0.09 -0.24,0.34 0,0.07 0.03,0.22 0.04,0.29 z"
         inkscape:connector-curvature="0"
         style="fill:#000000;stroke-width:0" /><path
         id="path7232"
         d="m 397.61,645.54 h 0.03 0.03 0.03 0.01 0.02 0.01 l 0.01,0.01 h 0.02 0.01 0.02 l 0.01,0.01 h 0.01 0.01 l 0.02,0.01 h 0.01 l 0.01,0.01 0.01,0.01 0.01,0.01 h 0.01 l 0.01,0.01 0.01,0.01 v 0.01 0 l 0.01,0.01 v 0.01 0 l 0.01,0.01 v 0.01 0 0.01 0.01 0 l 0.01,0.01 v 0.01 0.01 0.01 0.01 c 0,0.2 -0.19,0.2 -0.33,0.2 h -5.96 c -0.14,0 -0.33,0 -0.33,-0.2 0,-0.2 0.19,-0.2 0.34,-0.2 z"
         inkscape:connector-curvature="0"
         style="fill:#000000;stroke-width:0" /><path
         id="path7234"
         d="m 397.62,643.61 h 0.01 0.02 0.02 0.03 0.02 l 0.01,0.01 h 0.01 0.02 0.01 0.01 l 0.02,0.01 h 0.01 0.01 l 0.02,0.01 h 0.01 l 0.01,0.01 h 0.01 l 0.01,0.01 0.01,0.01 0.01,0.01 0.01,0.01 v 0 l 0.01,0.01 v 0 0.01 h 0.01 v 0.01 0.01 h 0.01 v 0.01 0.01 0 0.01 0.01 l 0.01,0.01 v 0 0.01 0.01 0.01 c 0,0.2 -0.19,0.2 -0.34,0.2 h -5.94 c -0.15,0 -0.34,0 -0.34,-0.2 0,-0.2 0.19,-0.2 0.33,-0.2 z"
         inkscape:connector-curvature="0"
         style="fill:#000000;stroke-width:0" /><path
         id="path7236"
         d="m 404.22,648.65 v 0.01 0.01 0.01 0.01 0.01 0.01 0.01 0.01 0.01 0.01 0 0.01 0.01 0.01 0 0.01 l -0.01,0.01 v 0 0.01 0.02 0.01 h -0.01 v 0.01 0.01 l -0.01,0.01 h -0.01 v 0.01 h -0.01 l -0.01,0.01 h -0.01 v 0 l -0.01,0.01 v 0 h -0.01 v 0 h -0.01 v 0 h -0.01 -0.01 v 0 h -0.01 -0.01 l -0.01,0.01 v 0 h -0.01 -0.01 -0.01 -0.01 -0.01 -0.01 -0.01 -0.01 c -0.62,-0.64 -1.49,-0.64 -1.81,-0.64 v -0.31 c 0.2,0 0.78,0 1.3,0.26 v -5.14 c 0,-0.36 -0.03,-0.48 -0.92,-0.48 h -0.32 v -0.31 c 0.35,0.03 1.21,0.03 1.61,0.03 0.4,0 1.26,0 1.61,-0.03 v 0.31 h -0.32 c -0.89,0 -0.92,0.11 -0.92,0.48 z"
         inkscape:connector-curvature="0"
         style="fill:#000000;stroke-width:0" /><path
         id="path7238"
         d="m 380.26,630.59 v 0 0.01 h 0.01 v 0 0.01 h 0.01 v 0.01 0 h 0.01 v 0.01 l 0.01,0.01 v 0 l 0.01,0.01 v 0.01 h 0.01 v 0.01 0 l 0.01,0.01 v 0 0.01 0 l 0.01,0.01 v 0 0.01 0 0 0.01 0 0 0.01 0 0 0.01 0 0 h 0.01 c 0,0.05 -0.05,0.1 -0.08,0.14 l -2.04,2.94 h 2.3 c 1.68,0 2.18,-0.35 2.39,-1.92 h 0.25 l -0.28,2.23 h -5.52 c -0.24,0 -0.26,0 -0.26,-0.23 l 2.48,-3.59 -2.37,-2.7 c -0.1,-0.1 -0.1,-0.12 -0.1,-0.15 0,-0.11 0.1,-0.11 0.25,-0.11 h 5.52 l 0.28,2.34 h -0.25 c -0.18,-1.66 -0.85,-1.93 -2.42,-1.93 h -2.74 z"
         inkscape:connector-curvature="0"
         style="fill:#000000;stroke-width:0" /><path
         id="path7240"
         d="m 386.75,628.47 -0.02,-0.01 h -0.01 l -0.02,-0.01 h -0.01 l -0.02,-0.01 -0.01,-0.01 h -0.02 l -0.01,-0.01 -0.01,-0.01 -0.02,-0.01 -0.01,-0.01 -0.01,-0.01 -0.01,-0.01 -0.01,-0.01 -0.01,-0.01 -0.01,-0.01 -0.01,-0.01 -0.01,-0.01 -0.01,-0.01 -0.01,-0.02 v -0.01 l -0.01,-0.01 -0.01,-0.01 v -0.02 l -0.01,-0.01 v -0.01 -0.01 l -0.01,-0.02 v -0.01 -0.01 -0.02 -0.01 c 0,-0.16 0.14,-0.22 0.23,-0.22 0.07,0 0.33,0.04 0.33,0.4 0,0.45 -0.5,0.6 -0.92,0.6 -1.09,0 -1.28,-0.8 -1.28,-1.02 0,-0.25 0.14,-0.42 0.24,-0.5 0.18,-0.14 0.3,-0.17 0.79,-0.25 0.14,-0.03 0.59,-0.12 0.59,-0.46 0,-0.12 -0.08,-0.39 -0.37,-0.56 -0.27,-0.15 -0.62,-0.15 -0.7,-0.15 -0.28,0 -0.67,0.06 -0.83,0.29 0.23,0.03 0.38,0.2 0.38,0.4 0,0.17 -0.13,0.25 -0.27,0.25 -0.2,0 -0.41,-0.16 -0.41,-0.46 0,-0.42 0.45,-0.68 1.12,-0.68 1.29,0 1.52,0.88 1.52,1.15 0,0.64 -0.7,0.77 -0.96,0.81 -0.06,0.02 -0.24,0.05 -0.28,0.06 -0.25,0.05 -0.38,0.19 -0.38,0.35 0,0.16 0.13,0.34 0.28,0.44 0.19,0.12 0.43,0.13 0.55,0.13 0.14,0 0.51,-0.02 0.66,-0.25 z"
         inkscape:connector-curvature="0"
         style="fill:#000000;stroke-width:0" /><path
         id="path7242"
         d="m 397.61,630.59 0.03,0.01 h 0.03 0.03 0.01 0.02 0.01 0.01 0.02 l 0.01,0.01 h 0.02 0.01 l 0.01,0.01 h 0.01 0.02 l 0.01,0.01 0.01,0.01 h 0.01 l 0.01,0.01 0.01,0.01 0.01,0.01 0.01,0.01 v 0 0.01 l 0.01,0.01 v 0 0.01 h 0.01 v 0.01 0.01 0.01 0 0.01 l 0.01,0.01 v 0.01 0.01 0 0.01 c 0,0.2 -0.19,0.2 -0.33,0.2 h -5.96 c -0.14,0 -0.33,0 -0.33,-0.2 0,-0.2 0.19,-0.2 0.34,-0.2 z"
         inkscape:connector-curvature="0"
         style="fill:#000000;stroke-width:0" /><path
         id="path7244"
         d="m 397.62,628.67 h 0.01 0.02 0.02 0.03 0.02 0.01 0.01 0.02 l 0.01,0.01 h 0.01 0.02 0.01 l 0.01,0.01 h 0.02 l 0.01,0.01 h 0.01 l 0.01,0.01 0.01,0.01 h 0.01 l 0.01,0.01 0.01,0.01 v 0.01 h 0.01 v 0.01 0 l 0.01,0.01 v 0 0.01 l 0.01,0.01 v 0 0.01 0.01 0.01 0 l 0.01,0.01 v 0.01 0.01 0.01 0.01 c 0,0.2 -0.19,0.2 -0.34,0.2 h -5.94 c -0.15,0 -0.34,0 -0.34,-0.2 0,-0.2 0.19,-0.2 0.33,-0.2 z"
         inkscape:connector-curvature="0"
         style="fill:#000000;stroke-width:0" /><path
         id="path7246"
         d="m 405.87,630.53 v 0.15 0.14 l -0.01,0.15 v 0.15 l -0.01,0.15 -0.01,0.15 -0.02,0.14 -0.02,0.15 -0.02,0.15 -0.03,0.14 -0.03,0.15 -0.04,0.14 -0.04,0.14 -0.05,0.14 -0.06,0.14 -0.03,0.07 -0.03,0.07 c -0.45,0.95 -1.27,1.11 -1.69,1.11 -0.6,0 -1.32,-0.25 -1.73,-1.18 -0.32,-0.69 -0.37,-1.46 -0.37,-2.25 0,-0.75 0.04,-1.64 0.45,-2.4 0.43,-0.8 1.15,-1 1.64,-1 v 0.22 c -0.39,0 -0.97,0.24 -1.15,1.2 -0.11,0.6 -0.11,1.51 -0.11,2.1 0,0.63 0,1.29 0.08,1.82 0.19,1.19 0.93,1.27 1.18,1.27 0.33,0 0.99,-0.17 1.18,-1.16 0.09,-0.55 0.09,-1.31 0.09,-1.93 0,-0.75 0,-1.43 -0.11,-2.06 -0.14,-0.94 -0.71,-1.24 -1.16,-1.24 v 0 -0.22 c 0.54,0 1.29,0.21 1.73,1.15 0.32,0.69 0.37,1.46 0.37,2.25 z"
         inkscape:connector-curvature="0"
         style="fill:#000000;stroke-width:0" /><path
         id="path7248"
         d="m 408.18,627.87 v 0.03 0.03 0.02 l -0.01,0.03 V 628 l -0.01,0.03 -0.01,0.02 -0.01,0.03 -0.01,0.02 -0.01,0.02 -0.02,0.03 -0.01,0.02 -0.01,0.02 -0.02,0.02 -0.02,0.02 -0.01,0.02 -0.02,0.01 -0.02,0.02 -0.02,0.01 -0.02,0.02 -0.02,0.01 -0.03,0.02 -0.02,0.01 -0.02,0.01 -0.03,0.01 -0.02,0.01 h -0.02 l -0.03,0.01 h -0.03 l -0.02,0.01 h -0.03 -0.03 c -0.28,0 -0.52,-0.24 -0.52,-0.53 0,-0.28 0.24,-0.52 0.52,-0.52 0.29,0 0.53,0.24 0.53,0.52 z"
         inkscape:connector-curvature="0"
         style="fill:#000000;stroke-width:0" /><path
         id="path7250"
         d="m 412.69,630.51 v -0.32 c 0,-2.33 -1.03,-2.78 -1.61,-2.78 -0.17,0 -0.71,0.02 -0.97,0.35 0.43,0 0.51,0.29 0.51,0.46 0,0.31 -0.24,0.46 -0.46,0.46 -0.15,0 -0.45,-0.09 -0.45,-0.48 0,-0.66 0.53,-1.07 1.38,-1.07 1.28,0 2.5,1.35 2.5,3.48 0,2.68 -1.15,3.35 -2.03,3.35 -0.55,0 -1.04,-0.18 -1.46,-0.62 -0.41,-0.45 -0.64,-0.87 -0.64,-1.61 0,-1.24 0.87,-2.22 1.99,-2.22 l 0.01,0.23 c -0.16,0 -0.62,0 -0.93,0.63 -0.18,0.36 -0.18,0.86 -0.18,1.35 0,0.53 0,1 0.21,1.37 0.27,0.5 0.65,0.63 1,0.63 0.46,0 0.78,-0.34 0.95,-0.79 0.12,-0.32 0.16,-0.94 0.16,-1.4 0,-0.82 -0.34,-1.79 -1.21,-1.79 v 0 l -0.01,-0.23 c 0.6,0 1.01,0.42 1.24,1 z"
         inkscape:connector-curvature="0"
         style="fill:#000000;stroke-width:0" /></g>
    <text
       xml:space="preserve"
       style="font-style:normal;font-variant:normal;font-weight:normal;font-stretch:normal;font-size:3.38667px;line-height:0%;font-family:Carlito;-inkscape-font-specification:Carlito;text-align:center;letter-spacing:0px;word-spacing:0px;text-anchor:middle;fill:#000000;fill-opacity:1;stroke:none;stroke-width:0.282222"
       x="-137.40166"
       y="34.472973"
       id="text4948"
       transform="rotate(-90)"><tspan
         style="font-style:normal;font-variant:normal;font-weight:normal;font-stretch:normal;font-size:3.38667px;line-height:1.25;font-family:Carlito;-inkscape-font-specification:Carlito;text-align:center;text-anchor:middle;stroke-width:0.282222"
         sodipodi:role="line"
         id="tspan4950"
         x="-137.40166"
         y="34.472973">Symmetry</tspan></text>
    <text
       xml:space="preserve"
       style="font-style:normal;font-variant:normal;font-weight:normal;font-stretch:normal;font-size:3.38667px;line-height:0%;font-family:Carlito;-inkscape-font-specification:Carlito;text-align:center;letter-spacing:0px;word-spacing:0px;text-anchor:middle;fill:#000000;fill-opacity:1;stroke:none;stroke-width:0.282222"
       x="81.862434"
       y="183.62137"
       id="text3319"><tspan
         style="font-style:normal;font-variant:normal;font-weight:normal;font-stretch:normal;font-size:3.38667px;line-height:1.25;font-family:Carlito;-inkscape-font-specification:Carlito;text-align:center;text-anchor:middle;stroke-width:0.282222"
         sodipodi:role="line"
         id="tspan3317"
         x="81.862434"
         y="183.62137">Symmetry</tspan></text>
    <text
       id="text4972"
       y="129.27786"
       x="95.273109"
       style="font-style:normal;font-variant:normal;font-weight:normal;font-stretch:normal;font-size:3.38667px;line-height:0%;font-family:Carlito;-inkscape-font-specification:Carlito;text-align:center;letter-spacing:0px;word-spacing:0px;text-anchor:middle;fill:#000000;fill-opacity:1;stroke:none;stroke-width:0.282222"
       xml:space="preserve"><tspan
         y="129.27786"
         x="95.273109"
         id="tspan4974"
         sodipodi:role="line"
         style="font-style:normal;font-variant:normal;font-weight:normal;font-stretch:normal;font-size:3.38667px;line-height:1.25;font-family:Carlito;-inkscape-font-specification:Carlito;text-align:center;text-anchor:middle;stroke-width:0.282222">Reflector</tspan></text>
    <g
       style="font-style:normal;font-variant:normal;font-weight:normal;font-stretch:normal;letter-spacing:normal;word-spacing:normal;text-anchor:start;fill:none;stroke:#000000;stroke-linecap:butt;stroke-linejoin:miter;stroke-miterlimit:10.433;stroke-dasharray:none;stroke-dashoffset:0;stroke-opacity:1"
       ns0:preamble="/home/jeremy/papers/2011-enief/inkscape.tex"
       ns0:text="$x=5$"
       word-spacing="normal"
       letter-spacing="normal"
       font-size-adjust="none"
       font-stretch="normal"
       font-weight="normal"
       font-variant="normal"
       font-style="normal"
       stroke-miterlimit="10.433"
       xml:space="preserve"
       transform="matrix(0.2822222,0,0,-0.2822222,16.283522,361.2529)"
       id="g4530"><path
         id="path4532"
         d="m 226.76,660.23 v 0.03 l 0.01,0.03 0.01,0.03 0.01,0.04 0.01,0.04 0.01,0.04 0.01,0.04 0.02,0.05 0.01,0.04 0.02,0.05 0.02,0.05 0.02,0.05 0.02,0.05 0.03,0.05 0.02,0.05 0.03,0.05 0.03,0.05 0.03,0.04 0.03,0.05 0.04,0.04 0.04,0.05 0.04,0.04 0.04,0.04 0.04,0.03 0.05,0.03 0.05,0.03 0.02,0.01 0.03,0.02 0.02,0.01 0.03,0.01 0.03,0.01 h 0.03 l 0.03,0.01 0.02,0.01 h 0.04 0.03 l 0.03,0.01 h 0.03 c 0.05,0 0.29,0 0.5,-0.13 -0.28,-0.05 -0.48,-0.3 -0.48,-0.54 0,-0.16 0.11,-0.35 0.38,-0.35 0.22,0 0.54,0.18 0.54,0.58 0,0.52 -0.59,0.66 -0.93,0.66 -0.58,0 -0.93,-0.53 -1.04,-0.76 -0.25,0.66 -0.79,0.76 -1.08,0.76 -1.03,0 -1.6,-1.29 -1.6,-1.53 0,-0.1 0.1,-0.1 0.12,-0.1 0.08,0 0.11,0.02 0.13,0.11 0.34,1.05 0.99,1.3 1.33,1.3 0.19,0 0.54,-0.09 0.54,-0.67 0,-0.31 -0.17,-0.97 -0.54,-2.36 -0.16,-0.62 -0.51,-1.04 -0.94,-1.04 -0.06,0 -0.29,0 -0.5,0.13 0.25,0.05 0.47,0.26 0.47,0.54 0,0.27 -0.22,0.35 -0.37,0.35 -0.3,0 -0.55,-0.26 -0.55,-0.58 0,-0.46 0.5,-0.65 0.94,-0.65 0.65,0 1.01,0.69 1.04,0.75 0.12,-0.37 0.48,-0.75 1.07,-0.75 1.03,0 1.6,1.28 1.6,1.53 0,0.1 -0.09,0.1 -0.12,0.1 -0.09,0 -0.11,-0.04 -0.13,-0.11 -0.33,-1.07 -1.01,-1.31 -1.33,-1.31 -0.38,0 -0.54,0.32 -0.54,0.66 0,0.22 0.06,0.44 0.17,0.87 z"
         inkscape:connector-curvature="0"
         style="fill:#000000;stroke-width:0" /><path
         id="path4534"
         d="m 238.73,660.48 h 0.03 0.03 0.02 l 0.02,0.01 h 0.01 0.02 0.01 0.02 0.01 l 0.01,0.01 h 0.02 0.01 l 0.01,0.01 h 0.01 l 0.02,0.01 h 0.01 l 0.01,0.01 0.01,0.01 0.01,0.01 0.01,0.01 v 0.01 h 0.01 v 0.01 0 l 0.01,0.01 v 0.01 0 l 0.01,0.01 v 0.01 0 0.01 0.01 0.01 0.01 h 0.01 v 0.01 0.01 c 0,0.2 -0.19,0.2 -0.33,0.2 h -5.96 c -0.14,0 -0.33,0 -0.33,-0.2 0,-0.2 0.19,-0.2 0.34,-0.2 z"
         inkscape:connector-curvature="0"
         style="fill:#000000;stroke-width:0" /><path
         id="path4536"
         d="m 238.74,658.56 h 0.01 0.01 0.03 0.03 0.01 0.02 0.01 0.02 0.01 l 0.01,0.01 h 0.02 0.01 l 0.01,0.01 h 0.01 l 0.02,0.01 h 0.01 l 0.01,0.01 H 239 l 0.01,0.01 0.01,0.01 0.01,0.01 v 0 0.01 l 0.01,0.01 v 0 0.01 h 0.01 v 0.01 0.01 h 0.01 v 0.01 0.01 0 0.01 0.01 0.01 l 0.01,0.01 v 0.01 0.01 c 0,0.19 -0.19,0.19 -0.34,0.19 h -5.94 c -0.15,0 -0.34,0 -0.34,-0.19 0,-0.2 0.19,-0.2 0.33,-0.2 z"
         inkscape:connector-curvature="0"
         style="fill:#000000;stroke-width:0" /><path
         id="path4538"
         d="m 246.88,659.23 v 0.11 l -0.01,0.11 -0.01,0.11 -0.02,0.1 -0.02,0.11 -0.02,0.1 -0.03,0.1 -0.04,0.1 -0.03,0.1 -0.04,0.09 -0.05,0.09 -0.05,0.09 -0.05,0.09 -0.05,0.08 -0.06,0.08 -0.06,0.07 -0.07,0.08 -0.07,0.06 -0.07,0.07 -0.07,0.06 -0.08,0.06 -0.08,0.05 -0.08,0.05 -0.08,0.04 -0.09,0.04 -0.09,0.04 -0.09,0.03 -0.09,0.02 -0.1,0.02 -0.09,0.02 h -0.1 l -0.1,0.01 c -0.48,0 -0.91,-0.16 -1.26,-0.51 v 1.94 c 0.19,-0.06 0.52,-0.13 0.84,-0.13 1.22,0 1.92,0.9 1.92,1.03 0,0.06 -0.03,0.11 -0.1,0.11 -0.01,0 -0.03,0 -0.08,-0.03 -0.2,-0.09 -0.69,-0.29 -1.35,-0.29 -0.4,0 -0.86,0.07 -1.33,0.28 -0.07,0.03 -0.09,0.03 -0.11,0.03 -0.1,0 -0.1,-0.08 -0.1,-0.24 v -2.94 c 0,-0.18 0,-0.26 0.14,-0.26 0.06,0 0.09,0.03 0.12,0.09 0.11,0.16 0.48,0.7 1.29,0.7 0.52,0 0.77,-0.46 0.84,-0.64 0.16,-0.37 0.18,-0.75 0.18,-1.25 0,-0.35 0,-0.94 -0.24,-1.36 -0.23,-0.39 -0.6,-0.65 -1.06,-0.65 -0.73,0 -1.29,0.53 -1.46,1.12 0.03,-0.01 0.06,-0.02 0.17,-0.02 0.33,0 0.49,0.25 0.49,0.48 0,0.24 -0.16,0.49 -0.49,0.49 -0.14,0 -0.49,-0.07 -0.49,-0.53 0,-0.85 0.69,-1.81 1.8,-1.81 1.15,0 2.17,0.95 2.17,2.21 z"
         inkscape:connector-curvature="0"
         style="fill:#000000;stroke-width:0" /></g>
    <g
       style="font-style:normal;font-variant:normal;font-weight:normal;font-stretch:normal;letter-spacing:normal;word-spacing:normal;text-anchor:start;fill:none;stroke:#000000;stroke-linecap:butt;stroke-linejoin:miter;stroke-miterlimit:10.433;stroke-dasharray:none;stroke-dashoffset:0;stroke-opacity:1"
       ns0:preamble="/home/jeremy/papers/2011-enief/inkscape.tex"
       ns0:text="$x=5$"
       word-spacing="normal"
       letter-spacing="normal"
       font-size-adjust="none"
       font-stretch="normal"
       font-weight="normal"
       font-variant="normal"
       font-style="normal"
       stroke-miterlimit="10.433"
       xml:space="preserve"
       transform="matrix(0.2822222,0,0,-0.2822222,49.094678,361.2529)"
       id="g3472"><path
         id="path3464"
         d="m 226.76,660.23 v 0.03 l 0.01,0.03 0.01,0.03 0.01,0.04 0.01,0.04 0.01,0.04 0.01,0.04 0.02,0.05 0.01,0.04 0.02,0.05 0.02,0.05 0.02,0.05 0.02,0.05 0.03,0.05 0.02,0.05 0.03,0.05 0.03,0.05 0.03,0.04 0.03,0.05 0.04,0.04 0.04,0.05 0.04,0.04 0.04,0.04 0.04,0.03 0.05,0.03 0.05,0.03 0.02,0.01 0.03,0.02 0.02,0.01 0.03,0.01 0.03,0.01 h 0.03 l 0.03,0.01 0.02,0.01 h 0.04 0.03 l 0.03,0.01 h 0.03 c 0.05,0 0.29,0 0.5,-0.13 -0.28,-0.05 -0.48,-0.3 -0.48,-0.54 0,-0.16 0.11,-0.35 0.38,-0.35 0.22,0 0.54,0.18 0.54,0.58 0,0.52 -0.59,0.66 -0.93,0.66 -0.58,0 -0.93,-0.53 -1.04,-0.76 -0.25,0.66 -0.79,0.76 -1.08,0.76 -1.03,0 -1.6,-1.29 -1.6,-1.53 0,-0.1 0.1,-0.1 0.12,-0.1 0.08,0 0.11,0.02 0.13,0.11 0.34,1.05 0.99,1.3 1.33,1.3 0.19,0 0.54,-0.09 0.54,-0.67 0,-0.31 -0.17,-0.97 -0.54,-2.36 -0.16,-0.62 -0.51,-1.04 -0.94,-1.04 -0.06,0 -0.29,0 -0.5,0.13 0.25,0.05 0.47,0.26 0.47,0.54 0,0.27 -0.22,0.35 -0.37,0.35 -0.3,0 -0.55,-0.26 -0.55,-0.58 0,-0.46 0.5,-0.65 0.94,-0.65 0.65,0 1.01,0.69 1.04,0.75 0.12,-0.37 0.48,-0.75 1.07,-0.75 1.03,0 1.6,1.28 1.6,1.53 0,0.1 -0.09,0.1 -0.12,0.1 -0.09,0 -0.11,-0.04 -0.13,-0.11 -0.33,-1.07 -1.01,-1.31 -1.33,-1.31 -0.38,0 -0.54,0.32 -0.54,0.66 0,0.22 0.06,0.44 0.17,0.87 z"
         inkscape:connector-curvature="0"
         style="fill:#000000;stroke-width:0" /><path
         id="path3466"
         d="m 238.73,660.48 h 0.03 0.03 0.02 l 0.02,0.01 h 0.01 0.02 0.01 0.02 0.01 l 0.01,0.01 h 0.02 0.01 l 0.01,0.01 h 0.01 l 0.02,0.01 h 0.01 l 0.01,0.01 0.01,0.01 0.01,0.01 0.01,0.01 v 0.01 h 0.01 v 0.01 0 l 0.01,0.01 v 0.01 0 l 0.01,0.01 v 0.01 0 0.01 0.01 0.01 0.01 h 0.01 v 0.01 0.01 c 0,0.2 -0.19,0.2 -0.33,0.2 h -5.96 c -0.14,0 -0.33,0 -0.33,-0.2 0,-0.2 0.19,-0.2 0.34,-0.2 z"
         inkscape:connector-curvature="0"
         style="fill:#000000;stroke-width:0" /><path
         id="path3468"
         d="m 238.74,658.56 h 0.01 0.01 0.03 0.03 0.01 0.02 0.01 0.02 0.01 l 0.01,0.01 h 0.02 0.01 l 0.01,0.01 h 0.01 l 0.02,0.01 h 0.01 l 0.01,0.01 H 239 l 0.01,0.01 0.01,0.01 0.01,0.01 v 0 0.01 l 0.01,0.01 v 0 0.01 h 0.01 v 0.01 0.01 h 0.01 v 0.01 0.01 0 0.01 0.01 0.01 l 0.01,0.01 v 0.01 0.01 c 0,0.19 -0.19,0.19 -0.34,0.19 h -5.94 c -0.15,0 -0.34,0 -0.34,-0.19 0,-0.2 0.19,-0.2 0.33,-0.2 z"
         inkscape:connector-curvature="0"
         style="fill:#000000;stroke-width:0" /><path
         id="path3470"
         d="m 246.88,659.23 v 0.11 l -0.01,0.11 -0.01,0.11 -0.02,0.1 -0.02,0.11 -0.02,0.1 -0.03,0.1 -0.04,0.1 -0.03,0.1 -0.04,0.09 -0.05,0.09 -0.05,0.09 -0.05,0.09 -0.05,0.08 -0.06,0.08 -0.06,0.07 -0.07,0.08 -0.07,0.06 -0.07,0.07 -0.07,0.06 -0.08,0.06 -0.08,0.05 -0.08,0.05 -0.08,0.04 -0.09,0.04 -0.09,0.04 -0.09,0.03 -0.09,0.02 -0.1,0.02 -0.09,0.02 h -0.1 l -0.1,0.01 c -0.48,0 -0.91,-0.16 -1.26,-0.51 v 1.94 c 0.19,-0.06 0.52,-0.13 0.84,-0.13 1.22,0 1.92,0.9 1.92,1.03 0,0.06 -0.03,0.11 -0.1,0.11 -0.01,0 -0.03,0 -0.08,-0.03 -0.2,-0.09 -0.69,-0.29 -1.35,-0.29 -0.4,0 -0.86,0.07 -1.33,0.28 -0.07,0.03 -0.09,0.03 -0.11,0.03 -0.1,0 -0.1,-0.08 -0.1,-0.24 v -2.94 c 0,-0.18 0,-0.26 0.14,-0.26 0.06,0 0.09,0.03 0.12,0.09 0.11,0.16 0.48,0.7 1.29,0.7 0.52,0 0.77,-0.46 0.84,-0.64 0.16,-0.37 0.18,-0.75 0.18,-1.25 0,-0.35 0,-0.94 -0.24,-1.36 -0.23,-0.39 -0.6,-0.65 -1.06,-0.65 -0.73,0 -1.29,0.53 -1.46,1.12 0.03,-0.01 0.06,-0.02 0.17,-0.02 0.33,0 0.49,0.25 0.49,0.48 0,0.24 -0.16,0.49 -0.49,0.49 -0.14,0 -0.49,-0.07 -0.49,-0.53 0,-0.85 0.69,-1.81 1.8,-1.81 1.15,0 2.17,0.95 2.17,2.21 z"
         inkscape:connector-curvature="0"
         style="fill:#000000;stroke-width:0" /></g>
    <g
       style="font-style:normal;font-variant:normal;font-weight:normal;font-stretch:normal;letter-spacing:normal;word-spacing:normal;text-anchor:start;fill:none;stroke:#000000;stroke-linecap:butt;stroke-linejoin:miter;stroke-miterlimit:10.433;stroke-dasharray:none;stroke-dashoffset:0;stroke-opacity:1"
       ns0:preamble="/home/jeremy/papers/2011-enief/inkscape.tex"
       ns0:text="$x=5$"
       word-spacing="normal"
       letter-spacing="normal"
       font-size-adjust="none"
       font-stretch="normal"
       font-weight="normal"
       font-variant="normal"
       font-style="normal"
       stroke-miterlimit="10.433"
       xml:space="preserve"
       transform="matrix(0.2822222,0,0,-0.2822222,-23.718656,323.98545)"
       id="g3482"><path
         id="path3474"
         d="m 226.76,660.23 v 0.03 l 0.01,0.03 0.01,0.03 0.01,0.04 0.01,0.04 0.01,0.04 0.01,0.04 0.02,0.05 0.01,0.04 0.02,0.05 0.02,0.05 0.02,0.05 0.02,0.05 0.03,0.05 0.02,0.05 0.03,0.05 0.03,0.05 0.03,0.04 0.03,0.05 0.04,0.04 0.04,0.05 0.04,0.04 0.04,0.04 0.04,0.03 0.05,0.03 0.05,0.03 0.02,0.01 0.03,0.02 0.02,0.01 0.03,0.01 0.03,0.01 h 0.03 l 0.03,0.01 0.02,0.01 h 0.04 0.03 l 0.03,0.01 h 0.03 c 0.05,0 0.29,0 0.5,-0.13 -0.28,-0.05 -0.48,-0.3 -0.48,-0.54 0,-0.16 0.11,-0.35 0.38,-0.35 0.22,0 0.54,0.18 0.54,0.58 0,0.52 -0.59,0.66 -0.93,0.66 -0.58,0 -0.93,-0.53 -1.04,-0.76 -0.25,0.66 -0.79,0.76 -1.08,0.76 -1.03,0 -1.6,-1.29 -1.6,-1.53 0,-0.1 0.1,-0.1 0.12,-0.1 0.08,0 0.11,0.02 0.13,0.11 0.34,1.05 0.99,1.3 1.33,1.3 0.19,0 0.54,-0.09 0.54,-0.67 0,-0.31 -0.17,-0.97 -0.54,-2.36 -0.16,-0.62 -0.51,-1.04 -0.94,-1.04 -0.06,0 -0.29,0 -0.5,0.13 0.25,0.05 0.47,0.26 0.47,0.54 0,0.27 -0.22,0.35 -0.37,0.35 -0.3,0 -0.55,-0.26 -0.55,-0.58 0,-0.46 0.5,-0.65 0.94,-0.65 0.65,0 1.01,0.69 1.04,0.75 0.12,-0.37 0.48,-0.75 1.07,-0.75 1.03,0 1.6,1.28 1.6,1.53 0,0.1 -0.09,0.1 -0.12,0.1 -0.09,0 -0.11,-0.04 -0.13,-0.11 -0.33,-1.07 -1.01,-1.31 -1.33,-1.31 -0.38,0 -0.54,0.32 -0.54,0.66 0,0.22 0.06,0.44 0.17,0.87 z"
         inkscape:connector-curvature="0"
         style="fill:#000000;stroke-width:0" /><path
         id="path3476"
         d="m 238.73,660.48 h 0.03 0.03 0.02 l 0.02,0.01 h 0.01 0.02 0.01 0.02 0.01 l 0.01,0.01 h 0.02 0.01 l 0.01,0.01 h 0.01 l 0.02,0.01 h 0.01 l 0.01,0.01 0.01,0.01 0.01,0.01 0.01,0.01 v 0.01 h 0.01 v 0.01 0 l 0.01,0.01 v 0.01 0 l 0.01,0.01 v 0.01 0 0.01 0.01 0.01 0.01 h 0.01 v 0.01 0.01 c 0,0.2 -0.19,0.2 -0.33,0.2 h -5.96 c -0.14,0 -0.33,0 -0.33,-0.2 0,-0.2 0.19,-0.2 0.34,-0.2 z"
         inkscape:connector-curvature="0"
         style="fill:#000000;stroke-width:0" /><path
         id="path3478"
         d="m 238.74,658.56 h 0.01 0.01 0.03 0.03 0.01 0.02 0.01 0.02 0.01 l 0.01,0.01 h 0.02 0.01 l 0.01,0.01 h 0.01 l 0.02,0.01 h 0.01 l 0.01,0.01 H 239 l 0.01,0.01 0.01,0.01 0.01,0.01 v 0 0.01 l 0.01,0.01 v 0 0.01 h 0.01 v 0.01 0.01 h 0.01 v 0.01 0.01 0 0.01 0.01 0.01 l 0.01,0.01 v 0.01 0.01 c 0,0.19 -0.19,0.19 -0.34,0.19 h -5.94 c -0.15,0 -0.34,0 -0.34,-0.19 0,-0.2 0.19,-0.2 0.33,-0.2 z"
         inkscape:connector-curvature="0"
         style="fill:#000000;stroke-width:0" /><path
         id="path3480"
         d="m 246.88,659.23 v 0.11 l -0.01,0.11 -0.01,0.11 -0.02,0.1 -0.02,0.11 -0.02,0.1 -0.03,0.1 -0.04,0.1 -0.03,0.1 -0.04,0.09 -0.05,0.09 -0.05,0.09 -0.05,0.09 -0.05,0.08 -0.06,0.08 -0.06,0.07 -0.07,0.08 -0.07,0.06 -0.07,0.07 -0.07,0.06 -0.08,0.06 -0.08,0.05 -0.08,0.05 -0.08,0.04 -0.09,0.04 -0.09,0.04 -0.09,0.03 -0.09,0.02 -0.1,0.02 -0.09,0.02 h -0.1 l -0.1,0.01 c -0.48,0 -0.91,-0.16 -1.26,-0.51 v 1.94 c 0.19,-0.06 0.52,-0.13 0.84,-0.13 1.22,0 1.92,0.9 1.92,1.03 0,0.06 -0.03,0.11 -0.1,0.11 -0.01,0 -0.03,0 -0.08,-0.03 -0.2,-0.09 -0.69,-0.29 -1.35,-0.29 -0.4,0 -0.86,0.07 -1.33,0.28 -0.07,0.03 -0.09,0.03 -0.11,0.03 -0.1,0 -0.1,-0.08 -0.1,-0.24 v -2.94 c 0,-0.18 0,-0.26 0.14,-0.26 0.06,0 0.09,0.03 0.12,0.09 0.11,0.16 0.48,0.7 1.29,0.7 0.52,0 0.77,-0.46 0.84,-0.64 0.16,-0.37 0.18,-0.75 0.18,-1.25 0,-0.35 0,-0.94 -0.24,-1.36 -0.23,-0.39 -0.6,-0.65 -1.06,-0.65 -0.73,0 -1.29,0.53 -1.46,1.12 0.03,-0.01 0.06,-0.02 0.17,-0.02 0.33,0 0.49,0.25 0.49,0.48 0,0.24 -0.16,0.49 -0.49,0.49 -0.14,0 -0.49,-0.07 -0.49,-0.53 0,-0.85 0.69,-1.81 1.8,-1.81 1.15,0 2.17,0.95 2.17,2.21 z"
         inkscape:connector-curvature="0"
         style="fill:#000000;stroke-width:0" /></g>
    <g
       style="font-style:normal;font-variant:normal;font-weight:normal;font-stretch:normal;letter-spacing:normal;word-spacing:normal;text-anchor:start;fill:none;stroke:#000000;stroke-linecap:butt;stroke-linejoin:miter;stroke-miterlimit:10.433;stroke-dasharray:none;stroke-dashoffset:0;stroke-opacity:1"
       ns0:preamble="/home/jeremy/papers/2011-enief/inkscape.tex"
       ns0:text="$x=5$"
       word-spacing="normal"
       letter-spacing="normal"
       font-size-adjust="none"
       font-stretch="normal"
       font-weight="normal"
       font-variant="normal"
       font-style="normal"
       stroke-miterlimit="10.433"
       xml:space="preserve"
       transform="matrix(0.2822222,0,0,-0.2822222,-23.718656,289.04775)"
       id="g3492"><path
         id="path3484"
         d="m 226.76,660.23 v 0.03 l 0.01,0.03 0.01,0.03 0.01,0.04 0.01,0.04 0.01,0.04 0.01,0.04 0.02,0.05 0.01,0.04 0.02,0.05 0.02,0.05 0.02,0.05 0.02,0.05 0.03,0.05 0.02,0.05 0.03,0.05 0.03,0.05 0.03,0.04 0.03,0.05 0.04,0.04 0.04,0.05 0.04,0.04 0.04,0.04 0.04,0.03 0.05,0.03 0.05,0.03 0.02,0.01 0.03,0.02 0.02,0.01 0.03,0.01 0.03,0.01 h 0.03 l 0.03,0.01 0.02,0.01 h 0.04 0.03 l 0.03,0.01 h 0.03 c 0.05,0 0.29,0 0.5,-0.13 -0.28,-0.05 -0.48,-0.3 -0.48,-0.54 0,-0.16 0.11,-0.35 0.38,-0.35 0.22,0 0.54,0.18 0.54,0.58 0,0.52 -0.59,0.66 -0.93,0.66 -0.58,0 -0.93,-0.53 -1.04,-0.76 -0.25,0.66 -0.79,0.76 -1.08,0.76 -1.03,0 -1.6,-1.29 -1.6,-1.53 0,-0.1 0.1,-0.1 0.12,-0.1 0.08,0 0.11,0.02 0.13,0.11 0.34,1.05 0.99,1.3 1.33,1.3 0.19,0 0.54,-0.09 0.54,-0.67 0,-0.31 -0.17,-0.97 -0.54,-2.36 -0.16,-0.62 -0.51,-1.04 -0.94,-1.04 -0.06,0 -0.29,0 -0.5,0.13 0.25,0.05 0.47,0.26 0.47,0.54 0,0.27 -0.22,0.35 -0.37,0.35 -0.3,0 -0.55,-0.26 -0.55,-0.58 0,-0.46 0.5,-0.65 0.94,-0.65 0.65,0 1.01,0.69 1.04,0.75 0.12,-0.37 0.48,-0.75 1.07,-0.75 1.03,0 1.6,1.28 1.6,1.53 0,0.1 -0.09,0.1 -0.12,0.1 -0.09,0 -0.11,-0.04 -0.13,-0.11 -0.33,-1.07 -1.01,-1.31 -1.33,-1.31 -0.38,0 -0.54,0.32 -0.54,0.66 0,0.22 0.06,0.44 0.17,0.87 z"
         inkscape:connector-curvature="0"
         style="fill:#000000;stroke-width:0" /><path
         id="path3486"
         d="m 238.73,660.48 h 0.03 0.03 0.02 l 0.02,0.01 h 0.01 0.02 0.01 0.02 0.01 l 0.01,0.01 h 0.02 0.01 l 0.01,0.01 h 0.01 l 0.02,0.01 h 0.01 l 0.01,0.01 0.01,0.01 0.01,0.01 0.01,0.01 v 0.01 h 0.01 v 0.01 0 l 0.01,0.01 v 0.01 0 l 0.01,0.01 v 0.01 0 0.01 0.01 0.01 0.01 h 0.01 v 0.01 0.01 c 0,0.2 -0.19,0.2 -0.33,0.2 h -5.96 c -0.14,0 -0.33,0 -0.33,-0.2 0,-0.2 0.19,-0.2 0.34,-0.2 z"
         inkscape:connector-curvature="0"
         style="fill:#000000;stroke-width:0" /><path
         id="path3488"
         d="m 238.74,658.56 h 0.01 0.01 0.03 0.03 0.01 0.02 0.01 0.02 0.01 l 0.01,0.01 h 0.02 0.01 l 0.01,0.01 h 0.01 l 0.02,0.01 h 0.01 l 0.01,0.01 H 239 l 0.01,0.01 0.01,0.01 0.01,0.01 v 0 0.01 l 0.01,0.01 v 0 0.01 h 0.01 v 0.01 0.01 h 0.01 v 0.01 0.01 0 0.01 0.01 0.01 l 0.01,0.01 v 0.01 0.01 c 0,0.19 -0.19,0.19 -0.34,0.19 h -5.94 c -0.15,0 -0.34,0 -0.34,-0.19 0,-0.2 0.19,-0.2 0.33,-0.2 z"
         inkscape:connector-curvature="0"
         style="fill:#000000;stroke-width:0" /><path
         id="path3490"
         d="m 246.88,659.23 v 0.11 l -0.01,0.11 -0.01,0.11 -0.02,0.1 -0.02,0.11 -0.02,0.1 -0.03,0.1 -0.04,0.1 -0.03,0.1 -0.04,0.09 -0.05,0.09 -0.05,0.09 -0.05,0.09 -0.05,0.08 -0.06,0.08 -0.06,0.07 -0.07,0.08 -0.07,0.06 -0.07,0.07 -0.07,0.06 -0.08,0.06 -0.08,0.05 -0.08,0.05 -0.08,0.04 -0.09,0.04 -0.09,0.04 -0.09,0.03 -0.09,0.02 -0.1,0.02 -0.09,0.02 h -0.1 l -0.1,0.01 c -0.48,0 -0.91,-0.16 -1.26,-0.51 v 1.94 c 0.19,-0.06 0.52,-0.13 0.84,-0.13 1.22,0 1.92,0.9 1.92,1.03 0,0.06 -0.03,0.11 -0.1,0.11 -0.01,0 -0.03,0 -0.08,-0.03 -0.2,-0.09 -0.69,-0.29 -1.35,-0.29 -0.4,0 -0.86,0.07 -1.33,0.28 -0.07,0.03 -0.09,0.03 -0.11,0.03 -0.1,0 -0.1,-0.08 -0.1,-0.24 v -2.94 c 0,-0.18 0,-0.26 0.14,-0.26 0.06,0 0.09,0.03 0.12,0.09 0.11,0.16 0.48,0.7 1.29,0.7 0.52,0 0.77,-0.46 0.84,-0.64 0.16,-0.37 0.18,-0.75 0.18,-1.25 0,-0.35 0,-0.94 -0.24,-1.36 -0.23,-0.39 -0.6,-0.65 -1.06,-0.65 -0.73,0 -1.29,0.53 -1.46,1.12 0.03,-0.01 0.06,-0.02 0.17,-0.02 0.33,0 0.49,0.25 0.49,0.48 0,0.24 -0.16,0.49 -0.49,0.49 -0.14,0 -0.49,-0.07 -0.49,-0.53 0,-0.85 0.69,-1.81 1.8,-1.81 1.15,0 2.17,0.95 2.17,2.21 z"
         inkscape:connector-curvature="0"
         style="fill:#000000;stroke-width:0" /></g>
  </g>
</svg>
