DBRep_DrawableShape

CASCADE Topology V3, (c) Open Cascade
Locations 0
Curve2ds 111
1 0 600 1 0 
2 0 0 1 0 -0 1 30
1 6.2831853071795862 -0 0 1 
1 0 -0 0 1 
1 0 0 1 0 
2 0 0 1 0 -0 1 30
1 0 600 1 0 
2 0 0 1 0 -0 1 30
1 6.2831853071795862 -0 0 1 
1 0 -0 0 1 
1 0 0 1 0 
2 0 0 1 0 -0 1 30
1 0 600 1 0 
2 0 0 1 0 -0 1 30
1 6.2831853071795862 -0 0 1 
1 0 -0 0 1 
1 0 0 1 0 
2 0 0 1 0 -0 1 30
1 0 600 1 0 
2 0 0 1 0 -0 1 30
1 6.2831853071795862 -0 0 1 
1 0 -0 0 1 
1 0 0 1 0 
2 0 0 1 0 -0 1 30
1 0 600 1 0 
2 0 0 1 0 -0 1 30
1 6.2831853071795862 -0 0 1 
1 0 -0 0 1 
1 0 0 1 0 
2 0 0 1 0 -0 1 30
1 0 600 1 0 
2 0 0 1 0 -0 1 30
1 6.2831853071795862 -0 0 1 
1 0 -0 0 1 
1 0 0 1 0 
2 0 0 1 0 -0 1 30
1 0 600 1 0 
2 0 0 1 0 -0 1 30
1 6.2831853071795862 -0 0 1 
1 0 -0 0 1 
1 0 0 1 0 
2 0 0 1 0 -0 1 30
1 0 352.44015449434818 1 0 
2 0 0 1 0 -0 1 15
1 5.5511151231257827e-17 352.44015449434823 1 0 
1 6.2831853071795862 -0 0 1 
1 0 -0 0 1 
8 0 352.44015449434829
1 6.2831853071795862 -0 0 1 
8 0 352.44015449434829
1 0 0 0 1 
1 0 0 1 0 
2 0 0 1 0 -0 1 15
8 3.1415926535897931 6.2831853071795862
1 0 0 1 0 
8 3.1415926535897931 6.2831853071795862
1 9.4247779607693793 0 -1 -0 
8 0 3.1415926535897931
1 0 0 1 0 
8 0 3.1415926535897931
1 3.1415926535897931 0 -1 -0 
1 0 320.40014044940744 1 0 
2 0 0 1 0 -0 1 15
1 0 320.4001404494075 1 0 
1 6.2831853071795862 -0 0 1 
1 0 -0 0 1 
8 0 320.4001404494075
1 6.2831853071795862 -0 0 1 
8 0 320.4001404494075
1 0 0 0 1 
1 0 0 1 0 
2 0 0 1 0 -0 1 15
8 3.1415926535897931 6.2831853071795862
1 0 0 1 0 
8 3.1415926535897931 6.2831853071795862
1 9.4247779607693793 0 -1 -0 
8 0 3.1415926535897931
1 0 0 1 0 
8 0 3.1415926535897931
1 3.1415926535897931 0 -1 -0 
1 0 288.36012640446666 1 0 
2 0 0 1 0 -0 1 15
1 6.9388939039072276e-18 288.36012640446666 1 0 
1 6.2831853071795862 -0 0 1 
1 0 -0 0 1 
8 0 288.36012640446666
1 6.2831853071795862 -0 0 1 
8 0 288.36012640446666
1 0 0 0 1 
1 0 0 1 0 
2 0 0 1 0 -0 1 15
8 3.1415926535897931 6.2831853071795862
1 0 0 1 0 
8 3.1415926535897931 6.2831853071795862
1 9.4247779607693793 0 -1 -0 
8 0 3.1415926535897931
1 0 0 1 0 
8 0 3.1415926535897931
1 3.1415926535897931 0 -1 -0 
1 0 705 1 0 
2 0 0 1 0 -0 1 300
1 6.2831853071795862 -0 0 1 
1 0 -0 0 1 
1 0 0 1 0 
2 0 0 1 0 -0 1 300
3 -123.75000000000003 -84.437476868982742 -0.50000000000000022 -0.8660254037844386 0.8660254037844386 -0.50000000000000022 16.02000702247037 15
7 0 0  8 30 5  0 59.131781130786067  0.19634954084936213 59.657010721971588  0.39269908169956125 60.400264038638852  0.58904862254530599 61.33068208215991  0.78539816340071411 62.399489937000908  0.9817477042442988 63.543739123357227  1.1780972450961826 64.693966807441029  1.3744467859455345 65.783414413703852  1.8653206380689396 68.21237945977299  2.1598449493367298 69.404570347986009  2.4543692606348486 70.138933819514932  2.7488935718592984 70.271922736486886  3.0434178831746976 69.762371845485177  3.3379421944318892 68.703346764217713  3.6324665057131984 67.275088688567365  4.0742529726242633 64.893669636144821  4.2215151282613288 64.060024182261444  4.3687772838989645 63.212770451724282  4.5160394395365984 62.379985766561731  4.6633015951733796 61.589764971181012  4.8105637508095285 60.86819360718836  4.9578259064463932 60.237537592669923  5.2523502177204371 59.192589932022656  5.3996123733574235 58.778298668323814  5.546874528994465 58.489451476018758  5.6941366846315304 58.338320378381468  5.8413988402688517 58.330944180780989  5.9886609959061321 58.466575487258595  6.135923151542559 58.737858937396929  6.28318530717958 59.131781130786067 
 3.6371825268651761 9 5.2079788536600784 7 7.5641733438524206 7 8.7422705889485925 7 9.9203678340447627 9
3 135 -64.951905283832915 1 -1.8947806286936004e-16 1.8947806286936004e-16 1 16.02000702247037 15
7 0 0  8 30 5  0 69.705028089881466  0.19634954084936204 69.705028089881466  0.39269908169819701 69.457186224964971  0.58904862254848922 68.96150460044737  0.78539816339798563 68.23835856205551  0.98174770424657254 67.328540184040321  1.1780972450956142 66.288960686710197  1.3744467859455356 65.18449425715913  1.7180584824319189 63.251678464423222  1.8653206380687555 62.423329142111072  2.0125827937064926 61.622351385856746  2.1598449493430962 60.876124070000515  2.3071071049795933 60.210112767431383  2.4543692606171676 59.645996313927895  2.6016314162540479 59.200201397374137  2.9697868053466014 58.407712202702392  3.1906800388005649 58.222016618034104  3.4115732722584653 58.361469384311931  3.6324665057036327 58.831273546908051  3.853359739168809 59.600893578579416  4.0742529726239809 60.606540011438483  4.295146206079794 61.763995349025322  4.736932672990859 64.201294708056253  4.9578259064473968 65.481140078467433  5.1787191398871073 66.731563987093978  5.3996123733777495 67.855619818845298  5.620505606802908 68.764008812315296  5.8413988402680843 69.391352783393813  6.062292073724044 69.705028089881466  6.2831853071795765 69.705028089881466 
 2.0236265985141532e-16 9 1.5707963267948957 7 2.7488935718910623 7 4.5160394395353247 7 6.2831853071795862 9
3 -11.249999999999973 149.38938215281567 -0.49999999999999994 0.86602540378443871 -0.86602540378443871 -0.49999999999999994 16.02000702247037 15
7 0 0  8 30 5  -8.8817841970012523e-16 69.028275048977093  0.1963495408493614 69.553504640162615  0.39269908170420109 69.860710755187029  0.58904862252231993 69.919038099615136  0.78539816342229329 69.715559665462933  0.98174770420948931 69.259095600573346  1.1780972451003677 68.580311342491768  1.3744467859455352 67.726586450559168  1.7180584824319194 66.02631091831077  1.8653206380692939 65.231324482821321  2.0125827937058958 64.394120939892218  2.1598449493442118 63.541847435550153  2.3071071049815046 62.703048338124063  2.4543692606164687 61.905631933028658  2.6016314162540457 61.17490565612745  2.969786805346601 59.567920515748582  3.1906800387975878 58.801576683094027  3.4115732722318413 58.304770842165453  3.6324665057079315 58.128594116948079  3.8533597391549179 58.292371246236144  4.0742529726237322 58.777721148675482  4.2951462060797976 59.534343186078857  4.7369326729908625 61.447855810824805  4.9578259064644286 62.604747457291523  5.1787191398150085 63.890628103225026  5.3996123734147901 65.21356726862723  5.6205056067599131 66.471757162624272  5.841398840286935 67.57057162962883  6.0622920737240449 68.437391758893384  6.2831853071795774 69.028275048977093 
 5.7875954339042028 9 7.3583917606990994 7 8.536489005795266 7 10.303634873439528 7 12.070780741083789 9
1 6.2831853071795862 -0 0 1 
1 0 -0 0 1 
1 6.2831853071795862 -0 0 1 
1 0 -0 0 1 
1 6.2831853071795862 -0 0 1 
1 0 -0 0 1 
1 0 640.80028089881489 1 0 
2 0 0 1 0 -0 1 15
1 0 640.80028089881489 1 0 
2 0 0 1 0 -0 1 15
1 0 640.80028089881489 1 0 
2 0 0 1 0 -0 1 15
1 0 128.16005617976296 1 0 
2 0 0 1 0 -0 1 15
1 0 128.16005617976296 1 0 
2 0 0 1 0 -0 1 15
1 0 128.16005617976296 1 0 
2 0 0 1 0 -0 1 15
Curves 45
2 0 0 600 0 0 1 1 0 -0 -0 1 0 30
1 30 -7.3478807948841199e-15 0 0 0 1 
2 0 0 0 0 0 1 1 0 -0 -0 1 0 30
2 75.000000000000014 129.9038105676658 600 0 0 1 1 0 -0 -0 1 0 30
1 105.00000000000001 129.9038105676658 0 0 0 1 
2 75.000000000000014 129.9038105676658 0 0 0 1 1 0 -0 -0 1 0 30
2 -74.999999999999972 129.9038105676658 600 0 0 1 1 0 -0 -0 1 0 30
1 -44.999999999999972 129.90381056766577 0 0 0 1 
2 -74.999999999999972 129.9038105676658 0 0 0 1 1 0 -0 -0 1 0 30
2 -150 1.8369701987210297e-14 600 0 0 1 1 0 -0 -0 1 0 30
1 -120 1.1021821192326182e-14 0 0 0 1 
2 -150 1.8369701987210297e-14 0 0 0 1 1 0 -0 -0 1 0 30
2 -75.000000000000071 -129.90381056766574 600 0 0 1 1 0 -0 -0 1 0 30
1 -45.000000000000071 -129.90381056766577 0 0 0 1 
2 -75.000000000000071 -129.90381056766574 0 0 0 1 1 0 -0 -0 1 0 30
2 75.000000000000014 -129.9038105676658 600 0 0 1 1 0 -0 -0 1 0 30
1 105.00000000000001 -129.9038105676658 0 0 0 1 
2 75.000000000000014 -129.9038105676658 0 0 0 1 1 0 -0 -0 1 0 30
2 150 -3.6739403974420595e-14 600 0 0 1 1 0 -0 -0 1 0 30
1 180 -4.4087284769304716e-14 0 0 0 1 
2 150 -3.6739403974420595e-14 0 0 0 1 1 0 -0 -0 1 0 30
2 -11.250000000000057 -64.951905283832886 269.99999999999994 -0.35112344158839182 6.6530189540191365e-17 -0.93632917756904455 -0.93632917756904455 0 0.35112344158839182 2.3360309120880014e-17 1 6.2294157655680024e-17 15
1 98.455062336464337 -64.951905283832915 605.26685162382591 -0.35112344158839176 6.6530189540191365e-17 -0.93632917756904455 
2 112.5 -64.951905283832915 600 -0.35112344158839176 6.6530189540191365e-17 -0.93632917756904455 -0.93632917756904455 -6.1629758220391547e-33 0.35112344158839176 2.3360309120880008e-17 1 6.2294157655680037e-17 15
2 -56.249999999999993 32.475952641916479 299.99999999999994 0.17556172079419594 0.30408182027976866 -0.93632917756904455 -6.9388939039072268e-18 -0.95110127724442239 -0.30887920037456107 -0.98446842620359387 0.054227363935293205 -0.16697697688258845 15
1 -112.50000000000003 -79.218424442499213 595.36681199438158 0.17556172079419594 0.30408182027976866 -0.93632917756904455 
2 -112.50000000000003 -64.951905283832872 600 0.17556172079419594 0.30408182027976866 -0.93632917756904455 -6.9388939039072268e-18 -0.95110127724442239 -0.30887920037456107 -0.98446842620359387 0.054227363935293205 -0.16697697688258845 15
2 50.625000000000007 42.218738434491385 330 0.1755617207941958 -0.30408182027976871 -0.93632917756904455 0 -0.95110127724442239 0.30887920037456112 -0.98446842620359387 -0.054227363935293156 -0.16697697688258828 15
1 2.8700979783660224e-14 115.63729140899946 604.63318800561842 0.17556172079419582 -0.30408182027976871 -0.93632917756904455 
2 2.4980018054066022e-14 129.9038105676658 600 0.17556172079419582 -0.30408182027976871 -0.93632917756904455 6.9388939039072268e-18 -0.95110127724442239 0.30887920037456112 -0.98446842620359387 -0.054227363935293177 -0.16697697688258831 15
2 0 0 660 0 0 1 1 0 -0 -0 1 0 300
1 300 -7.347880794884119e-14 -45 0 0 1 
2 0 0 -45 0 0 1 1 0 -0 -0 1 0 300
3 -123.75000000000003 -84.437476868982742 660 0 0 1 -0.50000000000000022 -0.8660254037844386 0 0.8660254037844386 -0.50000000000000022 0 16.02000702247037 15
3 135 -64.951905283832915 660 0 0 1 1 -1.8947806286936004e-16 0 1.8947806286936004e-16 1 -0 16.02000702247037 15
3 -11.249999999999973 149.38938215281567 660 0 0 1 -0.49999999999999994 0.86602540378443871 0 -0.86602540378443871 -0.49999999999999994 0 16.02000702247037 15
1 -112.50000000000003 -50.685386125166538 604.63318800561842 -0.17556172079419596 -0.30408182027976871 0.93632917756904455 
1 126.54493766353566 -64.951905283832915 594.73314837617409 0.35112344158839176 -6.6530189540191365e-17 0.93632917756904455 
1 2.8492812966543e-14 144.17032972633214 595.36681199438158 -0.17556172079419582 0.30408182027976871 0.93632917756904455 
2 4.2632564145606011e-14 129.90381056766583 -1.1368683772161603e-13 0.17556172079419594 0.30408182027976866 -0.93632917756904455 -6.9388939039072268e-18 -0.95110127724442239 -0.30887920037456107 -0.98446842620359387 0.054227363935293205 -0.16697697688258845 15
2 -112.50000000000006 -64.951905283832872 -1.1368683772161603e-13 -0.35112344158839176 6.6530189540191365e-17 -0.93632917756904455 -0.93632917756904455 -6.1629758220391547e-33 0.35112344158839176 2.3360309120880008e-17 1 6.2294157655680037e-17 15
2 112.50000000000003 -64.951905283832929 -1.1368683772161603e-13 0.17556172079419582 -0.30408182027976871 -0.93632917756904455 6.9388939039072268e-18 -0.95110127724442239 0.30887920037456112 -0.98446842620359387 -0.054227363935293177 -0.16697697688258831 15
2 157.5 -64.951905283832929 720 0.35112344158839176 -6.6530189540191365e-17 0.93632917756904455 0.93632917756904455 6.1629758220391547e-33 -0.35112344158839176 2.3360309120880008e-17 1 6.2294157655680037e-17 15
2 -135.00000000000006 -103.92304845413261 720 -0.17556172079419596 -0.30408182027976871 0.93632917756904455 0 0.95110127724442239 0.30887920037456112 -0.98446842620359387 0.054227363935293212 -0.16697697688258845 15
2 -22.499999999999972 168.87495373796554 720 -0.17556172079419582 0.30408182027976871 0.93632917756904455 -6.9388939039072268e-18 0.95110127724442239 -0.30887920037456112 -0.98446842620359387 -0.054227363935293177 -0.16697697688258831 15
Polygon3D 0
PolygonOnTriangulations 0
Surfaces 45
2 0 0 0 0 0 1 1 0 -0 -0 1 0 30
1 0 0 600 0 0 1 1 0 -0 -0 1 0 
1 0 0 0 0 0 1 1 0 -0 -0 1 0 
2 75.000000000000014 129.9038105676658 0 0 0 1 1 0 -0 -0 1 0 30
1 75.000000000000014 129.9038105676658 600 0 0 1 1 0 -0 -0 1 0 
1 75.000000000000014 129.9038105676658 0 0 0 1 1 0 -0 -0 1 0 
2 -74.999999999999972 129.9038105676658 0 0 0 1 1 0 -0 -0 1 0 30
1 -74.999999999999972 129.9038105676658 600 0 0 1 1 0 -0 -0 1 0 
1 -74.999999999999972 129.9038105676658 0 0 0 1 1 0 -0 -0 1 0 
2 -150 1.8369701987210297e-14 0 0 0 1 1 0 -0 -0 1 0 30
1 -150 1.8369701987210297e-14 600 0 0 1 1 0 -0 -0 1 0 
1 -150 1.8369701987210297e-14 0 0 0 1 1 0 -0 -0 1 0 
2 -75.000000000000071 -129.90381056766574 0 0 0 1 1 0 -0 -0 1 0 30
1 -75.000000000000071 -129.90381056766574 600 0 0 1 1 0 -0 -0 1 0 
1 -75.000000000000071 -129.90381056766574 0 0 0 1 1 0 -0 -0 1 0 
2 75.000000000000014 -129.9038105676658 0 0 0 1 1 0 -0 -0 1 0 30
1 75.000000000000014 -129.9038105676658 600 0 0 1 1 0 -0 -0 1 0 
1 75.000000000000014 -129.9038105676658 0 0 0 1 1 0 -0 -0 1 0 
2 150 -3.6739403974420595e-14 0 0 0 1 1 0 -0 -0 1 0 30
1 150 -3.6739403974420595e-14 600 0 0 1 1 0 -0 -0 1 0 
1 150 -3.6739403974420595e-14 0 0 0 1 1 0 -0 -0 1 0 
2 112.5 -64.951905283832915 600 -0.35112344158839176 6.6530189540191365e-17 -0.93632917756904455 -0.93632917756904455 -3.0814879110195774e-33 0.35112344158839176 2.3360309120880011e-17 1 6.2294157655680037e-17 15
2 112.5 -64.951905283832915 600 -0.35112344158839182 6.6530189540191365e-17 -0.93632917756904455 -0.93632917756904455 0 0.35112344158839182 2.3360309120880014e-17 1 6.2294157655680024e-17 15
1 -11.250000000000057 -64.951905283832886 269.99999999999994 -0.35112344158839182 6.6530189540191365e-17 -0.93632917756904455 -0.93632917756904455 0 0.35112344158839182 2.3360309120880014e-17 1 6.2294157655680024e-17 
1 112.5 -64.951905283832915 600 -0.35112344158839176 6.6530189540191365e-17 -0.93632917756904455 -0.93632917756904455 -3.0814879110195774e-33 0.35112344158839176 2.3360309120880011e-17 1 6.2294157655680037e-17 
2 112.5 -64.951905283832915 600 0.35112344158839176 -6.6530189540191365e-17 0.93632917756904455 0.93632917756904455 3.0814879110195774e-33 -0.35112344158839176 2.3360309120880011e-17 1 6.2294157655680037e-17 15
2 -112.50000000000003 -64.951905283832872 600 0.17556172079419594 0.30408182027976866 -0.93632917756904455 -6.9388939039072284e-18 -0.9511012772444225 -0.30887920037456112 -0.98446842620359387 0.054227363935293205 -0.16697697688258845 15
2 -112.50000000000003 -64.951905283832872 600 0.17556172079419594 0.30408182027976866 -0.93632917756904455 -6.9388939039072284e-18 -0.9511012772444225 -0.30887920037456112 -0.98446842620359387 0.054227363935293205 -0.16697697688258845 15
1 -56.249999999999993 32.475952641916479 299.99999999999994 0.17556172079419594 0.30408182027976866 -0.93632917756904455 -6.9388939039072284e-18 -0.9511012772444225 -0.30887920037456112 -0.98446842620359387 0.054227363935293205 -0.16697697688258845 
1 -112.50000000000003 -64.951905283832872 600 0.17556172079419594 0.30408182027976866 -0.93632917756904455 -6.9388939039072284e-18 -0.9511012772444225 -0.30887920037456112 -0.98446842620359387 0.054227363935293205 -0.16697697688258845 
2 -112.50000000000003 -64.951905283832872 600 -0.17556172079419596 -0.30408182027976871 0.93632917756904455 0 0.95110127724442239 0.30887920037456112 -0.98446842620359387 0.054227363935293212 -0.16697697688258845 15
2 2.4980018054066022e-14 129.9038105676658 600 0.17556172079419582 -0.30408182027976871 -0.93632917756904455 6.9388939039072284e-18 -0.9511012772444225 0.30887920037456112 -0.98446842620359398 -0.054227363935293177 -0.16697697688258833 15
2 2.4980018054066022e-14 129.9038105676658 600 0.1755617207941958 -0.30408182027976871 -0.93632917756904455 6.9388939039072284e-18 -0.9511012772444225 0.30887920037456112 -0.98446842620359398 -0.054227363935293163 -0.16697697688258831 15
1 50.625000000000007 42.218738434491385 330 0.1755617207941958 -0.30408182027976871 -0.93632917756904455 6.9388939039072284e-18 -0.9511012772444225 0.30887920037456112 -0.98446842620359398 -0.054227363935293163 -0.16697697688258831 
1 2.4980018054066022e-14 129.9038105676658 600 0.17556172079419582 -0.30408182027976871 -0.93632917756904455 6.9388939039072284e-18 -0.9511012772444225 0.30887920037456112 -0.98446842620359398 -0.054227363935293177 -0.16697697688258833 
2 2.4980018054066022e-14 129.9038105676658 600 -0.17556172079419582 0.30408182027976871 0.93632917756904455 -6.9388939039072284e-18 0.9511012772444225 -0.30887920037456112 -0.98446842620359398 -0.054227363935293177 -0.16697697688258833 15
2 0 0 -45 0 0 1 1 0 -0 -0 1 0 300
1 0 0 660 0 0 1 1 0 -0 -0 1 0 
1 0 0 -45 0 0 1 1 0 -0 -0 1 0 
1 4.2632564145606011e-14 129.90381056766583 -1.1368683772161603e-13 0.17556172079419594 0.30408182027976866 -0.93632917756904455 -6.9388939039072284e-18 -0.9511012772444225 -0.30887920037456112 -0.98446842620359387 0.054227363935293205 -0.16697697688258845 
1 -112.50000000000006 -64.951905283832872 -1.1368683772161603e-13 -0.35112344158839176 6.6530189540191365e-17 -0.93632917756904455 -0.93632917756904455 -3.0814879110195774e-33 0.35112344158839176 2.3360309120880011e-17 1 6.2294157655680037e-17 
1 112.50000000000003 -64.951905283832929 -1.1368683772161603e-13 0.17556172079419582 -0.30408182027976871 -0.93632917756904455 6.9388939039072284e-18 -0.9511012772444225 0.30887920037456112 -0.98446842620359398 -0.054227363935293177 -0.16697697688258833 
1 157.5 -64.951905283832929 720 0.35112344158839176 -6.6530189540191365e-17 0.93632917756904455 0.93632917756904455 3.0814879110195774e-33 -0.35112344158839176 2.3360309120880011e-17 1 6.2294157655680037e-17 
1 -135.00000000000006 -103.92304845413261 720 -0.17556172079419596 -0.30408182027976871 0.93632917756904455 0 0.95110127724442239 0.30887920037456112 -0.98446842620359387 0.054227363935293212 -0.16697697688258845 
1 -22.499999999999972 168.87495373796554 720 -0.17556172079419582 0.30408182027976871 0.93632917756904455 -6.9388939039072284e-18 0.9511012772444225 -0.30887920037456112 -0.98446842620359398 -0.054227363935293177 -0.16697697688258833 
Triangulations 0

TShapes 241
Ve
1e-07
30 -7.34788079488412e-15 600
0 0

0101101
*
Ed
 1e-07 1 1 0
1  1 0 0 6.28318530717959
2  1 1 0 0 6.28318530717959
2  2 2 0 0 6.28318530717959
0

0101000
+241 0 -241 0 *
Ve
1e-07
30 -7.34788079488412e-15 0
0 0

0101101
*
Ed
 1e-07 1 1 0
1  2 0 0 600
3  3 4CN 1 0 0 600
0

0101000
-241 0 +239 0 *
Ed
 1e-07 1 1 0
1  3 0 0 6.28318530717959
2  5 1 0 0 6.28318530717959
2  6 3 0 0 6.28318530717959
0

0101000
+239 0 -239 0 *
Wi

0101100
-240 0 +238 0 +237 0 -238 0 *
Fa
0  1e-07 1 0

0111000
+236 0 *
Wi

0101100
+240 0 *
Fa
0  1e-07 2 0

0111000
+234 0 *
Wi

0101100
-237 0 *
Fa
0  1e-07 3 0

0111000
-232 0 *
Sh

0101100
+235 0 +233 0 -231 0 *
So

0100000
+230 0 *
Ve
1e-07
105 129.903810567666 600
0 0

0101101
*
Ed
 1e-07 1 1 0
1  4 0 0 6.28318530717959
2  7 4 0 0 6.28318530717959
2  8 5 0 0 6.28318530717959
0

0101000
+228 0 -228 0 *
Ve
1e-07
105 129.903810567666 0
0 0

0101101
*
Ed
 1e-07 1 1 0
1  5 0 0 600
3  9 10CN 4 0 0 600
0

0101000
-228 0 +226 0 *
Ed
 1e-07 1 1 0
1  6 0 0 6.28318530717959
2  11 4 0 0 6.28318530717959
2  12 6 0 0 6.28318530717959
0

0101000
+226 0 -226 0 *
Wi

0101100
-227 0 +225 0 +224 0 -225 0 *
Fa
0  1e-07 4 0

0111000
+223 0 *
Wi

0101100
+227 0 *
Fa
0  1e-07 5 0

0111000
+221 0 *
Wi

0101100
-224 0 *
Fa
0  1e-07 6 0

0111000
-219 0 *
Sh

0101100
+222 0 +220 0 -218 0 *
So

0100000
+217 0 *
Ve
1e-07
-45 129.903810567666 600
0 0

0101101
*
Ed
 1e-07 1 1 0
1  7 0 0 6.28318530717959
2  13 7 0 0 6.28318530717959
2  14 8 0 0 6.28318530717959
0

0101000
+215 0 -215 0 *
Ve
1e-07
-45 129.903810567666 0
0 0

0101101
*
Ed
 1e-07 1 1 0
1  8 0 0 600
3  15 16CN 7 0 0 600
0

0101000
-215 0 +213 0 *
Ed
 1e-07 1 1 0
1  9 0 0 6.28318530717959
2  17 7 0 0 6.28318530717959
2  18 9 0 0 6.28318530717959
0

0101000
+213 0 -213 0 *
Wi

0101100
-214 0 +212 0 +211 0 -212 0 *
Fa
0  1e-07 7 0

0111000
+210 0 *
Wi

0101100
+214 0 *
Fa
0  1e-07 8 0

0111000
+208 0 *
Wi

0101100
-211 0 *
Fa
0  1e-07 9 0

0111000
-206 0 *
Sh

0101100
+209 0 +207 0 -205 0 *
So

0100000
+204 0 *
Ve
1e-07
-120 1.10218211923262e-14 600
0 0

0101101
*
Ed
 1e-07 1 1 0
1  10 0 0 6.28318530717959
2  19 10 0 0 6.28318530717959
2  20 11 0 0 6.28318530717959
0

0101000
+202 0 -202 0 *
Ve
1e-07
-120 1.10218211923262e-14 0
0 0

0101101
*
Ed
 1e-07 1 1 0
1  11 0 0 600
3  21 22CN 10 0 0 600
0

0101000
-202 0 +200 0 *
Ed
 1e-07 1 1 0
1  12 0 0 6.28318530717959
2  23 10 0 0 6.28318530717959
2  24 12 0 0 6.28318530717959
0

0101000
+200 0 -200 0 *
Wi

0101100
-201 0 +199 0 +198 0 -199 0 *
Fa
0  1e-07 10 0

0111000
+197 0 *
Wi

0101100
+201 0 *
Fa
0  1e-07 11 0

0111000
+195 0 *
Wi

0101100
-198 0 *
Fa
0  1e-07 12 0

0111000
-193 0 *
Sh

0101100
+196 0 +194 0 -192 0 *
So

0100000
+191 0 *
Ve
1e-07
-45.0000000000001 -129.903810567666 600
0 0

0101101
*
Ed
 1e-07 1 1 0
1  13 0 0 6.28318530717959
2  25 13 0 0 6.28318530717959
2  26 14 0 0 6.28318530717959
0

0101000
+189 0 -189 0 *
Ve
1e-07
-45.0000000000001 -129.903810567666 0
0 0

0101101
*
Ed
 1e-07 1 1 0
1  14 0 0 600
3  27 28CN 13 0 0 600
0

0101000
-189 0 +187 0 *
Ed
 1e-07 1 1 0
1  15 0 0 6.28318530717959
2  29 13 0 0 6.28318530717959
2  30 15 0 0 6.28318530717959
0

0101000
+187 0 -187 0 *
Wi

0101100
-188 0 +186 0 +185 0 -186 0 *
Fa
0  1e-07 13 0

0111000
+184 0 *
Wi

0101100
+188 0 *
Fa
0  1e-07 14 0

0111000
+182 0 *
Wi

0101100
-185 0 *
Fa
0  1e-07 15 0

0111000
-180 0 *
Sh

0101100
+183 0 +181 0 -179 0 *
So

0100000
+178 0 *
Ve
1e-07
105 -129.903810567666 600
0 0

0101101
*
Ed
 1e-07 1 1 0
1  16 0 0 6.28318530717959
2  31 16 0 0 6.28318530717959
2  32 17 0 0 6.28318530717959
0

0101000
+176 0 -176 0 *
Ve
1e-07
105 -129.903810567666 0
0 0

0101101
*
Ed
 1e-07 1 1 0
1  17 0 0 600
3  33 34CN 16 0 0 600
0

0101000
-176 0 +174 0 *
Ed
 1e-07 1 1 0
1  18 0 0 6.28318530717959
2  35 16 0 0 6.28318530717959
2  36 18 0 0 6.28318530717959
0

0101000
+174 0 -174 0 *
Wi

0101100
-175 0 +173 0 +172 0 -173 0 *
Fa
0  1e-07 16 0

0111000
+171 0 *
Wi

0101100
+175 0 *
Fa
0  1e-07 17 0

0111000
+169 0 *
Wi

0101100
-172 0 *
Fa
0  1e-07 18 0

0111000
-167 0 *
Sh

0101100
+170 0 +168 0 -166 0 *
So

0100000
+165 0 *
Ve
1e-07
180 -4.40872847693047e-14 600
0 0

0101101
*
Ed
 1e-07 1 1 0
1  19 0 0 6.28318530717959
2  37 19 0 0 6.28318530717959
2  38 20 0 0 6.28318530717959
0

0101000
+163 0 -163 0 *
Ve
1e-07
180 -4.40872847693047e-14 0
0 0

0101101
*
Ed
 1e-07 1 1 0
1  20 0 0 600
3  39 40CN 19 0 0 600
0

0101000
-163 0 +161 0 *
Ed
 1e-07 1 1 0
1  21 0 0 6.28318530717959
2  41 19 0 0 6.28318530717959
2  42 21 0 0 6.28318530717959
0

0101000
+161 0 -161 0 *
Wi

0101100
-162 0 +160 0 +159 0 -160 0 *
Fa
0  1e-07 19 0

0111000
+158 0 *
Wi

0101100
+162 0 *
Fa
0  1e-07 20 0

0111000
+156 0 *
Wi

0101100
-159 0 *
Fa
0  1e-07 21 0

0111000
-154 0 *
Sh

0101100
+157 0 +155 0 -153 0 *
So

0100000
+152 0 *
Ve
1.00000071054274e-07
-25.2949376635357 -64.9519052838329 275.266851623826
0 0

0101101
*
Ed
 1.00000058592855e-07 1 1 0
1  22 0 0 6.28318530717959
2  43 23 0 0 6.28318530717959
2  44 24 0 0 6.28318530717959
2  45 22 0 0 6.28318530717959
0

0101000
+150 0 -150 0 *
Ve
1.00000071054274e-07
98.4550623364643 -64.9519052838329 605.266851623826
0 0

0101101
*
Ed
 1.00000071054274e-07 1 1 0
1  23 0 0 352.440154494348
3  46 47CN 22 0 0 352.440154494348
3  48 49C0 23 0 0 352.440154494348
0

0101000
+148 0 -150 0 *
Ve
1.00000031776437e-07
126.544937663536 -64.9519052838329 594.733148376174
0 0

0101101
*
Ed
 1.00000031776437e-07 1 1 0
1  24 0 3.14159265358979 6.28318530717959
2  50 22 0 3.14159265358979 6.28318530717959
2  51 25 0 3.14159265358979 6.28318530717959
2  52 23 0 3.14159265358979 6.28318530717959
2  53 26 0 3.14159265358979 6.28318530717959
0

0101000
+146 0 -148 0 *
Ed
 1.00000015888219e-07 1 1 0
1  24 0 0 3.14159265358979
2  50 22 0 0 3.14159265358979
2  51 25 0 0 3.14159265358979
2  54 23 0 0 3.14159265358979
2  55 26 0 0 3.14159265358979
0

0101000
+148 0 -146 0 *
Wi

0101100
-149 0 +147 0 +145 0 +144 0 -147 0 *
Fa
0  1e-07 22 0

0101000
+143 0 *
Wi

0101100
+149 0 *
Fa
0  1e-07 24 0

0111000
+141 0 *
Wi

0101100
-144 0 -145 0 *
Fa
0  1e-07 25 0

0101000
-139 0 *
Sh

0101100
+142 0 +140 0 -138 0 *
So

0100000
+137 0 *
Ve
1.00000063552874e-07
-56.25 18.2094334832501 295.366811994382
0 0

0101101
*
Ed
 1.00000063552874e-07 1 1 0
1  25 0 0 6.28318530717959
2  56 28 0 0 6.28318530717959
2  57 29 0 0 6.28318530717959
2  58 27 0 0 6.28318530717959
0

0101000
+135 0 -135 0 *
Ve
1.0000007280371e-07
-112.5 -79.2184244424992 595.366811994382
0 0

0101101
*
Ed
 1.00000058592855e-07 1 1 0
1  26 0 0 320.400140449408
3  59 60CN 27 0 0 320.400140449408
3  61 62C0 28 0 0 320.400140449408
0

0101000
+133 0 -135 0 *
Ve
1.00000038263897e-07
-112.5 -50.6853861251665 604.633188005618
0 0

0101101
*
Ed
 1.00000031776437e-07 1 1 0
1  27 0 3.14159265358979 6.28318530717959
2  63 27 0 3.14159265358979 6.28318530717959
2  64 30 0 3.14159265358979 6.28318530717959
2  65 28 0 3.14159265358979 6.28318530717959
2  66 31 0 3.14159265358979 6.28318530717959
0

0101000
+131 0 -133 0 *
Ed
 1.00000038263897e-07 1 1 0
1  27 0 0 3.14159265358979
2  63 27 0 0 3.14159265358979
2  64 30 0 0 3.14159265358979
2  67 28 0 0 3.14159265358979
2  68 31 0 0 3.14159265358979
0

0101000
+133 0 -131 0 *
Wi

0101100
-134 0 +132 0 +130 0 +129 0 -132 0 *
Fa
0  1e-07 27 0

0101000
+128 0 *
Wi

0101100
+134 0 *
Fa
0  1e-07 29 0

0111000
+126 0 *
Wi

0101100
-129 0 -130 0 *
Fa
0  1e-07 30 0

0101000
-124 0 *
Sh

0101100
+127 0 +125 0 -123 0 *
So

0100000
+122 0 *
Ve
1.00000062349872e-07
50.625 27.952219275825 334.633188005618
0 0

0101101
*
Ed
 1.00000062349872e-07 1 1 0
1  28 0 0 6.28318530717959
2  69 33 0 0 6.28318530717959
2  70 34 0 0 6.28318530717959
2  71 32 0 0 6.28318530717959
0

0101000
+120 0 -120 0 *
Ve
1.0000007280371e-07
2.87009797836602e-14 115.637291408999 604.633188005618
0 0

0101101
*
Ed
 1.00000014210855e-07 1 1 0
1  29 0 0 288.360126404467
3  72 73CN 32 0 0 288.360126404467
3  74 75C0 33 0 0 288.360126404467
0

0101000
+118 0 -120 0 *
Ve
1.00000058592855e-07
2.8492812966543e-14 144.170329726332 595.366811994382
0 0

0101101
*
Ed
 1.00000058592855e-07 1 1 0
1  30 0 3.14159265358979 6.28318530717959
2  76 32 0 3.14159265358979 6.28318530717959
2  77 35 0 3.14159265358979 6.28318530717959
2  78 33 0 3.14159265358979 6.28318530717959
2  79 36 0 3.14159265358979 6.28318530717959
0

0101000
+116 0 -118 0 *
Ed
 1.00000032609577e-07 1 1 0
1  30 0 0 3.14159265358979
2  76 32 0 0 3.14159265358979
2  77 35 0 0 3.14159265358979
2  80 33 0 0 3.14159265358979
2  81 36 0 0 3.14159265358979
0

0101000
+118 0 -116 0 *
Wi

0101100
-119 0 +117 0 +115 0 +114 0 -117 0 *
Fa
0  1e-07 32 0

0101000
+113 0 *
Wi

0101100
+119 0 *
Fa
0  1e-07 34 0

0111000
+111 0 *
Wi

0101100
-114 0 -115 0 *
Fa
0  1e-07 35 0

0101000
-109 0 *
Sh

0101100
+112 0 +110 0 -108 0 *
So

0100000
+107 0 *
Ve
1e-07
300 -7.34788079488412e-14 660
0 0

0101101
*
Ed
 1e-07 1 1 0
1  31 0 0 6.28318530717959
2  82 37 0 0 6.28318530717959
2  83 38 0 0 6.28318530717959
0

0101000
+105 0 -105 0 *
Ve
1e-07
300 -7.34788079488412e-14 -45
0 0

0101101
*
Ed
 1e-07 1 1 0
1  32 0 0 705
3  84 85CN 37 0 0 705
0

0101000
-105 0 +103 0 *
Ed
 1e-07 1 1 0
1  33 0 0 6.28318530717959
2  86 37 0 0 6.28318530717959
2  87 39 0 0 6.28318530717959
0

0101000
+103 0 -103 0 *
Wi

0101100
-104 0 +102 0 +101 0 -102 0 *
Fa
0  1e-07 37 0

0111000
+100 0 *
Wi

0101100
+104 0 *
Ve
1.04608139526304e-07
-122.881277248947 -68.6662857678008 660
0 0

0101101
*
Ed
 1.04608125315449e-07 1 1 0
1  34 0 3.63718252686518 9.92036783404476
2  88 38 0 3.63718252686518 9.92036783404476
2  89 31 0 3.63718252686518 9.92036783404476
0

0101000
+97 0 -97 0 *
Wi

0101100
-96 0 *
Ve
1.00000028421709e-07
151.02000702247 -64.9519052838329 660
0 0

0101101
*
Ed
 1e-07 1 1 0
1  35 0 2.02362659851415e-16 6.28318530717959
2  90 38 0 2.02362659851415e-16 6.28318530717959
2  91 26 0 2.02362659851415e-16 6.28318530717959
0

0101000
+94 0 -94 0 *
Wi

0101100
-93 0 *
Ve
1.00000012434498e-07
-12.1187227510534 165.160573253998 660
0 0

0101101
*
Ed
 1e-07 1 1 0
1  36 0 5.7875954339042 12.0707807410838
2  92 38 0 5.7875954339042 12.0707807410838
2  93 36 0 5.7875954339042 12.0707807410838
0

0101000
+91 0 -91 0 *
Wi

0101100
-90 0 *
Fa
0  1e-07 38 0

0101000
+98 0 +95 0 +92 0 +89 0 *
Wi

0101100
-101 0 *
Fa
0  1e-07 39 0

0111000
-87 0 *
Ed
 1e-07 1 1 0
1  37 0 0 59.131781130786
3  94 95CN 31 0 0 59.131781130786
0

0101000
+131 0 -97 0 *
Wi

0101100
-96 0 +85 0 -130 0 -129 0 -85 0 *
Fa
0  1e-07 31 0

0101000
+84 0 *
Ed
 1e-07 1 1 0
1  38 0 0 69.7050280898815
3  96 97CN 26 0 0 69.7050280898815
0

0101000
+146 0 -94 0 *
Wi

0101100
-93 0 +82 0 -145 0 -144 0 -82 0 *
Fa
0  1e-07 26 0

0101000
+81 0 *
Ed
 1e-07 1 1 0
1  39 0 0 69.028275048977
3  98 99CN 36 0 0 69.028275048977
0

0101000
+116 0 -91 0 *
Wi

0101100
-90 0 +79 0 -115 0 -114 0 -79 0 *
Fa
0  1e-07 36 0

0101000
+78 0 *
Ve
1e-07
4.47756422577254e-14 115.637291408999 -4.63318800561854
0 0

0101101
*
Ed
 1e-07 1 1 0
1  26 0 320.400140449408 640.800280898815
3  59 60CN 27 0 320.400140449408 640.800280898815
0

0101000
+135 0 -76 0 *
Ed
 1e-07 1 1 0
1  40 0 0 6.28318530717959
2  100 27 0 0 6.28318530717959
2  101 40 0 0 6.28318530717959
0

0101000
+76 0 -76 0 *
Wi

0101100
+75 0 +134 0 -75 0 -74 0 *
Fa
0  1e-07 27 0

0101000
+73 0 *
Ve
1e-07
-126.544937663536 -64.9519052838329 5.26685162382576
0 0

0101101
*
Ed
 1e-07 1 1 0
1  23 0 352.440154494348 640.800280898815
3  46 47CN 22 0 352.440154494348 640.800280898815
0

0101000
+150 0 -71 0 *
Ed
 1e-07 1 1 0
1  41 0 0 6.28318530717959
2  102 22 0 0 6.28318530717959
2  103 41 0 0 6.28318530717959
0

0101000
+71 0 -71 0 *
Wi

0101100
+70 0 +149 0 -70 0 -69 0 *
Fa
0  1e-07 22 0

0101000
+68 0 *
Ve
1e-07
112.5 -79.2184244424993 4.6331880056183
0 0

0101101
*
Ed
 1e-07 1 1 0
1  29 0 288.360126404467 640.800280898815
3  72 73CN 32 0 288.360126404467 640.800280898815
0

0101000
+120 0 -66 0 *
Ed
 1e-07 1 1 0
1  42 0 0 6.28318530717959
2  104 32 0 0 6.28318530717959
2  105 42 0 0 6.28318530717959
0

0101000
+66 0 -66 0 *
Wi

0101100
+65 0 +119 0 -65 0 -64 0 *
Fa
0  1e-07 32 0

0101000
+63 0 *
Wi

0101100
+74 0 *
Fa
0  1e-07 40 0

0111000
+61 0 *
Wi

0101100
+69 0 *
Fa
0  1e-07 41 0

0111000
+59 0 *
Wi

0101100
+64 0 *
Fa
0  1e-07 42 0

0111000
+57 0 *
Sh

0101100
+99 0 +88 0 -86 0 -83 0 -80 0 -77 0 -127 0 -142 0 -112 0 -72 0 
-67 0 -62 0 -60 0 -58 0 -56 0 *
Sh

0101100
-183 0 -181 0 +179 0 *
Sh

0101100
-170 0 -168 0 +166 0 *
Sh

0101100
-157 0 -155 0 +153 0 *
Sh

0101100
-196 0 -194 0 +192 0 *
Sh

0101100
-209 0 -207 0 +205 0 *
Sh

0101100
-235 0 -233 0 +231 0 *
Sh

0101100
-222 0 -220 0 +218 0 *
So

0100000
+55 0 +54 0 +53 0 +52 0 +51 0 +50 0 +49 0 +48 0 *
Wi

0101100
+96 0 *
Fa
0  1e-07 38 0

0101000
+46 0 *
Sh

0101100
+45 0 +83 0 +123 0 *
So

0100000
+44 0 *
Wi

0101100
+93 0 *
Fa
0  1e-07 38 0

0101000
+42 0 *
Sh

0101100
+41 0 +80 0 +138 0 *
So

0100000
+40 0 *
Wi

0101100
+90 0 *
Fa
0  1e-07 38 0

0101000
+38 0 *
Sh

0101100
+37 0 +77 0 +108 0 *
So

0100000
+36 0 *
Sh

0101100
+72 0 -125 0 +60 0 *
So

0100000
+34 0 *
Sh

0101100
+67 0 -140 0 +58 0 *
So

0100000
+32 0 *
Sh

0101100
+62 0 -110 0 +56 0 *
So

0100000
+30 0 *
Ve
1e-07
171.544937663536 -64.9519052838329 714.733148376174
0 0

0101101
*
Ed
 1e-07 1 1 0
1  38 0 69.7050280898815 128.160056179763
3  96 97CN 26 0 69.7050280898815 128.160056179763
0

0101000
+94 0 -28 0 *
Ed
 1e-07 1 1 0
1  43 0 0 6.28318530717959
2  106 26 0 0 6.28318530717959
2  107 43 0 0 6.28318530717959
0

0101000
+28 0 -28 0 *
Wi

0101100
+27 0 +93 0 -27 0 -26 0 *
Fa
0  1e-07 26 0

0101000
+25 0 *
Wi

0101100
+26 0 *
Fa
0  1e-07 43 0

0111000
+23 0 *
Sh

0101100
+24 0 -41 0 +22 0 *
So

0100000
+21 0 *
Ve
1e-07
-135 -89.6565292954663 724.633188005618
0 0

0101101
*
Ed
 1e-07 1 1 0
1  37 0 59.131781130786 128.160056179763
3  94 95CN 31 0 59.131781130786 128.160056179763
0

0101000
+97 0 -19 0 *
Ed
 1e-07 1 1 0
1  44 0 0 6.28318530717959
2  108 31 0 0 6.28318530717959
2  109 44 0 0 6.28318530717959
0

0101000
+19 0 -19 0 *
Wi

0101100
+18 0 +96 0 -18 0 -17 0 *
Fa
0  1e-07 31 0

0101000
+16 0 *
Wi

0101100
+17 0 *
Fa
0  1e-07 44 0

0111000
+14 0 *
Sh

0101100
+15 0 -45 0 +13 0 *
So

0100000
+12 0 *
Ve
1e-07
-22.5 183.141472896632 715.366811994382
0 0

0101101
*
Ed
 1e-07 1 1 0
1  39 0 69.028275048977 128.160056179763
3  98 99CN 36 0 69.028275048977 128.160056179763
0

0101000
+91 0 -10 0 *
Ed
 1e-07 1 1 0
1  45 0 0 6.28318530717959
2  110 36 0 0 6.28318530717959
2  111 45 0 0 6.28318530717959
0

0101000
+10 0 -10 0 *
Wi

0101100
+9 0 +90 0 -9 0 -8 0 *
Fa
0  1e-07 36 0

0101000
+7 0 *
Wi

0101100
+8 0 *
Fa
0  1e-07 45 0

0111000
+5 0 *
Sh

0101100
+6 0 -37 0 +4 0 *
So

0100000
+3 0 *
Co

1100000
+229 0 +216 0 +203 0 +190 0 +177 0 +164 0 +151 0 +136 0 +121 0 +106 0 
+47 0 +43 0 +39 0 +35 0 +33 0 +31 0 +29 0 +20 0 +11 0 +2 0 
*

+1 0 