<?xml version="1.0" encoding="UTF-8"?>
<svg xmlns="http://www.w3.org/2000/svg" xmlns:xlink="http://www.w3.org/1999/xlink" width="390.400818pt" height="378.719208pt" viewBox="0 0 390.400818 378.719208" version="1.1">
<defs>
<clipPath id="clip1">
  <path d="M 179 201 L 390.402344 201 L 390.402344 211 L 179 211 Z M 179 201 "/>
</clipPath>
<clipPath id="clip2">
  <path d="M 385 203 L 390.402344 203 L 390.402344 208 L 385 208 Z M 385 203 "/>
</clipPath>
<clipPath id="clip3">
  <path d="M 182 375 L 186 375 L 186 378.71875 L 182 378.71875 Z M 182 375 "/>
</clipPath>
<clipPath id="clip4">
  <path d="M 182 375 L 186 375 L 186 378.71875 L 182 378.71875 Z M 182 375 "/>
</clipPath>
<clipPath id="clip5">
  <path d="M 3 25 L 365 25 L 365 378.71875 L 3 378.71875 Z M 3 25 "/>
</clipPath>
<clipPath id="clip6">
  <path d="M 3 25 L 365 25 L 365 378.71875 L 3 378.71875 Z M 3 25 "/>
</clipPath>
</defs>
<g id="surface1">
<path style="fill:none;stroke-width:0.8;stroke-linecap:butt;stroke-linejoin:miter;stroke:rgb(0%,0%,0%);stroke-opacity:1;stroke-miterlimit:4;" d="M 184.292969 205.9375 L 184.519531 1.207031 "/>
<path style=" stroke:none;fill-rule:evenodd;fill:rgb(0%,0%,0%);fill-opacity:1;" d="M 182.578125 5.390625 L 184.515625 0.148438 L 186.4375 5.394531 C 185.300781 4.554688 183.742188 4.558594 182.578125 5.390625 Z M 182.578125 5.390625 "/>
<g clip-path="url(#clip1)" clip-rule="nonzero">
<path style="fill:none;stroke-width:0.8;stroke-linecap:butt;stroke-linejoin:miter;stroke:rgb(0%,0%,0%);stroke-opacity:1;stroke-miterlimit:4;" d="M 184.464844 205.683594 L 389.191406 205.910156 "/>
</g>
<g clip-path="url(#clip2)" clip-rule="nonzero">
<path style=" stroke:none;fill-rule:evenodd;fill:rgb(0%,0%,0%);fill-opacity:1;" d="M 385.011719 203.972656 L 390.253906 205.90625 L 385.007812 207.828125 C 385.84375 206.691406 385.84375 205.132812 385.011719 203.972656 Z M 385.011719 203.972656 "/>
</g>
<path style=" stroke:none;fill-rule:nonzero;fill:rgb(0%,0%,0%);fill-opacity:1;" d="M 375.242188 213.527344 L 375.242188 213.453125 L 375.265625 213.382812 L 375.289062 213.308594 L 375.3125 213.214844 L 375.335938 213.117188 L 375.363281 213.023438 L 375.386719 212.925781 L 375.433594 212.804688 L 375.457031 212.710938 L 375.503906 212.589844 L 375.554688 212.46875 L 375.601562 212.351562 L 375.648438 212.230469 L 375.722656 212.109375 L 375.769531 211.992188 L 375.84375 211.871094 L 375.914062 211.75 L 375.984375 211.65625 L 376.058594 211.535156 L 376.152344 211.4375 L 376.25 211.320312 L 376.347656 211.222656 L 376.441406 211.125 L 376.539062 211.054688 L 376.65625 210.984375 L 376.777344 210.910156 L 376.824219 210.886719 L 376.898438 210.839844 L 376.945312 210.816406 L 377.019531 210.789062 L 377.089844 210.765625 L 377.160156 210.765625 L 377.234375 210.742188 L 377.28125 210.71875 L 377.449219 210.71875 L 377.523438 210.695312 L 377.59375 210.695312 C 377.714844 210.695312 378.289062 210.695312 378.792969 211.007812 C 378.121094 211.125 377.640625 211.726562 377.640625 212.300781 C 377.640625 212.6875 377.90625 213.140625 378.554688 213.140625 C 379.082031 213.140625 379.851562 212.710938 379.851562 211.75 C 379.851562 210.503906 378.433594 210.167969 377.617188 210.167969 C 376.226562 210.167969 375.386719 211.4375 375.121094 211.992188 C 374.523438 210.40625 373.226562 210.167969 372.53125 210.167969 C 370.058594 210.167969 368.691406 213.261719 368.691406 213.839844 C 368.691406 214.078125 368.929688 214.078125 368.976562 214.078125 C 369.167969 214.078125 369.242188 214.03125 369.289062 213.816406 C 370.105469 211.292969 371.664062 210.695312 372.480469 210.695312 C 372.9375 210.695312 373.777344 210.910156 373.777344 212.300781 C 373.777344 213.046875 373.371094 214.628906 372.480469 217.964844 C 372.097656 219.453125 371.257812 220.460938 370.226562 220.460938 C 370.082031 220.460938 369.53125 220.460938 369.027344 220.152344 C 369.625 220.03125 370.152344 219.527344 370.152344 218.855469 C 370.152344 218.207031 369.625 218.015625 369.265625 218.015625 C 368.546875 218.015625 367.945312 218.636719 367.945312 219.40625 C 367.945312 220.511719 369.144531 220.964844 370.203125 220.964844 C 371.761719 220.964844 372.625 219.308594 372.699219 219.167969 C 372.984375 220.054688 373.851562 220.964844 375.265625 220.964844 C 377.738281 220.964844 379.105469 217.894531 379.105469 217.292969 C 379.105469 217.054688 378.890625 217.054688 378.816406 217.054688 C 378.601562 217.054688 378.554688 217.152344 378.503906 217.320312 C 377.714844 219.886719 376.082031 220.460938 375.3125 220.460938 C 374.402344 220.460938 374.019531 219.695312 374.019531 218.878906 C 374.019531 218.351562 374.160156 217.824219 374.425781 216.789062 Z M 375.242188 213.527344 "/>
<path style=" stroke:none;fill-rule:nonzero;fill:rgb(0%,0%,0%);fill-opacity:1;" d="M 202.355469 12.617188 L 202.355469 12.570312 L 202.378906 12.523438 L 202.378906 12.472656 L 202.402344 12.449219 L 202.402344 12.378906 L 202.425781 12.355469 L 202.425781 12.234375 L 202.449219 12.210938 L 202.449219 12.066406 C 202.449219 11.632812 202.113281 11.417969 201.753906 11.417969 C 201.515625 11.417969 201.132812 11.5625 200.914062 11.921875 C 200.867188 12.042969 200.675781 12.785156 200.578125 13.21875 C 200.410156 13.839844 200.242188 14.488281 200.097656 15.113281 L 199.019531 19.410156 C 198.945312 19.769531 197.914062 21.449219 196.332031 21.449219 C 195.105469 21.449219 194.84375 20.394531 194.84375 19.503906 C 194.84375 18.402344 195.25 16.9375 196.066406 14.824219 C 196.449219 13.867188 196.546875 13.601562 196.546875 13.121094 C 196.546875 12.042969 195.777344 11.152344 194.578125 11.152344 C 192.324219 11.152344 191.433594 14.632812 191.433594 14.824219 C 191.433594 15.066406 191.675781 15.066406 191.722656 15.066406 C 191.964844 15.066406 191.988281 15.019531 192.105469 14.65625 C 192.753906 12.402344 193.714844 11.683594 194.507812 11.683594 C 194.699219 11.683594 195.105469 11.683594 195.105469 12.449219 C 195.105469 13.050781 194.867188 13.671875 194.699219 14.128906 C 193.761719 16.648438 193.332031 17.992188 193.332031 19.121094 C 193.332031 21.257812 194.820312 21.953125 196.234375 21.953125 C 197.171875 21.953125 197.988281 21.570312 198.660156 20.898438 C 198.347656 22.121094 198.058594 23.296875 197.097656 24.570312 C 196.476562 25.363281 195.5625 26.058594 194.460938 26.058594 C 194.148438 26.058594 193.066406 25.984375 192.660156 25.074219 C 193.042969 25.074219 193.355469 25.074219 193.691406 24.785156 C 193.929688 24.570312 194.148438 24.257812 194.148438 23.800781 C 194.148438 23.058594 193.523438 22.960938 193.28125 22.960938 C 192.730469 22.960938 191.9375 23.34375 191.9375 24.523438 C 191.9375 25.699219 192.996094 26.585938 194.460938 26.585938 C 196.929688 26.585938 199.378906 24.425781 200.050781 21.738281 Z M 202.355469 12.617188 "/>
<path style=" stroke:none;fill-rule:nonzero;fill:rgb(35.293579%,35.293579%,35.293579%);fill-opacity:1;" d="M 185.898438 205.691406 C 185.898438 206.574219 185.183594 207.289062 184.300781 207.289062 C 183.417969 207.289062 182.699219 206.574219 182.699219 205.691406 C 182.699219 204.808594 183.417969 204.089844 184.300781 204.089844 C 185.183594 204.089844 185.898438 204.808594 185.898438 205.691406 Z M 185.898438 205.691406 "/>
<path style=" stroke:none;fill-rule:nonzero;fill:rgb(35.293579%,35.293579%,35.293579%);fill-opacity:1;" d="M 357.328125 205.691406 C 357.328125 206.574219 356.613281 207.289062 355.730469 207.289062 C 354.84375 207.289062 354.128906 206.574219 354.128906 205.691406 C 354.128906 204.808594 354.84375 204.089844 355.730469 204.089844 C 356.613281 204.089844 357.328125 204.808594 357.328125 205.691406 Z M 357.328125 205.691406 "/>
<path style=" stroke:none;fill-rule:nonzero;fill:rgb(35.293579%,35.293579%,35.293579%);fill-opacity:1;" d="M 14.472656 205.691406 C 14.472656 206.574219 13.753906 207.289062 12.871094 207.289062 C 11.988281 207.289062 11.269531 206.574219 11.269531 205.691406 C 11.269531 204.808594 11.988281 204.089844 12.871094 204.089844 C 13.753906 204.089844 14.472656 204.808594 14.472656 205.691406 Z M 14.472656 205.691406 "/>
<path style=" stroke:none;fill-rule:nonzero;fill:rgb(35.293579%,35.293579%,35.293579%);fill-opacity:1;" d="M 185.898438 34.261719 C 185.898438 35.144531 185.183594 35.863281 184.300781 35.863281 C 183.417969 35.863281 182.699219 35.144531 182.699219 34.261719 C 182.699219 33.378906 183.417969 32.660156 184.300781 32.660156 C 185.183594 32.660156 185.898438 33.378906 185.898438 34.261719 Z M 185.898438 34.261719 "/>
<g clip-path="url(#clip3)" clip-rule="nonzero">
<path style=" stroke:none;fill-rule:nonzero;fill:rgb(35.293579%,35.293579%,35.293579%);fill-opacity:1;" d="M 185.898438 377.121094 C 185.898438 378.003906 185.183594 378.71875 184.300781 378.71875 C 183.417969 378.71875 182.699219 378.003906 182.699219 377.121094 C 182.699219 376.234375 183.417969 375.519531 184.300781 375.519531 C 185.183594 375.519531 185.898438 376.234375 185.898438 377.121094 Z M 185.898438 377.121094 "/>
</g>
<path style=" stroke:none;fill-rule:nonzero;fill:rgb(35.293579%,35.293579%,35.293579%);fill-opacity:1;" d="M 254.472656 205.691406 C 254.472656 206.574219 253.753906 207.289062 252.871094 207.289062 C 251.988281 207.289062 251.269531 206.574219 251.269531 205.691406 C 251.269531 204.808594 251.988281 204.089844 252.871094 204.089844 C 253.753906 204.089844 254.472656 204.808594 254.472656 205.691406 Z M 254.472656 205.691406 "/>
<path style=" stroke:none;fill-rule:nonzero;fill:rgb(35.293579%,35.293579%,35.293579%);fill-opacity:1;" d="M 261.328125 205.691406 C 261.328125 206.574219 260.613281 207.289062 259.730469 207.289062 C 258.84375 207.289062 258.128906 206.574219 258.128906 205.691406 C 258.128906 204.808594 258.84375 204.089844 259.730469 204.089844 C 260.613281 204.089844 261.328125 204.808594 261.328125 205.691406 Z M 261.328125 205.691406 "/>
<path style=" stroke:none;fill-rule:nonzero;fill:rgb(35.293579%,35.293579%,35.293579%);fill-opacity:1;" d="M 254.472656 198.832031 C 254.472656 199.71875 253.753906 200.433594 252.871094 200.433594 C 251.988281 200.433594 251.269531 199.71875 251.269531 198.832031 C 251.269531 197.949219 251.988281 197.234375 252.871094 197.234375 C 253.753906 197.234375 254.472656 197.949219 254.472656 198.832031 Z M 254.472656 198.832031 "/>
<path style=" stroke:none;fill-rule:nonzero;fill:rgb(35.293579%,35.293579%,35.293579%);fill-opacity:1;" d="M 247.613281 205.691406 C 247.613281 206.574219 246.898438 207.289062 246.015625 207.289062 C 245.128906 207.289062 244.414062 206.574219 244.414062 205.691406 C 244.414062 204.808594 245.128906 204.089844 246.015625 204.089844 C 246.898438 204.089844 247.613281 204.808594 247.613281 205.691406 Z M 247.613281 205.691406 "/>
<path style=" stroke:none;fill-rule:nonzero;fill:rgb(35.293579%,35.293579%,35.293579%);fill-opacity:1;" d="M 254.472656 212.546875 C 254.472656 213.429688 253.753906 214.148438 252.871094 214.148438 C 251.988281 214.148438 251.269531 213.429688 251.269531 212.546875 C 251.269531 211.664062 251.988281 210.945312 252.871094 210.945312 C 253.753906 210.945312 254.472656 211.664062 254.472656 212.546875 Z M 254.472656 212.546875 "/>
<path style=" stroke:none;fill-rule:nonzero;fill:rgb(35.293579%,35.293579%,35.293579%);fill-opacity:1;" d="M 357.328125 205.691406 C 357.328125 206.574219 356.613281 207.289062 355.730469 207.289062 C 354.84375 207.289062 354.128906 206.574219 354.128906 205.691406 C 354.128906 204.808594 354.84375 204.089844 355.730469 204.089844 C 356.613281 204.089844 357.328125 204.808594 357.328125 205.691406 Z M 357.328125 205.691406 "/>
<path style=" stroke:none;fill-rule:nonzero;fill:rgb(35.293579%,35.293579%,35.293579%);fill-opacity:1;" d="M 14.472656 205.691406 C 14.472656 206.574219 13.753906 207.289062 12.871094 207.289062 C 11.988281 207.289062 11.269531 206.574219 11.269531 205.691406 C 11.269531 204.808594 11.988281 204.089844 12.871094 204.089844 C 13.753906 204.089844 14.472656 204.808594 14.472656 205.691406 Z M 14.472656 205.691406 "/>
<path style=" stroke:none;fill-rule:nonzero;fill:rgb(35.293579%,35.293579%,35.293579%);fill-opacity:1;" d="M 185.898438 34.261719 C 185.898438 35.144531 185.183594 35.863281 184.300781 35.863281 C 183.417969 35.863281 182.699219 35.144531 182.699219 34.261719 C 182.699219 33.378906 183.417969 32.660156 184.300781 32.660156 C 185.183594 32.660156 185.898438 33.378906 185.898438 34.261719 Z M 185.898438 34.261719 "/>
<g clip-path="url(#clip4)" clip-rule="nonzero">
<path style=" stroke:none;fill-rule:nonzero;fill:rgb(35.293579%,35.293579%,35.293579%);fill-opacity:1;" d="M 185.898438 377.121094 C 185.898438 378.003906 185.183594 378.71875 184.300781 378.71875 C 183.417969 378.71875 182.699219 378.003906 182.699219 377.121094 C 182.699219 376.234375 183.417969 375.519531 184.300781 375.519531 C 185.183594 375.519531 185.898438 376.234375 185.898438 377.121094 Z M 185.898438 377.121094 "/>
</g>
<path style=" stroke:none;fill-rule:nonzero;fill:rgb(35.293579%,35.293579%,35.293579%);fill-opacity:1;" d="M 254.472656 205.691406 C 254.472656 206.574219 253.753906 207.289062 252.871094 207.289062 C 251.988281 207.289062 251.269531 206.574219 251.269531 205.691406 C 251.269531 204.808594 251.988281 204.089844 252.871094 204.089844 C 253.753906 204.089844 254.472656 204.808594 254.472656 205.691406 Z M 254.472656 205.691406 "/>
<path style=" stroke:none;fill-rule:nonzero;fill:rgb(35.293579%,35.293579%,35.293579%);fill-opacity:1;" d="M 261.328125 205.691406 C 261.328125 206.574219 260.613281 207.289062 259.730469 207.289062 C 258.84375 207.289062 258.128906 206.574219 258.128906 205.691406 C 258.128906 204.808594 258.84375 204.089844 259.730469 204.089844 C 260.613281 204.089844 261.328125 204.808594 261.328125 205.691406 Z M 261.328125 205.691406 "/>
<path style=" stroke:none;fill-rule:nonzero;fill:rgb(35.293579%,35.293579%,35.293579%);fill-opacity:1;" d="M 254.472656 198.832031 C 254.472656 199.71875 253.753906 200.433594 252.871094 200.433594 C 251.988281 200.433594 251.269531 199.71875 251.269531 198.832031 C 251.269531 197.949219 251.988281 197.234375 252.871094 197.234375 C 253.753906 197.234375 254.472656 197.949219 254.472656 198.832031 Z M 254.472656 198.832031 "/>
<path style=" stroke:none;fill-rule:nonzero;fill:rgb(35.293579%,35.293579%,35.293579%);fill-opacity:1;" d="M 247.613281 205.691406 C 247.613281 206.574219 246.898438 207.289062 246.015625 207.289062 C 245.128906 207.289062 244.414062 206.574219 244.414062 205.691406 C 244.414062 204.808594 245.128906 204.089844 246.015625 204.089844 C 246.898438 204.089844 247.613281 204.808594 247.613281 205.691406 Z M 247.613281 205.691406 "/>
<path style=" stroke:none;fill-rule:nonzero;fill:rgb(35.293579%,35.293579%,35.293579%);fill-opacity:1;" d="M 254.472656 212.546875 C 254.472656 213.429688 253.753906 214.148438 252.871094 214.148438 C 251.988281 214.148438 251.269531 213.429688 251.269531 212.546875 C 251.269531 211.664062 251.988281 210.945312 252.871094 210.945312 C 253.753906 210.945312 254.472656 211.664062 254.472656 212.546875 Z M 254.472656 212.546875 "/>
<g clip-path="url(#clip5)" clip-rule="nonzero">
<path style="fill:none;stroke-width:1.6;stroke-linecap:butt;stroke-linejoin:miter;stroke:rgb(0%,0%,100%);stroke-opacity:1;stroke-miterlimit:4;" d="M 184.300781 377.121094 L 191.03125 376.988281 L 197.75 376.589844 L 204.449219 375.929688 L 211.117188 375.007812 L 217.742188 373.824219 L 224.320312 372.382812 L 230.832031 370.683594 L 237.273438 368.730469 L 243.632812 366.523438 L 249.902344 364.070312 L 256.070312 361.371094 L 262.128906 358.433594 L 268.0625 355.261719 L 273.871094 351.859375 L 279.539062 348.226562 L 285.0625 344.378906 L 290.429688 340.316406 L 295.632812 336.046875 L 300.664062 331.574219 L 305.519531 326.910156 L 310.183594 322.054688 L 314.65625 317.023438 L 318.925781 311.820312 L 322.988281 306.453125 L 326.835938 300.929688 L 330.46875 295.261719 L 333.871094 289.453125 L 337.042969 283.519531 L 339.980469 277.460938 L 342.679688 271.292969 L 345.132812 265.023438 L 347.339844 258.664062 L 349.292969 252.222656 L 350.992188 245.710938 L 352.433594 239.132812 L 353.617188 232.507812 L 354.539062 225.839844 L 355.199219 219.140625 L 355.597656 212.421875 L 355.730469 205.691406 L 355.597656 198.960938 L 355.199219 192.238281 L 354.539062 185.539062 L 353.617188 178.871094 L 352.433594 172.246094 L 350.992188 165.671875 L 349.292969 159.15625 L 347.339844 152.714844 L 345.132812 146.355469 L 342.679688 140.085938 L 339.980469 133.921875 L 337.042969 127.863281 L 333.871094 121.925781 L 330.46875 116.121094 L 326.835938 110.449219 L 322.988281 104.925781 L 318.925781 99.558594 L 314.65625 94.355469 L 310.183594 89.324219 L 305.519531 84.472656 L 300.664062 79.804688 L 295.632812 75.335938 L 290.429688 71.066406 L 285.0625 67 L 279.539062 63.152344 L 273.871094 59.523438 L 268.0625 56.121094 L 262.128906 52.945312 L 256.070312 50.007812 L 249.902344 47.3125 L 243.632812 44.859375 L 237.273438 42.652344 L 230.832031 40.699219 L 224.320312 39 L 217.742188 37.554688 L 211.117188 36.371094 L 204.449219 35.449219 L 197.75 34.789062 L 191.03125 34.394531 L 184.300781 34.261719 L 177.570312 34.394531 L 170.847656 34.789062 L 164.152344 35.449219 L 157.480469 36.371094 L 150.855469 37.554688 L 144.28125 39 L 137.765625 40.699219 L 131.324219 42.652344 L 124.964844 44.859375 L 118.695312 47.3125 L 112.53125 50.007812 L 106.472656 52.945312 L 100.535156 56.121094 L 94.730469 59.523438 L 89.058594 63.152344 L 83.535156 67 L 78.167969 71.066406 L 72.964844 75.335938 L 67.933594 79.804688 L 63.082031 84.472656 L 58.414062 89.324219 L 53.945312 94.355469 L 49.675781 99.558594 L 45.609375 104.925781 L 41.761719 110.449219 L 38.132812 116.121094 L 34.730469 121.925781 L 31.554688 127.863281 L 28.617188 133.921875 L 25.921875 140.085938 L 23.46875 146.355469 L 21.261719 152.714844 L 19.308594 159.15625 L 17.609375 165.671875 L 16.164062 172.246094 L 14.980469 178.871094 L 14.058594 185.539062 L 13.398438 192.238281 L 13.003906 198.960938 L 12.871094 205.691406 L 13.003906 212.421875 L 13.398438 219.140625 L 14.058594 225.839844 L 14.980469 232.507812 L 16.164062 239.132812 L 17.609375 245.710938 L 19.308594 252.222656 L 21.261719 258.664062 L 23.46875 265.023438 L 25.921875 271.292969 L 28.617188 277.460938 L 31.554688 283.519531 L 34.730469 289.453125 L 38.132812 295.261719 L 41.761719 300.929688 L 45.609375 306.453125 L 49.675781 311.820312 L 53.945312 317.023438 L 58.414062 322.054688 L 63.082031 326.910156 L 67.933594 331.574219 L 72.964844 336.046875 L 78.167969 340.316406 L 83.535156 344.378906 L 89.058594 348.226562 L 94.730469 351.859375 L 100.535156 355.261719 L 106.472656 358.433594 L 112.53125 361.371094 L 118.695312 364.070312 L 124.964844 366.523438 L 131.324219 368.730469 L 137.765625 370.683594 L 144.28125 372.382812 L 150.855469 373.824219 L 157.480469 375.007812 L 164.152344 375.929688 L 170.847656 376.589844 L 177.570312 376.988281 L 184.300781 377.121094 "/>
</g>
<path style="fill:none;stroke-width:1.6;stroke-linecap:butt;stroke-linejoin:miter;stroke:rgb(0%,0%,100%);stroke-opacity:1;stroke-miterlimit:4;" d="M 252.871094 212.546875 L 253.140625 212.542969 L 253.410156 212.527344 L 253.675781 212.5 L 253.945312 212.464844 L 254.207031 212.414062 L 254.472656 212.359375 L 254.734375 212.289062 L 254.992188 212.210938 L 255.246094 212.125 L 255.496094 212.027344 L 255.742188 211.917969 L 255.984375 211.800781 L 256.222656 211.671875 L 256.453125 211.535156 L 256.679688 211.390625 L 256.902344 211.238281 L 257.117188 211.074219 L 257.324219 210.90625 L 257.527344 210.726562 L 257.71875 210.539062 L 257.90625 210.34375 L 258.085938 210.144531 L 258.257812 209.9375 L 258.417969 209.722656 L 258.574219 209.5 L 258.71875 209.273438 L 258.855469 209.039062 L 258.980469 208.804688 L 259.097656 208.5625 L 259.207031 208.3125 L 259.304688 208.0625 L 259.394531 207.808594 L 259.472656 207.550781 L 259.539062 207.292969 L 259.597656 207.027344 L 259.644531 206.761719 L 259.679688 206.496094 L 259.707031 206.230469 L 259.722656 205.960938 L 259.730469 205.691406 L 259.722656 205.421875 L 259.707031 205.152344 L 259.679688 204.886719 L 259.644531 204.617188 L 259.597656 204.351562 L 259.539062 204.089844 L 259.472656 203.828125 L 259.394531 203.570312 L 259.304688 203.316406 L 259.207031 203.066406 L 259.097656 202.820312 L 258.980469 202.578125 L 258.855469 202.339844 L 258.71875 202.105469 L 258.574219 201.878906 L 258.417969 201.660156 L 258.257812 201.445312 L 258.085938 201.238281 L 257.90625 201.035156 L 257.71875 200.839844 L 257.527344 200.65625 L 257.324219 200.476562 L 257.117188 200.304688 L 256.902344 200.144531 L 256.679688 199.988281 L 256.453125 199.84375 L 256.222656 199.707031 L 255.984375 199.582031 L 255.742188 199.464844 L 255.496094 199.355469 L 255.246094 199.257812 L 254.992188 199.167969 L 254.734375 199.089844 L 254.472656 199.023438 L 254.207031 198.964844 L 253.945312 198.917969 L 253.675781 198.878906 L 253.410156 198.855469 L 253.140625 198.839844 L 252.871094 198.832031 L 252.601562 198.839844 L 252.332031 198.855469 L 252.066406 198.878906 L 251.796875 198.917969 L 251.535156 198.964844 L 251.269531 199.023438 L 251.011719 199.089844 L 250.753906 199.167969 L 250.5 199.257812 L 250.246094 199.355469 L 250 199.464844 L 249.757812 199.582031 L 249.519531 199.707031 L 249.289062 199.84375 L 249.0625 199.988281 L 248.839844 200.144531 L 248.625 200.304688 L 248.417969 200.476562 L 248.21875 200.65625 L 248.023438 200.839844 L 247.835938 201.035156 L 247.65625 201.238281 L 247.488281 201.445312 L 247.324219 201.660156 L 247.167969 201.878906 L 247.023438 202.105469 L 246.890625 202.339844 L 246.761719 202.578125 L 246.644531 202.820312 L 246.535156 203.066406 L 246.4375 203.316406 L 246.347656 203.570312 L 246.273438 203.828125 L 246.203125 204.089844 L 246.144531 204.351562 L 246.097656 204.617188 L 246.0625 204.886719 L 246.035156 205.152344 L 246.019531 205.421875 L 246.015625 205.691406 L 246.019531 205.960938 L 246.035156 206.230469 L 246.0625 206.496094 L 246.097656 206.761719 L 246.144531 207.027344 L 246.203125 207.292969 L 246.273438 207.550781 L 246.347656 207.808594 L 246.4375 208.0625 L 246.535156 208.3125 L 246.644531 208.5625 L 246.761719 208.804688 L 246.890625 209.039062 L 247.023438 209.273438 L 247.167969 209.5 L 247.324219 209.722656 L 247.488281 209.9375 L 247.65625 210.144531 L 247.835938 210.34375 L 248.023438 210.539062 L 248.21875 210.726562 L 248.417969 210.90625 L 248.625 211.074219 L 248.839844 211.238281 L 249.0625 211.390625 L 249.289062 211.535156 L 249.519531 211.671875 L 249.757812 211.800781 L 250 211.917969 L 250.246094 212.027344 L 250.5 212.125 L 250.753906 212.210938 L 251.011719 212.289062 L 251.269531 212.359375 L 251.535156 212.414062 L 251.796875 212.464844 L 252.066406 212.5 L 252.332031 212.527344 L 252.601562 212.542969 L 252.871094 212.546875 "/>
<path style="fill:none;stroke-width:0.8;stroke-linecap:butt;stroke-linejoin:miter;stroke:rgb(50.195312%,50.195312%,50.195312%);stroke-opacity:1;stroke-dasharray:4,2.4,4,2.4;stroke-miterlimit:4;" d="M 353.824219 205.691406 L 262.394531 205.691406 "/>
<path style="fill:none;stroke-width:0.8;stroke-linecap:butt;stroke-linejoin:miter;stroke:rgb(50.195312%,50.195312%,50.195312%);stroke-opacity:1;stroke-dasharray:4,2.4,4,2.4;stroke-miterlimit:4;" d="M 243.347656 205.691406 L 14.777344 205.691406 "/>
<path style="fill:none;stroke-width:0.8;stroke-linecap:butt;stroke-linejoin:miter;stroke:rgb(50.195312%,50.195312%,50.195312%);stroke-opacity:1;stroke-dasharray:4,2.4,4,2.4;stroke-miterlimit:4;" d="M 184.300781 36.167969 L 184.300781 375.214844 "/>
<path style="fill:none;stroke-width:0.8;stroke-linecap:butt;stroke-linejoin:miter;stroke:rgb(50.195312%,50.195312%,50.195312%);stroke-opacity:1;stroke-dasharray:4,2.4,4,2.4;stroke-miterlimit:4;" d="M 259.652344 205.691406 L 246.089844 205.691406 "/>
<path style="fill:none;stroke-width:0.8;stroke-linecap:butt;stroke-linejoin:miter;stroke:rgb(50.195312%,50.195312%,50.195312%);stroke-opacity:1;stroke-dasharray:4,2.4,4,2.4;stroke-miterlimit:4;" d="M 252.871094 198.910156 L 252.871094 212.472656 "/>
<g clip-path="url(#clip6)" clip-rule="nonzero">
<path style="fill:none;stroke-width:1.6;stroke-linecap:butt;stroke-linejoin:miter;stroke:rgb(0%,0%,100%);stroke-opacity:1;stroke-miterlimit:4;" d="M 184.300781 377.121094 L 191.03125 376.988281 L 197.75 376.589844 L 204.449219 375.929688 L 211.117188 375.007812 L 217.742188 373.824219 L 224.320312 372.382812 L 230.832031 370.683594 L 237.273438 368.730469 L 243.632812 366.523438 L 249.902344 364.070312 L 256.070312 361.371094 L 262.128906 358.433594 L 268.0625 355.261719 L 273.871094 351.859375 L 279.539062 348.226562 L 285.0625 344.378906 L 290.429688 340.316406 L 295.632812 336.046875 L 300.664062 331.574219 L 305.519531 326.910156 L 310.183594 322.054688 L 314.65625 317.023438 L 318.925781 311.820312 L 322.988281 306.453125 L 326.835938 300.929688 L 330.46875 295.261719 L 333.871094 289.453125 L 337.042969 283.519531 L 339.980469 277.460938 L 342.679688 271.292969 L 345.132812 265.023438 L 347.339844 258.664062 L 349.292969 252.222656 L 350.992188 245.710938 L 352.433594 239.132812 L 353.617188 232.507812 L 354.539062 225.839844 L 355.199219 219.140625 L 355.597656 212.421875 L 355.730469 205.691406 L 355.597656 198.960938 L 355.199219 192.238281 L 354.539062 185.539062 L 353.617188 178.871094 L 352.433594 172.246094 L 350.992188 165.671875 L 349.292969 159.15625 L 347.339844 152.714844 L 345.132812 146.355469 L 342.679688 140.085938 L 339.980469 133.921875 L 337.042969 127.863281 L 333.871094 121.925781 L 330.46875 116.121094 L 326.835938 110.449219 L 322.988281 104.925781 L 318.925781 99.558594 L 314.65625 94.355469 L 310.183594 89.324219 L 305.519531 84.472656 L 300.664062 79.804688 L 295.632812 75.335938 L 290.429688 71.066406 L 285.0625 67 L 279.539062 63.152344 L 273.871094 59.523438 L 268.0625 56.121094 L 262.128906 52.945312 L 256.070312 50.007812 L 249.902344 47.3125 L 243.632812 44.859375 L 237.273438 42.652344 L 230.832031 40.699219 L 224.320312 39 L 217.742188 37.554688 L 211.117188 36.371094 L 204.449219 35.449219 L 197.75 34.789062 L 191.03125 34.394531 L 184.300781 34.261719 L 177.570312 34.394531 L 170.847656 34.789062 L 164.152344 35.449219 L 157.480469 36.371094 L 150.855469 37.554688 L 144.28125 39 L 137.765625 40.699219 L 131.324219 42.652344 L 124.964844 44.859375 L 118.695312 47.3125 L 112.53125 50.007812 L 106.472656 52.945312 L 100.535156 56.121094 L 94.730469 59.523438 L 89.058594 63.152344 L 83.535156 67 L 78.167969 71.066406 L 72.964844 75.335938 L 67.933594 79.804688 L 63.082031 84.472656 L 58.414062 89.324219 L 53.945312 94.355469 L 49.675781 99.558594 L 45.609375 104.925781 L 41.761719 110.449219 L 38.132812 116.121094 L 34.730469 121.925781 L 31.554688 127.863281 L 28.617188 133.921875 L 25.921875 140.085938 L 23.46875 146.355469 L 21.261719 152.714844 L 19.308594 159.15625 L 17.609375 165.671875 L 16.164062 172.246094 L 14.980469 178.871094 L 14.058594 185.539062 L 13.398438 192.238281 L 13.003906 198.960938 L 12.871094 205.691406 L 13.003906 212.421875 L 13.398438 219.140625 L 14.058594 225.839844 L 14.980469 232.507812 L 16.164062 239.132812 L 17.609375 245.710938 L 19.308594 252.222656 L 21.261719 258.664062 L 23.46875 265.023438 L 25.921875 271.292969 L 28.617188 277.460938 L 31.554688 283.519531 L 34.730469 289.453125 L 38.132812 295.261719 L 41.761719 300.929688 L 45.609375 306.453125 L 49.675781 311.820312 L 53.945312 317.023438 L 58.414062 322.054688 L 63.082031 326.910156 L 67.933594 331.574219 L 72.964844 336.046875 L 78.167969 340.316406 L 83.535156 344.378906 L 89.058594 348.226562 L 94.730469 351.859375 L 100.535156 355.261719 L 106.472656 358.433594 L 112.53125 361.371094 L 118.695312 364.070312 L 124.964844 366.523438 L 131.324219 368.730469 L 137.765625 370.683594 L 144.28125 372.382812 L 150.855469 373.824219 L 157.480469 375.007812 L 164.152344 375.929688 L 170.847656 376.589844 L 177.570312 376.988281 L 184.300781 377.121094 "/>
</g>
<path style="fill:none;stroke-width:1.6;stroke-linecap:butt;stroke-linejoin:miter;stroke:rgb(0%,0%,100%);stroke-opacity:1;stroke-miterlimit:4;" d="M 252.871094 212.546875 L 253.140625 212.542969 L 253.410156 212.527344 L 253.675781 212.5 L 253.945312 212.464844 L 254.207031 212.414062 L 254.472656 212.359375 L 254.734375 212.289062 L 254.992188 212.210938 L 255.246094 212.125 L 255.496094 212.027344 L 255.742188 211.917969 L 255.984375 211.800781 L 256.222656 211.671875 L 256.453125 211.535156 L 256.679688 211.390625 L 256.902344 211.238281 L 257.117188 211.074219 L 257.324219 210.90625 L 257.527344 210.726562 L 257.71875 210.539062 L 257.90625 210.34375 L 258.085938 210.144531 L 258.257812 209.9375 L 258.417969 209.722656 L 258.574219 209.5 L 258.71875 209.273438 L 258.855469 209.039062 L 258.980469 208.804688 L 259.097656 208.5625 L 259.207031 208.3125 L 259.304688 208.0625 L 259.394531 207.808594 L 259.472656 207.550781 L 259.539062 207.292969 L 259.597656 207.027344 L 259.644531 206.761719 L 259.679688 206.496094 L 259.707031 206.230469 L 259.722656 205.960938 L 259.730469 205.691406 L 259.722656 205.421875 L 259.707031 205.152344 L 259.679688 204.886719 L 259.644531 204.617188 L 259.597656 204.351562 L 259.539062 204.089844 L 259.472656 203.828125 L 259.394531 203.570312 L 259.304688 203.316406 L 259.207031 203.066406 L 259.097656 202.820312 L 258.980469 202.578125 L 258.855469 202.339844 L 258.71875 202.105469 L 258.574219 201.878906 L 258.417969 201.660156 L 258.257812 201.445312 L 258.085938 201.238281 L 257.90625 201.035156 L 257.71875 200.839844 L 257.527344 200.65625 L 257.324219 200.476562 L 257.117188 200.304688 L 256.902344 200.144531 L 256.679688 199.988281 L 256.453125 199.84375 L 256.222656 199.707031 L 255.984375 199.582031 L 255.742188 199.464844 L 255.496094 199.355469 L 255.246094 199.257812 L 254.992188 199.167969 L 254.734375 199.089844 L 254.472656 199.023438 L 254.207031 198.964844 L 253.945312 198.917969 L 253.675781 198.878906 L 253.410156 198.855469 L 253.140625 198.839844 L 252.871094 198.832031 L 252.601562 198.839844 L 252.332031 198.855469 L 252.066406 198.878906 L 251.796875 198.917969 L 251.535156 198.964844 L 251.269531 199.023438 L 251.011719 199.089844 L 250.753906 199.167969 L 250.5 199.257812 L 250.246094 199.355469 L 250 199.464844 L 249.757812 199.582031 L 249.519531 199.707031 L 249.289062 199.84375 L 249.0625 199.988281 L 248.839844 200.144531 L 248.625 200.304688 L 248.417969 200.476562 L 248.21875 200.65625 L 248.023438 200.839844 L 247.835938 201.035156 L 247.65625 201.238281 L 247.488281 201.445312 L 247.324219 201.660156 L 247.167969 201.878906 L 247.023438 202.105469 L 246.890625 202.339844 L 246.761719 202.578125 L 246.644531 202.820312 L 246.535156 203.066406 L 246.4375 203.316406 L 246.347656 203.570312 L 246.273438 203.828125 L 246.203125 204.089844 L 246.144531 204.351562 L 246.097656 204.617188 L 246.0625 204.886719 L 246.035156 205.152344 L 246.019531 205.421875 L 246.015625 205.691406 L 246.019531 205.960938 L 246.035156 206.230469 L 246.0625 206.496094 L 246.097656 206.761719 L 246.144531 207.027344 L 246.203125 207.292969 L 246.273438 207.550781 L 246.347656 207.808594 L 246.4375 208.0625 L 246.535156 208.3125 L 246.644531 208.5625 L 246.761719 208.804688 L 246.890625 209.039062 L 247.023438 209.273438 L 247.167969 209.5 L 247.324219 209.722656 L 247.488281 209.9375 L 247.65625 210.144531 L 247.835938 210.34375 L 248.023438 210.539062 L 248.21875 210.726562 L 248.417969 210.90625 L 248.625 211.074219 L 248.839844 211.238281 L 249.0625 211.390625 L 249.289062 211.535156 L 249.519531 211.671875 L 249.757812 211.800781 L 250 211.917969 L 250.246094 212.027344 L 250.5 212.125 L 250.753906 212.210938 L 251.011719 212.289062 L 251.269531 212.359375 L 251.535156 212.414062 L 251.796875 212.464844 L 252.066406 212.5 L 252.332031 212.527344 L 252.601562 212.542969 L 252.871094 212.546875 "/>
<path style="fill:none;stroke-width:0.8;stroke-linecap:butt;stroke-linejoin:miter;stroke:rgb(50.195312%,50.195312%,50.195312%);stroke-opacity:1;stroke-dasharray:4,2.4,4,2.4;stroke-miterlimit:4;" d="M 353.824219 205.691406 L 262.394531 205.691406 "/>
<path style="fill:none;stroke-width:0.8;stroke-linecap:butt;stroke-linejoin:miter;stroke:rgb(50.195312%,50.195312%,50.195312%);stroke-opacity:1;stroke-dasharray:4,2.4,4,2.4;stroke-miterlimit:4;" d="M 243.347656 205.691406 L 14.777344 205.691406 "/>
<path style="fill:none;stroke-width:0.8;stroke-linecap:butt;stroke-linejoin:miter;stroke:rgb(50.195312%,50.195312%,50.195312%);stroke-opacity:1;stroke-dasharray:4,2.4,4,2.4;stroke-miterlimit:4;" d="M 184.300781 36.167969 L 184.300781 375.214844 "/>
<path style="fill:none;stroke-width:0.8;stroke-linecap:butt;stroke-linejoin:miter;stroke:rgb(50.195312%,50.195312%,50.195312%);stroke-opacity:1;stroke-dasharray:4,2.4,4,2.4;stroke-miterlimit:4;" d="M 259.652344 205.691406 L 246.089844 205.691406 "/>
<path style="fill:none;stroke-width:0.8;stroke-linecap:butt;stroke-linejoin:miter;stroke:rgb(50.195312%,50.195312%,50.195312%);stroke-opacity:1;stroke-dasharray:4,2.4,4,2.4;stroke-miterlimit:4;" d="M 252.871094 198.910156 L 252.871094 212.472656 "/>
<path style=" stroke:none;fill-rule:nonzero;fill:rgb(0%,0%,0%);fill-opacity:1;" d="M 13.414062 56.332031 L 13.34375 56.476562 L 13.246094 56.621094 L 13.152344 56.761719 L 13.054688 56.882812 L 12.984375 57.003906 L 12.886719 57.097656 L 12.792969 57.21875 L 12.71875 57.316406 L 12.527344 57.507812 L 12.429688 57.578125 L 12.359375 57.652344 L 12.261719 57.722656 L 12.167969 57.796875 L 12.070312 57.84375 L 12 57.914062 L 11.902344 57.964844 L 11.808594 58.011719 L 11.710938 58.058594 L 11.617188 58.105469 L 11.542969 58.132812 L 11.449219 58.15625 L 11.351562 58.203125 L 11.253906 58.226562 L 11.160156 58.25 L 11.0625 58.273438 L 10.96875 58.273438 L 10.871094 58.300781 L 10.488281 58.347656 C 10.199219 58.371094 9.984375 58.371094 9.984375 58.828125 C 9.984375 58.972656 10.101562 59.089844 10.296875 59.089844 C 10.941406 59.089844 11.6875 58.996094 12.335938 58.996094 C 13.128906 58.996094 13.96875 59.089844 14.734375 59.089844 C 14.878906 59.089844 15.191406 59.089844 15.191406 58.636719 C 15.191406 58.371094 14.976562 58.347656 14.808594 58.347656 C 14.253906 58.300781 13.679688 58.105469 13.679688 57.507812 C 13.679688 57.21875 13.824219 56.957031 14.015625 56.621094 L 15.839844 53.570312 L 21.816406 53.570312 L 21.742188 52.828125 L 16.296875 52.828125 L 21 44.957031 L 21.742188 52.828125 L 21.816406 53.570312 C 21.886719 54.074219 22.199219 57.316406 22.199219 57.554688 C 22.199219 58.273438 20.976562 58.347656 20.496094 58.347656 C 20.160156 58.347656 19.917969 58.347656 19.917969 58.828125 C 19.917969 59.089844 20.207031 59.089844 20.253906 59.089844 C 21.238281 59.089844 22.246094 58.996094 23.230469 58.996094 C 23.832031 58.996094 25.34375 59.089844 25.941406 59.089844 C 26.085938 59.089844 26.351562 59.089844 26.351562 58.613281 C 26.351562 58.347656 26.136719 58.347656 25.824219 58.347656 C 24.335938 58.347656 24.335938 58.179688 24.261719 57.484375 L 22.800781 42.578125 C 22.75 42.097656 22.75 42.003906 22.34375 42.003906 C 21.960938 42.003906 21.886719 42.171875 21.742188 42.410156 Z M 13.414062 56.332031 "/>
<path style=" stroke:none;fill-rule:nonzero;fill:rgb(0%,0%,0%);fill-opacity:1;" d="M 214.441406 172.847656 L 214.441406 172.871094 L 214.417969 172.921875 L 214.417969 172.992188 L 214.394531 173.066406 L 214.371094 173.136719 L 214.347656 173.210938 L 214.347656 173.304688 L 214.320312 173.378906 L 214.296875 173.449219 L 214.296875 173.472656 L 214.273438 173.519531 L 214.273438 173.617188 L 214.25 173.640625 L 214.25 173.738281 L 214.226562 173.761719 L 214.226562 173.882812 C 214.226562 174.289062 214.5625 174.503906 214.921875 174.503906 C 215.210938 174.503906 215.617188 174.3125 215.808594 173.855469 C 215.859375 173.761719 216.648438 170.519531 216.746094 170.089844 C 216.9375 169.296875 217.371094 167.617188 217.515625 166.96875 C 217.609375 166.679688 218.28125 165.554688 218.859375 165.023438 C 219.050781 164.855469 219.746094 164.234375 220.753906 164.234375 C 221.378906 164.234375 221.738281 164.519531 221.761719 164.519531 C 221.042969 164.640625 220.539062 165.21875 220.539062 165.839844 C 220.539062 166.226562 220.777344 166.679688 221.425781 166.679688 C 222.074219 166.679688 222.746094 166.128906 222.746094 165.265625 C 222.746094 164.425781 221.976562 163.703125 220.753906 163.703125 C 219.21875 163.703125 218.164062 164.882812 217.707031 165.554688 C 217.515625 164.472656 216.648438 163.703125 215.523438 163.703125 C 214.441406 163.703125 213.984375 164.640625 213.769531 165.074219 C 213.339844 165.890625 213.027344 167.304688 213.027344 167.378906 C 213.027344 167.617188 213.265625 167.617188 213.3125 167.617188 C 213.554688 167.617188 213.578125 167.59375 213.722656 167.089844 C 214.128906 165.386719 214.609375 164.234375 215.472656 164.234375 C 215.859375 164.234375 216.195312 164.425781 216.195312 165.335938 C 216.195312 165.839844 216.121094 166.105469 215.808594 167.328125 Z M 214.441406 172.847656 "/>
<path style=" stroke:none;fill-rule:nonzero;fill:rgb(0%,0%,0%);fill-opacity:1;" d="M 280.480469 244.859375 L 283 242.410156 C 286.71875 239.125 288.160156 237.828125 288.160156 235.453125 C 288.160156 232.714844 286 230.820312 283.09375 230.820312 C 280.40625 230.820312 278.632812 233.003906 278.632812 235.140625 C 278.632812 236.460938 279.832031 236.460938 279.902344 236.460938 C 280.3125 236.460938 281.128906 236.171875 281.128906 235.210938 C 281.128906 234.585938 280.695312 233.964844 279.878906 233.964844 C 279.6875 233.964844 279.640625 233.964844 279.566406 233.988281 C 280.117188 232.453125 281.390625 231.5625 282.78125 231.5625 C 284.96875 231.5625 285.976562 233.484375 285.976562 235.453125 C 285.976562 237.347656 284.800781 239.242188 283.480469 240.707031 L 278.894531 245.820312 C 278.632812 246.082031 278.632812 246.132812 278.632812 246.707031 L 287.488281 246.707031 L 288.160156 242.554688 L 287.558594 242.554688 C 287.4375 243.277344 287.269531 244.308594 287.03125 244.667969 C 286.863281 244.859375 285.304688 244.859375 284.773438 244.859375 Z M 280.480469 244.859375 "/>
<path style=" stroke:none;fill-rule:nonzero;fill:rgb(0%,0%,0%);fill-opacity:1;" d="M 298.285156 237.683594 L 298.261719 237.613281 L 298.214844 237.515625 L 298.167969 237.445312 L 298.117188 237.371094 L 298.070312 237.300781 L 298.023438 237.203125 L 297.976562 237.132812 L 297.925781 237.082031 L 297.878906 237.011719 L 297.808594 236.941406 L 297.757812 236.867188 L 297.6875 236.820312 L 297.640625 236.746094 L 297.566406 236.699219 L 297.496094 236.652344 L 297.445312 236.578125 L 297.304688 236.484375 L 297.230469 236.460938 L 297.160156 236.410156 L 297.085938 236.363281 L 296.992188 236.339844 L 296.917969 236.292969 L 296.847656 236.265625 L 296.75 236.242188 L 296.65625 236.21875 L 296.582031 236.195312 L 296.488281 236.195312 L 296.390625 236.171875 L 296.296875 236.171875 L 296.199219 236.148438 L 296.101562 236.148438 C 293.296875 236.148438 290.34375 239.675781 290.34375 243.132812 C 290.34375 245.386719 291.664062 246.949219 293.511719 246.949219 L 293.558594 246.445312 C 292.382812 246.445312 292.046875 245.125 292.046875 244.1875 C 292.046875 242.988281 292.816406 240.058594 293.367188 238.980469 C 294.085938 237.5625 295.167969 236.675781 296.128906 236.675781 C 297.6875 236.675781 298.023438 238.644531 298.023438 238.789062 C 298.023438 238.929688 297.976562 239.074219 297.949219 239.195312 L 296.75 243.851562 C 296.632812 244.285156 296.632812 244.332031 296.269531 244.738281 C 295.214844 246.058594 294.230469 246.445312 293.558594 246.445312 L 293.511719 246.949219 C 293.992188 246.949219 295.191406 246.875 296.632812 245.171875 C 296.824219 246.179688 297.640625 246.949219 298.792969 246.949219 C 299.632812 246.949219 300.183594 246.417969 300.566406 245.652344 C 300.976562 244.789062 301.285156 243.324219 301.285156 243.277344 C 301.285156 243.035156 301.070312 243.035156 301 243.035156 C 300.757812 243.035156 300.734375 243.132812 300.664062 243.46875 C 300.253906 245.027344 299.824219 246.445312 298.839844 246.445312 C 298.191406 246.445312 298.117188 245.820312 298.117188 245.339844 C 298.117188 244.8125 298.167969 244.621094 298.429688 243.5625 C 298.695312 242.578125 298.742188 242.339844 298.960938 241.425781 L 299.824219 238.089844 C 299.992188 237.417969 299.992188 237.371094 299.992188 237.277344 C 299.992188 236.867188 299.703125 236.628906 299.296875 236.628906 C 298.71875 236.628906 298.359375 237.15625 298.285156 237.683594 Z M 298.285156 237.683594 "/>
<path style="fill:none;stroke-width:0.8;stroke-linecap:butt;stroke-linejoin:miter;stroke:rgb(0%,0%,0%);stroke-opacity:1;stroke-miterlimit:4;" d="M 183.910156 204.964844 L 60.746094 87.398438 "/>
<path style="fill-rule:evenodd;fill:rgb(0%,0%,0%);fill-opacity:1;stroke-width:0.578684;stroke-linecap:butt;stroke-linejoin:miter;stroke:rgb(0%,0%,0%);stroke-opacity:1;stroke-miterlimit:4;" d="M 81.224763 15.389103 L 83.538942 13.074643 L 75.436943 15.390405 L 83.539222 17.703282 Z M 81.224763 15.389103 " transform="matrix(1,0.954546,-0.954546,1,0,0)"/>
<path style="fill:none;stroke-width:0.8;stroke-linecap:butt;stroke-linejoin:miter;stroke:rgb(0%,0%,0%);stroke-opacity:1;stroke-miterlimit:4;" d="M 183.910156 204.964844 L 35.554688 62.765625 L 0.00390625 62.765625 "/>
<path style="fill:none;stroke-width:0.8;stroke-linecap:butt;stroke-linejoin:miter;stroke:rgb(0%,0%,0%);stroke-opacity:1;stroke-miterlimit:4;" d="M 253.078125 205.601562 L 253.078125 175.910156 "/>
<path style="fill:none;stroke-width:0.8;stroke-linecap:butt;stroke-linejoin:miter;stroke:rgb(0%,0%,0%);stroke-opacity:1;stroke-miterlimit:4;" d="M 183.402344 182.640625 L 252.285156 182.640625 "/>
<path style="fill-rule:evenodd;fill:rgb(0%,0%,0%);fill-opacity:1;stroke-width:0.8;stroke-linecap:butt;stroke-linejoin:miter;stroke:rgb(0%,0%,0%);stroke-opacity:1;stroke-miterlimit:4;" d="M 191.402344 182.640625 L 194.605469 179.441406 L 183.402344 182.640625 L 194.605469 185.839844 Z M 191.402344 182.640625 "/>
<path style="fill-rule:evenodd;fill:rgb(0%,0%,0%);fill-opacity:1;stroke-width:0.8;stroke-linecap:butt;stroke-linejoin:miter;stroke:rgb(0%,0%,0%);stroke-opacity:1;stroke-miterlimit:4;" d="M -244.285156 -182.640625 L -241.085937 -185.839844 L -252.285156 -182.640625 L -241.085937 -179.441406 Z M -244.285156 -182.640625 " transform="matrix(-1,0.000000000000000122,-0.000000000000000122,-1,0,0)"/>
<path style="fill:none;stroke-width:0.8;stroke-linecap:butt;stroke-linejoin:miter;stroke:rgb(0%,0%,0%);stroke-opacity:1;stroke-miterlimit:4;" d="M 245.160156 205.601562 L 245.160156 254.6875 "/>
<path style="fill:none;stroke-width:0.8;stroke-linecap:butt;stroke-linejoin:miter;stroke:rgb(0%,0%,0%);stroke-opacity:1;stroke-miterlimit:4;" d="M 260.203125 205.601562 L 260.203125 254.6875 "/>
<path style="fill:none;stroke-width:0.8;stroke-linecap:butt;stroke-linejoin:miter;stroke:rgb(0%,0%,0%);stroke-opacity:1;stroke-miterlimit:4;" d="M 227.34375 250.335938 L 245.160156 250.335938 "/>
<path style="fill-rule:evenodd;fill:rgb(0%,0%,0%);fill-opacity:1;stroke-width:0.8;stroke-linecap:butt;stroke-linejoin:miter;stroke:rgb(0%,0%,0%);stroke-opacity:1;stroke-miterlimit:4;" d="M -237.160156 -250.335938 L -233.960937 -253.535156 L -245.160156 -250.335938 L -233.960937 -247.132813 Z M -237.160156 -250.335938 " transform="matrix(-1,0.000000000000000122,-0.000000000000000122,-1,0,0)"/>
<path style="fill:none;stroke-width:0.8;stroke-linecap:butt;stroke-linejoin:miter;stroke:rgb(0%,0%,0%);stroke-opacity:1;stroke-miterlimit:4;" d="M 304.339844 250.335938 L 261.191406 250.335938 "/>
<path style="fill-rule:evenodd;fill:rgb(0%,0%,0%);fill-opacity:1;stroke-width:0.8;stroke-linecap:butt;stroke-linejoin:miter;stroke:rgb(0%,0%,0%);stroke-opacity:1;stroke-miterlimit:4;" d="M 269.191406 250.335938 L 272.390625 247.132812 L 261.191406 250.335938 L 272.390625 253.535156 Z M 269.191406 250.335938 "/>
<path style="fill:none;stroke-width:0.8;stroke-linecap:butt;stroke-linejoin:miter;stroke:rgb(0%,0%,0%);stroke-opacity:1;stroke-miterlimit:4;" d="M 244.761719 250.335938 L 260.398438 250.335938 "/>
</g>
</svg>
