cl__1 = 1e+22;
Point(1) = {0, 0, 0, cl__1};
Point(2) = {170, 0, 0, cl__1};
Point(3) = {170, 0, 380, cl__1};
Point(4) = {90, 0, 380, cl__1};
Point(5) = {90, 0, 360, cl__1};
Point(6) = {130, 0, 360, cl__1};
Point(7) = {150, 0, 360, cl__1};
Point(8) = {150, 0, 20, cl__1};
Point(9) = {130, 0, 20, cl__1};
Point(10) = {90, 0, 20, cl__1};
Point(11) = {70, 0, 20, cl__1};
Point(12) = {10, 0, 20, cl__1};
Point(13) = {0, 0, 20, cl__1};
Point(14) = {170, 70, 0, cl__1};
Point(15) = {150, 70, 0, cl__1};
Point(16) = {150, 110, 0, cl__1};
Point(17) = {130, 110, 0, cl__1};
Point(18) = {130, 130, 0, cl__1};
Point(19) = {110, 130, 0, cl__1};
Point(20) = {110, 150, 0, cl__1};
Point(21) = {70, 150, 0, cl__1};
Point(22) = {70, 170, 0, cl__1};
Point(23) = {0, 170, 0, cl__1};
Point(24) = {170, 70, 380, cl__1};
Point(25) = {10, 10, 380, cl__1};
Point(26) = {10, 0, 380, cl__1};
Point(27) = {0, 10, 380, cl__1};
Point(28) = {0, 70, 380, cl__1};
Point(29) = {10, 70, 380, cl__1};
Point(30) = {10, 90, 380, cl__1};
Point(31) = {0, 90, 380, cl__1};
Point(32) = {0, 170, 380, cl__1};
Point(33) = {70, 170, 380, cl__1};
Point(34) = {70, 150, 380, cl__1};
Point(35) = {110, 150, 380, cl__1};
Point(36) = {110, 130, 380, cl__1};
Point(37) = {130, 130, 380, cl__1};
Point(38) = {130, 110, 380, cl__1};
Point(39) = {150, 110, 380, cl__1};
Point(40) = {150, 70, 380, cl__1};
Point(41) = {90, 10, 380, cl__1};
Point(42) = {70, 10, 380, cl__1};
Point(43) = {70, 0, 380, cl__1};
Point(44) = {30, 50, 380, cl__1};
Point(45) = {30, 30, 380, cl__1};
Point(46) = {50, 30, 380, cl__1};
Point(47) = {50, 50, 380, cl__1};
Point(48) = {70, 90, 380, cl__1};
Point(49) = {70, 70, 380, cl__1};
Point(50) = {90, 70, 380, cl__1};
Point(51) = {90, 90, 380, cl__1};
Point(52) = {90, 10, 360, cl__1};
Point(53) = {130, 30, 360, cl__1};
Point(54) = {110, 30, 360, cl__1};
Point(55) = {110, 70, 360, cl__1};
Point(56) = {90, 70, 360, cl__1};
Point(57) = {70, 70, 360, cl__1};
Point(58) = {70, 90, 360, cl__1};
Point(59) = {70, 110, 360, cl__1};
Point(60) = {30, 110, 360, cl__1};
Point(61) = {30, 130, 360, cl__1};
Point(62) = {0, 130, 360, cl__1};
Point(63) = {0, 90, 360, cl__1};
Point(64) = {10, 90, 360, cl__1};
Point(65) = {10, 70, 360, cl__1};
Point(66) = {0, 70, 360, cl__1};
Point(67) = {0, 10, 360, cl__1};
Point(68) = {10, 10, 360, cl__1};
Point(69) = {10, 0, 360, cl__1};
Point(70) = {70, 0, 360, cl__1};
Point(71) = {70, 10, 360, cl__1};
Point(72) = {30, 50, 360, cl__1};
Point(73) = {50, 50, 360, cl__1};
Point(74) = {50, 30, 360, cl__1};
Point(75) = {30, 30, 360, cl__1};
Point(76) = {150, 50, 360, cl__1};
Point(77) = {130, 50, 360, cl__1};
Point(78) = {130, 90, 360, cl__1};
Point(79) = {110, 90, 360, cl__1};
Point(80) = {110, 110, 360, cl__1};
Point(81) = {90, 110, 360, cl__1};
Point(82) = {90, 130, 360, cl__1};
Point(83) = {50, 130, 360, cl__1};
Point(84) = {50, 150, 360, cl__1};
Point(85) = {0, 150, 360, cl__1};
Point(86) = {90, 90, 360, cl__1};
Point(87) = {150, 50, 20, cl__1};
Point(88) = {130, 50, 20, cl__1};
Point(89) = {130, 90, 20, cl__1};
Point(90) = {110, 90, 20, cl__1};
Point(91) = {110, 110, 20, cl__1};
Point(92) = {90, 110, 20, cl__1};
Point(93) = {90, 130, 20, cl__1};
Point(94) = {50, 130, 20, cl__1};
Point(95) = {50, 150, 20, cl__1};
Point(96) = {0, 150, 20, cl__1};
Point(97) = {0, 130, 20, cl__1};
Point(98) = {30, 130, 20, cl__1};
Point(99) = {30, 110, 20, cl__1};
Point(100) = {70, 110, 20, cl__1};
Point(101) = {70, 90, 20, cl__1};
Point(102) = {90, 90, 20, cl__1};
Point(103) = {90, 70, 20, cl__1};
Point(104) = {110, 70, 20, cl__1};
Point(105) = {110, 30, 20, cl__1};
Point(106) = {130, 30, 20, cl__1};
Point(107) = {70, 70, 20, cl__1};
Point(108) = {0, 90, 20, cl__1};
Point(109) = {10, 90, 20, cl__1};
Point(110) = {10, 70, 20, cl__1};
Point(111) = {0, 70, 20, cl__1};
Point(112) = {0, 10, 20, cl__1};
Point(113) = {10, 10, 20, cl__1};
Point(114) = {70, 10, 20, cl__1};
Point(115) = {90, 10, 20, cl__1};
Point(116) = {50, 50, 280, cl__1};
Point(117) = {30, 50, 280, cl__1};
Point(118) = {50, 30, 280, cl__1};
Point(119) = {30, 30, 280, cl__1};
Point(120) = {0, 0, 360, cl__1};
Point(121) = {0, 0, 380, cl__1};
Line(1) = {1, 2};
Line(2) = {2, 3};
Line(3) = {4, 3};
Line(4) = {5, 4};
Line(5) = {6, 5};
Line(6) = {6, 7};
Line(7) = {8, 7};
Line(8) = {9, 8};
Line(9) = {9, 10};
Line(10) = {11, 10};
Line(11) = {11, 12};
Line(12) = {12, 13};
Line(13) = {1, 13};
Line(14) = {2, 14};
Line(15) = {14, 15};
Line(16) = {15, 16};
Line(17) = {16, 17};
Line(18) = {17, 18};
Line(19) = {18, 19};
Line(20) = {19, 20};
Line(21) = {20, 21};
Line(22) = {21, 22};
Line(23) = {22, 23};
Line(24) = {23, 1};
Line(25) = {14, 24};
Line(26) = {3, 24};
Line(27) = {26, 25};
Line(28) = {27, 25};
Line(29) = {28, 27};
Line(30) = {28, 29};
Line(31) = {29, 30};
Line(32) = {31, 30};
Line(33) = {32, 31};
Line(34) = {33, 32};
Line(35) = {34, 33};
Line(36) = {35, 34};
Line(37) = {36, 35};
Line(38) = {37, 36};
Line(39) = {38, 37};
Line(40) = {39, 38};
Line(41) = {40, 39};
Line(42) = {24, 40};
Line(43) = {4, 41};
Line(44) = {42, 41};
Line(45) = {43, 42};
Line(46) = {26, 43};
Line(47) = {45, 44};
Line(48) = {45, 46};
Line(49) = {46, 47};
Line(50) = {44, 47};
Line(51) = {49, 48};
Line(52) = {49, 50};
Line(53) = {50, 51};
Line(54) = {48, 51};
Line(55) = {52, 41};
Line(56) = {52, 5};
Line(57) = {53, 6};
Line(58) = {54, 53};
Line(59) = {55, 54};
Line(60) = {56, 55};
Line(61) = {57, 56};
Line(62) = {58, 57};
Line(63) = {59, 58};
Line(64) = {60, 59};
Line(65) = {61, 60};
Line(66) = {62, 61};
Line(67) = {63, 62};
Line(68) = {63, 64};
Line(69) = {64, 65};
Line(70) = {66, 65};
Line(71) = {67, 66};
Line(72) = {67, 68};
Line(73) = {68, 69};
Line(74) = {70, 69};
Line(75) = {71, 70};
Line(76) = {71, 52};
Line(77) = {72, 73};
Line(78) = {73, 74};
Line(79) = {75, 74};
Line(80) = {72, 75};
Line(81) = {7, 76};
Line(82) = {76, 77};
Line(83) = {77, 78};
Line(84) = {78, 79};
Line(85) = {79, 80};
Line(86) = {80, 81};
Line(87) = {81, 82};
Line(88) = {82, 83};
Line(89) = {83, 84};
Line(90) = {84, 85};
Line(91) = {85, 62};
Line(92) = {58, 86};
Line(93) = {86, 56};
Line(94) = {87, 76};
Line(95) = {8, 87};
Line(96) = {87, 88};
Line(97) = {88, 89};
Line(98) = {89, 90};
Line(99) = {90, 91};
Line(100) = {91, 92};
Line(101) = {92, 93};
Line(102) = {93, 94};
Line(103) = {94, 95};
Line(104) = {95, 96};
Line(105) = {96, 97};
Line(106) = {97, 98};
Line(107) = {98, 99};
Line(108) = {99, 100};
Line(109) = {100, 101};
Line(110) = {101, 102};
Line(111) = {102, 103};
Line(112) = {103, 104};
Line(113) = {104, 105};
Line(114) = {105, 106};
Line(115) = {106, 9};
Line(116) = {107, 103};
Line(117) = {107, 101};
Line(118) = {108, 97};
Line(119) = {108, 109};
Line(120) = {110, 109};
Line(121) = {111, 110};
Line(122) = {112, 111};
Line(123) = {112, 113};
Line(124) = {12, 113};
Line(125) = {11, 114};
Line(126) = {114, 115};
Line(127) = {10, 115};
Line(128) = {13, 112};
Line(129) = {111, 108};
Line(130) = {96, 85};
Line(131) = {63, 31};
Line(132) = {23, 32};
Line(133) = {15, 40};
Line(134) = {16, 39};
Line(135) = {17, 38};
Line(136) = {18, 37};
Line(137) = {19, 36};
Line(138) = {20, 35};
Line(139) = {21, 34};
Line(140) = {22, 33};
Line(141) = {69, 26};
Line(142) = {68, 25};
Line(143) = {67, 27};
Line(144) = {66, 28};
Line(145) = {65, 29};
Line(146) = {64, 30};
Line(147) = {71, 42};
Line(148) = {70, 43};
Line(149) = {75, 45};
Line(150) = {72, 44};
Line(151) = {74, 46};
Line(152) = {73, 47};
Line(153) = {57, 49};
Line(154) = {58, 48};
Line(155) = {56, 50};
Line(156) = {86, 51};
Line(157) = {88, 77};
Line(158) = {89, 78};
Line(159) = {90, 79};
Line(160) = {91, 80};
Line(161) = {92, 81};
Line(162) = {93, 82};
Line(163) = {94, 83};
Line(164) = {95, 84};
Line(165) = {43, 4};
Line(166) = {5, 70};
Line(167) = {9, 6};
Line(168) = {10, 5};
Line(169) = {106, 53};
Line(170) = {115, 52};
Line(171) = {105, 54};
Line(172) = {104, 55};
Line(173) = {103, 56};
Line(174) = {107, 57};
Line(175) = {101, 58};
Line(176) = {100, 59};
Line(177) = {99, 60};
Line(178) = {98, 61};
Line(179) = {97, 62};
Line(180) = {108, 63};
Line(181) = {109, 64};
Line(182) = {110, 65};
Line(183) = {111, 66};
Line(184) = {112, 67};
Line(185) = {113, 68};
Line(186) = {12, 69};
Line(187) = {11, 70};
Line(188) = {114, 71};
Line(189) = {116, 73};
Line(190) = {117, 72};
Line(191) = {117, 116};
Line(192) = {118, 74};
Line(193) = {118, 116};
Line(194) = {119, 75};
Line(195) = {119, 118};
Line(196) = {119, 117};
Line(197) = {69, 120};
Line(198) = {13, 120};
Line(199) = {120, 67};
Line(200) = {27, 121};
Line(201) = {121, 26};
Line(202) = {120, 121};
Line(203) = {28, 31};
Line(204) = {66, 63};
Line(205) = {102, 86};
Curve Loop(1) = {-1, 13, -12, -11, 10, -9, 8, 7, -6, 5, 4, 3, -2};
Plane Surface(1) = {1};
Curve Loop(2) = {1, 14, 15, 16, 17, 18, 19, 20, 21, 22, 23, 24};
Plane Surface(2) = {2};
Curve Loop(3) = {2, 26, -25, -14};
Plane Surface(3) = {3};
Curve Loop(4) = {-27, 46, 45, 44, -43, 3, 26, 42, 41, 40, 39, 38, 37, 36, 35, 34, 33, 32, -31, -30, 29, 28, 47, 50, -49, -48, 51, 54, -53, -52};
Plane Surface(4) = {4};
Curve Loop(5) = {-4, -56, 55, -43};
Plane Surface(5) = {5};
Curve Loop(6) = {57, 5, -56, -76, 75, 74, -73, -72, 71, 70, -69, -68, 67, 66, 65, 64, 63, 62, 61, 60, 59, 58, -77, 80, 79, -78};
Plane Surface(6) = {6};
Curve Loop(7) = {81, 82, 83, 84, 85, 86, 87, 88, 89, 90, 91, 66, 65, 64, 63, 92, 93, 60, 59, 58, 57, 6};
Plane Surface(7) = {7};
Curve Loop(8) = {7, 81, -94, -95};
Plane Surface(8) = {8};
Curve Loop(9) = {95, 96, 97, 98, 99, 100, 101, 102, 103, 104, 105, 106, 107, 108, 109, 110, 111, 112, 113, 114, 115, 8};
Plane Surface(9) = {9};
Curve Loop(10) = {115, 9, 127, -126, -125, 11, 124, -123, 122, 121, 120, -119, 118, 106, 107, 108, 109, -117, 116, 112, 113, 114};
Plane Surface(10) = {10};
Curve Loop(11) = {-125, 10, 127, -126};
Plane Surface(11) = {11};
Curve Loop(12) = {-124, 12, 128, 123};
Plane Surface(12) = {12};
Curve Loop(13) = {-24, 132, 33, -131, 67, -91, -130, 105, -118, -129, -122, -128, -13};
Plane Surface(13) = {13};
Curve Loop(14) = {25, 42, -133, -15};
Plane Surface(14) = {14};
Curve Loop(15) = {133, 41, -134, -16};
Plane Surface(15) = {15};
Curve Loop(16) = {134, 40, -135, -17};
Plane Surface(16) = {16};
Curve Loop(17) = {135, 39, -136, -18};
Plane Surface(17) = {17};
Curve Loop(18) = {136, 38, -137, -19};
Plane Surface(18) = {18};
Curve Loop(19) = {137, 37, -138, -20};
Plane Surface(19) = {19};
Curve Loop(20) = {138, 36, -139, -21};
Plane Surface(20) = {20};
Curve Loop(21) = {139, 35, -140, -22};
Plane Surface(21) = {21};
Curve Loop(22) = {140, 34, -132, -23};
Plane Surface(22) = {22};
Curve Loop(23) = {-141, -73, 142, -27};
Plane Surface(23) = {23};
Curve Loop(24) = {-142, -72, 143, 28};
Plane Surface(24) = {24};
Curve Loop(25) = {144, 29, -143, 71};
Plane Surface(25) = {25};
Curve Loop(26) = {-145, -70, 144, 30};
Plane Surface(26) = {26};
Curve Loop(27) = {-145, -69, 146, -31};
Plane Surface(27) = {27};
Curve Loop(28) = {-146, -68, 131, 32};
Plane Surface(28) = {28};
Curve Loop(29) = {-55, -76, 147, 44};
Plane Surface(29) = {29};
Curve Loop(30) = {-148, -75, 147, -45};
Plane Surface(30) = {30};
Curve Loop(31) = {74, 141, 46, -148};
Plane Surface(31) = {31};
Curve Loop(32) = {-149, -80, 150, -47};
Plane Surface(32) = {32};
Curve Loop(33) = {-151, -79, 149, 48};
Plane Surface(33) = {33};
Curve Loop(34) = {-151, -78, 152, -49};
Plane Surface(34) = {34};
Curve Loop(35) = {-152, -77, 150, 50};
Plane Surface(35) = {35};
Curve Loop(36) = {-153, -62, 154, -51};
Plane Surface(36) = {36};
Curve Loop(37) = {-61, 153, 52, -155};
Plane Surface(37) = {37};
Curve Loop(38) = {-155, -93, 156, -53};
Plane Surface(38) = {38};
Curve Loop(39) = {-92, 154, 54, -156};
Plane Surface(39) = {39};
Curve Loop(40) = {94, 82, -157, -96};
Plane Surface(40) = {40};
Curve Loop(41) = {157, 83, -158, -97};
Plane Surface(41) = {41};
Curve Loop(42) = {158, 84, -159, -98};
Plane Surface(42) = {42};
Curve Loop(43) = {159, 85, -160, -99};
Plane Surface(43) = {43};
Curve Loop(44) = {160, 86, -161, -100};
Plane Surface(44) = {44};
Curve Loop(45) = {161, 87, -162, -101};
Plane Surface(45) = {45};
Curve Loop(46) = {162, 88, -163, -102};
Plane Surface(46) = {46};
Curve Loop(47) = {163, 89, -164, -103};
Plane Surface(47) = {47};
Curve Loop(48) = {164, 90, -130, -104};
Plane Surface(48) = {48};
Curve Loop(49) = {111, -116, 117, 110};
Plane Surface(49) = {49};
Curve Loop(50) = {-129, 121, 120, -119};
Plane Surface(50) = {50};
Curve Loop(51) = {165, -4, 166, 148};
Plane Surface(51) = {51};
Curve Loop(52) = {-45, 165, 43, -44};
Plane Surface(52) = {52};
Curve Loop(53) = {56, 166, -75, 76};
Plane Surface(53) = {53};
Curve Loop(54) = {9, 168, -5, -167};
Plane Surface(54) = {54};
Curve Loop(55) = {169, 57, -167, -115};
Plane Surface(55) = {55};
Curve Loop(56) = {-168, 127, 170, 56};
Plane Surface(56) = {56};
Curve Loop(57) = {171, 58, -169, -114};
Plane Surface(57) = {57};
Curve Loop(58) = {172, 59, -171, -113};
Plane Surface(58) = {58};
Curve Loop(59) = {173, 60, -172, -112};
Plane Surface(59) = {59};
Curve Loop(60) = {-116, 174, 61, -173};
Plane Surface(60) = {60};
Curve Loop(61) = {-174, 117, 175, 62};
Plane Surface(61) = {61};
Curve Loop(62) = {176, 63, -175, -109};
Plane Surface(62) = {62};
Curve Loop(63) = {177, 64, -176, -108};
Plane Surface(63) = {63};
Curve Loop(64) = {178, 65, -177, -107};
Plane Surface(64) = {64};
Curve Loop(65) = {179, 66, -178, -106};
Plane Surface(65) = {65};
Curve Loop(66) = {-67, -180, 118, 179};
Plane Surface(66) = {66};
Curve Loop(67) = {-181, -119, 180, 68};
Plane Surface(67) = {67};
Curve Loop(68) = {-182, 120, 181, 69};
Plane Surface(68) = {68};
Curve Loop(69) = {-182, -121, 183, 70};
Plane Surface(69) = {69};
Curve Loop(70) = {-184, 122, 183, -71};
Plane Surface(70) = {70};
Curve Loop(71) = {-185, -123, 184, 72};
Plane Surface(71) = {71};
Curve Loop(72) = {-186, 124, 185, 73};
Plane Surface(72) = {72};
Curve Loop(73) = {11, 186, -74, -187};
Plane Surface(73) = {73};
Curve Loop(74) = {-187, 125, 188, 75};
Plane Surface(74) = {74};
Curve Loop(75) = {-170, -126, 188, 76};
Plane Surface(75) = {75};
Curve Loop(76) = {-189, -191, 190, 77};
Plane Surface(76) = {76};
Curve Loop(77) = {-192, 193, 189, 78};
Plane Surface(77) = {77};
Curve Loop(78) = {-192, -195, 194, 79};
Plane Surface(78) = {78};
Curve Loop(79) = {-194, 196, 190, 80};
Plane Surface(79) = {79};
Curve Loop(80) = {-196, 195, 193, -191};
Plane Surface(80) = {80};
Curve Loop(81) = {-10, 187, -166, -168};
Plane Surface(81) = {81};
Curve Loop(82) = {12, 198, -197, -186};
Plane Surface(82) = {82};
Curve Loop(83) = {73, 197, 199, 72};
Plane Surface(83) = {83};
Curve Loop(84) = {-198, 128, 184, -199};
Plane Surface(84) = {84};
Curve Loop(85) = {200, 201, 27, -28};
Plane Surface(85) = {85};
Curve Loop(86) = {-202, 199, 143, 200};
Plane Surface(86) = {86};
Curve Loop(87) = {197, 202, 201, -141};
Plane Surface(87) = {87};
Curve Loop(88) = {-203, 30, 31, -32};
Plane Surface(88) = {88};
Curve Loop(89) = {131, -203, -144, 204};
Plane Surface(89) = {89};
Curve Loop(90) = {-70, 204, 68, 69};
Plane Surface(90) = {90};
Curve Loop(91) = {-47, 48, 49, -50};
Plane Surface(91) = {91};
Curve Loop(92) = {-80, 77, 78, -79};
Plane Surface(92) = {92};
Curve Loop(93) = {-51, 52, 53, -54};
Plane Surface(93) = {93};
Curve Loop(94) = {93, -61, -62, 92};
Plane Surface(94) = {94};
Curve Loop(95) = {205, 93, -173, -111};
Plane Surface(95) = {95};
Curve Loop(96) = {175, 92, -205, -110};
Plane Surface(96) = {96};
Curve Loop(97) = {180, -204, -183, 129};
Plane Surface(97) = {97};
Curve Loop(98) = {91, -179, -105, 130};
Plane Surface(98) = {98};
Curve Loop(99) = {-8, 167, 6, -7};
Plane Surface(99) = {99};
Surface Loop(2) = {8, 40, 41, 42, 43, 44, 45, 46, 47, 48, 98, 65, 64, 63, 62, 96, 95, 59, 58, 57, 55, 99, 9, 7};
Volume(2) = {2};
Surface Loop(3) = {1, 2, 3, 4, 5, 6, 7, 8, 9, 10, 11, 12, 13, 14, 15, 16, 17, 18, 19, 20, 21, 22, 23, 24, 25, 26, 27, 28, 29, 30, 31, 32, 33, 34, 35, 36, 37, 38, 39, 40, 41, 42, 43, 44, 45, 46, 47, 48, 49, 50};
Volume(3) = {3};
Surface Loop(4) = {51, 52, 30, 53, 5, 29};
Volume(4) = {4};
Surface Loop(5) = {54, 10, 55, 6, 56, 57, 58, 59, 60, 61, 62, 63, 64, 65, 66, 67, 68, 69, 70, 71, 72, 73, 74, 75, 76, 77, 78, 79, 80};
Volume(5) = {5};
Surface Loop(6) = {81, 11, 56, 53, 74, 75};
Volume(6) = {6};
Surface Loop(7) = {82, 12, 72, 83, 84, 71};
Volume(7) = {7};
Surface Loop(8) = {85, 86, 24, 23, 87, 83};
Volume(8) = {8};
Surface Loop(9) = {88, 89, 28, 27, 26, 90};
Volume(9) = {9};
Surface Loop(10) = {91, 32, 35, 34, 33, 92};
Volume(10) = {10};
Surface Loop(11) = {93, 36, 39, 38, 37, 94};
Volume(11) = {11};
Surface Loop(12) = {94, 95, 96, 61, 60, 49};
Volume(12) = {12};
Surface Loop(13) = {67, 68, 90, 97, 50, 69};
Volume(13) = {13};
Surface Loop(14) = {92, 79, 78, 77, 76, 80};
Volume(14) = {14};
